<svg width="360" height="371" viewBox="0 0 360 371" fill="none" xmlns="http://www.w3.org/2000/svg">
<path d="M0 1H360V371H0V1Z" fill="white"/>
<path d="M143.374 319C143.334 319 143.315 318.98 143.315 318.941V318.766C143.315 318.727 143.334 318.707 143.374 318.707H143.549C143.969 318.707 144.335 318.619 144.648 318.443C144.775 318.37 144.88 318.258 144.963 318.106C145.046 317.95 145.087 317.777 145.087 317.586V309.837C145.087 309.535 144.892 309.303 144.501 309.142C144.228 309.024 143.938 308.966 143.63 308.966H143.469C143.43 308.966 143.41 308.946 143.41 308.907V308.731C143.41 308.692 143.43 308.673 143.469 308.673H148.427C148.466 308.673 148.486 308.692 148.486 308.731V308.907C148.486 308.946 148.466 308.966 148.427 308.966H148.112C147.609 308.966 147.165 309.037 146.779 309.178C146.667 309.217 146.594 309.283 146.56 309.376C146.53 309.464 146.516 309.618 146.516 309.837V317.96C146.525 318.043 146.569 318.121 146.647 318.194C146.726 318.268 146.813 318.304 146.911 318.304H149.804C150.239 318.304 150.666 318.048 151.086 317.535C151.198 317.398 151.337 317.218 151.503 316.993C151.669 316.764 151.772 316.634 151.811 316.605C151.967 316.488 152.045 316.49 152.045 316.612C152.045 316.642 152.038 316.671 152.023 316.7L150.917 318.868C150.874 318.956 150.822 319 150.764 319H143.374ZM153.796 315.14C153.713 315.14 153.671 315.318 153.671 315.675C153.671 316.432 153.896 317.066 154.345 317.579C154.794 318.092 155.351 318.348 156.015 318.348C156.684 318.348 157.326 318.06 157.941 317.484C157.951 317.474 157.963 317.469 157.978 317.469H158.015C158.044 317.469 158.071 317.494 158.095 317.542C158.125 317.586 158.151 317.616 158.176 317.63C157.609 318.319 156.943 318.795 156.176 319.059C155.913 319.151 155.615 319.198 155.283 319.198C154.951 319.198 154.614 319.107 154.272 318.927C153.93 318.741 153.637 318.5 153.393 318.202C152.875 317.582 152.617 316.81 152.617 315.887C152.617 314.959 152.897 314.115 153.459 313.353C154.025 312.591 154.802 312.21 155.788 312.21C156.496 312.21 157.075 312.528 157.524 313.163C157.973 313.792 158.198 314.347 158.198 314.825C158.198 315.035 158.146 315.14 158.044 315.14H153.796ZM153.876 314.437C153.876 314.53 153.92 314.576 154.008 314.576H156.77C156.896 314.576 156.96 314.5 156.96 314.349C156.96 313.998 156.801 313.639 156.484 313.272C156.171 312.901 155.827 312.716 155.451 312.716C155.085 312.716 154.75 312.882 154.448 313.214C154.15 313.546 153.959 313.924 153.876 314.349V314.437ZM163.955 317.792C163.955 317.918 164.013 318.021 164.13 318.099C164.252 318.172 164.392 318.209 164.548 318.209C164.704 318.209 164.833 318.17 164.936 318.092C165.043 318.009 165.117 317.967 165.156 317.967C165.195 317.967 165.214 318.021 165.214 318.128C165.214 318.231 165.166 318.319 165.068 318.392C164.335 318.929 163.84 319.198 163.581 319.198C163.269 319.198 163.015 318.873 162.819 318.224C162.805 318.175 162.792 318.153 162.783 318.158C162.177 318.612 161.796 318.885 161.64 318.978C161.24 319.208 160.837 319.244 160.432 319.088C160.031 318.932 159.741 318.673 159.56 318.312C159.472 318.126 159.428 317.928 159.428 317.718C159.428 317.303 159.582 316.974 159.89 316.729C160.197 316.485 160.783 316.251 161.647 316.026C161.94 315.948 162.202 315.848 162.431 315.726C162.661 315.604 162.78 315.526 162.79 315.492C162.805 315.458 162.812 315.426 162.812 315.396V313.99C162.812 313.438 162.597 313.05 162.167 312.826C162.026 312.752 161.855 312.716 161.655 312.716C161.459 312.716 161.259 312.794 161.054 312.95C160.854 313.106 160.754 313.329 160.754 313.617L160.791 313.902C160.761 313.961 160.585 314.059 160.263 314.195C159.941 314.332 159.755 314.405 159.707 314.415C159.628 314.415 159.589 314.322 159.589 314.137C159.589 313.946 159.646 313.736 159.758 313.507C159.87 313.277 160.029 313.067 160.234 312.877C160.712 312.433 161.259 312.21 161.875 312.21C162.49 312.21 162.99 312.381 163.376 312.723C163.762 313.06 163.955 313.463 163.955 313.932V317.792ZM160.578 317.579C160.578 317.813 160.668 318.019 160.849 318.194C161.03 318.365 161.235 318.451 161.464 318.451C161.699 318.451 161.982 318.353 162.314 318.158C162.646 317.958 162.812 317.752 162.812 317.542V316.056C162.812 316.002 162.8 315.975 162.775 315.975C162.751 315.975 162.734 315.978 162.724 315.982L161.025 316.773C160.849 316.9 160.729 317.008 160.666 317.096C160.607 317.184 160.578 317.345 160.578 317.579ZM170.371 313.749C170.312 313.739 170.227 313.707 170.114 313.653C169.709 313.468 169.392 313.375 169.162 313.375C168.933 313.375 168.691 313.519 168.437 313.807C168.188 314.09 168.063 314.347 168.063 314.576V317.887C168.063 318.253 168.276 318.497 168.701 318.619C168.886 318.668 169.06 318.705 169.221 318.729C169.382 318.749 169.484 318.768 169.528 318.788C169.577 318.807 169.602 318.846 169.602 318.905C169.602 318.958 169.577 318.99 169.528 319H165.859C165.81 318.99 165.786 318.956 165.786 318.897C165.786 318.81 165.9 318.751 166.13 318.722C166.657 318.644 166.921 318.365 166.921 317.887V314.012C166.921 313.807 166.809 313.666 166.584 313.587C166.486 313.553 166.381 313.526 166.269 313.507C166.157 313.482 166.066 313.46 165.998 313.441C165.935 313.421 165.893 313.404 165.874 313.39C165.859 313.37 165.852 313.333 165.852 313.28C165.852 313.221 165.888 313.172 165.961 313.133L167.829 312.254C167.888 312.225 167.924 312.21 167.939 312.21C168.022 312.21 168.063 312.269 168.063 312.386V313.573C168.063 313.631 168.078 313.661 168.107 313.661C168.146 313.661 168.247 313.546 168.408 313.316C168.872 312.667 169.255 312.342 169.558 312.342C169.729 312.342 169.99 312.411 170.341 312.547C170.698 312.684 170.876 312.799 170.876 312.892C170.876 313.004 170.82 313.175 170.708 313.404C170.595 313.634 170.483 313.749 170.371 313.749ZM176.772 316.693L176.757 315.147C176.757 314.518 176.704 314.076 176.596 313.822C176.489 313.568 176.352 313.377 176.186 313.25C176.02 313.119 175.795 313.053 175.512 313.053C175.234 313.053 174.641 313.272 173.732 313.712C173.61 313.785 173.547 313.854 173.542 313.917V317.857C173.542 318.351 173.806 318.634 174.333 318.707C174.562 318.741 174.677 318.797 174.677 318.875C174.677 318.949 174.653 318.99 174.604 319H171.337C171.289 318.99 171.264 318.956 171.264 318.897C171.264 318.805 171.379 318.741 171.608 318.707C172.136 318.634 172.399 318.351 172.399 317.857V313.653C172.399 313.448 172.287 313.307 172.062 313.229C171.965 313.194 171.86 313.167 171.748 313.148C171.635 313.124 171.545 313.102 171.477 313.082C171.413 313.062 171.372 313.045 171.352 313.031C171.337 313.011 171.33 312.975 171.33 312.921C171.33 312.862 171.367 312.813 171.44 312.774L173.308 311.896C173.366 311.866 173.403 311.852 173.417 311.852C173.5 311.852 173.542 311.91 173.542 312.027V313.17C173.557 313.219 173.576 313.243 173.601 313.243C173.63 313.243 173.735 313.199 173.916 313.111C174.335 312.901 174.758 312.699 175.183 312.503C175.607 312.308 175.959 312.21 176.237 312.21C177.365 312.21 177.929 313.238 177.929 315.294L177.863 317.433V317.857C177.863 318.238 178.054 318.487 178.435 318.604C178.596 318.658 178.75 318.697 178.896 318.722C179.047 318.741 179.145 318.761 179.189 318.78C179.238 318.8 179.262 318.839 179.262 318.897C179.262 318.956 179.238 318.99 179.189 319H175.659C175.61 318.99 175.585 318.956 175.585 318.897C175.585 318.805 175.7 318.741 175.93 318.707C176.452 318.634 176.713 318.331 176.713 317.799C176.752 317.555 176.772 317.186 176.772 316.693ZM187.106 318.707C187.136 318.707 187.15 318.727 187.15 318.766V318.941C187.15 318.98 187.136 319 187.106 319H183.686C183.647 319 183.627 318.98 183.627 318.941V318.766C183.627 318.727 183.647 318.707 183.686 318.707C184.487 318.707 184.921 318.363 184.99 317.674C185.009 317.474 185.029 317.142 185.048 316.678C185.073 316.209 185.139 315.206 185.246 313.668C185.354 312.125 185.407 310.877 185.407 309.925V309.654C185.407 309.459 185.295 309.295 185.07 309.164C184.851 309.032 184.689 308.966 184.587 308.966C184.484 308.966 184.433 308.946 184.433 308.907V308.731C184.433 308.692 184.453 308.673 184.492 308.673H186.608C186.701 308.688 186.777 308.741 186.835 308.834L190.271 316.488C190.295 316.522 190.314 316.551 190.329 316.576C190.344 316.6 190.38 316.612 190.439 316.612C190.498 316.607 190.542 316.563 190.571 316.48L193.969 308.966C194.072 308.771 194.165 308.673 194.248 308.673H196.379C196.418 308.673 196.438 308.692 196.438 308.731V308.907C196.438 308.946 196.425 308.966 196.401 308.966C196.254 308.966 196.074 309.015 195.859 309.112C195.532 309.259 195.368 309.476 195.368 309.764L195.808 317.857C195.817 318.111 195.949 318.316 196.203 318.473C196.457 318.629 196.789 318.707 197.199 318.707C197.238 318.707 197.258 318.727 197.258 318.766V318.941C197.258 318.98 197.238 319 197.199 319H193.039C193 319 192.98 318.98 192.98 318.941V318.766C192.98 318.727 193 318.707 193.039 318.707C193.913 318.707 194.35 318.495 194.35 318.07L193.962 311.075C193.957 311.026 193.942 311.002 193.918 311.002C193.898 311.002 193.881 311.024 193.867 311.068L190.227 318.949C190.207 318.983 190.151 319 190.058 319C189.965 319 189.912 318.98 189.897 318.941L186.308 311.046C186.279 310.978 186.25 310.943 186.22 310.943C186.196 310.943 186.184 310.997 186.184 311.104C186.184 311.329 186.125 312.389 186.008 314.283C185.891 316.178 185.832 317.359 185.832 317.828V318.128C185.891 318.407 186.167 318.587 186.66 318.67C186.801 318.695 186.95 318.707 187.106 318.707ZM198.122 315.711C198.122 314.75 198.461 313.924 199.14 313.236C199.824 312.542 200.642 312.196 201.594 312.196C202.546 312.196 203.374 312.533 204.077 313.207C204.78 313.875 205.131 314.703 205.131 315.689C205.131 316.676 204.797 317.508 204.128 318.187C203.464 318.861 202.629 319.198 201.623 319.198C200.617 319.198 199.782 318.856 199.118 318.172C198.454 317.489 198.122 316.668 198.122 315.711ZM199.946 317.594C200.424 318.399 201.076 318.802 201.901 318.802C202.541 318.802 203.029 318.546 203.366 318.033C203.708 317.521 203.879 316.891 203.879 316.144C203.879 315.396 203.64 314.63 203.161 313.844C202.688 313.058 202.048 312.665 201.242 312.665C200.651 312.665 200.185 312.921 199.843 313.434C199.506 313.941 199.338 314.588 199.338 315.375C199.338 316.156 199.541 316.896 199.946 317.594ZM210.654 313.749C210.595 313.739 210.51 313.707 210.397 313.653C209.992 313.468 209.675 313.375 209.445 313.375C209.216 313.375 208.974 313.519 208.72 313.807C208.471 314.09 208.347 314.347 208.347 314.576V317.887C208.347 318.253 208.559 318.497 208.984 318.619C209.169 318.668 209.343 318.705 209.504 318.729C209.665 318.749 209.768 318.768 209.812 318.788C209.86 318.807 209.885 318.846 209.885 318.905C209.885 318.958 209.86 318.99 209.812 319H206.142C206.093 318.99 206.069 318.956 206.069 318.897C206.069 318.81 206.184 318.751 206.413 318.722C206.94 318.644 207.204 318.365 207.204 317.887V314.012C207.204 313.807 207.092 313.666 206.867 313.587C206.77 313.553 206.665 313.526 206.552 313.507C206.44 313.482 206.35 313.46 206.281 313.441C206.218 313.421 206.176 313.404 206.157 313.39C206.142 313.37 206.135 313.333 206.135 313.28C206.135 313.221 206.171 313.172 206.245 313.133L208.112 312.254C208.171 312.225 208.208 312.21 208.222 312.21C208.305 312.21 208.347 312.269 208.347 312.386V313.573C208.347 313.631 208.361 313.661 208.391 313.661C208.43 313.661 208.53 313.546 208.691 313.316C209.155 312.667 209.538 312.342 209.841 312.342C210.012 312.342 210.273 312.411 210.625 312.547C210.981 312.684 211.159 312.799 211.159 312.892C211.159 313.004 211.103 313.175 210.991 313.404C210.878 313.634 210.766 313.749 210.654 313.749ZM212.858 315.14C212.775 315.14 212.734 315.318 212.734 315.675C212.734 316.432 212.958 317.066 213.408 317.579C213.857 318.092 214.414 318.348 215.078 318.348C215.747 318.348 216.389 318.06 217.004 317.484C217.014 317.474 217.026 317.469 217.041 317.469H217.077C217.106 317.469 217.133 317.494 217.158 317.542C217.187 317.586 217.214 317.616 217.238 317.63C216.672 318.319 216.005 318.795 215.239 319.059C214.975 319.151 214.677 319.198 214.345 319.198C214.013 319.198 213.676 319.107 213.334 318.927C212.993 318.741 212.7 318.5 212.456 318.202C211.938 317.582 211.679 316.81 211.679 315.887C211.679 314.959 211.96 314.115 212.521 313.353C213.088 312.591 213.864 312.21 214.851 312.21C215.559 312.21 216.137 312.528 216.586 313.163C217.036 313.792 217.26 314.347 217.26 314.825C217.26 315.035 217.209 315.14 217.106 315.14H212.858ZM212.939 314.437C212.939 314.53 212.983 314.576 213.071 314.576H215.832C215.959 314.576 216.022 314.5 216.022 314.349C216.022 313.998 215.864 313.639 215.546 313.272C215.234 312.901 214.89 312.716 214.514 312.716C214.147 312.716 213.813 312.882 213.51 313.214C213.212 313.546 213.022 313.924 212.939 314.349V314.437Z" fill="black"/>
<path d="M143.022 320.501H217.978V321.234H143.022V320.501Z" fill="black"/>
<path d="M148.863 202.531C148.91 202.531 148.934 202.562 148.934 202.625V202.906C148.934 202.969 148.91 203 148.863 203H143.391C143.328 203 143.297 202.969 143.297 202.906V202.625C143.297 202.562 143.328 202.531 143.391 202.531C144.672 202.531 145.367 201.98 145.477 200.879C145.508 200.559 145.539 200.027 145.57 199.285C145.609 198.535 145.715 196.93 145.887 194.469C146.059 192 146.145 190.004 146.145 188.48V188.047C146.145 187.734 145.965 187.473 145.605 187.262C145.254 187.051 144.996 186.945 144.832 186.945C144.668 186.945 144.586 186.914 144.586 186.852V186.57C144.586 186.508 144.617 186.477 144.68 186.477H148.066C148.215 186.5 148.336 186.586 148.43 186.734L153.926 198.98C153.965 199.035 153.996 199.082 154.02 199.121C154.043 199.16 154.102 199.18 154.195 199.18C154.289 199.172 154.359 199.102 154.406 198.969L159.844 186.945C160.008 186.633 160.156 186.477 160.289 186.477H163.699C163.762 186.477 163.793 186.508 163.793 186.57V186.852C163.793 186.914 163.773 186.945 163.734 186.945C163.5 186.945 163.211 187.023 162.867 187.18C162.344 187.414 162.082 187.762 162.082 188.223L162.785 201.172C162.801 201.578 163.012 201.906 163.418 202.156C163.824 202.406 164.355 202.531 165.012 202.531C165.074 202.531 165.105 202.562 165.105 202.625V202.906C165.105 202.969 165.074 203 165.012 203H158.355C158.293 203 158.262 202.969 158.262 202.906V202.625C158.262 202.562 158.293 202.531 158.355 202.531C159.754 202.531 160.453 202.191 160.453 201.512L159.832 190.32C159.824 190.242 159.801 190.203 159.762 190.203C159.73 190.203 159.703 190.238 159.68 190.309L153.855 202.918C153.824 202.973 153.734 203 153.586 203C153.438 203 153.352 202.969 153.328 202.906L147.586 190.273C147.539 190.164 147.492 190.109 147.445 190.109C147.406 190.109 147.387 190.195 147.387 190.367C147.387 190.727 147.293 192.422 147.105 195.453C146.918 198.484 146.824 200.375 146.824 201.125V201.605C146.918 202.051 147.359 202.34 148.148 202.473C148.375 202.512 148.613 202.531 148.863 202.531ZM171.844 202.906C171.844 202.969 171.812 203 171.75 203H165.762C165.699 203 165.668 202.969 165.668 202.906V202.625C165.668 202.562 165.719 202.531 165.82 202.531C166.891 202.484 167.613 201.914 167.988 200.82L172.77 186.98C172.777 186.965 172.781 186.945 172.781 186.922L172.652 186.535C172.652 186.496 172.668 186.477 172.699 186.477H175.043C175.059 186.484 175.078 186.492 175.102 186.5C175.133 186.508 175.156 186.531 175.172 186.57L180.129 200.48C180.238 200.691 180.324 200.883 180.387 201.055C180.457 201.227 180.535 201.383 180.621 201.523C180.809 201.844 181.117 202.09 181.547 202.262C181.906 202.441 182.234 202.531 182.531 202.531C182.594 202.531 182.625 202.566 182.625 202.637V202.906C182.625 202.969 182.594 203 182.531 203H175.359C175.297 203 175.266 202.969 175.266 202.906V202.625C175.266 202.562 175.41 202.523 175.699 202.508C175.988 202.492 176.227 202.477 176.414 202.461C177.5 202.344 178.043 201.977 178.043 201.359C178.043 201.312 178.035 201.258 178.02 201.195L176.25 196.203C176.242 196.188 176.227 196.152 176.203 196.098C176.109 195.832 175.945 195.699 175.711 195.699H171.551C171.316 195.699 171.133 195.828 171 196.086C170.977 196.141 170.965 196.172 170.965 196.18L169.207 201.324V201.43C169.207 201.633 169.312 201.816 169.523 201.98C170 202.348 170.641 202.531 171.445 202.531H171.75C171.812 202.531 171.844 202.562 171.844 202.625V202.906ZM175.312 194.398C175.453 194.398 175.523 194.34 175.523 194.223C175.523 194.16 175.508 194.09 175.477 194.012L173.73 189.207C173.652 188.996 173.594 188.891 173.555 188.891C173.516 188.891 173.453 189 173.367 189.219L171.727 194.012C171.695 194.09 171.68 194.176 171.68 194.27C171.68 194.355 171.738 194.398 171.855 194.398H175.312ZM183.223 186.535C183.223 186.473 183.254 186.441 183.316 186.441H183.574L187.336 186.359C187.789 186.344 188.281 186.336 188.812 186.336H190.277C191.637 186.336 192.656 186.387 193.336 186.488C194.023 186.59 194.695 186.711 195.352 186.852C196.016 186.984 196.719 187.293 197.461 187.777C198.211 188.262 198.859 188.848 199.406 189.535C200.562 191.004 201.141 192.59 201.141 194.293C201.141 195.996 200.695 197.523 199.805 198.875C198.523 200.836 196.668 202.117 194.238 202.719C193.465 202.906 192.672 203 191.859 203H183.316C183.254 203 183.223 202.969 183.223 202.906V202.578C183.223 202.516 183.254 202.484 183.316 202.484H183.574C184.996 202.484 185.707 202.031 185.707 201.125V188.281C185.707 187.844 185.539 187.516 185.203 187.297C184.867 187.07 184.488 186.957 184.066 186.957H183.316C183.254 186.957 183.223 186.926 183.223 186.863V186.535ZM188.285 186.887C188.09 186.887 187.992 186.992 187.992 187.203V201.535C187.992 202.113 188.535 202.414 189.621 202.438C189.941 202.445 190.277 202.449 190.629 202.449C193.121 202.449 195.078 201.75 196.5 200.352C197.93 198.953 198.645 197.094 198.645 194.773C198.645 192.445 197.984 190.551 196.664 189.09C195.352 187.621 193.621 186.887 191.473 186.887H188.285ZM202.277 202.906V202.578C202.277 202.516 202.309 202.484 202.371 202.484H202.629C202.957 202.461 203.293 202.449 203.637 202.449C203.98 202.441 204.293 202.398 204.574 202.32C205.215 202.133 205.535 201.664 205.535 200.914V188.562C205.535 187.789 205.078 187.297 204.164 187.086C203.906 187.031 203.645 186.984 203.379 186.945H203.133C203.07 186.945 203.039 186.914 203.039 186.852V186.57C203.039 186.508 203.07 186.477 203.133 186.477H214.277C214.418 186.477 214.52 186.504 214.582 186.559C214.645 186.605 214.684 186.715 214.699 186.887L214.91 190.285C214.91 190.363 214.852 190.402 214.734 190.402C214.617 190.402 214.531 190.367 214.477 190.297C214.43 190.219 214.367 189.934 214.289 189.441C214.219 188.949 214.086 188.539 213.891 188.211C213.695 187.883 213.352 187.676 212.859 187.59H207.973C207.871 187.59 207.82 187.641 207.82 187.742V193.801C207.82 193.879 207.859 193.918 207.938 193.918H211.992C213.039 193.918 213.562 193.309 213.562 192.09C213.562 192.027 213.594 191.996 213.656 191.996H213.938C214 191.996 214.031 192.027 214.031 192.09V197.105C214.031 197.168 214 197.199 213.938 197.199H213.656C213.594 197.199 213.562 197.168 213.562 197.105C213.562 195.949 213.227 195.281 212.555 195.102C212.367 195.055 212.168 195.031 211.957 195.031H207.938C207.859 195.031 207.82 195.07 207.82 195.148V200.855C207.82 201.441 208.09 201.773 208.629 201.852C208.785 201.875 208.949 201.887 209.121 201.887H213.023C213.828 201.887 214.453 201.531 214.898 200.82C215.219 200.312 215.414 199.73 215.484 199.074C215.508 198.855 215.625 198.746 215.836 198.746C215.93 198.746 215.977 198.797 215.977 198.898L215.59 202.836C215.543 202.945 215.488 203 215.426 203H202.371C202.309 203 202.277 202.969 202.277 202.906Z" fill="black"/>
<path d="M33.6934 243.37C33.2686 243.629 32.8047 243.832 32.3018 243.978C31.7988 244.125 31.3521 244.198 30.9614 244.198C30.1606 244.198 29.3965 244.068 28.6689 243.81C27.6729 243.448 26.8721 242.914 26.2666 242.206C25.4951 241.302 25.1094 240.157 25.1094 238.771C25.1094 237.77 25.3657 236.859 25.8784 236.039C26.3911 235.213 27.0991 234.562 28.0024 234.083C28.9106 233.604 29.8848 233.365 30.9248 233.365C31.9697 233.365 32.9048 233.597 33.73 234.061C34.5552 234.525 35.2168 235.162 35.7148 235.973C36.2129 236.783 36.4619 237.662 36.4619 238.609C36.4619 239.552 36.2153 240.45 35.7222 241.305C35.229 242.154 34.5527 242.843 33.6934 243.37ZM26.6475 238.536C26.6475 239.347 26.8257 240.152 27.1821 240.953C27.5435 241.749 28.0586 242.398 28.7275 242.901C29.3965 243.404 30.1704 243.656 31.0493 243.656C32.2993 243.656 33.2734 243.177 33.9717 242.22C34.6016 241.356 34.9165 240.252 34.9165 238.91C34.9165 237.567 34.5308 236.41 33.7593 235.438C33.3833 234.964 32.9219 234.586 32.375 234.303C31.833 234.015 31.2837 233.871 30.7271 233.871C30.1753 233.871 29.7212 233.932 29.3647 234.054C29.0132 234.176 28.6934 234.344 28.4053 234.559C28.1172 234.769 27.8633 235.021 27.6436 235.313C27.4238 235.606 27.2407 235.924 27.0942 236.266C26.7964 236.969 26.6475 237.726 26.6475 238.536ZM42.79 243.355C42.7656 243.272 42.7339 243.246 42.6948 243.275C42.6558 243.299 42.4971 243.382 42.2188 243.524C41.3057 243.978 40.5439 244.205 39.9336 244.205C39.3232 244.205 38.8838 244.01 38.6152 243.619C38.5176 243.473 38.4688 243.292 38.4688 243.077V238.609C38.4541 238.468 38.3906 238.346 38.2783 238.243C38.127 238.116 37.9683 238.048 37.8022 238.038C37.6411 238.028 37.5605 237.979 37.5605 237.892C37.5605 237.799 37.5996 237.743 37.6777 237.723L39.355 237.24C39.4136 237.22 39.4697 237.21 39.5234 237.21C39.582 237.21 39.6113 237.252 39.6113 237.335V242.25C39.6113 242.591 39.7627 242.855 40.0654 243.041C40.3682 243.226 40.7539 243.319 41.2227 243.319C41.6963 243.319 42.1211 243.175 42.4971 242.887C42.6143 242.794 42.7119 242.691 42.79 242.579V238.609C42.7754 238.468 42.7119 238.346 42.5996 238.243C42.4482 238.116 42.2896 238.048 42.1235 238.038C41.9624 238.028 41.8818 237.979 41.8818 237.892C41.8818 237.799 41.9209 237.743 41.999 237.723L43.6763 237.24C43.7349 237.22 43.791 237.21 43.8447 237.21C43.9033 237.21 43.9326 237.259 43.9326 237.357V242.557C43.957 242.772 44.0181 242.926 44.1157 243.019C44.2134 243.111 44.3721 243.158 44.5918 243.158L45.0166 243.128C45.0459 243.128 45.0605 243.158 45.0605 243.216C45.0605 243.27 45.0239 243.314 44.9507 243.348L43.0024 244.154C42.9438 244.183 42.8926 244.198 42.8486 244.198C42.8096 244.198 42.79 244.137 42.79 244.015V243.355ZM50.4658 238.749C50.4072 238.739 50.3218 238.707 50.2095 238.653C49.8042 238.468 49.4868 238.375 49.2573 238.375C49.0278 238.375 48.7861 238.519 48.5322 238.807C48.2832 239.09 48.1587 239.347 48.1587 239.576V242.887C48.1587 243.253 48.3711 243.497 48.7959 243.619C48.9814 243.668 49.1548 243.705 49.3159 243.729C49.4771 243.749 49.5796 243.768 49.6235 243.788C49.6724 243.807 49.6968 243.846 49.6968 243.905C49.6968 243.958 49.6724 243.99 49.6235 244H45.9541C45.9053 243.99 45.8809 243.956 45.8809 243.897C45.8809 243.81 45.9956 243.751 46.2251 243.722C46.7524 243.644 47.0161 243.365 47.0161 242.887V239.012C47.0161 238.807 46.9038 238.666 46.6792 238.587C46.5815 238.553 46.4766 238.526 46.3643 238.507C46.252 238.482 46.1616 238.46 46.0933 238.441C46.0298 238.421 45.9883 238.404 45.9688 238.39C45.9541 238.37 45.9468 238.333 45.9468 238.28C45.9468 238.221 45.9834 238.172 46.0566 238.133L47.9243 237.254C47.9829 237.225 48.0195 237.21 48.0342 237.21C48.1172 237.21 48.1587 237.269 48.1587 237.386V238.573C48.1587 238.631 48.1733 238.661 48.2026 238.661C48.2417 238.661 48.3418 238.546 48.5029 238.316C48.9668 237.667 49.3501 237.342 49.6528 237.342C49.8237 237.342 50.085 237.411 50.4365 237.547C50.793 237.684 50.9712 237.799 50.9712 237.892C50.9712 238.004 50.915 238.175 50.8027 238.404C50.6904 238.634 50.5781 238.749 50.4658 238.749ZM58.2222 243.722C58.4517 243.751 58.5664 243.81 58.5664 243.897C58.5664 243.956 58.542 243.99 58.4932 244H55.2266C55.1777 243.99 55.1533 243.956 55.1533 243.897C55.1533 243.81 55.2681 243.751 55.4976 243.722C56.0249 243.644 56.2886 243.365 56.2886 242.887V233.753C56.2886 233.548 56.1763 233.407 55.9517 233.329C55.854 233.294 55.749 233.268 55.6367 233.248C55.5244 233.224 55.4341 233.202 55.3657 233.182C55.3022 233.163 55.2607 233.146 55.2412 233.131C55.2266 233.111 55.2192 233.075 55.2192 233.021C55.2192 232.962 55.2559 232.914 55.3291 232.875L57.1968 231.996C57.2554 231.966 57.292 231.952 57.3066 231.952C57.3896 231.952 57.4312 232.01 57.4312 232.127V242.887C57.4312 243.365 57.6948 243.644 58.2222 243.722ZM59.3794 240.711C59.3794 239.75 59.7188 238.924 60.3975 238.236C61.0811 237.542 61.8989 237.196 62.8511 237.196C63.8032 237.196 64.6309 237.533 65.334 238.207C66.0371 238.875 66.3887 239.703 66.3887 240.689C66.3887 241.676 66.0542 242.508 65.3853 243.187C64.7212 243.861 63.8862 244.198 62.8804 244.198C61.8745 244.198 61.0396 243.856 60.3755 243.172C59.7114 242.489 59.3794 241.668 59.3794 240.711ZM61.2031 242.594C61.6816 243.399 62.3335 243.802 63.1587 243.802C63.7983 243.802 64.2866 243.546 64.6235 243.033C64.9653 242.521 65.1362 241.891 65.1362 241.144C65.1362 240.396 64.897 239.63 64.4185 238.844C63.9448 238.058 63.3052 237.665 62.4995 237.665C61.9087 237.665 61.4424 237.921 61.1006 238.434C60.7637 238.941 60.5952 239.588 60.5952 240.375C60.5952 241.156 60.7979 241.896 61.2031 242.594ZM73.2075 238.089C73.2075 238.431 73.0098 238.602 72.6143 238.602C72.4141 238.602 72.2432 238.546 72.1016 238.434C71.9648 238.316 71.8574 238.219 71.7793 238.141C71.7061 238.058 71.6279 237.982 71.5449 237.914C71.1934 237.625 70.7637 237.594 70.2559 237.818C69.7529 238.043 69.3647 238.521 69.0913 239.254C68.9399 239.659 68.8643 240.062 68.8643 240.462C68.8643 241.322 69.0596 242.025 69.4502 242.572C69.8408 243.114 70.439 243.385 71.2446 243.385C71.8452 243.385 72.3848 243.116 72.8633 242.579C73.0098 242.418 73.0977 242.337 73.127 242.337C73.1562 242.337 73.188 242.352 73.2222 242.381C73.2563 242.411 73.2734 242.455 73.2734 242.513C73.2734 242.567 73.2588 242.608 73.2295 242.638C72.4824 243.678 71.5425 244.198 70.4097 244.198C69.5894 244.198 68.9155 243.893 68.3882 243.282C67.8657 242.672 67.6045 241.974 67.6045 241.188C67.6094 239.732 67.9609 238.685 68.6592 238.045C69.2744 237.484 70.1509 237.203 71.2886 237.203C71.9917 237.203 72.458 237.274 72.6875 237.416C72.917 237.557 73.0781 237.735 73.1709 237.95C73.1953 237.999 73.2075 238.045 73.2075 238.089ZM78.8252 242.792C78.8252 242.918 78.8838 243.021 79.001 243.099C79.123 243.172 79.2622 243.209 79.4185 243.209C79.5747 243.209 79.7041 243.17 79.8066 243.092C79.9141 243.009 79.9873 242.967 80.0264 242.967C80.0654 242.967 80.085 243.021 80.085 243.128C80.085 243.231 80.0361 243.319 79.9385 243.392C79.2061 243.929 78.7104 244.198 78.4517 244.198C78.1392 244.198 77.8853 243.873 77.6899 243.224C77.6753 243.175 77.6631 243.153 77.6533 243.158C77.0479 243.612 76.667 243.885 76.5107 243.978C76.1104 244.208 75.7075 244.244 75.3022 244.088C74.9019 243.932 74.6113 243.673 74.4307 243.312C74.3428 243.126 74.2988 242.928 74.2988 242.718C74.2988 242.303 74.4526 241.974 74.7603 241.729C75.0679 241.485 75.6538 241.251 76.5181 241.026C76.811 240.948 77.0723 240.848 77.3018 240.726C77.5312 240.604 77.6509 240.526 77.6606 240.492C77.6753 240.458 77.6826 240.426 77.6826 240.396V238.99C77.6826 238.438 77.4678 238.05 77.0381 237.826C76.8965 237.752 76.7256 237.716 76.5254 237.716C76.3301 237.716 76.1299 237.794 75.9248 237.95C75.7246 238.106 75.6245 238.329 75.6245 238.617L75.6611 238.902C75.6318 238.961 75.4561 239.059 75.1338 239.195C74.8115 239.332 74.626 239.405 74.5771 239.415C74.499 239.415 74.46 239.322 74.46 239.137C74.46 238.946 74.5161 238.736 74.6284 238.507C74.7407 238.277 74.8994 238.067 75.1045 237.877C75.583 237.433 76.1299 237.21 76.7451 237.21C77.3604 237.21 77.8608 237.381 78.2466 237.723C78.6323 238.06 78.8252 238.463 78.8252 238.932V242.792ZM75.4487 242.579C75.4487 242.813 75.5391 243.019 75.7197 243.194C75.9004 243.365 76.1055 243.451 76.335 243.451C76.5693 243.451 76.8525 243.353 77.1846 243.158C77.5166 242.958 77.6826 242.752 77.6826 242.542V241.056C77.6826 241.002 77.6704 240.975 77.646 240.975C77.6216 240.975 77.6045 240.978 77.5947 240.982L75.8955 241.773C75.7197 241.9 75.6001 242.008 75.5366 242.096C75.478 242.184 75.4487 242.345 75.4487 242.579ZM83.4907 243.722C83.7202 243.751 83.835 243.81 83.835 243.897C83.835 243.956 83.8105 243.99 83.7617 244H80.4951C80.4463 243.99 80.4219 243.956 80.4219 243.897C80.4219 243.81 80.5366 243.751 80.7661 243.722C81.2935 243.644 81.5571 243.365 81.5571 242.887V233.753C81.5571 233.548 81.4448 233.407 81.2202 233.329C81.1226 233.294 81.0176 233.268 80.9053 233.248C80.793 233.224 80.7026 233.202 80.6343 233.182C80.5708 233.163 80.5293 233.146 80.5098 233.131C80.4951 233.111 80.4878 233.075 80.4878 233.021C80.4878 232.962 80.5244 232.914 80.5977 232.875L82.4653 231.996C82.5239 231.966 82.5605 231.952 82.5752 231.952C82.6582 231.952 82.6997 232.01 82.6997 232.127V242.887C82.6997 243.365 82.9634 243.644 83.4907 243.722ZM93.1587 237.518C93.3735 237.591 93.5054 237.628 93.5542 237.628C93.603 237.628 93.6323 237.628 93.6421 237.628C93.6567 237.623 93.6738 237.591 93.6934 237.533V233.753C93.6934 233.548 93.5811 233.407 93.3564 233.329C93.2588 233.294 93.1538 233.268 93.0415 233.248C92.9292 233.224 92.8389 233.202 92.7705 233.182C92.707 233.163 92.6655 233.146 92.646 233.131C92.6313 233.111 92.624 233.075 92.624 233.021C92.624 232.962 92.6606 232.914 92.7339 232.875L94.6016 231.996C94.6602 231.966 94.6968 231.952 94.7114 231.952C94.7944 231.952 94.8359 232.01 94.8359 232.127V242.557C94.8604 242.772 94.9214 242.926 95.019 243.019C95.1167 243.111 95.2754 243.158 95.4951 243.158L95.9199 243.128C95.9492 243.128 95.9639 243.158 95.9639 243.216C95.9639 243.27 95.9272 243.314 95.854 243.348L93.9058 244.154C93.8472 244.183 93.7959 244.198 93.752 244.198C93.7129 244.198 93.6934 244.137 93.6934 244.015V243.348C93.6934 243.299 93.6812 243.275 93.6567 243.275C93.6226 243.275 93.4199 243.385 93.0488 243.604C91.9111 244.278 90.9517 244.378 90.1704 243.905C89.5454 243.524 89.123 242.921 88.9033 242.096C88.8008 241.71 88.7495 241.302 88.7495 240.873C88.7495 240.438 88.8374 240.008 89.0132 239.583C89.1938 239.154 89.4404 238.778 89.7529 238.456C90.4414 237.752 91.2715 237.401 92.2432 237.401C92.6387 237.401 92.9438 237.44 93.1587 237.518ZM89.8555 240.66C89.8555 241.397 90.0605 242.044 90.4707 242.601C90.8809 243.153 91.4521 243.429 92.1846 243.429C92.5068 243.429 92.8389 243.351 93.1807 243.194C93.5225 243.033 93.6934 242.911 93.6934 242.828V239.049C93.6934 238.956 93.6299 238.846 93.5029 238.719C93.1123 238.182 92.5923 237.914 91.9429 237.914C91.2983 237.914 90.7881 238.187 90.4121 238.734C90.041 239.276 89.8555 239.918 89.8555 240.66ZM97.8022 240.14C97.7192 240.14 97.6777 240.318 97.6777 240.675C97.6777 241.432 97.9023 242.066 98.3516 242.579C98.8008 243.092 99.3574 243.348 100.021 243.348C100.69 243.348 101.333 243.06 101.948 242.484C101.958 242.474 101.97 242.469 101.984 242.469H102.021C102.05 242.469 102.077 242.494 102.102 242.542C102.131 242.586 102.158 242.616 102.182 242.63C101.616 243.319 100.949 243.795 100.183 244.059C99.9189 244.151 99.6211 244.198 99.2891 244.198C98.957 244.198 98.6201 244.107 98.2783 243.927C97.9365 243.741 97.6436 243.5 97.3994 243.202C96.8818 242.582 96.623 241.81 96.623 240.887C96.623 239.959 96.9038 239.115 97.4653 238.353C98.0317 237.591 98.8081 237.21 99.7944 237.21C100.502 237.21 101.081 237.528 101.53 238.163C101.979 238.792 102.204 239.347 102.204 239.825C102.204 240.035 102.153 240.14 102.05 240.14H97.8022ZM97.8828 239.437C97.8828 239.53 97.9268 239.576 98.0146 239.576H100.776C100.903 239.576 100.966 239.5 100.966 239.349C100.966 238.998 100.808 238.639 100.49 238.272C100.178 237.901 99.8335 237.716 99.4575 237.716C99.0913 237.716 98.7568 237.882 98.4541 238.214C98.1562 238.546 97.9658 238.924 97.8828 239.349V239.437ZM106.987 238.99C106.987 239.098 106.945 239.151 106.862 239.151C106.784 239.151 106.723 239.093 106.679 238.976C106.562 238.653 106.386 238.368 106.152 238.119C105.922 237.87 105.637 237.745 105.295 237.745C104.846 237.745 104.543 237.97 104.387 238.419C104.338 238.57 104.313 238.727 104.313 238.888C104.313 239.049 104.416 239.229 104.621 239.43C104.826 239.625 105.163 239.859 105.632 240.133C106.101 240.406 106.442 240.638 106.657 240.829C107.146 241.263 107.39 241.766 107.39 242.337C107.39 242.909 107.18 243.363 106.76 243.7C106.34 244.032 105.852 244.198 105.295 244.198C104.997 244.198 104.726 244.156 104.482 244.073C104.243 243.995 104.104 243.956 104.064 243.956C104.03 243.956 103.972 243.995 103.889 244.073C103.811 244.156 103.747 244.198 103.698 244.198H103.574C103.544 244.198 103.508 243.934 103.464 243.407C103.42 242.879 103.398 242.567 103.398 242.469C103.398 242.372 103.405 242.318 103.42 242.308C103.439 242.298 103.469 242.293 103.508 242.293C103.547 242.293 103.579 242.306 103.603 242.33C103.632 242.354 103.657 242.386 103.676 242.425C103.696 242.459 103.71 242.496 103.72 242.535C103.735 242.574 103.767 242.647 103.815 242.755C104.147 243.463 104.66 243.817 105.354 243.817C105.661 243.817 105.908 243.705 106.093 243.48C106.279 243.25 106.372 242.997 106.372 242.718C106.372 242.44 106.298 242.206 106.152 242.015C106.005 241.825 105.822 241.651 105.603 241.495C105.388 241.339 105.153 241.188 104.899 241.041C103.913 240.465 103.42 239.828 103.42 239.129C103.42 238.607 103.645 238.158 104.094 237.782C104.543 237.401 105.004 237.21 105.478 237.21C105.952 237.21 106.301 237.262 106.525 237.364C106.755 237.467 106.889 237.555 106.928 237.628C106.967 237.696 106.987 237.926 106.987 238.316V238.99ZM108.459 244C108.41 243.99 108.386 243.956 108.386 243.897C108.386 243.81 108.5 243.751 108.73 243.722C109.257 243.644 109.521 243.365 109.521 242.887V239.012C109.521 238.807 109.409 238.666 109.184 238.587C109.086 238.553 108.981 238.526 108.869 238.507C108.757 238.482 108.667 238.46 108.598 238.441C108.535 238.421 108.493 238.404 108.474 238.39C108.459 238.37 108.452 238.333 108.452 238.28C108.452 238.221 108.488 238.172 108.562 238.133L110.429 237.254C110.488 237.225 110.524 237.21 110.539 237.21C110.622 237.21 110.664 237.269 110.664 237.386V242.887C110.664 243.365 110.927 243.644 111.455 243.722C111.684 243.751 111.799 243.802 111.799 243.875C111.799 243.949 111.774 243.99 111.726 244H108.459ZM109.982 235.152C109.782 235.152 109.604 235.089 109.448 234.962C109.296 234.835 109.221 234.659 109.221 234.435C109.221 234.205 109.294 234.024 109.44 233.893C109.587 233.761 109.76 233.695 109.96 233.695C110.166 233.695 110.336 233.773 110.473 233.929C110.615 234.085 110.686 234.254 110.686 234.435C110.686 234.615 110.62 234.781 110.488 234.933C110.356 235.079 110.188 235.152 109.982 235.152ZM118.164 237.914C118.164 237.914 118.818 237.884 120.126 237.826C120.239 237.826 120.312 237.838 120.346 237.862C120.38 237.887 120.417 237.972 120.456 238.119C120.495 238.26 120.515 238.395 120.515 238.521C120.515 238.648 120.502 238.722 120.478 238.741C120.454 238.761 120.405 238.771 120.332 238.771H118.706C118.735 238.824 118.767 238.88 118.801 238.939C118.835 238.998 118.879 239.095 118.933 239.232C118.986 239.369 119.013 239.581 119.013 239.869C119.013 240.152 118.942 240.45 118.801 240.763C118.664 241.07 118.461 241.344 118.193 241.583C117.597 242.12 116.826 242.389 115.878 242.389C115.629 242.389 115.356 242.342 115.058 242.25C114.985 242.328 114.887 242.401 114.765 242.469C114.643 242.533 114.523 242.599 114.406 242.667C114.113 242.833 113.967 242.999 113.967 243.165C113.967 243.58 114.655 243.792 116.032 243.802C117.409 243.812 118.312 243.858 118.742 243.941C119.177 244.02 119.514 244.178 119.753 244.417C120.129 244.793 120.317 245.223 120.317 245.707C120.317 246.122 120.139 246.549 119.782 246.988C119.162 247.765 118.215 248.282 116.94 248.541C116.486 248.634 116.005 248.68 115.498 248.68C114.575 248.68 113.874 248.512 113.396 248.175C112.917 247.843 112.678 247.44 112.678 246.966C112.678 246.708 112.739 246.493 112.861 246.322C112.983 246.156 113.137 245.997 113.322 245.846C113.513 245.699 113.72 245.543 113.945 245.377C114.169 245.216 114.384 245.008 114.589 244.754C114.121 244.715 113.718 244.566 113.381 244.308C113.049 244.049 112.883 243.795 112.883 243.546C112.883 243.297 112.949 243.114 113.081 242.997C113.212 242.875 113.374 242.772 113.564 242.689C113.754 242.601 113.955 242.521 114.165 242.447C114.375 242.374 114.558 242.279 114.714 242.162C114.167 241.947 113.745 241.651 113.447 241.275C113.149 240.895 113 240.479 113 240.03C113 239.195 113.303 238.514 113.908 237.987C114.519 237.459 115.253 237.196 116.113 237.196C116.972 237.196 117.656 237.435 118.164 237.914ZM114.179 245.553C114.067 245.665 113.974 245.785 113.901 245.912C113.828 246.039 113.791 246.197 113.791 246.388C113.791 246.583 113.859 246.786 113.996 246.996C114.138 247.21 114.328 247.403 114.567 247.574C115.095 247.965 115.729 248.16 116.472 248.16C117.214 248.16 117.885 247.943 118.486 247.508C119.091 247.079 119.394 246.605 119.394 246.087C119.394 245.575 119.145 245.23 118.647 245.055C118.413 244.977 117.81 244.928 116.838 244.908C115.866 244.889 115.236 244.862 114.948 244.828C114.821 244.974 114.689 245.104 114.553 245.216C114.421 245.328 114.296 245.44 114.179 245.553ZM117.812 239.862C117.812 239.173 117.639 238.614 117.292 238.185C116.95 237.75 116.496 237.533 115.93 237.533C115.197 237.533 114.68 237.877 114.377 238.565C114.26 238.829 114.201 239.132 114.201 239.474C114.201 240.172 114.345 240.753 114.633 241.217C114.985 241.773 115.446 242.052 116.018 242.052C116.589 242.052 117.031 241.859 117.343 241.473C117.656 241.087 117.812 240.55 117.812 239.862ZM126.462 241.693L126.447 240.147C126.447 239.518 126.394 239.076 126.286 238.822C126.179 238.568 126.042 238.377 125.876 238.25C125.71 238.119 125.485 238.053 125.202 238.053C124.924 238.053 124.331 238.272 123.422 238.712C123.3 238.785 123.237 238.854 123.232 238.917V242.857C123.232 243.351 123.496 243.634 124.023 243.707C124.252 243.741 124.367 243.797 124.367 243.875C124.367 243.949 124.343 243.99 124.294 244H121.027C120.979 243.99 120.954 243.956 120.954 243.897C120.954 243.805 121.069 243.741 121.298 243.707C121.826 243.634 122.089 243.351 122.089 242.857V238.653C122.089 238.448 121.977 238.307 121.752 238.229C121.655 238.194 121.55 238.167 121.438 238.148C121.325 238.124 121.235 238.102 121.167 238.082C121.103 238.062 121.062 238.045 121.042 238.031C121.027 238.011 121.02 237.975 121.02 237.921C121.02 237.862 121.057 237.813 121.13 237.774L122.998 236.896C123.056 236.866 123.093 236.852 123.107 236.852C123.19 236.852 123.232 236.91 123.232 237.027V238.17C123.247 238.219 123.266 238.243 123.291 238.243C123.32 238.243 123.425 238.199 123.605 238.111C124.025 237.901 124.448 237.699 124.873 237.503C125.297 237.308 125.649 237.21 125.927 237.21C127.055 237.21 127.619 238.238 127.619 240.294L127.553 242.433V242.857C127.553 243.238 127.744 243.487 128.125 243.604C128.286 243.658 128.439 243.697 128.586 243.722C128.737 243.741 128.835 243.761 128.879 243.78C128.928 243.8 128.952 243.839 128.952 243.897C128.952 243.956 128.928 243.99 128.879 244H125.349C125.3 243.99 125.275 243.956 125.275 243.897C125.275 243.805 125.39 243.741 125.62 243.707C126.142 243.634 126.403 243.331 126.403 242.799C126.442 242.555 126.462 242.186 126.462 241.693ZM132.021 243.619C132.021 244.527 131.594 245.284 130.739 245.89C130.544 246.031 130.397 246.102 130.3 246.102C130.227 246.102 130.19 246.036 130.19 245.904C130.19 245.826 130.241 245.75 130.344 245.677C130.451 245.609 130.529 245.553 130.578 245.509C131.071 245.064 131.318 244.662 131.318 244.3C131.318 244.159 131.289 244.073 131.23 244.044C131.176 244.015 131.057 244 130.871 244C130.686 244 130.49 243.929 130.285 243.788C130.085 243.646 129.985 243.438 129.985 243.165C129.985 242.892 130.051 242.696 130.183 242.579C130.407 242.374 130.622 242.271 130.827 242.271C131.208 242.271 131.501 242.423 131.706 242.726C131.916 243.023 132.021 243.321 132.021 243.619ZM141.975 242.792C141.975 242.918 142.033 243.021 142.15 243.099C142.272 243.172 142.412 243.209 142.568 243.209C142.724 243.209 142.854 243.17 142.956 243.092C143.063 243.009 143.137 242.967 143.176 242.967C143.215 242.967 143.234 243.021 143.234 243.128C143.234 243.231 143.186 243.319 143.088 243.392C142.355 243.929 141.86 244.198 141.601 244.198C141.289 244.198 141.035 243.873 140.839 243.224C140.825 243.175 140.812 243.153 140.803 243.158C140.197 243.612 139.816 243.885 139.66 243.978C139.26 244.208 138.857 244.244 138.452 244.088C138.051 243.932 137.761 243.673 137.58 243.312C137.492 243.126 137.448 242.928 137.448 242.718C137.448 242.303 137.602 241.974 137.91 241.729C138.217 241.485 138.803 241.251 139.667 241.026C139.96 240.948 140.222 240.848 140.451 240.726C140.681 240.604 140.8 240.526 140.81 240.492C140.825 240.458 140.832 240.426 140.832 240.396V238.99C140.832 238.438 140.617 238.05 140.188 237.826C140.046 237.752 139.875 237.716 139.675 237.716C139.479 237.716 139.279 237.794 139.074 237.95C138.874 238.106 138.774 238.329 138.774 238.617L138.811 238.902C138.781 238.961 138.605 239.059 138.283 239.195C137.961 239.332 137.775 239.405 137.727 239.415C137.648 239.415 137.609 239.322 137.609 239.137C137.609 238.946 137.666 238.736 137.778 238.507C137.89 238.277 138.049 238.067 138.254 237.877C138.732 237.433 139.279 237.21 139.895 237.21C140.51 237.21 141.01 237.381 141.396 237.723C141.782 238.06 141.975 238.463 141.975 238.932V242.792ZM138.598 242.579C138.598 242.813 138.688 243.019 138.869 243.194C139.05 243.365 139.255 243.451 139.484 243.451C139.719 243.451 140.002 243.353 140.334 243.158C140.666 242.958 140.832 242.752 140.832 242.542V241.056C140.832 241.002 140.82 240.975 140.795 240.975C140.771 240.975 140.754 240.978 140.744 240.982L139.045 241.773C138.869 241.9 138.75 242.008 138.686 242.096C138.627 242.184 138.598 242.345 138.598 242.579ZM149.313 241.693L149.299 240.147C149.299 239.518 149.245 239.076 149.138 238.822C149.03 238.568 148.894 238.377 148.728 238.25C148.562 238.119 148.337 238.053 148.054 238.053C147.775 238.053 147.182 238.272 146.274 238.712C146.152 238.785 146.088 238.854 146.083 238.917V242.857C146.083 243.351 146.347 243.634 146.875 243.707C147.104 243.741 147.219 243.797 147.219 243.875C147.219 243.949 147.194 243.99 147.146 244H143.879C143.83 243.99 143.806 243.956 143.806 243.897C143.806 243.805 143.92 243.741 144.15 243.707C144.677 243.634 144.941 243.351 144.941 242.857V238.653C144.941 238.448 144.829 238.307 144.604 238.229C144.506 238.194 144.401 238.167 144.289 238.148C144.177 238.124 144.086 238.102 144.018 238.082C143.955 238.062 143.913 238.045 143.894 238.031C143.879 238.011 143.872 237.975 143.872 237.921C143.872 237.862 143.908 237.813 143.981 237.774L145.849 236.896C145.908 236.866 145.944 236.852 145.959 236.852C146.042 236.852 146.083 236.91 146.083 237.027V238.17C146.098 238.219 146.118 238.243 146.142 238.243C146.171 238.243 146.276 238.199 146.457 238.111C146.877 237.901 147.299 237.699 147.724 237.503C148.149 237.308 148.5 237.21 148.779 237.21C149.907 237.21 150.471 238.238 150.471 240.294L150.405 242.433V242.857C150.405 243.238 150.595 243.487 150.976 243.604C151.137 243.658 151.291 243.697 151.438 243.722C151.589 243.741 151.687 243.761 151.73 243.78C151.779 243.8 151.804 243.839 151.804 243.897C151.804 243.956 151.779 243.99 151.73 244H148.2C148.151 243.99 148.127 243.956 148.127 243.897C148.127 243.805 148.242 243.741 148.471 243.707C148.994 243.634 149.255 243.331 149.255 242.799C149.294 242.555 149.313 242.186 149.313 241.693ZM156.982 237.518C157.197 237.591 157.329 237.628 157.377 237.628C157.426 237.628 157.456 237.628 157.465 237.628C157.48 237.623 157.497 237.591 157.517 237.533V233.753C157.517 233.548 157.404 233.407 157.18 233.329C157.082 233.294 156.977 233.268 156.865 233.248C156.752 233.224 156.662 233.202 156.594 233.182C156.53 233.163 156.489 233.146 156.469 233.131C156.455 233.111 156.447 233.075 156.447 233.021C156.447 232.962 156.484 232.914 156.557 232.875L158.425 231.996C158.483 231.966 158.52 231.952 158.535 231.952C158.618 231.952 158.659 232.01 158.659 232.127V242.557C158.684 242.772 158.745 242.926 158.842 243.019C158.94 243.111 159.099 243.158 159.318 243.158L159.743 243.128C159.772 243.128 159.787 243.158 159.787 243.216C159.787 243.27 159.75 243.314 159.677 243.348L157.729 244.154C157.67 244.183 157.619 244.198 157.575 244.198C157.536 244.198 157.517 244.137 157.517 244.015V243.348C157.517 243.299 157.504 243.275 157.48 243.275C157.446 243.275 157.243 243.385 156.872 243.604C155.734 244.278 154.775 244.378 153.994 243.905C153.369 243.524 152.946 242.921 152.727 242.096C152.624 241.71 152.573 241.302 152.573 240.873C152.573 240.438 152.661 240.008 152.836 239.583C153.017 239.154 153.264 238.778 153.576 238.456C154.265 237.752 155.095 237.401 156.066 237.401C156.462 237.401 156.767 237.44 156.982 237.518ZM153.679 240.66C153.679 241.397 153.884 242.044 154.294 242.601C154.704 243.153 155.275 243.429 156.008 243.429C156.33 243.429 156.662 243.351 157.004 243.194C157.346 243.033 157.517 242.911 157.517 242.828V239.049C157.517 238.956 157.453 238.846 157.326 238.719C156.936 238.182 156.416 237.914 155.766 237.914C155.122 237.914 154.611 238.187 154.235 238.734C153.864 239.276 153.679 239.918 153.679 240.66ZM169.99 243.231C169.316 243.875 168.559 244.198 167.719 244.198C167.417 244.198 167.004 244.142 166.481 244.029C166.398 244.029 166.352 244.059 166.342 244.117C166.337 244.176 166.333 244.237 166.328 244.3V247.428C166.328 247.794 166.54 248.038 166.965 248.16C167.15 248.209 167.324 248.243 167.485 248.263C167.646 248.287 167.749 248.309 167.792 248.329C167.841 248.348 167.866 248.385 167.866 248.438C167.866 248.497 167.841 248.531 167.792 248.541H164.123C164.074 248.531 164.05 248.497 164.05 248.438C164.05 248.351 164.165 248.292 164.394 248.263C164.921 248.185 165.185 247.906 165.185 247.428V238.646C165.185 238.441 165.073 238.299 164.848 238.221C164.75 238.187 164.646 238.16 164.533 238.141C164.421 238.116 164.331 238.094 164.262 238.075C164.199 238.055 164.157 238.038 164.138 238.023C164.123 238.004 164.116 237.967 164.116 237.914C164.116 237.855 164.152 237.806 164.226 237.767L166.093 236.874C166.132 236.854 166.171 236.844 166.21 236.844C166.289 236.844 166.328 236.903 166.328 237.02V237.95C166.328 238.004 166.354 238.031 166.408 238.031C166.467 238.031 166.604 237.96 166.818 237.818C167.438 237.418 168.083 237.218 168.752 237.218C169.221 237.218 169.65 237.408 170.041 237.789C170.554 238.287 170.896 238.98 171.066 239.869C171.115 240.123 171.14 240.394 171.14 240.682C171.14 240.965 171.093 241.266 171 241.583C170.815 242.213 170.478 242.762 169.99 243.231ZM167.895 237.979C167.231 237.979 166.708 238.17 166.328 238.551V242.667C166.328 242.911 166.369 243.07 166.452 243.143C166.667 243.329 166.997 243.473 167.441 243.575C168.32 243.775 169.003 243.565 169.492 242.945C169.838 242.501 170.012 241.964 170.012 241.334C170.012 240.108 169.736 239.19 169.184 238.58C168.852 238.209 168.422 238.009 167.895 237.979ZM176.911 238.749C176.853 238.739 176.767 238.707 176.655 238.653C176.25 238.468 175.932 238.375 175.703 238.375C175.473 238.375 175.231 238.519 174.978 238.807C174.729 239.09 174.604 239.347 174.604 239.576V242.887C174.604 243.253 174.816 243.497 175.241 243.619C175.427 243.668 175.6 243.705 175.761 243.729C175.922 243.749 176.025 243.768 176.069 243.788C176.118 243.807 176.142 243.846 176.142 243.905C176.142 243.958 176.118 243.99 176.069 244H172.399C172.351 243.99 172.326 243.956 172.326 243.897C172.326 243.81 172.441 243.751 172.67 243.722C173.198 243.644 173.461 243.365 173.461 242.887V239.012C173.461 238.807 173.349 238.666 173.125 238.587C173.027 238.553 172.922 238.526 172.81 238.507C172.697 238.482 172.607 238.46 172.539 238.441C172.475 238.421 172.434 238.404 172.414 238.39C172.399 238.37 172.392 238.333 172.392 238.28C172.392 238.221 172.429 238.172 172.502 238.133L174.37 237.254C174.428 237.225 174.465 237.21 174.479 237.21C174.562 237.21 174.604 237.269 174.604 237.386V238.573C174.604 238.631 174.619 238.661 174.648 238.661C174.687 238.661 174.787 238.546 174.948 238.316C175.412 237.667 175.795 237.342 176.098 237.342C176.269 237.342 176.53 237.411 176.882 237.547C177.238 237.684 177.417 237.799 177.417 237.892C177.417 238.004 177.36 238.175 177.248 238.404C177.136 238.634 177.023 238.749 176.911 238.749ZM177.973 240.711C177.973 239.75 178.312 238.924 178.991 238.236C179.675 237.542 180.493 237.196 181.445 237.196C182.397 237.196 183.225 237.533 183.928 238.207C184.631 238.875 184.982 239.703 184.982 240.689C184.982 241.676 184.648 242.508 183.979 243.187C183.315 243.861 182.48 244.198 181.474 244.198C180.468 244.198 179.633 243.856 178.969 243.172C178.305 242.489 177.973 241.668 177.973 240.711ZM179.797 242.594C180.275 243.399 180.927 243.802 181.752 243.802C182.392 243.802 182.88 243.546 183.217 243.033C183.559 242.521 183.73 241.891 183.73 241.144C183.73 240.396 183.491 239.63 183.012 238.844C182.539 238.058 181.899 237.665 181.093 237.665C180.502 237.665 180.036 237.921 179.694 238.434C179.357 238.941 179.189 239.588 179.189 240.375C179.189 241.156 179.392 241.896 179.797 242.594ZM190.571 237.518C190.786 237.591 190.917 237.628 190.966 237.628C191.015 237.628 191.044 237.628 191.054 237.628C191.069 237.623 191.086 237.591 191.105 237.533V233.753C191.105 233.548 190.993 233.407 190.769 233.329C190.671 233.294 190.566 233.268 190.454 233.248C190.341 233.224 190.251 233.202 190.183 233.182C190.119 233.163 190.078 233.146 190.058 233.131C190.043 233.111 190.036 233.075 190.036 233.021C190.036 232.962 190.073 232.914 190.146 232.875L192.014 231.996C192.072 231.966 192.109 231.952 192.124 231.952C192.207 231.952 192.248 232.01 192.248 232.127V242.557C192.272 242.772 192.333 242.926 192.431 243.019C192.529 243.111 192.688 243.158 192.907 243.158L193.332 243.128C193.361 243.128 193.376 243.158 193.376 243.216C193.376 243.27 193.339 243.314 193.266 243.348L191.318 244.154C191.259 244.183 191.208 244.198 191.164 244.198C191.125 244.198 191.105 244.137 191.105 244.015V243.348C191.105 243.299 191.093 243.275 191.069 243.275C191.035 243.275 190.832 243.385 190.461 243.604C189.323 244.278 188.364 244.378 187.583 243.905C186.958 243.524 186.535 242.921 186.315 242.096C186.213 241.71 186.162 241.302 186.162 240.873C186.162 240.438 186.25 240.008 186.425 239.583C186.606 239.154 186.853 238.778 187.165 238.456C187.854 237.752 188.684 237.401 189.655 237.401C190.051 237.401 190.356 237.44 190.571 237.518ZM187.268 240.66C187.268 241.397 187.473 242.044 187.883 242.601C188.293 243.153 188.864 243.429 189.597 243.429C189.919 243.429 190.251 243.351 190.593 243.194C190.935 243.033 191.105 242.911 191.105 242.828V239.049C191.105 238.956 191.042 238.846 190.915 238.719C190.524 238.182 190.004 237.914 189.355 237.914C188.71 237.914 188.2 238.187 187.824 238.734C187.453 239.276 187.268 239.918 187.268 240.66ZM199.045 243.355C199.021 243.272 198.989 243.246 198.95 243.275C198.911 243.299 198.752 243.382 198.474 243.524C197.561 243.978 196.799 244.205 196.188 244.205C195.578 244.205 195.139 244.01 194.87 243.619C194.772 243.473 194.724 243.292 194.724 243.077V238.609C194.709 238.468 194.646 238.346 194.533 238.243C194.382 238.116 194.223 238.048 194.057 238.038C193.896 238.028 193.815 237.979 193.815 237.892C193.815 237.799 193.854 237.743 193.933 237.723L195.61 237.24C195.668 237.22 195.725 237.21 195.778 237.21C195.837 237.21 195.866 237.252 195.866 237.335V242.25C195.866 242.591 196.018 242.855 196.32 243.041C196.623 243.226 197.009 243.319 197.478 243.319C197.951 243.319 198.376 243.175 198.752 242.887C198.869 242.794 198.967 242.691 199.045 242.579V238.609C199.03 238.468 198.967 238.346 198.854 238.243C198.703 238.116 198.544 238.048 198.378 238.038C198.217 238.028 198.137 237.979 198.137 237.892C198.137 237.799 198.176 237.743 198.254 237.723L199.931 237.24C199.99 237.22 200.046 237.21 200.1 237.21C200.158 237.21 200.188 237.259 200.188 237.357V242.557C200.212 242.772 200.273 242.926 200.371 243.019C200.468 243.111 200.627 243.158 200.847 243.158L201.271 243.128C201.301 243.128 201.315 243.158 201.315 243.216C201.315 243.27 201.279 243.314 201.206 243.348L199.257 244.154C199.199 244.183 199.147 244.198 199.104 244.198C199.064 244.198 199.045 244.137 199.045 244.015V243.355ZM208.017 238.089C208.017 238.431 207.819 238.602 207.424 238.602C207.224 238.602 207.053 238.546 206.911 238.434C206.774 238.316 206.667 238.219 206.589 238.141C206.516 238.058 206.438 237.982 206.354 237.914C206.003 237.625 205.573 237.594 205.065 237.818C204.562 238.043 204.174 238.521 203.901 239.254C203.75 239.659 203.674 240.062 203.674 240.462C203.674 241.322 203.869 242.025 204.26 242.572C204.65 243.114 205.249 243.385 206.054 243.385C206.655 243.385 207.194 243.116 207.673 242.579C207.819 242.418 207.907 242.337 207.937 242.337C207.966 242.337 207.998 242.352 208.032 242.381C208.066 242.411 208.083 242.455 208.083 242.513C208.083 242.567 208.068 242.608 208.039 242.638C207.292 243.678 206.352 244.198 205.219 244.198C204.399 244.198 203.725 243.893 203.198 243.282C202.675 242.672 202.414 241.974 202.414 241.188C202.419 239.732 202.771 238.685 203.469 238.045C204.084 237.484 204.96 237.203 206.098 237.203C206.801 237.203 207.268 237.274 207.497 237.416C207.727 237.557 207.888 237.735 207.98 237.95C208.005 237.999 208.017 238.045 208.017 238.089ZM210.888 238.368C210.859 238.368 210.844 238.39 210.844 238.434V242.477C210.844 242.77 210.908 242.999 211.035 243.165C211.167 243.331 211.333 243.414 211.533 243.414C211.733 243.414 211.906 243.382 212.053 243.319C212.204 243.25 212.333 243.177 212.441 243.099C212.553 243.021 212.653 242.95 212.741 242.887C212.829 242.818 212.907 242.784 212.976 242.784C213.044 242.784 213.078 242.801 213.078 242.835C213.078 242.953 213.066 243.028 213.042 243.062C212.456 243.819 211.889 244.198 211.342 244.198C210.8 244.198 210.39 244.027 210.112 243.685C209.838 243.338 209.702 242.926 209.702 242.447V238.368H209.152C209.016 238.368 208.942 238.324 208.933 238.236C208.928 238.148 208.942 238.092 208.977 238.067C209.235 237.901 209.592 237.604 210.046 237.174C210.095 237.12 210.161 237.04 210.244 236.932C210.327 236.825 210.446 236.678 210.603 236.493C210.764 236.307 210.886 236.214 210.969 236.214C211.052 236.214 211.093 236.249 211.093 236.317C211.093 236.327 211.01 236.646 210.844 237.276C210.844 237.364 210.883 237.411 210.961 237.416H212.829C213.044 237.416 213.151 237.718 213.151 238.324C213.151 238.353 213.132 238.368 213.093 238.368H210.888ZM213.854 244C213.806 243.99 213.781 243.956 213.781 243.897C213.781 243.81 213.896 243.751 214.125 243.722C214.653 243.644 214.917 243.365 214.917 242.887V239.012C214.917 238.807 214.804 238.666 214.58 238.587C214.482 238.553 214.377 238.526 214.265 238.507C214.152 238.482 214.062 238.46 213.994 238.441C213.93 238.421 213.889 238.404 213.869 238.39C213.854 238.37 213.847 238.333 213.847 238.28C213.847 238.221 213.884 238.172 213.957 238.133L215.825 237.254C215.883 237.225 215.92 237.21 215.935 237.21C216.018 237.21 216.059 237.269 216.059 237.386V242.887C216.059 243.365 216.323 243.644 216.85 243.722C217.08 243.751 217.194 243.802 217.194 243.875C217.194 243.949 217.17 243.99 217.121 244H213.854ZM215.378 235.152C215.178 235.152 215 235.089 214.843 234.962C214.692 234.835 214.616 234.659 214.616 234.435C214.616 234.205 214.689 234.024 214.836 233.893C214.982 233.761 215.156 233.695 215.356 233.695C215.561 233.695 215.732 233.773 215.869 233.929C216.01 234.085 216.081 234.254 216.081 234.435C216.081 234.615 216.015 234.781 215.883 234.933C215.751 235.079 215.583 235.152 215.378 235.152ZM218.11 240.711C218.11 239.75 218.449 238.924 219.128 238.236C219.812 237.542 220.629 237.196 221.582 237.196C222.534 237.196 223.361 237.533 224.064 238.207C224.768 238.875 225.119 239.703 225.119 240.689C225.119 241.676 224.785 242.508 224.116 243.187C223.452 243.861 222.617 244.198 221.611 244.198C220.605 244.198 219.77 243.856 219.106 243.172C218.442 242.489 218.11 241.668 218.11 240.711ZM219.934 242.594C220.412 243.399 221.064 243.802 221.889 243.802C222.529 243.802 223.017 243.546 223.354 243.033C223.696 242.521 223.867 241.891 223.867 241.144C223.867 240.396 223.627 239.63 223.149 238.844C222.675 238.058 222.036 237.665 221.23 237.665C220.639 237.665 220.173 237.921 219.831 238.434C219.494 238.941 219.326 239.588 219.326 240.375C219.326 241.156 219.528 241.896 219.934 242.594ZM231.564 241.693L231.55 240.147C231.55 239.518 231.496 239.076 231.389 238.822C231.281 238.568 231.145 238.377 230.979 238.25C230.812 238.119 230.588 238.053 230.305 238.053C230.026 238.053 229.433 238.272 228.525 238.712C228.403 238.785 228.339 238.854 228.334 238.917V242.857C228.334 243.351 228.598 243.634 229.125 243.707C229.355 243.741 229.47 243.797 229.47 243.875C229.47 243.949 229.445 243.99 229.396 244H226.13C226.081 243.99 226.057 243.956 226.057 243.897C226.057 243.805 226.171 243.741 226.401 243.707C226.928 243.634 227.192 243.351 227.192 242.857V238.653C227.192 238.448 227.08 238.307 226.855 238.229C226.757 238.194 226.652 238.167 226.54 238.148C226.428 238.124 226.337 238.102 226.269 238.082C226.206 238.062 226.164 238.045 226.145 238.031C226.13 238.011 226.123 237.975 226.123 237.921C226.123 237.862 226.159 237.813 226.232 237.774L228.1 236.896C228.159 236.866 228.195 236.852 228.21 236.852C228.293 236.852 228.334 236.91 228.334 237.027V238.17C228.349 238.219 228.369 238.243 228.393 238.243C228.422 238.243 228.527 238.199 228.708 238.111C229.128 237.901 229.55 237.699 229.975 237.503C230.4 237.308 230.751 237.21 231.03 237.21C232.158 237.21 232.722 238.238 232.722 240.294L232.656 242.433V242.857C232.656 243.238 232.846 243.487 233.227 243.604C233.388 243.658 233.542 243.697 233.688 243.722C233.84 243.741 233.938 243.761 233.981 243.78C234.03 243.8 234.055 243.839 234.055 243.897C234.055 243.956 234.03 243.99 233.981 244H230.451C230.402 243.99 230.378 243.956 230.378 243.897C230.378 243.805 230.493 243.741 230.722 243.707C231.245 243.634 231.506 243.331 231.506 242.799C231.545 242.555 231.564 242.186 231.564 241.693ZM238.742 244C238.693 243.99 238.669 243.956 238.669 243.897C238.669 243.81 238.784 243.751 239.013 243.722C239.541 243.644 239.804 243.365 239.804 242.887V239.012C239.804 238.807 239.692 238.666 239.467 238.587C239.37 238.553 239.265 238.526 239.152 238.507C239.04 238.482 238.95 238.46 238.881 238.441C238.818 238.421 238.776 238.404 238.757 238.39C238.742 238.37 238.735 238.333 238.735 238.28C238.735 238.221 238.771 238.172 238.845 238.133L240.712 237.254C240.771 237.225 240.808 237.21 240.822 237.21C240.905 237.21 240.947 237.269 240.947 237.386V242.887C240.947 243.365 241.21 243.644 241.738 243.722C241.967 243.751 242.082 243.802 242.082 243.875C242.082 243.949 242.058 243.99 242.009 244H238.742ZM240.266 235.152C240.065 235.152 239.887 235.089 239.731 234.962C239.58 234.835 239.504 234.659 239.504 234.435C239.504 234.205 239.577 234.024 239.724 233.893C239.87 233.761 240.043 233.695 240.244 233.695C240.449 233.695 240.62 233.773 240.756 233.929C240.898 234.085 240.969 234.254 240.969 234.435C240.969 234.615 240.903 234.781 240.771 234.933C240.639 235.079 240.471 235.152 240.266 235.152ZM248.337 241.693L248.322 240.147C248.322 239.518 248.269 239.076 248.161 238.822C248.054 238.568 247.917 238.377 247.751 238.25C247.585 238.119 247.36 238.053 247.077 238.053C246.799 238.053 246.206 238.272 245.297 238.712C245.175 238.785 245.112 238.854 245.107 238.917V242.857C245.107 243.351 245.371 243.634 245.898 243.707C246.127 243.741 246.242 243.797 246.242 243.875C246.242 243.949 246.218 243.99 246.169 244H242.902C242.854 243.99 242.829 243.956 242.829 243.897C242.829 243.805 242.944 243.741 243.173 243.707C243.701 243.634 243.964 243.351 243.964 242.857V238.653C243.964 238.448 243.852 238.307 243.627 238.229C243.53 238.194 243.425 238.167 243.312 238.148C243.2 238.124 243.11 238.102 243.042 238.082C242.978 238.062 242.937 238.045 242.917 238.031C242.902 238.011 242.895 237.975 242.895 237.921C242.895 237.862 242.932 237.813 243.005 237.774L244.873 236.896C244.931 236.866 244.968 236.852 244.982 236.852C245.065 236.852 245.107 236.91 245.107 237.027V238.17C245.122 238.219 245.141 238.243 245.166 238.243C245.195 238.243 245.3 238.199 245.48 238.111C245.9 237.901 246.323 237.699 246.748 237.503C247.172 237.308 247.524 237.21 247.802 237.21C248.93 237.21 249.494 238.238 249.494 240.294L249.428 242.433V242.857C249.428 243.238 249.619 243.487 250 243.604C250.161 243.658 250.314 243.697 250.461 243.722C250.612 243.741 250.71 243.761 250.754 243.78C250.803 243.8 250.827 243.839 250.827 243.897C250.827 243.956 250.803 243.99 250.754 244H247.224C247.175 243.99 247.15 243.956 247.15 243.897C247.15 243.805 247.265 243.741 247.495 243.707C248.017 243.634 248.278 243.331 248.278 242.799C248.317 242.555 248.337 242.186 248.337 241.693ZM257.294 238.368C257.265 238.368 257.25 238.39 257.25 238.434V242.477C257.25 242.77 257.314 242.999 257.441 243.165C257.573 243.331 257.739 243.414 257.939 243.414C258.139 243.414 258.312 243.382 258.459 243.319C258.61 243.25 258.74 243.177 258.847 243.099C258.959 243.021 259.06 242.95 259.147 242.887C259.235 242.818 259.313 242.784 259.382 242.784C259.45 242.784 259.484 242.801 259.484 242.835C259.484 242.953 259.472 243.028 259.448 243.062C258.862 243.819 258.295 244.198 257.749 244.198C257.207 244.198 256.796 244.027 256.518 243.685C256.245 243.338 256.108 242.926 256.108 242.447V238.368H255.559C255.422 238.368 255.349 238.324 255.339 238.236C255.334 238.148 255.349 238.092 255.383 238.067C255.642 237.901 255.998 237.604 256.452 237.174C256.501 237.12 256.567 237.04 256.65 236.932C256.733 236.825 256.853 236.678 257.009 236.493C257.17 236.307 257.292 236.214 257.375 236.214C257.458 236.214 257.5 236.249 257.5 236.317C257.5 236.327 257.417 236.646 257.25 237.276C257.25 237.364 257.29 237.411 257.368 237.416H259.235C259.45 237.416 259.558 237.718 259.558 238.324C259.558 238.353 259.538 238.368 259.499 238.368H257.294ZM262.246 238.331C262.246 238.448 262.263 238.507 262.297 238.507C262.331 238.507 262.355 238.5 262.37 238.485C262.385 238.465 262.487 238.351 262.678 238.141C263.229 237.525 263.789 237.218 264.355 237.218C265.097 237.218 265.642 237.384 265.988 237.716C266.413 238.136 266.625 238.841 266.625 239.833V242.887C266.625 243.365 266.889 243.644 267.417 243.722C267.646 243.751 267.761 243.802 267.761 243.875C267.761 243.949 267.736 243.99 267.688 244H264.421C264.372 243.99 264.348 243.956 264.348 243.897C264.348 243.81 264.462 243.751 264.692 243.722C265.219 243.644 265.483 243.365 265.483 242.887V239.906C265.483 239.188 265.432 238.722 265.329 238.507C265.134 238.077 264.726 237.862 264.106 237.862C263.725 237.862 263.32 238.026 262.89 238.353C262.46 238.675 262.246 239.032 262.246 239.422V242.887C262.246 243.365 262.509 243.644 263.037 243.722C263.266 243.751 263.381 243.802 263.381 243.875C263.381 243.949 263.356 243.99 263.308 244H260.041C259.992 243.99 259.968 243.956 259.968 243.897C259.968 243.81 260.083 243.751 260.312 243.722C260.839 243.644 261.103 243.365 261.103 242.887V233.753C261.103 233.548 260.991 233.407 260.766 233.329C260.668 233.294 260.563 233.268 260.451 233.248C260.339 233.224 260.249 233.202 260.18 233.182C260.117 233.163 260.075 233.146 260.056 233.131C260.041 233.111 260.034 233.075 260.034 233.021C260.034 232.962 260.07 232.914 260.144 232.875L262.011 231.996C262.07 231.966 262.106 231.952 262.121 231.952C262.204 231.952 262.246 232.01 262.246 232.127V238.331ZM269.672 240.14C269.589 240.14 269.548 240.318 269.548 240.675C269.548 241.432 269.772 242.066 270.222 242.579C270.671 243.092 271.228 243.348 271.892 243.348C272.561 243.348 273.203 243.06 273.818 242.484C273.828 242.474 273.84 242.469 273.854 242.469H273.891C273.92 242.469 273.947 242.494 273.972 242.542C274.001 242.586 274.028 242.616 274.052 242.63C273.486 243.319 272.819 243.795 272.053 244.059C271.789 244.151 271.491 244.198 271.159 244.198C270.827 244.198 270.49 244.107 270.148 243.927C269.807 243.741 269.514 243.5 269.27 243.202C268.752 242.582 268.493 241.81 268.493 240.887C268.493 239.959 268.774 239.115 269.335 238.353C269.902 237.591 270.678 237.21 271.665 237.21C272.373 237.21 272.951 237.528 273.4 238.163C273.85 238.792 274.074 239.347 274.074 239.825C274.074 240.035 274.023 240.14 273.92 240.14H269.672ZM269.753 239.437C269.753 239.53 269.797 239.576 269.885 239.576H272.646C272.773 239.576 272.836 239.5 272.836 239.349C272.836 238.998 272.678 238.639 272.36 238.272C272.048 237.901 271.704 237.716 271.328 237.716C270.961 237.716 270.627 237.882 270.324 238.214C270.026 238.546 269.836 238.924 269.753 239.349V239.437ZM286.254 237.408C286.308 237.423 286.335 237.457 286.335 237.511C286.335 237.564 286.328 237.604 286.313 237.628C286.298 237.652 286.191 237.679 285.991 237.708C285.791 237.738 285.646 237.796 285.559 237.884C285.476 237.967 285.4 238.062 285.332 238.17C285.268 238.277 285.212 238.39 285.163 238.507C285.114 238.619 285.068 238.722 285.024 238.814L283.024 243.985C282.966 244.127 282.912 244.198 282.863 244.198H282.285C282.236 244.198 282.182 244.122 282.124 243.971L280.183 238.719C280.002 238.226 279.692 237.909 279.252 237.767C279.218 237.757 279.177 237.75 279.128 237.745C278.923 237.726 278.82 237.665 278.82 237.562C278.82 237.459 278.879 237.408 278.996 237.408H282.255C282.294 237.408 282.314 237.447 282.314 237.525C282.314 237.599 282.287 237.647 282.233 237.672C282.146 237.706 281.989 237.721 281.765 237.716C281.398 237.706 281.215 237.853 281.215 238.155L281.259 238.331L282.746 242.396C282.844 242.645 282.941 242.638 283.039 242.374C283.049 242.35 283.112 242.191 283.229 241.898C283.889 240.213 284.257 239.239 284.335 238.976C284.418 238.712 284.46 238.514 284.46 238.382C284.46 238.25 284.389 238.114 284.248 237.972C284.106 237.826 283.916 237.752 283.676 237.752C283.437 237.752 283.317 237.679 283.317 237.533C283.317 237.45 283.371 237.408 283.479 237.408H286.254ZM286.921 244C286.872 243.99 286.848 243.956 286.848 243.897C286.848 243.81 286.962 243.751 287.192 243.722C287.719 243.644 287.983 243.365 287.983 242.887V239.012C287.983 238.807 287.871 238.666 287.646 238.587C287.548 238.553 287.443 238.526 287.331 238.507C287.219 238.482 287.128 238.46 287.06 238.441C286.997 238.421 286.955 238.404 286.936 238.39C286.921 238.37 286.914 238.333 286.914 238.28C286.914 238.221 286.95 238.172 287.023 238.133L288.891 237.254C288.95 237.225 288.986 237.21 289.001 237.21C289.084 237.21 289.125 237.269 289.125 237.386V242.887C289.125 243.365 289.389 243.644 289.917 243.722C290.146 243.751 290.261 243.802 290.261 243.875C290.261 243.949 290.236 243.99 290.188 244H286.921ZM288.444 235.152C288.244 235.152 288.066 235.089 287.91 234.962C287.758 234.835 287.683 234.659 287.683 234.435C287.683 234.205 287.756 234.024 287.902 233.893C288.049 233.761 288.222 233.695 288.422 233.695C288.627 233.695 288.798 233.773 288.935 233.929C289.077 234.085 289.147 234.254 289.147 234.435C289.147 234.615 289.082 234.781 288.95 234.933C288.818 235.079 288.649 235.152 288.444 235.152ZM293.842 243.722C294.072 243.751 294.187 243.81 294.187 243.897C294.187 243.956 294.162 243.99 294.113 244H290.847C290.798 243.99 290.773 243.956 290.773 243.897C290.773 243.81 290.888 243.751 291.118 243.722C291.645 243.644 291.909 243.365 291.909 242.887V233.753C291.909 233.548 291.796 233.407 291.572 233.329C291.474 233.294 291.369 233.268 291.257 233.248C291.145 233.224 291.054 233.202 290.986 233.182C290.922 233.163 290.881 233.146 290.861 233.131C290.847 233.111 290.839 233.075 290.839 233.021C290.839 232.962 290.876 232.914 290.949 232.875L292.817 231.996C292.875 231.966 292.912 231.952 292.927 231.952C293.01 231.952 293.051 232.01 293.051 232.127V242.887C293.051 243.365 293.315 243.644 293.842 243.722ZM297.666 243.722C297.895 243.751 298.01 243.81 298.01 243.897C298.01 243.956 297.985 243.99 297.937 244H294.67C294.621 243.99 294.597 243.956 294.597 243.897C294.597 243.81 294.711 243.751 294.941 243.722C295.468 243.644 295.732 243.365 295.732 242.887V233.753C295.732 233.548 295.62 233.407 295.395 233.329C295.297 233.294 295.192 233.268 295.08 233.248C294.968 233.224 294.877 233.202 294.809 233.182C294.746 233.163 294.704 233.146 294.685 233.131C294.67 233.111 294.663 233.075 294.663 233.021C294.663 232.962 294.699 232.914 294.772 232.875L296.64 231.996C296.699 231.966 296.735 231.952 296.75 231.952C296.833 231.952 296.875 232.01 296.875 232.127V242.887C296.875 243.365 297.138 243.644 297.666 243.722ZM303.312 242.792C303.312 242.918 303.371 243.021 303.488 243.099C303.61 243.172 303.75 243.209 303.906 243.209C304.062 243.209 304.191 243.17 304.294 243.092C304.401 243.009 304.475 242.967 304.514 242.967C304.553 242.967 304.572 243.021 304.572 243.128C304.572 243.231 304.523 243.319 304.426 243.392C303.693 243.929 303.198 244.198 302.939 244.198C302.626 244.198 302.373 243.873 302.177 243.224C302.163 243.175 302.15 243.153 302.141 243.158C301.535 243.612 301.154 243.885 300.998 243.978C300.598 244.208 300.195 244.244 299.79 244.088C299.389 243.932 299.099 243.673 298.918 243.312C298.83 243.126 298.786 242.928 298.786 242.718C298.786 242.303 298.94 241.974 299.248 241.729C299.555 241.485 300.141 241.251 301.005 241.026C301.298 240.948 301.56 240.848 301.789 240.726C302.019 240.604 302.138 240.526 302.148 240.492C302.163 240.458 302.17 240.426 302.17 240.396V238.99C302.17 238.438 301.955 238.05 301.525 237.826C301.384 237.752 301.213 237.716 301.013 237.716C300.817 237.716 300.617 237.794 300.412 237.95C300.212 238.106 300.112 238.329 300.112 238.617L300.148 238.902C300.119 238.961 299.943 239.059 299.621 239.195C299.299 239.332 299.113 239.405 299.064 239.415C298.986 239.415 298.947 239.322 298.947 239.137C298.947 238.946 299.003 238.736 299.116 238.507C299.228 238.277 299.387 238.067 299.592 237.877C300.07 237.433 300.617 237.21 301.232 237.21C301.848 237.21 302.348 237.381 302.734 237.723C303.12 238.06 303.312 238.463 303.312 238.932V242.792ZM299.936 242.579C299.936 242.813 300.026 243.019 300.207 243.194C300.388 243.365 300.593 243.451 300.822 243.451C301.057 243.451 301.34 243.353 301.672 243.158C302.004 242.958 302.17 242.752 302.17 242.542V241.056C302.17 241.002 302.158 240.975 302.133 240.975C302.109 240.975 302.092 240.978 302.082 240.982L300.383 241.773C300.207 241.9 300.087 242.008 300.024 242.096C299.965 242.184 299.936 242.345 299.936 242.579ZM310.761 237.914C310.761 237.914 311.416 237.884 312.724 237.826C312.836 237.826 312.91 237.838 312.944 237.862C312.978 237.887 313.015 237.972 313.054 238.119C313.093 238.26 313.112 238.395 313.112 238.521C313.112 238.648 313.1 238.722 313.076 238.741C313.051 238.761 313.002 238.771 312.929 238.771H311.303C311.333 238.824 311.364 238.88 311.398 238.939C311.433 238.998 311.477 239.095 311.53 239.232C311.584 239.369 311.611 239.581 311.611 239.869C311.611 240.152 311.54 240.45 311.398 240.763C311.262 241.07 311.059 241.344 310.791 241.583C310.195 242.12 309.423 242.389 308.476 242.389C308.227 242.389 307.954 242.342 307.656 242.25C307.583 242.328 307.485 242.401 307.363 242.469C307.241 242.533 307.121 242.599 307.004 242.667C306.711 242.833 306.564 242.999 306.564 243.165C306.564 243.58 307.253 243.792 308.63 243.802C310.007 243.812 310.91 243.858 311.34 243.941C311.774 244.02 312.111 244.178 312.351 244.417C312.727 244.793 312.915 245.223 312.915 245.707C312.915 246.122 312.736 246.549 312.38 246.988C311.76 247.765 310.812 248.282 309.538 248.541C309.084 248.634 308.603 248.68 308.095 248.68C307.172 248.68 306.472 248.512 305.993 248.175C305.515 247.843 305.275 247.44 305.275 246.966C305.275 246.708 305.336 246.493 305.458 246.322C305.581 246.156 305.734 245.997 305.92 245.846C306.11 245.699 306.318 245.543 306.542 245.377C306.767 245.216 306.982 245.008 307.187 244.754C306.718 244.715 306.315 244.566 305.979 244.308C305.646 244.049 305.48 243.795 305.48 243.546C305.48 243.297 305.546 243.114 305.678 242.997C305.81 242.875 305.971 242.772 306.162 242.689C306.352 242.601 306.552 242.521 306.762 242.447C306.972 242.374 307.155 242.279 307.312 242.162C306.765 241.947 306.342 241.651 306.044 241.275C305.747 240.895 305.598 240.479 305.598 240.03C305.598 239.195 305.9 238.514 306.506 237.987C307.116 237.459 307.851 237.196 308.71 237.196C309.57 237.196 310.253 237.435 310.761 237.914ZM306.777 245.553C306.665 245.665 306.572 245.785 306.499 245.912C306.425 246.039 306.389 246.197 306.389 246.388C306.389 246.583 306.457 246.786 306.594 246.996C306.735 247.21 306.926 247.403 307.165 247.574C307.692 247.965 308.327 248.16 309.069 248.16C309.812 248.16 310.483 247.943 311.083 247.508C311.689 247.079 311.992 246.605 311.992 246.087C311.992 245.575 311.743 245.23 311.245 245.055C311.01 244.977 310.407 244.928 309.436 244.908C308.464 244.889 307.834 244.862 307.546 244.828C307.419 244.974 307.287 245.104 307.15 245.216C307.019 245.328 306.894 245.44 306.777 245.553ZM310.41 239.862C310.41 239.173 310.236 238.614 309.89 238.185C309.548 237.75 309.094 237.533 308.527 237.533C307.795 237.533 307.277 237.877 306.975 238.565C306.857 238.829 306.799 239.132 306.799 239.474C306.799 240.172 306.943 240.753 307.231 241.217C307.583 241.773 308.044 242.052 308.615 242.052C309.187 242.052 309.628 241.859 309.941 241.473C310.253 241.087 310.41 240.55 310.41 239.862ZM314.863 240.14C314.78 240.14 314.738 240.318 314.738 240.675C314.738 241.432 314.963 242.066 315.412 242.579C315.861 243.092 316.418 243.348 317.082 243.348C317.751 243.348 318.393 243.06 319.008 242.484C319.018 242.474 319.03 242.469 319.045 242.469H319.082C319.111 242.469 319.138 242.494 319.162 242.542C319.191 242.586 319.218 242.616 319.243 242.63C318.676 243.319 318.01 243.795 317.243 244.059C316.979 244.151 316.682 244.198 316.35 244.198C316.018 244.198 315.681 244.107 315.339 243.927C314.997 243.741 314.704 243.5 314.46 243.202C313.942 242.582 313.684 241.81 313.684 240.887C313.684 239.959 313.964 239.115 314.526 238.353C315.092 237.591 315.869 237.21 316.855 237.21C317.563 237.21 318.142 237.528 318.591 238.163C319.04 238.792 319.265 239.347 319.265 239.825C319.265 240.035 319.213 240.14 319.111 240.14H314.863ZM314.943 239.437C314.943 239.53 314.987 239.576 315.075 239.576H317.836C317.963 239.576 318.027 239.5 318.027 239.349C318.027 238.998 317.868 238.639 317.551 238.272C317.238 237.901 316.894 237.716 316.518 237.716C316.152 237.716 315.817 237.882 315.515 238.214C315.217 238.546 315.026 238.924 314.943 239.349V239.437ZM324.56 240.711C324.56 239.75 324.899 238.924 325.578 238.236C326.262 237.542 327.08 237.196 328.032 237.196C328.984 237.196 329.812 237.533 330.515 238.207C331.218 238.875 331.569 239.703 331.569 240.689C331.569 241.676 331.235 242.508 330.566 243.187C329.902 243.861 329.067 244.198 328.061 244.198C327.055 244.198 326.22 243.856 325.556 243.172C324.892 242.489 324.56 241.668 324.56 240.711ZM326.384 242.594C326.862 243.399 327.514 243.802 328.339 243.802C328.979 243.802 329.467 243.546 329.804 243.033C330.146 242.521 330.317 241.891 330.317 241.144C330.317 240.396 330.078 239.63 329.599 238.844C329.125 238.058 328.486 237.665 327.68 237.665C327.089 237.665 326.623 237.921 326.281 238.434C325.944 238.941 325.776 239.588 325.776 240.375C325.776 241.156 325.979 241.896 326.384 242.594ZM336.645 243.883C336.645 243.961 336.601 244 336.513 244H332.492C332.443 243.99 332.419 243.956 332.419 243.897C332.419 243.81 332.534 243.751 332.763 243.722C333.291 243.644 333.554 243.365 333.554 242.887V238.448C333.554 238.395 333.525 238.368 333.466 238.368H332.668C332.609 238.368 332.553 238.351 332.5 238.316C332.446 238.277 332.419 238.229 332.419 238.17C332.419 238.106 332.448 238.058 332.507 238.023C332.59 237.975 332.785 237.909 333.093 237.826C333.4 237.743 333.554 237.606 333.554 237.416V237.174C333.554 235.416 333.935 234.063 334.697 233.116C335.122 232.584 335.769 232.174 336.638 231.886C336.901 231.798 337.163 231.754 337.421 231.754C337.68 231.754 337.983 231.822 338.33 231.959C338.676 232.091 338.85 232.252 338.85 232.442C338.85 232.481 338.842 232.516 338.828 232.545C338.818 232.574 338.806 232.611 338.791 232.655L338.491 233.299C338.452 233.377 338.405 233.417 338.352 233.417C338.337 233.417 338.232 233.341 338.037 233.189C337.841 233.033 337.634 232.892 337.414 232.765C337.199 232.633 336.945 232.567 336.652 232.567C336.081 232.567 335.649 232.713 335.356 233.006C335.063 233.299 334.88 233.631 334.807 234.002C334.733 234.369 334.697 234.774 334.697 235.218V237.35C334.697 237.389 334.721 237.408 334.77 237.408H336.198C336.335 237.408 336.423 237.423 336.462 237.452C336.506 237.477 336.547 237.564 336.586 237.716C336.625 237.862 336.645 237.999 336.645 238.126C336.645 238.248 336.633 238.319 336.608 238.338C336.584 238.358 336.533 238.368 336.455 238.368H334.792C334.729 238.368 334.697 238.392 334.697 238.441V242.74C334.697 243.438 335.302 243.788 336.513 243.788C336.601 243.797 336.645 243.829 336.645 243.883ZM144.677 261.845C144.677 261.259 144.34 260.966 143.667 260.966C143.559 260.966 143.505 260.946 143.505 260.907V260.731C143.505 260.692 143.525 260.673 143.564 260.673H147.233C147.272 260.673 147.292 260.692 147.292 260.731V260.907C147.292 260.946 147.185 260.966 146.97 260.966C146.755 260.966 146.557 261.034 146.376 261.171C146.196 261.308 146.105 261.588 146.105 262.013V269.828C146.105 270.414 146.445 270.707 147.124 270.707C147.226 270.707 147.277 270.727 147.277 270.766V270.941C147.277 270.98 147.258 271 147.219 271H143.549C143.51 271 143.491 270.98 143.491 270.941V270.766C143.491 270.727 143.598 270.707 143.813 270.707C144.028 270.707 144.226 270.639 144.406 270.502C144.587 270.365 144.677 270.084 144.677 269.66V261.845ZM152.023 265.99C152.023 266.098 151.982 266.151 151.899 266.151C151.821 266.151 151.76 266.093 151.716 265.976C151.599 265.653 151.423 265.368 151.188 265.119C150.959 264.87 150.673 264.745 150.332 264.745C149.882 264.745 149.58 264.97 149.423 265.419C149.375 265.57 149.35 265.727 149.35 265.888C149.35 266.049 149.453 266.229 149.658 266.43C149.863 266.625 150.2 266.859 150.668 267.133C151.137 267.406 151.479 267.638 151.694 267.829C152.182 268.263 152.426 268.766 152.426 269.337C152.426 269.909 152.216 270.363 151.796 270.7C151.376 271.032 150.888 271.198 150.332 271.198C150.034 271.198 149.763 271.156 149.519 271.073C149.279 270.995 149.14 270.956 149.101 270.956C149.067 270.956 149.008 270.995 148.925 271.073C148.847 271.156 148.784 271.198 148.735 271.198H148.61C148.581 271.198 148.544 270.934 148.5 270.407C148.457 269.879 148.435 269.567 148.435 269.469C148.435 269.372 148.442 269.318 148.457 269.308C148.476 269.298 148.505 269.293 148.544 269.293C148.583 269.293 148.615 269.306 148.64 269.33C148.669 269.354 148.693 269.386 148.713 269.425C148.732 269.459 148.747 269.496 148.757 269.535C148.771 269.574 148.803 269.647 148.852 269.755C149.184 270.463 149.697 270.817 150.39 270.817C150.698 270.817 150.944 270.705 151.13 270.48C151.315 270.25 151.408 269.997 151.408 269.718C151.408 269.44 151.335 269.206 151.188 269.015C151.042 268.825 150.859 268.651 150.639 268.495C150.424 268.339 150.19 268.188 149.936 268.041C148.95 267.465 148.457 266.828 148.457 266.129C148.457 265.607 148.681 265.158 149.13 264.782C149.58 264.401 150.041 264.21 150.515 264.21C150.988 264.21 151.337 264.262 151.562 264.364C151.792 264.467 151.926 264.555 151.965 264.628C152.004 264.696 152.023 264.926 152.023 265.316V265.99ZM159.245 265.089C159.245 265.431 159.047 265.602 158.652 265.602C158.452 265.602 158.281 265.546 158.139 265.434C158.002 265.316 157.895 265.219 157.817 265.141C157.744 265.058 157.666 264.982 157.583 264.914C157.231 264.625 156.801 264.594 156.293 264.818C155.791 265.043 155.402 265.521 155.129 266.254C154.978 266.659 154.902 267.062 154.902 267.462C154.902 268.322 155.097 269.025 155.488 269.572C155.878 270.114 156.477 270.385 157.282 270.385C157.883 270.385 158.422 270.116 158.901 269.579C159.047 269.418 159.135 269.337 159.165 269.337C159.194 269.337 159.226 269.352 159.26 269.381C159.294 269.411 159.311 269.455 159.311 269.513C159.311 269.567 159.296 269.608 159.267 269.638C158.52 270.678 157.58 271.198 156.447 271.198C155.627 271.198 154.953 270.893 154.426 270.282C153.903 269.672 153.642 268.974 153.642 268.188C153.647 266.732 153.999 265.685 154.697 265.045C155.312 264.484 156.188 264.203 157.326 264.203C158.029 264.203 158.496 264.274 158.725 264.416C158.955 264.557 159.116 264.735 159.208 264.95C159.233 264.999 159.245 265.045 159.245 265.089ZM164.863 269.792C164.863 269.918 164.921 270.021 165.039 270.099C165.161 270.172 165.3 270.209 165.456 270.209C165.612 270.209 165.742 270.17 165.844 270.092C165.952 270.009 166.025 269.967 166.064 269.967C166.103 269.967 166.123 270.021 166.123 270.128C166.123 270.231 166.074 270.319 165.976 270.392C165.244 270.929 164.748 271.198 164.489 271.198C164.177 271.198 163.923 270.873 163.728 270.224C163.713 270.175 163.701 270.153 163.691 270.158C163.085 270.612 162.705 270.885 162.548 270.978C162.148 271.208 161.745 271.244 161.34 271.088C160.939 270.932 160.649 270.673 160.468 270.312C160.38 270.126 160.336 269.928 160.336 269.718C160.336 269.303 160.49 268.974 160.798 268.729C161.105 268.485 161.691 268.251 162.556 268.026C162.849 267.948 163.11 267.848 163.339 267.726C163.569 267.604 163.688 267.526 163.698 267.492C163.713 267.458 163.72 267.426 163.72 267.396V265.99C163.72 265.438 163.505 265.05 163.076 264.826C162.934 264.752 162.763 264.716 162.563 264.716C162.368 264.716 162.167 264.794 161.962 264.95C161.762 265.106 161.662 265.329 161.662 265.617L161.699 265.902C161.669 265.961 161.494 266.059 161.171 266.195C160.849 266.332 160.664 266.405 160.615 266.415C160.537 266.415 160.498 266.322 160.498 266.137C160.498 265.946 160.554 265.736 160.666 265.507C160.778 265.277 160.937 265.067 161.142 264.877C161.621 264.433 162.167 264.21 162.783 264.21C163.398 264.21 163.898 264.381 164.284 264.723C164.67 265.06 164.863 265.463 164.863 265.932V269.792ZM161.486 269.579C161.486 269.813 161.577 270.019 161.757 270.194C161.938 270.365 162.143 270.451 162.373 270.451C162.607 270.451 162.89 270.353 163.222 270.158C163.554 269.958 163.72 269.752 163.72 269.542V268.056C163.72 268.002 163.708 267.975 163.684 267.975C163.659 267.975 163.642 267.978 163.632 267.982L161.933 268.773C161.757 268.9 161.638 269.008 161.574 269.096C161.516 269.184 161.486 269.345 161.486 269.579ZM171.279 265.749C171.22 265.739 171.135 265.707 171.022 265.653C170.617 265.468 170.3 265.375 170.07 265.375C169.841 265.375 169.599 265.519 169.345 265.807C169.096 266.09 168.972 266.347 168.972 266.576V269.887C168.972 270.253 169.184 270.497 169.609 270.619C169.794 270.668 169.968 270.705 170.129 270.729C170.29 270.749 170.393 270.768 170.437 270.788C170.485 270.807 170.51 270.846 170.51 270.905C170.51 270.958 170.485 270.99 170.437 271H166.767C166.718 270.99 166.694 270.956 166.694 270.897C166.694 270.81 166.809 270.751 167.038 270.722C167.565 270.644 167.829 270.365 167.829 269.887V266.012C167.829 265.807 167.717 265.666 167.492 265.587C167.395 265.553 167.29 265.526 167.177 265.507C167.065 265.482 166.975 265.46 166.906 265.441C166.843 265.421 166.801 265.404 166.782 265.39C166.767 265.37 166.76 265.333 166.76 265.28C166.76 265.221 166.796 265.172 166.87 265.133L168.737 264.254C168.796 264.225 168.833 264.21 168.847 264.21C168.93 264.21 168.972 264.269 168.972 264.386V265.573C168.972 265.631 168.986 265.661 169.016 265.661C169.055 265.661 169.155 265.546 169.316 265.316C169.78 264.667 170.163 264.342 170.466 264.342C170.637 264.342 170.898 264.411 171.25 264.547C171.606 264.684 171.784 264.799 171.784 264.892C171.784 265.004 171.728 265.175 171.616 265.404C171.503 265.634 171.391 265.749 171.279 265.749ZM174.714 270.619C174.714 271.527 174.287 272.284 173.432 272.89C173.237 273.031 173.09 273.102 172.993 273.102C172.919 273.102 172.883 273.036 172.883 272.904C172.883 272.826 172.934 272.75 173.037 272.677C173.144 272.609 173.222 272.553 173.271 272.509C173.764 272.064 174.011 271.662 174.011 271.3C174.011 271.159 173.981 271.073 173.923 271.044C173.869 271.015 173.75 271 173.564 271C173.378 271 173.183 270.929 172.978 270.788C172.778 270.646 172.678 270.438 172.678 270.165C172.678 269.892 172.744 269.696 172.875 269.579C173.1 269.374 173.315 269.271 173.52 269.271C173.901 269.271 174.194 269.423 174.399 269.726C174.609 270.023 174.714 270.321 174.714 270.619ZM185.81 260.761C185.859 260.761 185.883 260.814 185.883 260.922L186.074 262.482C186.093 262.58 186.103 262.643 186.103 262.672C186.103 262.697 186.064 262.709 185.986 262.709C185.913 262.709 185.866 262.699 185.847 262.68C185.827 262.66 185.808 262.628 185.788 262.584C185.769 262.536 185.744 262.482 185.715 262.423C185.69 262.365 185.664 262.306 185.634 262.248C185.532 262.023 185.371 261.801 185.151 261.581C184.614 261.063 184.008 260.805 183.334 260.805C182.929 260.805 182.546 260.937 182.185 261.2C181.823 261.464 181.643 261.776 181.643 262.138C181.643 262.494 181.708 262.804 181.84 263.068C181.977 263.332 182.155 263.576 182.375 263.8C182.595 264.025 182.846 264.24 183.129 264.445C183.413 264.65 183.701 264.857 183.994 265.067C184.77 265.609 185.322 266.073 185.649 266.459C186.162 267.055 186.44 267.724 186.484 268.466C186.484 269.296 186.164 269.96 185.524 270.458C184.89 270.951 184.15 271.198 183.305 271.198C182.763 271.198 182.331 271.142 182.009 271.029C181.691 270.922 181.472 270.844 181.35 270.795C181.228 270.746 181.137 270.722 181.079 270.722C181.025 270.722 180.991 270.724 180.976 270.729L180.617 270.802C180.554 270.802 180.515 270.751 180.5 270.648C180.358 269.438 180.288 268.795 180.288 268.722C180.288 268.644 180.292 268.593 180.302 268.568C180.317 268.539 180.351 268.524 180.405 268.524C180.542 268.524 180.666 268.72 180.778 269.11C181.291 270.209 182.143 270.758 183.334 270.758C183.881 270.758 184.348 270.592 184.733 270.26C185.124 269.928 185.319 269.496 185.319 268.964C185.319 268.114 184.812 267.323 183.796 266.591C183.508 266.386 183.093 266.1 182.551 265.734C182.009 265.368 181.577 265.001 181.254 264.635C180.751 264.069 180.5 263.439 180.5 262.746C180.5 262.047 180.776 261.476 181.328 261.032C181.884 260.587 182.521 260.365 183.239 260.365C183.61 260.365 184.018 260.429 184.462 260.556C184.912 260.683 185.224 260.768 185.4 260.812L185.81 260.761ZM193.171 270.231C192.497 270.875 191.74 271.198 190.9 271.198C190.598 271.198 190.185 271.142 189.663 271.029C189.58 271.029 189.533 271.059 189.523 271.117C189.519 271.176 189.514 271.237 189.509 271.3V274.428C189.509 274.794 189.721 275.038 190.146 275.16C190.332 275.209 190.505 275.243 190.666 275.263C190.827 275.287 190.93 275.309 190.974 275.329C191.022 275.348 191.047 275.385 191.047 275.438C191.047 275.497 191.022 275.531 190.974 275.541H187.304C187.255 275.531 187.231 275.497 187.231 275.438C187.231 275.351 187.346 275.292 187.575 275.263C188.103 275.185 188.366 274.906 188.366 274.428V265.646C188.366 265.441 188.254 265.299 188.029 265.221C187.932 265.187 187.827 265.16 187.714 265.141C187.602 265.116 187.512 265.094 187.443 265.075C187.38 265.055 187.338 265.038 187.319 265.023C187.304 265.004 187.297 264.967 187.297 264.914C187.297 264.855 187.333 264.806 187.407 264.767L189.274 263.874C189.313 263.854 189.353 263.844 189.392 263.844C189.47 263.844 189.509 263.903 189.509 264.02V264.95C189.509 265.004 189.536 265.031 189.589 265.031C189.648 265.031 189.785 264.96 190 264.818C190.62 264.418 191.264 264.218 191.933 264.218C192.402 264.218 192.832 264.408 193.222 264.789C193.735 265.287 194.077 265.98 194.248 266.869C194.296 267.123 194.321 267.394 194.321 267.682C194.321 267.965 194.274 268.266 194.182 268.583C193.996 269.213 193.659 269.762 193.171 270.231ZM191.076 264.979C190.412 264.979 189.89 265.17 189.509 265.551V269.667C189.509 269.911 189.55 270.07 189.633 270.143C189.848 270.329 190.178 270.473 190.622 270.575C191.501 270.775 192.185 270.565 192.673 269.945C193.02 269.501 193.193 268.964 193.193 268.334C193.193 267.108 192.917 266.19 192.365 265.58C192.033 265.209 191.604 265.009 191.076 264.979ZM200.166 269.792C200.166 269.918 200.224 270.021 200.341 270.099C200.463 270.172 200.603 270.209 200.759 270.209C200.915 270.209 201.044 270.17 201.147 270.092C201.254 270.009 201.328 269.967 201.367 269.967C201.406 269.967 201.425 270.021 201.425 270.128C201.425 270.231 201.376 270.319 201.279 270.392C200.546 270.929 200.051 271.198 199.792 271.198C199.479 271.198 199.226 270.873 199.03 270.224C199.016 270.175 199.003 270.153 198.994 270.158C198.388 270.612 198.007 270.885 197.851 270.978C197.451 271.208 197.048 271.244 196.643 271.088C196.242 270.932 195.952 270.673 195.771 270.312C195.683 270.126 195.639 269.928 195.639 269.718C195.639 269.303 195.793 268.974 196.101 268.729C196.408 268.485 196.994 268.251 197.858 268.026C198.151 267.948 198.413 267.848 198.642 267.726C198.872 267.604 198.991 267.526 199.001 267.492C199.016 267.458 199.023 267.426 199.023 267.396V265.99C199.023 265.438 198.808 265.05 198.378 264.826C198.237 264.752 198.066 264.716 197.866 264.716C197.67 264.716 197.47 264.794 197.265 264.95C197.065 265.106 196.965 265.329 196.965 265.617L197.001 265.902C196.972 265.961 196.796 266.059 196.474 266.195C196.152 266.332 195.966 266.405 195.917 266.415C195.839 266.415 195.8 266.322 195.8 266.137C195.8 265.946 195.856 265.736 195.969 265.507C196.081 265.277 196.24 265.067 196.445 264.877C196.923 264.433 197.47 264.21 198.085 264.21C198.701 264.21 199.201 264.381 199.587 264.723C199.973 265.06 200.166 265.463 200.166 265.932V269.792ZM196.789 269.579C196.789 269.813 196.879 270.019 197.06 270.194C197.241 270.365 197.446 270.451 197.675 270.451C197.91 270.451 198.193 270.353 198.525 270.158C198.857 269.958 199.023 269.752 199.023 269.542V268.056C199.023 268.002 199.011 267.975 198.986 267.975C198.962 267.975 198.945 267.978 198.935 267.982L197.236 268.773C197.06 268.9 196.94 269.008 196.877 269.096C196.818 269.184 196.789 269.345 196.789 269.579ZM202.128 271C202.08 270.99 202.055 270.956 202.055 270.897C202.055 270.81 202.17 270.751 202.399 270.722C202.927 270.644 203.19 270.365 203.19 269.887V266.012C203.19 265.807 203.078 265.666 202.854 265.587C202.756 265.553 202.651 265.526 202.539 265.507C202.426 265.482 202.336 265.46 202.268 265.441C202.204 265.421 202.163 265.404 202.143 265.39C202.128 265.37 202.121 265.333 202.121 265.28C202.121 265.221 202.158 265.172 202.231 265.133L204.099 264.254C204.157 264.225 204.194 264.21 204.208 264.21C204.292 264.21 204.333 264.269 204.333 264.386V269.887C204.333 270.365 204.597 270.644 205.124 270.722C205.354 270.751 205.468 270.802 205.468 270.875C205.468 270.949 205.444 270.99 205.395 271H202.128ZM203.652 262.152C203.452 262.152 203.273 262.089 203.117 261.962C202.966 261.835 202.89 261.659 202.89 261.435C202.89 261.205 202.963 261.024 203.11 260.893C203.256 260.761 203.43 260.695 203.63 260.695C203.835 260.695 204.006 260.773 204.143 260.929C204.284 261.085 204.355 261.254 204.355 261.435C204.355 261.615 204.289 261.781 204.157 261.933C204.025 262.079 203.857 262.152 203.652 262.152ZM211.723 268.693L211.708 267.147C211.708 266.518 211.655 266.076 211.547 265.822C211.44 265.568 211.303 265.377 211.137 265.25C210.971 265.119 210.747 265.053 210.463 265.053C210.185 265.053 209.592 265.272 208.684 265.712C208.562 265.785 208.498 265.854 208.493 265.917V269.857C208.493 270.351 208.757 270.634 209.284 270.707C209.514 270.741 209.628 270.797 209.628 270.875C209.628 270.949 209.604 270.99 209.555 271H206.289C206.24 270.99 206.215 270.956 206.215 270.897C206.215 270.805 206.33 270.741 206.56 270.707C207.087 270.634 207.351 270.351 207.351 269.857V265.653C207.351 265.448 207.238 265.307 207.014 265.229C206.916 265.194 206.811 265.167 206.699 265.148C206.586 265.124 206.496 265.102 206.428 265.082C206.364 265.062 206.323 265.045 206.303 265.031C206.289 265.011 206.281 264.975 206.281 264.921C206.281 264.862 206.318 264.813 206.391 264.774L208.259 263.896C208.317 263.866 208.354 263.852 208.369 263.852C208.452 263.852 208.493 263.91 208.493 264.027V265.17C208.508 265.219 208.527 265.243 208.552 265.243C208.581 265.243 208.686 265.199 208.867 265.111C209.287 264.901 209.709 264.699 210.134 264.503C210.559 264.308 210.91 264.21 211.188 264.21C212.316 264.21 212.88 265.238 212.88 267.294L212.814 269.433V269.857C212.814 270.238 213.005 270.487 213.386 270.604C213.547 270.658 213.701 270.697 213.847 270.722C213.999 270.741 214.096 270.761 214.14 270.78C214.189 270.8 214.213 270.839 214.213 270.897C214.213 270.956 214.189 270.99 214.14 271H210.61C210.561 270.99 210.537 270.956 210.537 270.897C210.537 270.805 210.651 270.741 210.881 270.707C211.403 270.634 211.665 270.331 211.665 269.799C211.704 269.555 211.723 269.186 211.723 268.693ZM215.312 270.268C215.312 270.004 215.405 269.777 215.59 269.586C215.776 269.391 216 269.293 216.264 269.293C216.523 269.293 216.745 269.389 216.931 269.579C217.121 269.765 217.216 269.992 217.216 270.26C217.216 270.529 217.124 270.753 216.938 270.934C216.752 271.11 216.528 271.198 216.264 271.198C216.005 271.198 215.781 271.107 215.59 270.927C215.405 270.746 215.312 270.526 215.312 270.268Z" fill="black"/>
<path d="M146.319 79.025C140.704 76.6703 138.555 78.1358 138.555 84.3187C138.555 89.1418 138.833 93.9852 138.484 98.7829C138.057 104.647 140.473 109.326 142.945 114.412C146.102 120.909 150.823 125.805 155.908 130.486C158.869 133.212 160.254 136.148 159.754 140.084C159.651 140.89 159.858 141.736 159.934 142.728H176.669C176.669 136.556 176.731 130.555 176.606 124.554C176.586 123.604 175.91 122.506 175.229 121.756C169.633 115.592 163.915 109.54 158.362 103.339C157.309 102.164 156.062 102.008 154.652 101.741C153.583 102.717 152.678 104.038 151.965 105.498" stroke="black" stroke-width="2" stroke-linecap="round" stroke-linejoin="round"/>
<path d="M209.845 105.494L207.622 102.063C204.337 101.065 202.844 103.661 201.48 105.234C197.216 110.146 192.72 114.835 188.29 119.586C186.1 121.936 184.884 124.374 185.07 127.732C185.344 132.66 185.141 137.615 185.141 142.725H202.317C199.767 134.412 205.795 130.411 210.602 126.017C216.528 120.601 219.062 113.199 222.928 106.567C223.492 105.598 223.223 104.662 223.23 103.728C223.277 97.2586 223.255 90.7881 223.255 84.3172C223.255 78.1343 221.106 76.6689 215.492 79.0236" stroke="black" stroke-width="2" stroke-linecap="round" stroke-linejoin="round"/>
<path d="M180.904 62.0855C179.964 61.4975 178.989 60.9575 178.084 60.3136C172.36 56.2481 166.973 58.3457 163.651 62.1217C160.094 66.1637 159.916 72.457 164.011 76.5037C169.399 81.8302 175.132 86.8066 180.884 92.088C184.543 88.798 188.028 85.688 191.484 82.547C193.393 80.8117 195.265 79.0356 197.133 77.2557C201.436 73.1554 202.369 66.7277 197.784 61.7833C193.713 57.3939 186.542 57.6402 180.911 62.0714" stroke="black" stroke-width="2" stroke-linecap="round" stroke-linejoin="round"/>
<path d="M154.436 101.612C153.655 96.3326 154.077 91.0183 154.185 85.7327C154.229 83.6026 153.934 81.505 154.036 79.3759C154.175 76.4901 152.918 75.1436 150.554 75.1436C148.381 75.1436 146.425 77.2609 146.708 79.727C147.41 85.8436 146.779 91.9686 147.045 98.0819C147.092 99.1573 146.716 100.233 147.697 101.29C152.95 106.935 156.591 113.891 162.2 119.257" stroke="black" stroke-width="2" stroke-linecap="round" stroke-linejoin="round"/>
<path d="M207.372 101.612C208.153 96.3326 207.731 91.0183 207.623 85.7327C207.579 83.6026 207.874 81.505 207.772 79.3759C207.631 76.4901 208.89 75.1436 211.255 75.1436C213.427 75.1436 215.383 77.2609 215.101 79.727C214.399 85.8436 215.029 91.9686 214.764 98.0819C214.717 99.1573 215.093 100.233 214.111 101.29C208.858 106.935 205.218 113.891 199.608 119.257" stroke="black" stroke-width="2" stroke-linecap="round" stroke-linejoin="round"/>
<path d="M167.67 111.846C168.825 107.652 168.19 103.365 168.097 99.1438C168.037 96.4179 165.902 95.8647 161.846 97.0241" stroke="black" stroke-width="2" stroke-linecap="round" stroke-linejoin="round"/>
<path d="M199.961 97.0239C195.198 95.2962 192.996 97.0093 193.588 101.967C193.979 105.242 193.003 108.603 194.139 111.846" stroke="black" stroke-width="2" stroke-linecap="round" stroke-linejoin="round"/>
<path d="M160.435 104.788C161.602 101.44 161.109 97.9785 161.14 94.5536C161.156 92.7887 160.972 91.0041 161.176 89.2637C161.755 84.3047 159.554 82.5897 154.791 84.3188" stroke="black" stroke-width="2" stroke-linecap="round" stroke-linejoin="round"/>
<path d="M207.02 84.3189C202.256 82.5916 200.185 84.2954 200.605 89.2651C200.92 93.0026 200.723 96.7898 200.64 100.552C200.606 102.041 200.885 103.419 201.373 104.788" stroke="black" stroke-width="2" stroke-linecap="round" stroke-linejoin="round"/>
</svg>
