<svg width="360" height="371" viewBox="0 0 360 371" fill="none" xmlns="http://www.w3.org/2000/svg">
<path d="M0 1H360V371H0V1Z" fill="#F8F8F8"/>
<path d="M208.576 135.689C208.775 134.961 209.241 134.408 209.788 133.933C213.617 130.616 216.678 126.678 219.122 122.265C221.465 118.035 223.054 113.502 223.826 108.738C224.36 105.44 224.565 102.111 224.348 98.7332C224.032 93.8075 222.99 89.102 221.124 84.5445C219.124 79.6688 216.319 75.3319 212.76 71.4563C210.056 68.5114 207.019 65.9685 203.619 63.885C198.897 60.9905 193.822 59.0194 188.345 58.0121C184.61 57.3291 180.802 57.1382 177.017 57.4442C171.143 57.9098 165.543 59.4957 160.278 62.301C155.192 65.0116 150.833 68.5162 147.074 72.871C144.734 75.5836 142.806 78.5494 141.189 81.7048C139.383 85.2342 138.177 88.9983 137.403 92.904C136.884 95.5259 136.643 98.1798 136.586 100.827C136.532 103.479 136.744 106.13 137.222 108.74C138.059 113.32 139.519 117.718 141.732 121.82C143.287 124.702 145.155 127.404 147.302 129.875C150.132 133.141 153.354 135.903 156.989 138.232C161.638 141.211 166.635 143.252 172.063 144.278C175.049 144.842 178.034 145.283 181.084 145.092" stroke="black" stroke-width="2" stroke-linecap="round" stroke-linejoin="round"/>
<path d="M190.869 85.0989C191.266 84.2012 191.126 83.3001 190.747 82.4654C189.922 80.6524 189.026 78.9055 187.909 77.2119C186.936 75.736 185.954 74.2359 184.915 72.7925C184.187 71.7823 183.346 70.8487 182.503 69.931C181.639 68.9896 179.62 68.9431 178.678 69.9393C176.846 71.8759 175.079 73.9299 173.786 76.2336C172.809 77.9733 171.458 79.5093 170.827 81.4634C170.475 82.5536 170.009 83.5974 170.088 84.7706C170.131 85.4059 169.558 85.7779 169.506 86.4196C169.205 90.206 170.432 93.4036 173.175 95.9741C175.187 97.8602 177.616 98.871 180.53 98.8467V131.73" stroke="black" stroke-width="2" stroke-linecap="round" stroke-linejoin="round"/>
<path d="M192.849 99.8359C193.214 100.486 193.334 101.178 193.295 101.926C193.138 104.863 193.502 107.788 193.541 110.723C193.563 112.421 194.782 113.515 196.479 113.689C199.295 113.976 202.122 113.943 204.946 113.897C205.823 113.876 206.691 114.07 207.476 114.463" stroke="black" stroke-width="2" stroke-linecap="round" stroke-linejoin="round"/>
<path d="M168.214 99.8359C167.848 100.486 167.729 101.178 167.767 101.926C167.925 104.863 167.603 107.79 167.525 110.723C167.481 112.415 166.284 113.509 164.583 113.69C161.84 113.981 159.086 113.932 156.335 113.9C155.388 113.883 154.449 114.076 153.585 114.463" stroke="black" stroke-width="2" stroke-linecap="round" stroke-linejoin="round"/>
<path d="M190.429 116.993C195.029 121.629 202.834 121.01 206.851 115.944C207.787 114.764 208.867 113.502 209.364 111.939C209.806 110.547 210.643 109.248 210.63 107.755C210.622 106.801 211.192 106.092 211.327 105.225C211.627 103.291 211.928 101.366 212.044 99.3997C212.107 98.3109 212.135 97.388 211.571 96.4116C211.091 95.5789 210.387 95.3315 209.565 95.2239C208.126 95.0357 206.706 95.38 205.278 95.4664C204.12 95.5345 202.976 95.7548 201.876 96.1216C199.704 96.8578 197.337 96.8515 195.259 97.9481C194.426 98.388 193.52 98.7033 192.982 99.521C192.897 99.6559 192.772 99.7602 192.624 99.8188C189.29 100.886 188.151 103.796 187.424 106.673C186.462 110.484 187.437 114.022 190.319 116.882" stroke="black" stroke-width="2" stroke-linecap="round" stroke-linejoin="round"/>
<path d="M170.743 116.883C174.826 112.989 174.993 106.332 171.308 101.913C170.509 100.953 169.795 100.008 168.437 99.8139C167.96 99.7469 167.903 99.0718 167.449 98.8361C165.332 97.7424 163.241 96.5905 160.735 96.7506C160.617 96.7556 160.501 96.7167 160.41 96.6415C159.568 95.8524 158.425 95.817 157.43 95.7117C155.678 95.5264 153.938 95.1297 152.157 95.2097C150.598 95.281 149.495 96.0008 148.978 97.4199C148.862 97.734 148.825 98.072 148.87 98.404C149.234 100.632 149.184 102.914 149.735 105.115C149.752 105.184 149.717 105.269 149.74 105.333C150.619 107.758 150.718 110.421 152.043 112.705C152.349 113.233 152.565 113.807 153.137 114.149C153.314 114.254 153.516 114.38 153.605 114.677C154.322 117.042 156.29 118.115 158.319 119.075C162.457 121.031 167.544 120.179 170.633 116.992" stroke="black" stroke-width="2" stroke-linecap="round" stroke-linejoin="round"/>
<path d="M180.641 93.1269C181.66 93.0206 182.455 92.5492 183.183 91.8174C185.052 89.9472 186.978 88.1314 188.893 86.3097C189.436 85.7937 189.995 85.2825 190.805 85.0851C191.779 86.1443 191.793 87.3321 191.581 88.7333C191.333 90.3793 190.945 91.9653 190.071 93.3272C187.886 96.7338 184.84 98.8111 180.531 98.8455V69.3721" stroke="black" stroke-width="2" stroke-linecap="round" stroke-linejoin="round"/>
<path d="M200.547 96.8662C200.98 98.3149 200.693 99.799 200.762 101.266C200.827 102.624 200.903 103.924 201.724 105.137C202.334 106.038 203.106 106.389 204.067 106.42C205.678 106.473 207.293 106.449 208.905 106.426C209.473 106.419 210.021 106.475 210.554 106.654" stroke="black" stroke-width="2" stroke-linecap="round" stroke-linejoin="round"/>
<path d="M160.518 96.8662C160.268 97.4686 160.304 98.103 160.294 98.7359C160.27 100.239 160.387 101.769 160.148 103.238C159.843 105.102 158.708 106.468 156.89 106.439C155.314 106.414 153.737 106.448 152.161 106.426C151.593 106.418 151.045 106.474 150.512 106.654" stroke="black" stroke-width="2" stroke-linecap="round" stroke-linejoin="round"/>
<path d="M170.303 84.9888C170.944 85.1212 171.393 85.5339 171.849 85.9728C174.035 88.0768 176.248 90.1526 178.438 92.2512C179.002 92.7915 179.627 93.1048 180.421 93.0175" stroke="black" stroke-width="2" stroke-linecap="round" stroke-linejoin="round"/>
<path d="M193.949 113.253C190.282 116.919 186.565 120.536 182.977 124.276C181.599 125.712 179.464 125.712 178.086 124.276C174.497 120.536 170.78 116.919 167.114 113.253" stroke="black" stroke-width="2" stroke-linecap="round" stroke-linejoin="round"/>
<path d="M206.871 127.661C206.889 129.567 206.92 131.473 206.92 133.379C206.92 134.013 207.038 134.577 207.34 135.153C207.54 135.537 207.786 135.568 208.123 135.718C210.517 136.791 213.05 136.141 215.504 136.404" stroke="black" stroke-width="2" stroke-linecap="round" stroke-linejoin="round"/>
<path d="M210.775 96.5366L202.307 104.895" stroke="black" stroke-width="2" stroke-linecap="round" stroke-linejoin="round"/>
<path d="M150.398 96.5366L158.756 104.895" stroke="black" stroke-width="2" stroke-linecap="round" stroke-linejoin="round"/>
<path d="M187.678 77.2905C185.952 78.3221 184.802 79.9905 183.291 81.2641C182.493 81.9373 181.745 82.6192 180.639 82.6794" stroke="black" stroke-width="2" stroke-linecap="round" stroke-linejoin="round"/>
<path d="M173.603 77.4004C175.273 78.6493 176.691 80.1775 178.21 81.5947C178.862 82.2033 179.543 82.6083 180.424 82.6791" stroke="black" stroke-width="2" stroke-linecap="round" stroke-linejoin="round"/>
<path d="M159.526 105.775L166.234 112.371" stroke="black" stroke-width="2" stroke-linecap="round" stroke-linejoin="round"/>
<path d="M201.537 105.775L194.828 112.371" stroke="black" stroke-width="2" stroke-linecap="round" stroke-linejoin="round"/>
<path d="M38.1758 236.966C37.5898 236.966 37.2969 237.19 37.2969 237.64C37.2969 237.723 37.3115 237.811 37.3408 237.903C37.375 237.996 37.4043 238.094 37.4287 238.196L40.2339 244.949C40.2583 244.998 40.2974 245.022 40.3511 245.022C40.4048 245.022 40.4487 244.996 40.4829 244.942L42.1016 241.133L40.6733 237.684C40.5854 237.464 40.2192 237.254 39.5747 237.054C39.3843 236.995 39.2598 236.966 39.2012 236.966C39.1475 236.966 39.1206 236.946 39.1206 236.907V236.731C39.1206 236.692 39.1401 236.673 39.1792 236.673H45.8882C45.9272 236.673 45.9468 236.692 45.9468 236.731V236.907C45.9468 236.946 45.9272 236.966 45.8882 236.966H45.6172C45.1484 236.966 44.792 237.195 44.5479 237.654C44.4648 237.811 44.3794 237.994 44.2915 238.204L43.3394 240.438L45.2144 244.949C45.2388 244.998 45.2778 245.022 45.3315 245.022C45.3853 245.022 45.4292 244.996 45.4634 244.942L48.5615 237.654C48.6201 237.518 48.6494 237.396 48.6494 237.288C48.6494 237.073 48.3687 236.966 47.8071 236.966H47.353C47.314 236.966 47.2944 236.946 47.2944 236.907V236.731C47.2944 236.692 47.314 236.673 47.353 236.673H50.6123C50.6514 236.673 50.6709 236.692 50.6709 236.731V236.907C50.6709 236.946 50.6514 236.966 50.6123 236.966H50.2681C50.0532 236.966 49.8896 237.042 49.7773 237.193C49.6699 237.339 49.5161 237.642 49.3159 238.101L45.5513 246.941C45.4976 247.059 45.4414 247.129 45.3828 247.154C45.3242 247.183 45.2388 247.198 45.1265 247.198H44.7822C44.665 247.198 44.5869 247.144 44.5479 247.037L42.5703 242.247L40.5708 246.941C40.5171 247.059 40.4609 247.129 40.4023 247.154C40.3438 247.183 40.2583 247.198 40.146 247.198H39.8018C39.6846 247.198 39.6089 247.142 39.5747 247.029L35.6929 237.684C35.6147 237.493 35.373 237.327 34.9678 237.186C34.5625 237.039 34.311 236.966 34.2134 236.966C34.1206 236.966 34.0742 236.946 34.0742 236.907V236.731C34.0742 236.692 34.0938 236.673 34.1328 236.673H38.3076C38.3467 236.673 38.3662 236.692 38.3662 236.731V236.907C38.3662 236.946 38.3467 236.966 38.3076 236.966H38.1758ZM43.6689 237.31C43.6689 237.105 43.459 236.993 43.0391 236.973C42.6143 236.998 42.3701 237.146 42.3066 237.42C42.2871 237.488 42.2773 237.564 42.2773 237.647C42.2773 237.725 42.292 237.811 42.3213 237.903C42.3555 237.996 42.3848 238.094 42.4092 238.196L42.8706 239.317L43.5811 237.654C43.6396 237.518 43.6689 237.403 43.6689 237.31ZM52.3921 243.14C52.3091 243.14 52.2676 243.318 52.2676 243.675C52.2676 244.432 52.4922 245.066 52.9414 245.579C53.3906 246.092 53.9473 246.348 54.6113 246.348C55.2803 246.348 55.9224 246.06 56.5376 245.484C56.5474 245.474 56.5596 245.469 56.5742 245.469H56.6108C56.6401 245.469 56.667 245.494 56.6914 245.542C56.7207 245.586 56.7476 245.616 56.772 245.63C56.2056 246.319 55.5391 246.795 54.7725 247.059C54.5088 247.151 54.2109 247.198 53.8789 247.198C53.5469 247.198 53.21 247.107 52.8682 246.927C52.5264 246.741 52.2334 246.5 51.9893 246.202C51.4717 245.582 51.2129 244.81 51.2129 243.887C51.2129 242.959 51.4937 242.115 52.0552 241.353C52.6216 240.591 53.3979 240.21 54.3843 240.21C55.0923 240.21 55.6709 240.528 56.1201 241.163C56.5693 241.792 56.7939 242.347 56.7939 242.825C56.7939 243.035 56.7427 243.14 56.6401 243.14H52.3921ZM52.4727 242.437C52.4727 242.53 52.5166 242.576 52.6045 242.576H55.3657C55.4927 242.576 55.5562 242.5 55.5562 242.349C55.5562 241.998 55.3975 241.639 55.0801 241.272C54.7676 240.901 54.4233 240.716 54.0474 240.716C53.6812 240.716 53.3467 240.882 53.0439 241.214C52.7461 241.546 52.5557 241.924 52.4727 242.349V242.437ZM66.5791 245.792C66.5791 245.918 66.6377 246.021 66.7549 246.099C66.877 246.172 67.0161 246.209 67.1724 246.209C67.3286 246.209 67.458 246.17 67.5605 246.092C67.668 246.009 67.7412 245.967 67.7803 245.967C67.8193 245.967 67.8389 246.021 67.8389 246.128C67.8389 246.231 67.79 246.319 67.6924 246.392C66.96 246.929 66.4644 247.198 66.2056 247.198C65.8931 247.198 65.6392 246.873 65.4438 246.224C65.4292 246.175 65.417 246.153 65.4072 246.158C64.8018 246.612 64.4209 246.885 64.2646 246.978C63.8643 247.208 63.4614 247.244 63.0562 247.088C62.6558 246.932 62.3652 246.673 62.1846 246.312C62.0967 246.126 62.0527 245.928 62.0527 245.718C62.0527 245.303 62.2065 244.974 62.5142 244.729C62.8218 244.485 63.4077 244.251 64.272 244.026C64.5649 243.948 64.8262 243.848 65.0557 243.726C65.2852 243.604 65.4048 243.526 65.4146 243.492C65.4292 243.458 65.4365 243.426 65.4365 243.396V241.99C65.4365 241.438 65.2217 241.05 64.792 240.826C64.6504 240.752 64.4795 240.716 64.2793 240.716C64.084 240.716 63.8838 240.794 63.6787 240.95C63.4785 241.106 63.3784 241.329 63.3784 241.617L63.415 241.902C63.3857 241.961 63.21 242.059 62.8877 242.195C62.5654 242.332 62.3799 242.405 62.3311 242.415C62.2529 242.415 62.2139 242.322 62.2139 242.137C62.2139 241.946 62.27 241.736 62.3823 241.507C62.4946 241.277 62.6533 241.067 62.8584 240.877C63.3369 240.433 63.8838 240.21 64.499 240.21C65.1143 240.21 65.6147 240.381 66.0005 240.723C66.3862 241.06 66.5791 241.463 66.5791 241.932V245.792ZM63.2026 245.579C63.2026 245.813 63.293 246.019 63.4736 246.194C63.6543 246.365 63.8594 246.451 64.0889 246.451C64.3232 246.451 64.6064 246.353 64.9385 246.158C65.2705 245.958 65.4365 245.752 65.4365 245.542V244.056C65.4365 244.002 65.4243 243.975 65.3999 243.975C65.3755 243.975 65.3584 243.978 65.3486 243.982L63.6494 244.773C63.4736 244.9 63.354 245.008 63.2905 245.096C63.2319 245.184 63.2026 245.345 63.2026 245.579ZM72.9951 241.749C72.9365 241.739 72.8511 241.707 72.7388 241.653C72.3335 241.468 72.0161 241.375 71.7866 241.375C71.5571 241.375 71.3154 241.519 71.0615 241.807C70.8125 242.09 70.688 242.347 70.688 242.576V245.887C70.688 246.253 70.9004 246.497 71.3252 246.619C71.5107 246.668 71.6841 246.705 71.8452 246.729C72.0063 246.749 72.1089 246.768 72.1528 246.788C72.2017 246.807 72.2261 246.846 72.2261 246.905C72.2261 246.958 72.2017 246.99 72.1528 247H68.4834C68.4346 246.99 68.4102 246.956 68.4102 246.897C68.4102 246.81 68.5249 246.751 68.7544 246.722C69.2817 246.644 69.5454 246.365 69.5454 245.887V242.012C69.5454 241.807 69.4331 241.666 69.2085 241.587C69.1108 241.553 69.0059 241.526 68.8936 241.507C68.7812 241.482 68.6909 241.46 68.6226 241.441C68.5591 241.421 68.5176 241.404 68.498 241.39C68.4834 241.37 68.4761 241.333 68.4761 241.28C68.4761 241.221 68.5127 241.172 68.5859 241.133L70.4536 240.254C70.5122 240.225 70.5488 240.21 70.5635 240.21C70.6465 240.21 70.688 240.269 70.688 240.386V241.573C70.688 241.631 70.7026 241.661 70.7319 241.661C70.771 241.661 70.8711 241.546 71.0322 241.316C71.4961 240.667 71.8794 240.342 72.1821 240.342C72.353 240.342 72.6143 240.411 72.9658 240.547C73.3223 240.684 73.5005 240.799 73.5005 240.892C73.5005 241.004 73.4443 241.175 73.332 241.404C73.2197 241.634 73.1074 241.749 72.9951 241.749ZM75.1997 243.14C75.1167 243.14 75.0752 243.318 75.0752 243.675C75.0752 244.432 75.2998 245.066 75.749 245.579C76.1982 246.092 76.7549 246.348 77.4189 246.348C78.0879 246.348 78.73 246.06 79.3452 245.484C79.355 245.474 79.3672 245.469 79.3818 245.469H79.4185C79.4478 245.469 79.4746 245.494 79.499 245.542C79.5283 245.586 79.5552 245.616 79.5796 245.63C79.0132 246.319 78.3467 246.795 77.5801 247.059C77.3164 247.151 77.0186 247.198 76.6865 247.198C76.3545 247.198 76.0176 247.107 75.6758 246.927C75.334 246.741 75.041 246.5 74.7969 246.202C74.2793 245.582 74.0205 244.81 74.0205 243.887C74.0205 242.959 74.3013 242.115 74.8628 241.353C75.4292 240.591 76.2056 240.21 77.1919 240.21C77.8999 240.21 78.4785 240.528 78.9277 241.163C79.377 241.792 79.6016 242.347 79.6016 242.825C79.6016 243.035 79.5503 243.14 79.4478 243.14H75.1997ZM75.2803 242.437C75.2803 242.53 75.3242 242.576 75.4121 242.576H78.1733C78.3003 242.576 78.3638 242.5 78.3638 242.349C78.3638 241.998 78.2051 241.639 77.8877 241.272C77.5752 240.901 77.231 240.716 76.855 240.716C76.4888 240.716 76.1543 240.882 75.8516 241.214C75.5537 241.546 75.3633 241.924 75.2803 242.349V242.437ZM90.6099 241.089C90.6099 241.431 90.4121 241.602 90.0166 241.602C89.8164 241.602 89.6455 241.546 89.5039 241.434C89.3672 241.316 89.2598 241.219 89.1816 241.141C89.1084 241.058 89.0303 240.982 88.9473 240.914C88.5957 240.625 88.166 240.594 87.6582 240.818C87.1553 241.043 86.7671 241.521 86.4937 242.254C86.3423 242.659 86.2666 243.062 86.2666 243.462C86.2666 244.322 86.4619 245.025 86.8525 245.572C87.2432 246.114 87.8413 246.385 88.647 246.385C89.2476 246.385 89.7871 246.116 90.2656 245.579C90.4121 245.418 90.5 245.337 90.5293 245.337C90.5586 245.337 90.5903 245.352 90.6245 245.381C90.6587 245.411 90.6758 245.455 90.6758 245.513C90.6758 245.567 90.6611 245.608 90.6318 245.638C89.8848 246.678 88.9448 247.198 87.812 247.198C86.9917 247.198 86.3179 246.893 85.7905 246.282C85.2681 245.672 85.0068 244.974 85.0068 244.188C85.0117 242.732 85.3633 241.685 86.0615 241.045C86.6768 240.484 87.5532 240.203 88.6909 240.203C89.394 240.203 89.8604 240.274 90.0898 240.416C90.3193 240.557 90.4805 240.735 90.5732 240.95C90.5977 240.999 90.6099 241.045 90.6099 241.089ZM91.7378 243.711C91.7378 242.75 92.0771 241.924 92.7559 241.236C93.4395 240.542 94.2573 240.196 95.2095 240.196C96.1616 240.196 96.9893 240.533 97.6924 241.207C98.3955 241.875 98.7471 242.703 98.7471 243.689C98.7471 244.676 98.4126 245.508 97.7437 246.187C97.0796 246.861 96.2446 247.198 95.2388 247.198C94.2329 247.198 93.3979 246.856 92.7339 246.172C92.0698 245.489 91.7378 244.668 91.7378 243.711ZM93.5615 245.594C94.04 246.399 94.6919 246.802 95.5171 246.802C96.1567 246.802 96.645 246.546 96.9819 246.033C97.3237 245.521 97.4946 244.891 97.4946 244.144C97.4946 243.396 97.2554 242.63 96.7769 241.844C96.3032 241.058 95.6636 240.665 94.8579 240.665C94.2671 240.665 93.8008 240.921 93.459 241.434C93.1221 241.941 92.9536 242.588 92.9536 243.375C92.9536 244.156 93.1562 244.896 93.5615 245.594ZM109.47 244.693L109.455 243.147C109.455 242.518 109.401 242.076 109.294 241.822C109.187 241.568 109.05 241.377 108.884 241.25C108.718 241.119 108.493 241.053 108.21 241.053C107.932 241.053 107.338 241.272 106.43 241.712C106.308 241.785 106.245 241.854 106.24 241.917V245.857C106.24 246.351 106.503 246.634 107.031 246.707C107.26 246.741 107.375 246.797 107.375 246.875C107.375 246.949 107.351 246.99 107.302 247H104.035C103.986 246.99 103.962 246.956 103.962 246.897C103.962 246.805 104.077 246.741 104.306 246.707C104.833 246.634 105.097 246.351 105.097 245.857V242.21C105.097 241.443 104.624 241.06 103.676 241.06C103.33 241.06 102.849 241.265 102.233 241.675C102.077 241.778 101.962 241.873 101.889 241.961V245.857C101.889 246.351 102.153 246.634 102.68 246.707C102.91 246.741 103.024 246.797 103.024 246.875C103.024 246.949 103 246.99 102.951 247H99.6846C99.6357 246.99 99.6113 246.956 99.6113 246.897C99.6113 246.805 99.7261 246.741 99.9556 246.707C100.483 246.634 100.747 246.355 100.747 245.872V241.653C100.747 241.448 100.634 241.307 100.41 241.229C100.312 241.194 100.207 241.167 100.095 241.148C99.9824 241.124 99.8921 241.102 99.8237 241.082C99.7603 241.062 99.7188 241.045 99.6992 241.031C99.6846 241.011 99.6772 240.975 99.6772 240.921C99.6772 240.862 99.7139 240.813 99.7871 240.774L101.655 239.896C101.713 239.866 101.75 239.852 101.765 239.852C101.848 239.852 101.889 239.91 101.889 240.027V241.243C101.894 241.272 101.911 241.287 101.94 241.287C101.975 241.287 102.055 241.253 102.182 241.185C102.314 241.116 102.485 241.021 102.695 240.899C102.905 240.772 103.181 240.625 103.522 240.459C103.869 240.293 104.235 240.21 104.621 240.21C105.241 240.21 105.686 240.477 105.954 241.009C106.057 241.224 106.149 241.316 106.232 241.287C106.315 241.253 106.445 241.192 106.621 241.104C107.036 240.899 107.456 240.699 107.88 240.503C108.305 240.308 108.657 240.21 108.935 240.21C110.063 240.21 110.627 241.238 110.627 243.294L110.561 245.433V245.857C110.561 246.238 110.751 246.487 111.132 246.604C111.293 246.658 111.447 246.697 111.594 246.722C111.745 246.741 111.843 246.761 111.887 246.78C111.936 246.8 111.96 246.839 111.96 246.897C111.96 246.956 111.936 246.99 111.887 247H108.356C108.308 246.99 108.283 246.956 108.283 246.897C108.283 246.805 108.398 246.741 108.627 246.707C109.15 246.634 109.411 246.331 109.411 245.799C109.45 245.555 109.47 245.186 109.47 244.693ZM122.155 244.693L122.141 243.147C122.141 242.518 122.087 242.076 121.979 241.822C121.872 241.568 121.735 241.377 121.569 241.25C121.403 241.119 121.179 241.053 120.896 241.053C120.617 241.053 120.024 241.272 119.116 241.712C118.994 241.785 118.93 241.854 118.925 241.917V245.857C118.925 246.351 119.189 246.634 119.716 246.707C119.946 246.741 120.061 246.797 120.061 246.875C120.061 246.949 120.036 246.99 119.987 247H116.721C116.672 246.99 116.647 246.956 116.647 246.897C116.647 246.805 116.762 246.741 116.992 246.707C117.519 246.634 117.783 246.351 117.783 245.857V242.21C117.783 241.443 117.309 241.06 116.362 241.06C116.015 241.06 115.534 241.265 114.919 241.675C114.763 241.778 114.648 241.873 114.575 241.961V245.857C114.575 246.351 114.838 246.634 115.366 246.707C115.595 246.741 115.71 246.797 115.71 246.875C115.71 246.949 115.686 246.99 115.637 247H112.37C112.321 246.99 112.297 246.956 112.297 246.897C112.297 246.805 112.412 246.741 112.641 246.707C113.168 246.634 113.432 246.355 113.432 245.872V241.653C113.432 241.448 113.32 241.307 113.095 241.229C112.998 241.194 112.893 241.167 112.78 241.148C112.668 241.124 112.578 241.102 112.509 241.082C112.446 241.062 112.404 241.045 112.385 241.031C112.37 241.011 112.363 240.975 112.363 240.921C112.363 240.862 112.399 240.813 112.473 240.774L114.34 239.896C114.399 239.866 114.436 239.852 114.45 239.852C114.533 239.852 114.575 239.91 114.575 240.027V241.243C114.58 241.272 114.597 241.287 114.626 241.287C114.66 241.287 114.741 241.253 114.868 241.185C115 241.116 115.17 241.021 115.38 240.899C115.59 240.772 115.866 240.625 116.208 240.459C116.555 240.293 116.921 240.21 117.307 240.21C117.927 240.21 118.371 240.477 118.64 241.009C118.742 241.224 118.835 241.316 118.918 241.287C119.001 241.253 119.13 241.192 119.306 241.104C119.721 240.899 120.141 240.699 120.566 240.503C120.991 240.308 121.342 240.21 121.621 240.21C122.749 240.21 123.312 241.238 123.312 243.294L123.247 245.433V245.857C123.247 246.238 123.437 246.487 123.818 246.604C123.979 246.658 124.133 246.697 124.279 246.722C124.431 246.741 124.528 246.761 124.572 246.78C124.621 246.8 124.646 246.839 124.646 246.897C124.646 246.956 124.621 246.99 124.572 247H121.042C120.993 246.99 120.969 246.956 120.969 246.897C120.969 246.805 121.083 246.741 121.313 246.707C121.835 246.634 122.097 246.331 122.097 245.799C122.136 245.555 122.155 245.186 122.155 244.693ZM125.188 247C125.139 246.99 125.114 246.956 125.114 246.897C125.114 246.81 125.229 246.751 125.458 246.722C125.986 246.644 126.25 246.365 126.25 245.887V242.012C126.25 241.807 126.137 241.666 125.913 241.587C125.815 241.553 125.71 241.526 125.598 241.507C125.485 241.482 125.395 241.46 125.327 241.441C125.263 241.421 125.222 241.404 125.202 241.39C125.188 241.37 125.18 241.333 125.18 241.28C125.18 241.221 125.217 241.172 125.29 241.133L127.158 240.254C127.216 240.225 127.253 240.21 127.268 240.21C127.351 240.21 127.392 240.269 127.392 240.386V245.887C127.392 246.365 127.656 246.644 128.183 246.722C128.413 246.751 128.527 246.802 128.527 246.875C128.527 246.949 128.503 246.99 128.454 247H125.188ZM126.711 238.152C126.511 238.152 126.333 238.089 126.176 237.962C126.025 237.835 125.949 237.659 125.949 237.435C125.949 237.205 126.022 237.024 126.169 236.893C126.315 236.761 126.489 236.695 126.689 236.695C126.894 236.695 127.065 236.773 127.202 236.929C127.343 237.085 127.414 237.254 127.414 237.435C127.414 237.615 127.348 237.781 127.216 237.933C127.084 238.079 126.916 238.152 126.711 238.152ZM131.186 241.368C131.157 241.368 131.142 241.39 131.142 241.434V245.477C131.142 245.77 131.206 245.999 131.333 246.165C131.464 246.331 131.63 246.414 131.831 246.414C132.031 246.414 132.204 246.382 132.351 246.319C132.502 246.25 132.631 246.177 132.739 246.099C132.851 246.021 132.951 245.95 133.039 245.887C133.127 245.818 133.205 245.784 133.273 245.784C133.342 245.784 133.376 245.801 133.376 245.835C133.376 245.953 133.364 246.028 133.339 246.062C132.753 246.819 132.187 247.198 131.64 247.198C131.098 247.198 130.688 247.027 130.41 246.685C130.136 246.338 130 245.926 130 245.447V241.368H129.45C129.313 241.368 129.24 241.324 129.23 241.236C129.226 241.148 129.24 241.092 129.274 241.067C129.533 240.901 129.89 240.604 130.344 240.174C130.393 240.12 130.458 240.04 130.542 239.932C130.625 239.825 130.744 239.678 130.9 239.493C131.062 239.307 131.184 239.214 131.267 239.214C131.35 239.214 131.391 239.249 131.391 239.317C131.391 239.327 131.308 239.646 131.142 240.276C131.142 240.364 131.181 240.411 131.259 240.416H133.127C133.342 240.416 133.449 240.718 133.449 241.324C133.449 241.353 133.43 241.368 133.391 241.368H131.186ZM135.932 241.368C135.903 241.368 135.888 241.39 135.888 241.434V245.477C135.888 245.77 135.952 245.999 136.079 246.165C136.21 246.331 136.376 246.414 136.577 246.414C136.777 246.414 136.95 246.382 137.097 246.319C137.248 246.25 137.377 246.177 137.485 246.099C137.597 246.021 137.697 245.95 137.785 245.887C137.873 245.818 137.951 245.784 138.02 245.784C138.088 245.784 138.122 245.801 138.122 245.835C138.122 245.953 138.11 246.028 138.085 246.062C137.5 246.819 136.933 247.198 136.386 247.198C135.844 247.198 135.434 247.027 135.156 246.685C134.882 246.338 134.746 245.926 134.746 245.447V241.368H134.196C134.06 241.368 133.986 241.324 133.977 241.236C133.972 241.148 133.986 241.092 134.021 241.067C134.279 240.901 134.636 240.604 135.09 240.174C135.139 240.12 135.205 240.04 135.288 239.932C135.371 239.825 135.49 239.678 135.646 239.493C135.808 239.307 135.93 239.214 136.013 239.214C136.096 239.214 136.137 239.249 136.137 239.317C136.137 239.327 136.054 239.646 135.888 240.276C135.888 240.364 135.927 240.411 136.005 240.416H137.873C138.088 240.416 138.195 240.718 138.195 241.324C138.195 241.353 138.176 241.368 138.137 241.368H135.932ZM140.078 243.14C139.995 243.14 139.953 243.318 139.953 243.675C139.953 244.432 140.178 245.066 140.627 245.579C141.076 246.092 141.633 246.348 142.297 246.348C142.966 246.348 143.608 246.06 144.223 245.484C144.233 245.474 144.245 245.469 144.26 245.469H144.296C144.326 245.469 144.353 245.494 144.377 245.542C144.406 245.586 144.433 245.616 144.458 245.63C143.891 246.319 143.225 246.795 142.458 247.059C142.194 247.151 141.896 247.198 141.564 247.198C141.232 247.198 140.896 247.107 140.554 246.927C140.212 246.741 139.919 246.5 139.675 246.202C139.157 245.582 138.898 244.81 138.898 243.887C138.898 242.959 139.179 242.115 139.741 241.353C140.307 240.591 141.083 240.21 142.07 240.21C142.778 240.21 143.356 240.528 143.806 241.163C144.255 241.792 144.479 242.347 144.479 242.825C144.479 243.035 144.428 243.14 144.326 243.14H140.078ZM140.158 242.437C140.158 242.53 140.202 242.576 140.29 242.576H143.051C143.178 242.576 143.242 242.5 143.242 242.349C143.242 241.998 143.083 241.639 142.766 241.272C142.453 240.901 142.109 240.716 141.733 240.716C141.367 240.716 141.032 240.882 140.729 241.214C140.432 241.546 140.241 241.924 140.158 242.349V242.437ZM150.229 240.518C150.444 240.591 150.576 240.628 150.625 240.628C150.673 240.628 150.703 240.628 150.712 240.628C150.727 240.623 150.744 240.591 150.764 240.533V236.753C150.764 236.548 150.651 236.407 150.427 236.329C150.329 236.294 150.224 236.268 150.112 236.248C150 236.224 149.909 236.202 149.841 236.182C149.777 236.163 149.736 236.146 149.716 236.131C149.702 236.111 149.694 236.075 149.694 236.021C149.694 235.962 149.731 235.914 149.804 235.875L151.672 234.996C151.73 234.966 151.767 234.952 151.782 234.952C151.865 234.952 151.906 235.01 151.906 235.127V245.557C151.931 245.772 151.992 245.926 152.089 246.019C152.187 246.111 152.346 246.158 152.565 246.158L152.99 246.128C153.02 246.128 153.034 246.158 153.034 246.216C153.034 246.27 152.998 246.314 152.924 246.348L150.976 247.154C150.917 247.183 150.866 247.198 150.822 247.198C150.783 247.198 150.764 247.137 150.764 247.015V246.348C150.764 246.299 150.751 246.275 150.727 246.275C150.693 246.275 150.49 246.385 150.119 246.604C148.981 247.278 148.022 247.378 147.241 246.905C146.616 246.524 146.193 245.921 145.974 245.096C145.871 244.71 145.82 244.302 145.82 243.873C145.82 243.438 145.908 243.008 146.083 242.583C146.264 242.154 146.511 241.778 146.823 241.456C147.512 240.752 148.342 240.401 149.313 240.401C149.709 240.401 150.014 240.44 150.229 240.518ZM146.926 243.66C146.926 244.397 147.131 245.044 147.541 245.601C147.951 246.153 148.522 246.429 149.255 246.429C149.577 246.429 149.909 246.351 150.251 246.194C150.593 246.033 150.764 245.911 150.764 245.828V242.049C150.764 241.956 150.7 241.846 150.573 241.719C150.183 241.182 149.663 240.914 149.013 240.914C148.369 240.914 147.858 241.187 147.482 241.734C147.111 242.276 146.926 242.918 146.926 243.66ZM159.501 241.368C159.472 241.368 159.458 241.39 159.458 241.434V245.477C159.458 245.77 159.521 245.999 159.648 246.165C159.78 246.331 159.946 246.414 160.146 246.414C160.346 246.414 160.52 246.382 160.666 246.319C160.817 246.25 160.947 246.177 161.054 246.099C161.167 246.021 161.267 245.95 161.354 245.887C161.442 245.818 161.521 245.784 161.589 245.784C161.657 245.784 161.691 245.801 161.691 245.835C161.691 245.953 161.679 246.028 161.655 246.062C161.069 246.819 160.502 247.198 159.956 247.198C159.414 247.198 159.003 247.027 158.725 246.685C158.452 246.338 158.315 245.926 158.315 245.447V241.368H157.766C157.629 241.368 157.556 241.324 157.546 241.236C157.541 241.148 157.556 241.092 157.59 241.067C157.849 240.901 158.205 240.604 158.659 240.174C158.708 240.12 158.774 240.04 158.857 239.932C158.94 239.825 159.06 239.678 159.216 239.493C159.377 239.307 159.499 239.214 159.582 239.214C159.665 239.214 159.707 239.249 159.707 239.317C159.707 239.327 159.624 239.646 159.458 240.276C159.458 240.364 159.497 240.411 159.575 240.416H161.442C161.657 240.416 161.765 240.718 161.765 241.324C161.765 241.353 161.745 241.368 161.706 241.368H159.501ZM162.504 243.711C162.504 242.75 162.844 241.924 163.522 241.236C164.206 240.542 165.024 240.196 165.976 240.196C166.928 240.196 167.756 240.533 168.459 241.207C169.162 241.875 169.514 242.703 169.514 243.689C169.514 244.676 169.179 245.508 168.51 246.187C167.846 246.861 167.011 247.198 166.005 247.198C165 247.198 164.165 246.856 163.5 246.172C162.836 245.489 162.504 244.668 162.504 243.711ZM164.328 245.594C164.807 246.399 165.458 246.802 166.284 246.802C166.923 246.802 167.412 246.546 167.749 246.033C168.09 245.521 168.261 244.891 168.261 244.144C168.261 243.396 168.022 242.63 167.543 241.844C167.07 241.058 166.43 240.665 165.625 240.665C165.034 240.665 164.567 240.921 164.226 241.434C163.889 241.941 163.72 242.588 163.72 243.375C163.72 244.156 163.923 244.896 164.328 245.594ZM177.314 246.722C177.543 246.751 177.658 246.81 177.658 246.897C177.658 246.956 177.634 246.99 177.585 247H174.318C174.27 246.99 174.245 246.956 174.245 246.897C174.245 246.81 174.36 246.751 174.589 246.722C175.117 246.644 175.38 246.365 175.38 245.887V236.753C175.38 236.548 175.268 236.407 175.043 236.329C174.946 236.294 174.841 236.268 174.729 236.248C174.616 236.224 174.526 236.202 174.458 236.182C174.394 236.163 174.353 236.146 174.333 236.131C174.318 236.111 174.311 236.075 174.311 236.021C174.311 235.962 174.348 235.914 174.421 235.875L176.289 234.996C176.347 234.966 176.384 234.952 176.398 234.952C176.481 234.952 176.523 235.01 176.523 235.127V245.887C176.523 246.365 176.787 246.644 177.314 246.722ZM178.471 243.711C178.471 242.75 178.811 241.924 179.489 241.236C180.173 240.542 180.991 240.196 181.943 240.196C182.895 240.196 183.723 240.533 184.426 241.207C185.129 241.875 185.48 242.703 185.48 243.689C185.48 244.676 185.146 245.508 184.477 246.187C183.813 246.861 182.978 247.198 181.972 247.198C180.966 247.198 180.131 246.856 179.467 246.172C178.803 245.489 178.471 244.668 178.471 243.711ZM180.295 245.594C180.773 246.399 181.425 246.802 182.25 246.802C182.89 246.802 183.378 246.546 183.715 246.033C184.057 245.521 184.228 244.891 184.228 244.144C184.228 243.396 183.989 242.63 183.51 241.844C183.037 241.058 182.397 240.665 181.591 240.665C181 240.665 180.534 240.921 180.192 241.434C179.855 241.941 179.687 242.588 179.687 243.375C179.687 244.156 179.89 244.896 180.295 245.594ZM186.586 243.711C186.586 242.75 186.926 241.924 187.604 241.236C188.288 240.542 189.106 240.196 190.058 240.196C191.01 240.196 191.838 240.533 192.541 241.207C193.244 241.875 193.596 242.703 193.596 243.689C193.596 244.676 193.261 245.508 192.592 246.187C191.928 246.861 191.093 247.198 190.087 247.198C189.082 247.198 188.247 246.856 187.583 246.172C186.918 245.489 186.586 244.668 186.586 243.711ZM188.41 245.594C188.889 246.399 189.541 246.802 190.366 246.802C191.005 246.802 191.494 246.546 191.831 246.033C192.172 245.521 192.343 244.891 192.343 244.144C192.343 243.396 192.104 242.63 191.625 241.844C191.152 241.058 190.512 240.665 189.707 240.665C189.116 240.665 188.649 240.921 188.308 241.434C187.971 241.941 187.802 242.588 187.802 243.375C187.802 244.156 188.005 244.896 188.41 245.594ZM196.84 243.492C196.782 243.492 196.752 243.611 196.752 243.851V245.887C196.752 246.365 197.016 246.644 197.543 246.722C197.773 246.751 197.888 246.805 197.888 246.883C197.888 246.961 197.863 247 197.814 247H194.548C194.499 246.99 194.475 246.956 194.475 246.897C194.475 246.81 194.589 246.751 194.819 246.722C195.346 246.644 195.61 246.365 195.61 245.887V236.753C195.61 236.548 195.498 236.407 195.273 236.329C195.175 236.294 195.07 236.268 194.958 236.248C194.846 236.224 194.755 236.202 194.687 236.182C194.624 236.163 194.582 236.146 194.562 236.131C194.548 236.111 194.541 236.075 194.541 236.021C194.541 235.962 194.577 235.914 194.65 235.875L196.518 234.996C196.577 234.966 196.613 234.952 196.628 234.952C196.711 234.952 196.752 235.01 196.752 235.127V242.437C196.792 242.579 196.843 242.662 196.906 242.686C196.97 242.71 197.038 242.723 197.111 242.723C197.253 242.723 197.485 242.613 197.807 242.393C198.134 242.168 198.43 241.919 198.693 241.646C198.957 241.368 199.089 241.177 199.089 241.075C199.089 240.967 199.042 240.901 198.95 240.877C198.857 240.848 198.752 240.828 198.635 240.818C198.522 240.804 198.42 240.784 198.327 240.76C198.234 240.73 198.188 240.665 198.188 240.562C198.188 240.459 198.288 240.408 198.488 240.408H201.279C201.45 240.408 201.535 240.464 201.535 240.577C201.535 240.635 201.479 240.682 201.367 240.716C201.254 240.75 201.037 240.804 200.715 240.877C200.393 240.945 200.136 241.055 199.946 241.207L197.844 242.847C197.844 242.911 197.89 242.989 197.983 243.082L200.993 246.253C201.188 246.453 201.389 246.585 201.594 246.648C201.799 246.707 201.936 246.746 202.004 246.766C202.072 246.785 202.106 246.819 202.106 246.868C202.106 246.956 202.067 247 201.989 247H198.774C198.725 247 198.701 246.971 198.701 246.912C198.701 246.824 198.762 246.768 198.884 246.744C199.25 246.675 199.433 246.551 199.433 246.37C199.433 246.316 199.396 246.246 199.323 246.158C199.25 246.07 199.182 245.984 199.118 245.901L196.855 243.506C196.855 243.501 196.853 243.497 196.848 243.492H196.84ZM211.247 245.792C211.247 245.918 211.306 246.021 211.423 246.099C211.545 246.172 211.684 246.209 211.84 246.209C211.997 246.209 212.126 246.17 212.229 246.092C212.336 246.009 212.409 245.967 212.448 245.967C212.487 245.967 212.507 246.021 212.507 246.128C212.507 246.231 212.458 246.319 212.36 246.392C211.628 246.929 211.132 247.198 210.874 247.198C210.561 247.198 210.307 246.873 210.112 246.224C210.097 246.175 210.085 246.153 210.075 246.158C209.47 246.612 209.089 246.885 208.933 246.978C208.532 247.208 208.129 247.244 207.724 247.088C207.324 246.932 207.033 246.673 206.853 246.312C206.765 246.126 206.721 245.928 206.721 245.718C206.721 245.303 206.875 244.974 207.182 244.729C207.49 244.485 208.076 244.251 208.94 244.026C209.233 243.948 209.494 243.848 209.724 243.726C209.953 243.604 210.073 243.526 210.083 243.492C210.097 243.458 210.104 243.426 210.104 243.396V241.99C210.104 241.438 209.89 241.05 209.46 240.826C209.318 240.752 209.147 240.716 208.947 240.716C208.752 240.716 208.552 240.794 208.347 240.95C208.146 241.106 208.046 241.329 208.046 241.617L208.083 241.902C208.054 241.961 207.878 242.059 207.556 242.195C207.233 242.332 207.048 242.405 206.999 242.415C206.921 242.415 206.882 242.322 206.882 242.137C206.882 241.946 206.938 241.736 207.05 241.507C207.163 241.277 207.321 241.067 207.526 240.877C208.005 240.433 208.552 240.21 209.167 240.21C209.782 240.21 210.283 240.381 210.668 240.723C211.054 241.06 211.247 241.463 211.247 241.932V245.792ZM207.871 245.579C207.871 245.813 207.961 246.019 208.142 246.194C208.322 246.365 208.527 246.451 208.757 246.451C208.991 246.451 209.274 246.353 209.606 246.158C209.938 245.958 210.104 245.752 210.104 245.542V244.056C210.104 244.002 210.092 243.975 210.068 243.975C210.043 243.975 210.026 243.978 210.017 243.982L208.317 244.773C208.142 244.9 208.022 245.008 207.958 245.096C207.9 245.184 207.871 245.345 207.871 245.579ZM217.216 246.883C217.216 246.961 217.172 247 217.084 247H213.063C213.015 246.99 212.99 246.956 212.99 246.897C212.99 246.81 213.105 246.751 213.334 246.722C213.862 246.644 214.125 246.365 214.125 245.887V241.448C214.125 241.395 214.096 241.368 214.038 241.368H213.239C213.181 241.368 213.125 241.351 213.071 241.316C213.017 241.277 212.99 241.229 212.99 241.17C212.99 241.106 213.02 241.058 213.078 241.023C213.161 240.975 213.356 240.909 213.664 240.826C213.972 240.743 214.125 240.606 214.125 240.416V240.174C214.125 238.416 214.506 237.063 215.268 236.116C215.693 235.584 216.34 235.174 217.209 234.886C217.473 234.798 217.734 234.754 217.993 234.754C218.251 234.754 218.554 234.822 218.901 234.959C219.248 235.091 219.421 235.252 219.421 235.442C219.421 235.481 219.414 235.516 219.399 235.545C219.389 235.574 219.377 235.611 219.362 235.655L219.062 236.299C219.023 236.377 218.977 236.417 218.923 236.417C218.908 236.417 218.803 236.341 218.608 236.189C218.413 236.033 218.205 235.892 217.985 235.765C217.771 235.633 217.517 235.567 217.224 235.567C216.652 235.567 216.22 235.713 215.927 236.006C215.634 236.299 215.451 236.631 215.378 237.002C215.305 237.369 215.268 237.774 215.268 238.218V240.35C215.268 240.389 215.292 240.408 215.341 240.408H216.77C216.906 240.408 216.994 240.423 217.033 240.452C217.077 240.477 217.119 240.564 217.158 240.716C217.197 240.862 217.216 240.999 217.216 241.126C217.216 241.248 217.204 241.319 217.18 241.338C217.155 241.358 217.104 241.368 217.026 241.368H215.363C215.3 241.368 215.268 241.392 215.268 241.441V245.74C215.268 246.438 215.874 246.788 217.084 246.788C217.172 246.797 217.216 246.829 217.216 246.883ZM219.56 241.368C219.531 241.368 219.516 241.39 219.516 241.434V245.477C219.516 245.77 219.58 245.999 219.707 246.165C219.838 246.331 220.004 246.414 220.205 246.414C220.405 246.414 220.578 246.382 220.725 246.319C220.876 246.25 221.005 246.177 221.113 246.099C221.225 246.021 221.325 245.95 221.413 245.887C221.501 245.818 221.579 245.784 221.647 245.784C221.716 245.784 221.75 245.801 221.75 245.835C221.75 245.953 221.738 246.028 221.713 246.062C221.127 246.819 220.561 247.198 220.014 247.198C219.472 247.198 219.062 247.027 218.784 246.685C218.51 246.338 218.374 245.926 218.374 245.447V241.368H217.824C217.688 241.368 217.614 241.324 217.604 241.236C217.6 241.148 217.614 241.092 217.648 241.067C217.907 240.901 218.264 240.604 218.718 240.174C218.767 240.12 218.833 240.04 218.916 239.932C218.999 239.825 219.118 239.678 219.274 239.493C219.436 239.307 219.558 239.214 219.641 239.214C219.724 239.214 219.765 239.249 219.765 239.317C219.765 239.327 219.682 239.646 219.516 240.276C219.516 240.364 219.555 240.411 219.633 240.416H221.501C221.716 240.416 221.823 240.718 221.823 241.324C221.823 241.353 221.804 241.368 221.765 241.368H219.56ZM223.706 243.14C223.623 243.14 223.581 243.318 223.581 243.675C223.581 244.432 223.806 245.066 224.255 245.579C224.704 246.092 225.261 246.348 225.925 246.348C226.594 246.348 227.236 246.06 227.851 245.484C227.861 245.474 227.873 245.469 227.888 245.469H227.924C227.954 245.469 227.98 245.494 228.005 245.542C228.034 245.586 228.061 245.616 228.085 245.63C227.519 246.319 226.853 246.795 226.086 247.059C225.822 247.151 225.524 247.198 225.192 247.198C224.86 247.198 224.523 247.107 224.182 246.927C223.84 246.741 223.547 246.5 223.303 246.202C222.785 245.582 222.526 244.81 222.526 243.887C222.526 242.959 222.807 242.115 223.369 241.353C223.935 240.591 224.711 240.21 225.698 240.21C226.406 240.21 226.984 240.528 227.434 241.163C227.883 241.792 228.107 242.347 228.107 242.825C228.107 243.035 228.056 243.14 227.954 243.14H223.706ZM223.786 242.437C223.786 242.53 223.83 242.576 223.918 242.576H226.679C226.806 242.576 226.87 242.5 226.87 242.349C226.87 241.998 226.711 241.639 226.394 241.272C226.081 240.901 225.737 240.716 225.361 240.716C224.995 240.716 224.66 240.882 224.357 241.214C224.06 241.546 223.869 241.924 223.786 242.349V242.437ZM233.791 241.749C233.732 241.739 233.647 241.707 233.535 241.653C233.129 241.468 232.812 241.375 232.583 241.375C232.353 241.375 232.111 241.519 231.857 241.807C231.608 242.09 231.484 242.347 231.484 242.576V245.887C231.484 246.253 231.696 246.497 232.121 246.619C232.307 246.668 232.48 246.705 232.641 246.729C232.802 246.749 232.905 246.768 232.949 246.788C232.998 246.807 233.022 246.846 233.022 246.905C233.022 246.958 232.998 246.99 232.949 247H229.279C229.23 246.99 229.206 246.956 229.206 246.897C229.206 246.81 229.321 246.751 229.55 246.722C230.078 246.644 230.341 246.365 230.341 245.887V242.012C230.341 241.807 230.229 241.666 230.004 241.587C229.907 241.553 229.802 241.526 229.689 241.507C229.577 241.482 229.487 241.46 229.418 241.441C229.355 241.421 229.313 241.404 229.294 241.39C229.279 241.37 229.272 241.333 229.272 241.28C229.272 241.221 229.309 241.172 229.382 241.133L231.25 240.254C231.308 240.225 231.345 240.21 231.359 240.21C231.442 240.21 231.484 240.269 231.484 240.386V241.573C231.484 241.631 231.499 241.661 231.528 241.661C231.567 241.661 231.667 241.546 231.828 241.316C232.292 240.667 232.675 240.342 232.978 240.342C233.149 240.342 233.41 240.411 233.762 240.547C234.118 240.684 234.296 240.799 234.296 240.892C234.296 241.004 234.24 241.175 234.128 241.404C234.016 241.634 233.903 241.749 233.791 241.749ZM250.058 240.408C250.112 240.423 250.139 240.457 250.139 240.511C250.139 240.564 250.131 240.604 250.117 240.628C250.102 240.652 249.995 240.679 249.794 240.708C249.594 240.738 249.45 240.796 249.362 240.884C249.279 240.967 249.204 241.062 249.135 241.17C249.072 241.277 249.016 241.39 248.967 241.507C248.918 241.619 248.872 241.722 248.828 241.814L246.828 246.985C246.77 247.127 246.716 247.198 246.667 247.198H246.088C246.04 247.198 245.986 247.122 245.927 246.971L244.301 242.569L242.595 246.985C242.536 247.127 242.482 247.198 242.434 247.198H241.855C241.806 247.198 241.752 247.122 241.694 246.971L239.753 241.719C239.572 241.226 239.262 240.909 238.823 240.767C238.789 240.757 238.747 240.75 238.698 240.745C238.493 240.726 238.391 240.665 238.391 240.562C238.391 240.459 238.449 240.408 238.566 240.408H241.826C241.865 240.408 241.884 240.447 241.884 240.525C241.884 240.599 241.857 240.647 241.804 240.672C241.716 240.706 241.564 240.721 241.35 240.716C240.993 240.706 240.815 240.853 240.815 241.155L240.83 241.331L242.316 245.396C242.414 245.645 242.512 245.638 242.609 245.374C242.619 245.35 242.822 244.837 243.217 243.836C243.618 242.835 243.874 242.129 243.986 241.719C243.806 241.226 243.496 240.909 243.056 240.767C243.022 240.757 242.98 240.75 242.932 240.745C242.727 240.726 242.624 240.665 242.624 240.562C242.624 240.459 242.683 240.408 242.8 240.408H246.059C246.098 240.408 246.118 240.447 246.118 240.525C246.118 240.599 246.091 240.647 246.037 240.672C245.949 240.706 245.798 240.721 245.583 240.716C245.227 240.706 245.048 240.853 245.048 241.155L245.063 241.331L246.55 245.396C246.647 245.645 246.745 245.638 246.843 245.374C246.853 245.35 246.916 245.191 247.033 244.898C247.634 243.394 247.988 242.466 248.095 242.115C248.208 241.758 248.264 241.514 248.264 241.382C248.264 241.25 248.193 241.114 248.051 240.972C247.91 240.826 247.719 240.752 247.48 240.752C247.241 240.752 247.121 240.679 247.121 240.533C247.121 240.45 247.175 240.408 247.282 240.408H250.058ZM252.856 241.331C252.856 241.448 252.873 241.507 252.907 241.507C252.941 241.507 252.966 241.5 252.98 241.485C252.995 241.465 253.098 241.351 253.288 241.141C253.84 240.525 254.399 240.218 254.965 240.218C255.708 240.218 256.252 240.384 256.599 240.716C257.023 241.136 257.236 241.841 257.236 242.833V245.887C257.236 246.365 257.5 246.644 258.027 246.722C258.256 246.751 258.371 246.802 258.371 246.875C258.371 246.949 258.347 246.99 258.298 247H255.031C254.982 246.99 254.958 246.956 254.958 246.897C254.958 246.81 255.073 246.751 255.302 246.722C255.83 246.644 256.093 246.365 256.093 245.887V242.906C256.093 242.188 256.042 241.722 255.939 241.507C255.744 241.077 255.336 240.862 254.716 240.862C254.335 240.862 253.93 241.026 253.5 241.353C253.071 241.675 252.856 242.032 252.856 242.422V245.887C252.856 246.365 253.12 246.644 253.647 246.722C253.876 246.751 253.991 246.802 253.991 246.875C253.991 246.949 253.967 246.99 253.918 247H250.651C250.603 246.99 250.578 246.956 250.578 246.897C250.578 246.81 250.693 246.751 250.922 246.722C251.45 246.644 251.713 246.365 251.713 245.887V236.753C251.713 236.548 251.601 236.407 251.376 236.329C251.279 236.294 251.174 236.268 251.062 236.248C250.949 236.224 250.859 236.202 250.791 236.182C250.727 236.163 250.686 236.146 250.666 236.131C250.651 236.111 250.644 236.075 250.644 236.021C250.644 235.962 250.681 235.914 250.754 235.875L252.622 234.996C252.68 234.966 252.717 234.952 252.731 234.952C252.814 234.952 252.856 235.01 252.856 235.127V241.331ZM263.63 245.792C263.63 245.918 263.688 246.021 263.806 246.099C263.928 246.172 264.067 246.209 264.223 246.209C264.379 246.209 264.509 246.17 264.611 246.092C264.719 246.009 264.792 245.967 264.831 245.967C264.87 245.967 264.89 246.021 264.89 246.128C264.89 246.231 264.841 246.319 264.743 246.392C264.011 246.929 263.515 247.198 263.256 247.198C262.944 247.198 262.69 246.873 262.495 246.224C262.48 246.175 262.468 246.153 262.458 246.158C261.853 246.612 261.472 246.885 261.315 246.978C260.915 247.208 260.512 247.244 260.107 247.088C259.707 246.932 259.416 246.673 259.235 246.312C259.147 246.126 259.104 245.928 259.104 245.718C259.104 245.303 259.257 244.974 259.565 244.729C259.873 244.485 260.458 244.251 261.323 244.026C261.616 243.948 261.877 243.848 262.106 243.726C262.336 243.604 262.456 243.526 262.465 243.492C262.48 243.458 262.487 243.426 262.487 243.396V241.99C262.487 241.438 262.272 241.05 261.843 240.826C261.701 240.752 261.53 240.716 261.33 240.716C261.135 240.716 260.935 240.794 260.729 240.95C260.529 241.106 260.429 241.329 260.429 241.617L260.466 241.902C260.437 241.961 260.261 242.059 259.938 242.195C259.616 242.332 259.431 242.405 259.382 242.415C259.304 242.415 259.265 242.322 259.265 242.137C259.265 241.946 259.321 241.736 259.433 241.507C259.545 241.277 259.704 241.067 259.909 240.877C260.388 240.433 260.935 240.21 261.55 240.21C262.165 240.21 262.666 240.381 263.051 240.723C263.437 241.06 263.63 241.463 263.63 241.932V245.792ZM260.253 245.579C260.253 245.813 260.344 246.019 260.524 246.194C260.705 246.365 260.91 246.451 261.14 246.451C261.374 246.451 261.657 246.353 261.989 246.158C262.321 245.958 262.487 245.752 262.487 245.542V244.056C262.487 244.002 262.475 243.975 262.451 243.975C262.426 243.975 262.409 243.978 262.399 243.982L260.7 244.773C260.524 244.9 260.405 245.008 260.341 245.096C260.283 245.184 260.253 245.345 260.253 245.579ZM267.373 241.368C267.343 241.368 267.329 241.39 267.329 241.434V245.477C267.329 245.77 267.392 245.999 267.519 246.165C267.651 246.331 267.817 246.414 268.017 246.414C268.217 246.414 268.391 246.382 268.537 246.319C268.688 246.25 268.818 246.177 268.925 246.099C269.038 246.021 269.138 245.95 269.226 245.887C269.313 245.818 269.392 245.784 269.46 245.784C269.528 245.784 269.562 245.801 269.562 245.835C269.562 245.953 269.55 246.028 269.526 246.062C268.94 246.819 268.374 247.198 267.827 247.198C267.285 247.198 266.875 247.027 266.596 246.685C266.323 246.338 266.186 245.926 266.186 245.447V241.368H265.637C265.5 241.368 265.427 241.324 265.417 241.236C265.412 241.148 265.427 241.092 265.461 241.067C265.72 240.901 266.076 240.604 266.53 240.174C266.579 240.12 266.645 240.04 266.728 239.932C266.811 239.825 266.931 239.678 267.087 239.493C267.248 239.307 267.37 239.214 267.453 239.214C267.536 239.214 267.578 239.249 267.578 239.317C267.578 239.327 267.495 239.646 267.329 240.276C267.329 240.364 267.368 240.411 267.446 240.416H269.313C269.528 240.416 269.636 240.718 269.636 241.324C269.636 241.353 269.616 241.368 269.577 241.368H267.373ZM285.581 240.408C285.634 240.423 285.661 240.457 285.661 240.511C285.661 240.564 285.654 240.604 285.639 240.628C285.625 240.652 285.517 240.679 285.317 240.708C285.117 240.738 284.973 240.796 284.885 240.884C284.802 240.967 284.726 241.062 284.658 241.17C284.594 241.277 284.538 241.39 284.489 241.507C284.44 241.619 284.394 241.722 284.35 241.814L282.351 246.985C282.292 247.127 282.238 247.198 282.189 247.198H281.611C281.562 247.198 281.508 247.122 281.45 246.971L279.824 242.569L278.117 246.985C278.059 247.127 278.005 247.198 277.956 247.198H277.377C277.329 247.198 277.275 247.122 277.216 246.971L275.275 241.719C275.095 241.226 274.785 240.909 274.345 240.767C274.311 240.757 274.27 240.75 274.221 240.745C274.016 240.726 273.913 240.665 273.913 240.562C273.913 240.459 273.972 240.408 274.089 240.408H277.348C277.387 240.408 277.407 240.447 277.407 240.525C277.407 240.599 277.38 240.647 277.326 240.672C277.238 240.706 277.087 240.721 276.872 240.716C276.516 240.706 276.337 240.853 276.337 241.155L276.352 241.331L277.839 245.396C277.937 245.645 278.034 245.638 278.132 245.374C278.142 245.35 278.344 244.837 278.74 243.836C279.14 242.835 279.396 242.129 279.509 241.719C279.328 241.226 279.018 240.909 278.579 240.767C278.544 240.757 278.503 240.75 278.454 240.745C278.249 240.726 278.146 240.665 278.146 240.562C278.146 240.459 278.205 240.408 278.322 240.408H281.582C281.621 240.408 281.64 240.447 281.64 240.525C281.64 240.599 281.613 240.647 281.56 240.672C281.472 240.706 281.32 240.721 281.105 240.716C280.749 240.706 280.571 240.853 280.571 241.155L280.585 241.331L282.072 245.396C282.17 245.645 282.268 245.638 282.365 245.374C282.375 245.35 282.438 245.191 282.556 244.898C283.156 243.394 283.51 242.466 283.618 242.115C283.73 241.758 283.786 241.514 283.786 241.382C283.786 241.25 283.715 241.114 283.574 240.972C283.432 240.826 283.242 240.752 283.002 240.752C282.763 240.752 282.644 240.679 282.644 240.533C282.644 240.45 282.697 240.408 282.805 240.408H285.581ZM287.573 243.14C287.49 243.14 287.448 243.318 287.448 243.675C287.448 244.432 287.673 245.066 288.122 245.579C288.571 246.092 289.128 246.348 289.792 246.348C290.461 246.348 291.103 246.06 291.718 245.484C291.728 245.474 291.74 245.469 291.755 245.469H291.792C291.821 245.469 291.848 245.494 291.872 245.542C291.901 245.586 291.928 245.616 291.953 245.63C291.386 246.319 290.72 246.795 289.953 247.059C289.689 247.151 289.392 247.198 289.06 247.198C288.728 247.198 288.391 247.107 288.049 246.927C287.707 246.741 287.414 246.5 287.17 246.202C286.652 245.582 286.394 244.81 286.394 243.887C286.394 242.959 286.674 242.115 287.236 241.353C287.802 240.591 288.579 240.21 289.565 240.21C290.273 240.21 290.852 240.528 291.301 241.163C291.75 241.792 291.975 242.347 291.975 242.825C291.975 243.035 291.923 243.14 291.821 243.14H287.573ZM287.653 242.437C287.653 242.53 287.697 242.576 287.785 242.576H290.546C290.673 242.576 290.737 242.5 290.737 242.349C290.737 241.998 290.578 241.639 290.261 241.272C289.948 240.901 289.604 240.716 289.228 240.716C288.862 240.716 288.527 240.882 288.225 241.214C287.927 241.546 287.736 241.924 287.653 242.349V242.437ZM299.936 246.722C300.166 246.751 300.28 246.81 300.28 246.897C300.28 246.956 300.256 246.99 300.207 247H296.94C296.892 246.99 296.867 246.956 296.867 246.897C296.867 246.81 296.982 246.751 297.211 246.722C297.739 246.644 298.002 246.365 298.002 245.887V236.753C298.002 236.548 297.89 236.407 297.666 236.329C297.568 236.294 297.463 236.268 297.351 236.248C297.238 236.224 297.148 236.202 297.08 236.182C297.016 236.163 296.975 236.146 296.955 236.131C296.94 236.111 296.933 236.075 296.933 236.021C296.933 235.962 296.97 235.914 297.043 235.875L298.911 234.996C298.969 234.966 299.006 234.952 299.021 234.952C299.104 234.952 299.145 235.01 299.145 235.127V245.887C299.145 246.365 299.409 246.644 299.936 246.722ZM301.093 243.711C301.093 242.75 301.433 241.924 302.111 241.236C302.795 240.542 303.613 240.196 304.565 240.196C305.517 240.196 306.345 240.533 307.048 241.207C307.751 241.875 308.103 242.703 308.103 243.689C308.103 244.676 307.768 245.508 307.099 246.187C306.435 246.861 305.6 247.198 304.594 247.198C303.588 247.198 302.753 246.856 302.089 246.172C301.425 245.489 301.093 244.668 301.093 243.711ZM302.917 245.594C303.396 246.399 304.047 246.802 304.873 246.802C305.512 246.802 306 246.546 306.337 246.033C306.679 245.521 306.85 244.891 306.85 244.144C306.85 243.396 306.611 242.63 306.132 241.844C305.659 241.058 305.019 240.665 304.213 240.665C303.623 240.665 303.156 240.921 302.814 241.434C302.478 241.941 302.309 242.588 302.309 243.375C302.309 244.156 302.512 244.896 302.917 245.594ZM316.093 240.408C316.147 240.423 316.174 240.457 316.174 240.511C316.174 240.564 316.167 240.604 316.152 240.628C316.137 240.652 316.03 240.679 315.83 240.708C315.629 240.738 315.485 240.796 315.397 240.884C315.314 240.967 315.239 241.062 315.17 241.17C315.107 241.277 315.051 241.39 315.002 241.507C314.953 241.619 314.907 241.722 314.863 241.814L312.863 246.985C312.805 247.127 312.751 247.198 312.702 247.198H312.124C312.075 247.198 312.021 247.122 311.962 246.971L310.021 241.719C309.841 241.226 309.531 240.909 309.091 240.767C309.057 240.757 309.016 240.75 308.967 240.745C308.762 240.726 308.659 240.665 308.659 240.562C308.659 240.459 308.718 240.408 308.835 240.408H312.094C312.133 240.408 312.153 240.447 312.153 240.525C312.153 240.599 312.126 240.647 312.072 240.672C311.984 240.706 311.828 240.721 311.604 240.716C311.237 240.706 311.054 240.853 311.054 241.155L311.098 241.331L312.585 245.396C312.683 245.645 312.78 245.638 312.878 245.374C312.888 245.35 312.951 245.191 313.068 244.898C313.728 243.213 314.096 242.239 314.174 241.976C314.257 241.712 314.299 241.514 314.299 241.382C314.299 241.25 314.228 241.114 314.086 240.972C313.945 240.826 313.754 240.752 313.515 240.752C313.276 240.752 313.156 240.679 313.156 240.533C313.156 240.45 313.21 240.408 313.317 240.408H316.093ZM317.939 243.14C317.856 243.14 317.814 243.318 317.814 243.675C317.814 244.432 318.039 245.066 318.488 245.579C318.938 246.092 319.494 246.348 320.158 246.348C320.827 246.348 321.469 246.06 322.084 245.484C322.094 245.474 322.106 245.469 322.121 245.469H322.158C322.187 245.469 322.214 245.494 322.238 245.542C322.268 245.586 322.294 245.616 322.319 245.63C321.752 246.319 321.086 246.795 320.319 247.059C320.056 247.151 319.758 247.198 319.426 247.198C319.094 247.198 318.757 247.107 318.415 246.927C318.073 246.741 317.78 246.5 317.536 246.202C317.019 245.582 316.76 244.81 316.76 243.887C316.76 242.959 317.041 242.115 317.602 241.353C318.168 240.591 318.945 240.21 319.931 240.21C320.639 240.21 321.218 240.528 321.667 241.163C322.116 241.792 322.341 242.347 322.341 242.825C322.341 243.035 322.29 243.14 322.187 243.14H317.939ZM318.02 242.437C318.02 242.53 318.063 242.576 318.151 242.576H320.913C321.04 242.576 321.103 242.5 321.103 242.349C321.103 241.998 320.944 241.639 320.627 241.272C320.314 240.901 319.97 240.716 319.594 240.716C319.228 240.716 318.894 240.882 318.591 241.214C318.293 241.546 318.103 241.924 318.02 242.349V242.437ZM325.981 246.619C325.981 247.527 325.554 248.284 324.699 248.89C324.504 249.031 324.357 249.102 324.26 249.102C324.187 249.102 324.15 249.036 324.15 248.904C324.15 248.826 324.201 248.75 324.304 248.677C324.411 248.609 324.489 248.553 324.538 248.509C325.031 248.064 325.278 247.662 325.278 247.3C325.278 247.159 325.249 247.073 325.19 247.044C325.136 247.015 325.017 247 324.831 247C324.646 247 324.45 246.929 324.245 246.788C324.045 246.646 323.945 246.438 323.945 246.165C323.945 245.892 324.011 245.696 324.143 245.579C324.367 245.374 324.582 245.271 324.787 245.271C325.168 245.271 325.461 245.423 325.666 245.726C325.876 246.023 325.981 246.321 325.981 246.619ZM164.343 271.693L164.328 270.147C164.328 269.518 164.274 269.076 164.167 268.822C164.06 268.568 163.923 268.377 163.757 268.25C163.591 268.119 163.366 268.053 163.083 268.053C162.805 268.053 162.211 268.272 161.303 268.712C161.181 268.785 161.118 268.854 161.113 268.917V272.857C161.113 273.351 161.376 273.634 161.904 273.707C162.133 273.741 162.248 273.797 162.248 273.875C162.248 273.949 162.224 273.99 162.175 274H158.908C158.859 273.99 158.835 273.956 158.835 273.897C158.835 273.805 158.95 273.741 159.179 273.707C159.707 273.634 159.97 273.351 159.97 272.857V268.653C159.97 268.448 159.858 268.307 159.633 268.229C159.536 268.194 159.431 268.167 159.318 268.148C159.206 268.124 159.116 268.102 159.047 268.082C158.984 268.062 158.942 268.045 158.923 268.031C158.908 268.011 158.901 267.975 158.901 267.921C158.901 267.862 158.938 267.813 159.011 267.774L160.878 266.896C160.937 266.866 160.974 266.852 160.988 266.852C161.071 266.852 161.113 266.91 161.113 267.027V268.17C161.127 268.219 161.147 268.243 161.171 268.243C161.201 268.243 161.306 268.199 161.486 268.111C161.906 267.901 162.329 267.699 162.753 267.503C163.178 267.308 163.53 267.21 163.808 267.21C164.936 267.21 165.5 268.238 165.5 270.294L165.434 272.433V272.857C165.434 273.238 165.625 273.487 166.005 273.604C166.167 273.658 166.32 273.697 166.467 273.722C166.618 273.741 166.716 273.761 166.76 273.78C166.809 273.8 166.833 273.839 166.833 273.897C166.833 273.956 166.809 273.99 166.76 274H163.229C163.181 273.99 163.156 273.956 163.156 273.897C163.156 273.805 163.271 273.741 163.5 273.707C164.023 273.634 164.284 273.331 164.284 272.799C164.323 272.555 164.343 272.186 164.343 271.693ZM172.019 272.792C172.019 272.918 172.077 273.021 172.194 273.099C172.316 273.172 172.456 273.209 172.612 273.209C172.768 273.209 172.897 273.17 173 273.092C173.107 273.009 173.181 272.967 173.22 272.967C173.259 272.967 173.278 273.021 173.278 273.128C173.278 273.231 173.229 273.319 173.132 273.392C172.399 273.929 171.904 274.198 171.645 274.198C171.333 274.198 171.079 273.873 170.883 273.224C170.869 273.175 170.856 273.153 170.847 273.158C170.241 273.612 169.86 273.885 169.704 273.978C169.304 274.208 168.901 274.244 168.496 274.088C168.095 273.932 167.805 273.673 167.624 273.312C167.536 273.126 167.492 272.928 167.492 272.718C167.492 272.303 167.646 271.974 167.954 271.729C168.261 271.485 168.847 271.251 169.711 271.026C170.004 270.948 170.266 270.848 170.495 270.726C170.725 270.604 170.844 270.526 170.854 270.492C170.869 270.458 170.876 270.426 170.876 270.396V268.99C170.876 268.438 170.661 268.05 170.231 267.826C170.09 267.752 169.919 267.716 169.719 267.716C169.523 267.716 169.323 267.794 169.118 267.95C168.918 268.106 168.818 268.329 168.818 268.617L168.854 268.902C168.825 268.961 168.649 269.059 168.327 269.195C168.005 269.332 167.819 269.405 167.771 269.415C167.692 269.415 167.653 269.322 167.653 269.137C167.653 268.946 167.709 268.736 167.822 268.507C167.934 268.277 168.093 268.067 168.298 267.877C168.776 267.433 169.323 267.21 169.938 267.21C170.554 267.21 171.054 267.381 171.44 267.723C171.826 268.06 172.019 268.463 172.019 268.932V272.792ZM168.642 272.579C168.642 272.813 168.732 273.019 168.913 273.194C169.094 273.365 169.299 273.451 169.528 273.451C169.763 273.451 170.046 273.353 170.378 273.158C170.71 272.958 170.876 272.752 170.876 272.542V271.056C170.876 271.002 170.864 270.975 170.839 270.975C170.815 270.975 170.798 270.978 170.788 270.982L169.089 271.773C168.913 271.9 168.793 272.008 168.73 272.096C168.671 272.184 168.642 272.345 168.642 272.579ZM175.761 268.368C175.732 268.368 175.717 268.39 175.717 268.434V272.477C175.717 272.77 175.781 272.999 175.908 273.165C176.04 273.331 176.206 273.414 176.406 273.414C176.606 273.414 176.779 273.382 176.926 273.319C177.077 273.25 177.207 273.177 177.314 273.099C177.426 273.021 177.526 272.95 177.614 272.887C177.702 272.818 177.78 272.784 177.849 272.784C177.917 272.784 177.951 272.801 177.951 272.835C177.951 272.953 177.939 273.028 177.915 273.062C177.329 273.819 176.762 274.198 176.215 274.198C175.673 274.198 175.263 274.027 174.985 273.685C174.711 273.338 174.575 272.926 174.575 272.447V268.368H174.025C173.889 268.368 173.815 268.324 173.806 268.236C173.801 268.148 173.815 268.092 173.85 268.067C174.108 267.901 174.465 267.604 174.919 267.174C174.968 267.12 175.034 267.04 175.117 266.932C175.2 266.825 175.319 266.678 175.476 266.493C175.637 266.307 175.759 266.214 175.842 266.214C175.925 266.214 175.966 266.249 175.966 266.317C175.966 266.327 175.883 266.646 175.717 267.276C175.717 267.364 175.756 267.411 175.834 267.416H177.702C177.917 267.416 178.024 267.718 178.024 268.324C178.024 268.353 178.005 268.368 177.966 268.368H175.761ZM183.737 273.355C183.713 273.272 183.681 273.246 183.642 273.275C183.603 273.299 183.444 273.382 183.166 273.524C182.253 273.978 181.491 274.205 180.881 274.205C180.271 274.205 179.831 274.01 179.562 273.619C179.465 273.473 179.416 273.292 179.416 273.077V268.609C179.401 268.468 179.338 268.346 179.226 268.243C179.074 268.116 178.916 268.048 178.75 268.038C178.588 268.028 178.508 267.979 178.508 267.892C178.508 267.799 178.547 267.743 178.625 267.723L180.302 267.24C180.361 267.22 180.417 267.21 180.471 267.21C180.529 267.21 180.559 267.252 180.559 267.335V272.25C180.559 272.591 180.71 272.855 181.013 273.041C181.315 273.226 181.701 273.319 182.17 273.319C182.644 273.319 183.068 273.175 183.444 272.887C183.562 272.794 183.659 272.691 183.737 272.579V268.609C183.723 268.468 183.659 268.346 183.547 268.243C183.396 268.116 183.237 268.048 183.071 268.038C182.91 268.028 182.829 267.979 182.829 267.892C182.829 267.799 182.868 267.743 182.946 267.723L184.624 267.24C184.682 267.22 184.738 267.21 184.792 267.21C184.851 267.21 184.88 267.259 184.88 267.357V272.557C184.904 272.772 184.965 272.926 185.063 273.019C185.161 273.111 185.319 273.158 185.539 273.158L185.964 273.128C185.993 273.128 186.008 273.158 186.008 273.216C186.008 273.27 185.971 273.314 185.898 273.348L183.95 274.154C183.891 274.183 183.84 274.198 183.796 274.198C183.757 274.198 183.737 274.137 183.737 274.015V273.355ZM191.413 268.749C191.354 268.739 191.269 268.707 191.157 268.653C190.751 268.468 190.434 268.375 190.205 268.375C189.975 268.375 189.733 268.519 189.479 268.807C189.23 269.09 189.106 269.347 189.106 269.576V272.887C189.106 273.253 189.318 273.497 189.743 273.619C189.929 273.668 190.102 273.705 190.263 273.729C190.424 273.749 190.527 273.768 190.571 273.788C190.62 273.807 190.644 273.846 190.644 273.905C190.644 273.958 190.62 273.99 190.571 274H186.901C186.853 273.99 186.828 273.956 186.828 273.897C186.828 273.81 186.943 273.751 187.172 273.722C187.7 273.644 187.963 273.365 187.963 272.887V269.012C187.963 268.807 187.851 268.666 187.626 268.587C187.529 268.553 187.424 268.526 187.312 268.507C187.199 268.482 187.109 268.46 187.041 268.441C186.977 268.421 186.936 268.404 186.916 268.39C186.901 268.37 186.894 268.333 186.894 268.28C186.894 268.221 186.931 268.172 187.004 268.133L188.872 267.254C188.93 267.225 188.967 267.21 188.981 267.21C189.064 267.21 189.106 267.269 189.106 267.386V268.573C189.106 268.631 189.121 268.661 189.15 268.661C189.189 268.661 189.289 268.546 189.45 268.316C189.914 267.667 190.297 267.342 190.6 267.342C190.771 267.342 191.032 267.411 191.384 267.547C191.74 267.684 191.918 267.799 191.918 267.892C191.918 268.004 191.862 268.175 191.75 268.404C191.638 268.634 191.525 268.749 191.413 268.749ZM193.618 270.14C193.535 270.14 193.493 270.318 193.493 270.675C193.493 271.432 193.718 272.066 194.167 272.579C194.616 273.092 195.173 273.348 195.837 273.348C196.506 273.348 197.148 273.06 197.763 272.484C197.773 272.474 197.785 272.469 197.8 272.469H197.836C197.866 272.469 197.893 272.494 197.917 272.542C197.946 272.586 197.973 272.616 197.998 272.63C197.431 273.319 196.765 273.795 195.998 274.059C195.734 274.151 195.437 274.198 195.104 274.198C194.772 274.198 194.436 274.107 194.094 273.927C193.752 273.741 193.459 273.5 193.215 273.202C192.697 272.582 192.438 271.81 192.438 270.887C192.438 269.959 192.719 269.115 193.281 268.353C193.847 267.591 194.624 267.21 195.61 267.21C196.318 267.21 196.896 267.528 197.346 268.163C197.795 268.792 198.02 269.347 198.02 269.825C198.02 270.035 197.968 270.14 197.866 270.14H193.618ZM193.698 269.437C193.698 269.53 193.742 269.576 193.83 269.576H196.591C196.718 269.576 196.782 269.5 196.782 269.349C196.782 268.998 196.623 268.639 196.306 268.272C195.993 267.901 195.649 267.716 195.273 267.716C194.907 267.716 194.572 267.882 194.27 268.214C193.972 268.546 193.781 268.924 193.698 269.349V269.437ZM199.689 273.268C199.689 273.004 199.782 272.777 199.968 272.586C200.153 272.391 200.378 272.293 200.642 272.293C200.9 272.293 201.123 272.389 201.308 272.579C201.499 272.765 201.594 272.992 201.594 273.26C201.594 273.529 201.501 273.753 201.315 273.934C201.13 274.11 200.905 274.198 200.642 274.198C200.383 274.198 200.158 274.107 199.968 273.927C199.782 273.746 199.689 273.526 199.689 273.268Z" fill="black"/>
<path d="M115.102 196.52C116.148 196.52 116.672 196.008 116.672 194.984C116.672 194.922 116.703 194.891 116.766 194.891H117.047C117.109 194.891 117.141 194.922 117.141 194.984V199.344C117.141 199.406 117.109 199.438 117.047 199.438H116.766C116.703 199.438 116.672 199.406 116.672 199.344C116.672 198.625 116.469 198.129 116.062 197.855C115.844 197.707 115.531 197.633 115.125 197.633H110.508C110.32 197.633 110.227 197.738 110.227 197.949V203.973C110.227 204.504 110.543 204.898 111.176 205.156C111.816 205.406 112.219 205.531 112.383 205.531C112.555 205.531 112.641 205.562 112.641 205.625V205.906C112.641 205.969 112.609 206 112.547 206H106.148C106.086 206 106.055 205.969 106.055 205.906V205.625C106.055 205.562 106.121 205.531 106.254 205.531C106.387 205.531 106.594 205.469 106.875 205.344C107.156 205.219 107.402 205.035 107.613 204.793C107.832 204.543 107.941 204.242 107.941 203.891V191.234C107.941 190.727 107.672 190.363 107.133 190.145C106.82 190.012 106.512 189.945 106.207 189.945H106.16C106.098 189.945 106.066 189.914 106.066 189.852V189.57C106.066 189.508 106.098 189.477 106.16 189.477H117.211C117.305 189.492 117.375 189.516 117.422 189.547C117.469 189.57 117.492 189.637 117.492 189.746V192.582C117.492 192.676 117.477 192.734 117.445 192.758C117.422 192.781 117.375 192.793 117.305 192.793H117.164C117.148 192.785 117.094 192.574 117 192.16C116.914 191.738 116.777 191.414 116.59 191.188C116.27 190.844 115.906 190.652 115.5 190.613C115.336 190.598 115.137 190.59 114.902 190.59H110.461C110.305 190.59 110.227 190.668 110.227 190.824V196.25C110.227 196.43 110.32 196.52 110.508 196.52H115.102ZM133.758 204.992C133.078 205.406 132.336 205.73 131.531 205.965C130.727 206.199 130.012 206.316 129.387 206.316C128.105 206.316 126.883 206.109 125.719 205.695C124.125 205.117 122.844 204.262 121.875 203.129C120.641 201.684 120.023 199.852 120.023 197.633C120.023 196.031 120.434 194.574 121.254 193.262C122.074 191.941 123.207 190.898 124.652 190.133C126.105 189.367 127.664 188.984 129.328 188.984C131 188.984 132.496 189.355 133.816 190.098C135.137 190.84 136.195 191.859 136.992 193.156C137.789 194.453 138.188 195.859 138.188 197.375C138.188 198.883 137.793 200.32 137.004 201.688C136.215 203.047 135.133 204.148 133.758 204.992ZM122.484 197.258C122.484 198.555 122.77 199.844 123.34 201.125C123.918 202.398 124.742 203.438 125.812 204.242C126.883 205.047 128.121 205.449 129.527 205.449C131.527 205.449 133.086 204.684 134.203 203.152C135.211 201.77 135.715 200.004 135.715 197.855C135.715 195.707 135.098 193.855 133.863 192.301C133.262 191.543 132.523 190.938 131.648 190.484C130.781 190.023 129.902 189.793 129.012 189.793C128.129 189.793 127.402 189.891 126.832 190.086C126.27 190.281 125.758 190.551 125.297 190.895C124.836 191.23 124.43 191.633 124.078 192.102C123.727 192.57 123.434 193.078 123.199 193.625C122.723 194.75 122.484 195.961 122.484 197.258ZM154.5 204.992C153.82 205.406 153.078 205.73 152.273 205.965C151.469 206.199 150.754 206.316 150.129 206.316C148.848 206.316 147.625 206.109 146.461 205.695C144.867 205.117 143.586 204.262 142.617 203.129C141.383 201.684 140.766 199.852 140.766 197.633C140.766 196.031 141.176 194.574 141.996 193.262C142.816 191.941 143.949 190.898 145.395 190.133C146.848 189.367 148.406 188.984 150.07 188.984C151.742 188.984 153.238 189.355 154.559 190.098C155.879 190.84 156.938 191.859 157.734 193.156C158.531 194.453 158.93 195.859 158.93 197.375C158.93 198.883 158.535 200.32 157.746 201.688C156.957 203.047 155.875 204.148 154.5 204.992ZM143.227 197.258C143.227 198.555 143.512 199.844 144.082 201.125C144.66 202.398 145.484 203.438 146.555 204.242C147.625 205.047 148.863 205.449 150.27 205.449C152.27 205.449 153.828 204.684 154.945 203.152C155.953 201.77 156.457 200.004 156.457 197.855C156.457 195.707 155.84 193.855 154.605 192.301C154.004 191.543 153.266 190.938 152.391 190.484C151.523 190.023 150.645 189.793 149.754 189.793C148.871 189.793 148.145 189.891 147.574 190.086C147.012 190.281 146.5 190.551 146.039 190.895C145.578 191.23 145.172 191.633 144.82 192.102C144.469 192.57 144.176 193.078 143.941 193.625C143.465 194.75 143.227 195.961 143.227 197.258ZM164.895 205.625C164.895 205.562 164.93 205.531 165 205.531H165.328C166.094 205.531 166.707 205.367 167.168 205.039C167.637 204.711 167.871 204.328 167.871 203.891V190.918C167.871 190.754 167.836 190.664 167.766 190.648C167.703 190.625 167.625 190.605 167.531 190.59H163.031C162.305 190.746 161.828 191.305 161.602 192.266C161.477 192.781 161.402 193.113 161.379 193.262C161.355 193.402 161.312 193.473 161.25 193.473H161.039C160.992 193.473 160.969 193.457 160.969 193.426V193.039L161.402 189.383C161.449 189.141 161.527 189.02 161.637 189.02C161.746 189.02 161.863 189.098 161.988 189.254C162.113 189.402 162.352 189.477 162.703 189.477H175.336C175.672 189.477 175.875 189.438 175.945 189.359C176.016 189.281 176.082 189.207 176.145 189.137C176.207 189.059 176.285 189.02 176.379 189.02C176.48 189.02 176.543 189.059 176.566 189.137C176.598 189.215 176.621 189.297 176.637 189.383L177.07 193.039V193.426C177.07 193.457 177.047 193.473 177 193.473H176.789C176.727 193.473 176.684 193.414 176.66 193.297C176.535 192.516 176.355 191.898 176.121 191.445C175.887 190.984 175.516 190.699 175.008 190.59H170.496C170.402 190.605 170.32 190.625 170.25 190.648C170.188 190.664 170.156 190.754 170.156 190.918V203.891C170.156 204.328 170.387 204.711 170.848 205.039C171.316 205.367 171.934 205.531 172.699 205.531H173.039C173.102 205.531 173.133 205.562 173.133 205.625V205.906C173.133 205.969 173.102 206 173.039 206H164.988C164.926 206 164.895 205.969 164.895 205.906V205.625ZM178.992 206C178.93 206 178.898 205.922 178.898 205.766V205.625C178.898 205.562 178.938 205.531 179.016 205.531C179.094 205.531 179.207 205.508 179.355 205.461C179.512 205.414 179.629 205.383 179.707 205.367C180.504 205.188 180.902 204.734 180.902 204.008V191.633C180.902 190.914 180.77 190.457 180.504 190.262C180.238 190.059 179.758 189.957 179.062 189.957H178.535C178.371 189.957 178.289 189.863 178.289 189.676C178.289 189.566 178.34 189.5 178.441 189.477H178.523L185.098 189.301H186.281C187.68 189.395 188.844 189.898 189.773 190.812C190.703 191.727 191.168 192.824 191.168 194.105C191.168 195.379 190.711 196.535 189.797 197.574C189.398 198.035 188.949 198.41 188.449 198.699C187.949 198.98 187.457 199.125 186.973 199.133L183.457 198.992H183.363C183.246 198.992 183.188 199.047 183.188 199.156V203.973C183.188 204.402 183.305 204.719 183.539 204.922C183.773 205.125 184.27 205.285 185.027 205.402C185.129 205.418 185.293 205.445 185.52 205.484C185.746 205.516 185.898 205.531 185.977 205.531C186.055 205.531 186.094 205.562 186.094 205.625V205.906C186.094 205.969 186.062 206 186 206H178.992ZM184.137 189.898C184.043 189.898 183.941 189.902 183.832 189.91C183.73 189.91 183.598 189.914 183.434 189.922C183.27 189.922 183.188 189.984 183.188 190.109V197.668L183.211 198.02C183.234 198.184 183.309 198.27 183.434 198.277L184.629 198.348C185.887 198.348 186.898 197.926 187.664 197.082C188.438 196.238 188.824 195.18 188.824 193.906C188.824 192.625 188.449 191.633 187.699 190.93C186.957 190.227 185.965 189.875 184.723 189.875C184.613 189.875 184.512 189.879 184.418 189.887C184.324 189.887 184.23 189.891 184.137 189.898ZM192.633 206C192.57 206 192.539 205.922 192.539 205.766V205.625C192.539 205.562 192.57 205.531 192.633 205.531C192.68 205.531 192.754 205.523 192.855 205.508C192.957 205.492 193.062 205.477 193.172 205.461C193.281 205.445 193.383 205.43 193.477 205.414C193.57 205.391 193.637 205.375 193.676 205.367C194.473 205.188 194.871 204.734 194.871 204.008V191.633C194.871 190.961 194.602 190.484 194.062 190.203C193.742 190.031 193.398 189.945 193.031 189.945H192.586C192.523 189.945 192.492 189.914 192.492 189.852V189.57C192.492 189.508 192.539 189.477 192.633 189.477L199.066 189.301H200.25C201.633 189.395 202.789 189.898 203.719 190.812C204.656 191.719 205.125 192.84 205.125 194.176C205.125 195.504 204.57 196.539 203.461 197.281C203.117 197.508 202.746 197.711 202.348 197.891L205.898 203.691C206.516 204.707 207.344 205.422 208.383 205.836C208.469 205.859 208.512 205.914 208.512 206C208.512 206.195 208.383 206.293 208.125 206.293C206.367 206.293 204.969 205.625 203.93 204.289C203.703 203.992 203.477 203.66 203.25 203.293L200.215 198.535L197.426 198.406H197.332C197.215 198.406 197.156 198.461 197.156 198.57V203.973C197.156 204.402 197.277 204.723 197.52 204.934C197.762 205.145 198.18 205.289 198.773 205.367C198.93 205.391 199.121 205.426 199.348 205.473C199.574 205.512 199.727 205.531 199.805 205.531C199.891 205.531 199.934 205.562 199.934 205.625V205.906C199.934 205.969 199.902 206 199.84 206H192.633ZM198.105 189.922C198.012 189.922 197.91 189.926 197.801 189.934C197.699 189.934 197.566 189.938 197.402 189.945C197.238 189.945 197.156 190.008 197.156 190.133V197.234L197.18 197.586C197.203 197.75 197.277 197.836 197.402 197.844L198.598 197.914C200.793 197.914 202.117 197.133 202.57 195.57C202.719 195.078 202.793 194.516 202.793 193.883C202.793 192.648 202.406 191.676 201.633 190.965C200.867 190.254 199.887 189.898 198.691 189.898C198.582 189.898 198.48 189.902 198.387 189.91C198.293 189.91 198.199 189.914 198.105 189.922ZM211.617 191.352C211.617 190.414 211.078 189.945 210 189.945C209.828 189.945 209.742 189.914 209.742 189.852V189.57C209.742 189.508 209.773 189.477 209.836 189.477H215.707C215.77 189.477 215.801 189.508 215.801 189.57V189.852C215.801 189.914 215.629 189.945 215.285 189.945C214.941 189.945 214.625 190.055 214.336 190.273C214.047 190.492 213.902 190.941 213.902 191.621V204.125C213.902 205.062 214.445 205.531 215.531 205.531C215.695 205.531 215.777 205.562 215.777 205.625V205.906C215.777 205.969 215.746 206 215.684 206H209.812C209.75 206 209.719 205.969 209.719 205.906V205.625C209.719 205.562 209.891 205.531 210.234 205.531C210.578 205.531 210.895 205.422 211.184 205.203C211.473 204.984 211.617 204.535 211.617 203.855V191.352ZM217.664 206C217.602 206 217.57 205.969 217.57 205.906V205.625C217.57 205.562 217.609 205.531 217.688 205.531H217.957C218.387 205.531 218.68 205.492 218.836 205.414C219.414 205.133 219.703 204.359 219.703 203.094V190.918C219.703 190.395 219.195 190.082 218.18 189.98C217.953 189.957 217.793 189.945 217.699 189.945C217.613 189.945 217.57 189.914 217.57 189.852V189.57C217.57 189.508 217.602 189.477 217.664 189.477H221.953L233.074 201.77C233.113 201.809 233.141 201.84 233.156 201.863C233.172 201.879 233.195 201.887 233.227 201.887C233.266 201.887 233.285 201.852 233.285 201.781V193.707C233.285 192.152 233.156 191.137 232.898 190.66C232.641 190.184 232.121 189.945 231.34 189.945H230.742C230.68 189.945 230.648 189.914 230.648 189.852V189.57C230.648 189.508 230.68 189.477 230.742 189.477H236.836C236.898 189.477 236.93 189.508 236.93 189.57V189.852C236.93 189.914 236.812 189.945 236.578 189.945C236.352 189.945 235.973 190.078 235.441 190.344C234.918 190.609 234.656 190.938 234.656 191.328V205.66C234.656 205.832 234.633 205.953 234.586 206.023C234.539 206.102 234.426 206.141 234.246 206.141C234.074 206.141 233.945 206.105 233.859 206.035C233.773 205.965 233.672 205.863 233.555 205.73L221.473 192.336C221.395 192.258 221.324 192.219 221.262 192.219C221.223 192.219 221.203 192.258 221.203 192.336V204.031C221.203 204.742 221.766 205.211 222.891 205.438C223.203 205.5 223.441 205.531 223.605 205.531C223.77 205.531 223.852 205.562 223.852 205.625V205.906C223.852 205.969 223.82 206 223.758 206H217.664ZM242.027 205.625C242.027 205.562 242.062 205.531 242.133 205.531H242.461C243.227 205.531 243.84 205.367 244.301 205.039C244.77 204.711 245.004 204.328 245.004 203.891V190.918C245.004 190.754 244.969 190.664 244.898 190.648C244.836 190.625 244.758 190.605 244.664 190.59H240.164C239.438 190.746 238.961 191.305 238.734 192.266C238.609 192.781 238.535 193.113 238.512 193.262C238.488 193.402 238.445 193.473 238.383 193.473H238.172C238.125 193.473 238.102 193.457 238.102 193.426V193.039L238.535 189.383C238.582 189.141 238.66 189.02 238.77 189.02C238.879 189.02 238.996 189.098 239.121 189.254C239.246 189.402 239.484 189.477 239.836 189.477H252.469C252.805 189.477 253.008 189.438 253.078 189.359C253.148 189.281 253.215 189.207 253.277 189.137C253.34 189.059 253.418 189.02 253.512 189.02C253.613 189.02 253.676 189.059 253.699 189.137C253.73 189.215 253.754 189.297 253.77 189.383L254.203 193.039V193.426C254.203 193.457 254.18 193.473 254.133 193.473H253.922C253.859 193.473 253.816 193.414 253.793 193.297C253.668 192.516 253.488 191.898 253.254 191.445C253.02 190.984 252.648 190.699 252.141 190.59H247.629C247.535 190.605 247.453 190.625 247.383 190.648C247.32 190.664 247.289 190.754 247.289 190.918V203.891C247.289 204.328 247.52 204.711 247.98 205.039C248.449 205.367 249.066 205.531 249.832 205.531H250.172C250.234 205.531 250.266 205.562 250.266 205.625V205.906C250.266 205.969 250.234 206 250.172 206H242.121C242.059 206 242.027 205.969 242.027 205.906V205.625Z" fill="black"/>
<path d="M143.374 319C143.334 319 143.315 318.98 143.315 318.941V318.766C143.315 318.727 143.334 318.707 143.374 318.707H143.549C143.969 318.707 144.335 318.619 144.648 318.443C144.775 318.37 144.88 318.258 144.963 318.106C145.046 317.95 145.087 317.777 145.087 317.586V309.837C145.087 309.535 144.892 309.303 144.501 309.142C144.228 309.024 143.938 308.966 143.63 308.966H143.469C143.43 308.966 143.41 308.946 143.41 308.907V308.731C143.41 308.692 143.43 308.673 143.469 308.673H148.427C148.466 308.673 148.486 308.692 148.486 308.731V308.907C148.486 308.946 148.466 308.966 148.427 308.966H148.112C147.609 308.966 147.165 309.037 146.779 309.178C146.667 309.217 146.594 309.283 146.56 309.376C146.53 309.464 146.516 309.618 146.516 309.837V317.96C146.525 318.043 146.569 318.121 146.647 318.194C146.726 318.268 146.813 318.304 146.911 318.304H149.804C150.239 318.304 150.666 318.048 151.086 317.535C151.198 317.398 151.337 317.218 151.503 316.993C151.669 316.764 151.772 316.634 151.811 316.605C151.967 316.488 152.045 316.49 152.045 316.612C152.045 316.642 152.038 316.671 152.023 316.7L150.917 318.868C150.874 318.956 150.822 319 150.764 319H143.374ZM153.796 315.14C153.713 315.14 153.671 315.318 153.671 315.675C153.671 316.432 153.896 317.066 154.345 317.579C154.794 318.092 155.351 318.348 156.015 318.348C156.684 318.348 157.326 318.06 157.941 317.484C157.951 317.474 157.963 317.469 157.978 317.469H158.015C158.044 317.469 158.071 317.494 158.095 317.542C158.125 317.586 158.151 317.616 158.176 317.63C157.609 318.319 156.943 318.795 156.176 319.059C155.913 319.151 155.615 319.198 155.283 319.198C154.951 319.198 154.614 319.107 154.272 318.927C153.93 318.741 153.637 318.5 153.393 318.202C152.875 317.582 152.617 316.81 152.617 315.887C152.617 314.959 152.897 314.115 153.459 313.353C154.025 312.591 154.802 312.21 155.788 312.21C156.496 312.21 157.075 312.528 157.524 313.163C157.973 313.792 158.198 314.347 158.198 314.825C158.198 315.035 158.146 315.14 158.044 315.14H153.796ZM153.876 314.437C153.876 314.53 153.92 314.576 154.008 314.576H156.77C156.896 314.576 156.96 314.5 156.96 314.349C156.96 313.998 156.801 313.639 156.484 313.272C156.171 312.901 155.827 312.716 155.451 312.716C155.085 312.716 154.75 312.882 154.448 313.214C154.15 313.546 153.959 313.924 153.876 314.349V314.437ZM163.955 317.792C163.955 317.918 164.013 318.021 164.13 318.099C164.252 318.172 164.392 318.209 164.548 318.209C164.704 318.209 164.833 318.17 164.936 318.092C165.043 318.009 165.117 317.967 165.156 317.967C165.195 317.967 165.214 318.021 165.214 318.128C165.214 318.231 165.166 318.319 165.068 318.392C164.335 318.929 163.84 319.198 163.581 319.198C163.269 319.198 163.015 318.873 162.819 318.224C162.805 318.175 162.792 318.153 162.783 318.158C162.177 318.612 161.796 318.885 161.64 318.978C161.24 319.208 160.837 319.244 160.432 319.088C160.031 318.932 159.741 318.673 159.56 318.312C159.472 318.126 159.428 317.928 159.428 317.718C159.428 317.303 159.582 316.974 159.89 316.729C160.197 316.485 160.783 316.251 161.647 316.026C161.94 315.948 162.202 315.848 162.431 315.726C162.661 315.604 162.78 315.526 162.79 315.492C162.805 315.458 162.812 315.426 162.812 315.396V313.99C162.812 313.438 162.597 313.05 162.167 312.826C162.026 312.752 161.855 312.716 161.655 312.716C161.459 312.716 161.259 312.794 161.054 312.95C160.854 313.106 160.754 313.329 160.754 313.617L160.791 313.902C160.761 313.961 160.585 314.059 160.263 314.195C159.941 314.332 159.755 314.405 159.707 314.415C159.628 314.415 159.589 314.322 159.589 314.137C159.589 313.946 159.646 313.736 159.758 313.507C159.87 313.277 160.029 313.067 160.234 312.877C160.712 312.433 161.259 312.21 161.875 312.21C162.49 312.21 162.99 312.381 163.376 312.723C163.762 313.06 163.955 313.463 163.955 313.932V317.792ZM160.578 317.579C160.578 317.813 160.668 318.019 160.849 318.194C161.03 318.365 161.235 318.451 161.464 318.451C161.699 318.451 161.982 318.353 162.314 318.158C162.646 317.958 162.812 317.752 162.812 317.542V316.056C162.812 316.002 162.8 315.975 162.775 315.975C162.751 315.975 162.734 315.978 162.724 315.982L161.025 316.773C160.849 316.9 160.729 317.008 160.666 317.096C160.607 317.184 160.578 317.345 160.578 317.579ZM170.371 313.749C170.312 313.739 170.227 313.707 170.114 313.653C169.709 313.468 169.392 313.375 169.162 313.375C168.933 313.375 168.691 313.519 168.437 313.807C168.188 314.09 168.063 314.347 168.063 314.576V317.887C168.063 318.253 168.276 318.497 168.701 318.619C168.886 318.668 169.06 318.705 169.221 318.729C169.382 318.749 169.484 318.768 169.528 318.788C169.577 318.807 169.602 318.846 169.602 318.905C169.602 318.958 169.577 318.99 169.528 319H165.859C165.81 318.99 165.786 318.956 165.786 318.897C165.786 318.81 165.9 318.751 166.13 318.722C166.657 318.644 166.921 318.365 166.921 317.887V314.012C166.921 313.807 166.809 313.666 166.584 313.587C166.486 313.553 166.381 313.526 166.269 313.507C166.157 313.482 166.066 313.46 165.998 313.441C165.935 313.421 165.893 313.404 165.874 313.39C165.859 313.37 165.852 313.333 165.852 313.28C165.852 313.221 165.888 313.172 165.961 313.133L167.829 312.254C167.888 312.225 167.924 312.21 167.939 312.21C168.022 312.21 168.063 312.269 168.063 312.386V313.573C168.063 313.631 168.078 313.661 168.107 313.661C168.146 313.661 168.247 313.546 168.408 313.316C168.872 312.667 169.255 312.342 169.558 312.342C169.729 312.342 169.99 312.411 170.341 312.547C170.698 312.684 170.876 312.799 170.876 312.892C170.876 313.004 170.82 313.175 170.708 313.404C170.595 313.634 170.483 313.749 170.371 313.749ZM176.772 316.693L176.757 315.147C176.757 314.518 176.704 314.076 176.596 313.822C176.489 313.568 176.352 313.377 176.186 313.25C176.02 313.119 175.795 313.053 175.512 313.053C175.234 313.053 174.641 313.272 173.732 313.712C173.61 313.785 173.547 313.854 173.542 313.917V317.857C173.542 318.351 173.806 318.634 174.333 318.707C174.562 318.741 174.677 318.797 174.677 318.875C174.677 318.949 174.653 318.99 174.604 319H171.337C171.289 318.99 171.264 318.956 171.264 318.897C171.264 318.805 171.379 318.741 171.608 318.707C172.136 318.634 172.399 318.351 172.399 317.857V313.653C172.399 313.448 172.287 313.307 172.062 313.229C171.965 313.194 171.86 313.167 171.748 313.148C171.635 313.124 171.545 313.102 171.477 313.082C171.413 313.062 171.372 313.045 171.352 313.031C171.337 313.011 171.33 312.975 171.33 312.921C171.33 312.862 171.367 312.813 171.44 312.774L173.308 311.896C173.366 311.866 173.403 311.852 173.417 311.852C173.5 311.852 173.542 311.91 173.542 312.027V313.17C173.557 313.219 173.576 313.243 173.601 313.243C173.63 313.243 173.735 313.199 173.916 313.111C174.335 312.901 174.758 312.699 175.183 312.503C175.607 312.308 175.959 312.21 176.237 312.21C177.365 312.21 177.929 313.238 177.929 315.294L177.863 317.433V317.857C177.863 318.238 178.054 318.487 178.435 318.604C178.596 318.658 178.75 318.697 178.896 318.722C179.047 318.741 179.145 318.761 179.189 318.78C179.238 318.8 179.262 318.839 179.262 318.897C179.262 318.956 179.238 318.99 179.189 319H175.659C175.61 318.99 175.585 318.956 175.585 318.897C175.585 318.805 175.7 318.741 175.93 318.707C176.452 318.634 176.713 318.331 176.713 317.799C176.752 317.555 176.772 317.186 176.772 316.693ZM187.106 318.707C187.136 318.707 187.15 318.727 187.15 318.766V318.941C187.15 318.98 187.136 319 187.106 319H183.686C183.647 319 183.627 318.98 183.627 318.941V318.766C183.627 318.727 183.647 318.707 183.686 318.707C184.487 318.707 184.921 318.363 184.99 317.674C185.009 317.474 185.029 317.142 185.048 316.678C185.073 316.209 185.139 315.206 185.246 313.668C185.354 312.125 185.407 310.877 185.407 309.925V309.654C185.407 309.459 185.295 309.295 185.07 309.164C184.851 309.032 184.689 308.966 184.587 308.966C184.484 308.966 184.433 308.946 184.433 308.907V308.731C184.433 308.692 184.453 308.673 184.492 308.673H186.608C186.701 308.688 186.777 308.741 186.835 308.834L190.271 316.488C190.295 316.522 190.314 316.551 190.329 316.576C190.344 316.6 190.38 316.612 190.439 316.612C190.498 316.607 190.542 316.563 190.571 316.48L193.969 308.966C194.072 308.771 194.165 308.673 194.248 308.673H196.379C196.418 308.673 196.438 308.692 196.438 308.731V308.907C196.438 308.946 196.425 308.966 196.401 308.966C196.254 308.966 196.074 309.015 195.859 309.112C195.532 309.259 195.368 309.476 195.368 309.764L195.808 317.857C195.817 318.111 195.949 318.316 196.203 318.473C196.457 318.629 196.789 318.707 197.199 318.707C197.238 318.707 197.258 318.727 197.258 318.766V318.941C197.258 318.98 197.238 319 197.199 319H193.039C193 319 192.98 318.98 192.98 318.941V318.766C192.98 318.727 193 318.707 193.039 318.707C193.913 318.707 194.35 318.495 194.35 318.07L193.962 311.075C193.957 311.026 193.942 311.002 193.918 311.002C193.898 311.002 193.881 311.024 193.867 311.068L190.227 318.949C190.207 318.983 190.151 319 190.058 319C189.965 319 189.912 318.98 189.897 318.941L186.308 311.046C186.279 310.978 186.25 310.943 186.22 310.943C186.196 310.943 186.184 310.997 186.184 311.104C186.184 311.329 186.125 312.389 186.008 314.283C185.891 316.178 185.832 317.359 185.832 317.828V318.128C185.891 318.407 186.167 318.587 186.66 318.67C186.801 318.695 186.95 318.707 187.106 318.707ZM198.122 315.711C198.122 314.75 198.461 313.924 199.14 313.236C199.824 312.542 200.642 312.196 201.594 312.196C202.546 312.196 203.374 312.533 204.077 313.207C204.78 313.875 205.131 314.703 205.131 315.689C205.131 316.676 204.797 317.508 204.128 318.187C203.464 318.861 202.629 319.198 201.623 319.198C200.617 319.198 199.782 318.856 199.118 318.172C198.454 317.489 198.122 316.668 198.122 315.711ZM199.946 317.594C200.424 318.399 201.076 318.802 201.901 318.802C202.541 318.802 203.029 318.546 203.366 318.033C203.708 317.521 203.879 316.891 203.879 316.144C203.879 315.396 203.64 314.63 203.161 313.844C202.688 313.058 202.048 312.665 201.242 312.665C200.651 312.665 200.185 312.921 199.843 313.434C199.506 313.941 199.338 314.588 199.338 315.375C199.338 316.156 199.541 316.896 199.946 317.594ZM210.654 313.749C210.595 313.739 210.51 313.707 210.397 313.653C209.992 313.468 209.675 313.375 209.445 313.375C209.216 313.375 208.974 313.519 208.72 313.807C208.471 314.09 208.347 314.347 208.347 314.576V317.887C208.347 318.253 208.559 318.497 208.984 318.619C209.169 318.668 209.343 318.705 209.504 318.729C209.665 318.749 209.768 318.768 209.812 318.788C209.86 318.807 209.885 318.846 209.885 318.905C209.885 318.958 209.86 318.99 209.812 319H206.142C206.093 318.99 206.069 318.956 206.069 318.897C206.069 318.81 206.184 318.751 206.413 318.722C206.94 318.644 207.204 318.365 207.204 317.887V314.012C207.204 313.807 207.092 313.666 206.867 313.587C206.77 313.553 206.665 313.526 206.552 313.507C206.44 313.482 206.35 313.46 206.281 313.441C206.218 313.421 206.176 313.404 206.157 313.39C206.142 313.37 206.135 313.333 206.135 313.28C206.135 313.221 206.171 313.172 206.245 313.133L208.112 312.254C208.171 312.225 208.208 312.21 208.222 312.21C208.305 312.21 208.347 312.269 208.347 312.386V313.573C208.347 313.631 208.361 313.661 208.391 313.661C208.43 313.661 208.53 313.546 208.691 313.316C209.155 312.667 209.538 312.342 209.841 312.342C210.012 312.342 210.273 312.411 210.625 312.547C210.981 312.684 211.159 312.799 211.159 312.892C211.159 313.004 211.103 313.175 210.991 313.404C210.878 313.634 210.766 313.749 210.654 313.749ZM212.858 315.14C212.775 315.14 212.734 315.318 212.734 315.675C212.734 316.432 212.958 317.066 213.408 317.579C213.857 318.092 214.414 318.348 215.078 318.348C215.747 318.348 216.389 318.06 217.004 317.484C217.014 317.474 217.026 317.469 217.041 317.469H217.077C217.106 317.469 217.133 317.494 217.158 317.542C217.187 317.586 217.214 317.616 217.238 317.63C216.672 318.319 216.005 318.795 215.239 319.059C214.975 319.151 214.677 319.198 214.345 319.198C214.013 319.198 213.676 319.107 213.334 318.927C212.993 318.741 212.7 318.5 212.456 318.202C211.938 317.582 211.679 316.81 211.679 315.887C211.679 314.959 211.96 314.115 212.521 313.353C213.088 312.591 213.864 312.21 214.851 312.21C215.559 312.21 216.137 312.528 216.586 313.163C217.036 313.792 217.26 314.347 217.26 314.825C217.26 315.035 217.209 315.14 217.106 315.14H212.858ZM212.939 314.437C212.939 314.53 212.983 314.576 213.071 314.576H215.832C215.959 314.576 216.022 314.5 216.022 314.349C216.022 313.998 215.864 313.639 215.546 313.272C215.234 312.901 214.89 312.716 214.514 312.716C214.147 312.716 213.813 312.882 213.51 313.214C213.212 313.546 213.022 313.924 212.939 314.349V314.437Z" fill="black"/>
<path d="M143.022 320.501H217.978V321.234H143.022V320.501Z" fill="black"/>
</svg>
