<svg width="208" height="267" viewBox="0 0 208 267" fill="none" xmlns="http://www.w3.org/2000/svg">
<path d="M54.5103 68.9658C53.9243 68.9658 53.6313 69.1904 53.6313 69.6396C53.6313 69.7227 53.646 69.8105 53.6753 69.9033C53.7095 69.9961 53.7388 70.0938 53.7632 70.1963L56.5684 76.9492C56.5928 76.998 56.6318 77.0225 56.6855 77.0225C56.7393 77.0225 56.7832 76.9956 56.8174 76.9419L58.436 73.1333L57.0078 69.6836C56.9199 69.4639 56.5537 69.2539 55.9092 69.0537C55.7188 68.9951 55.5942 68.9658 55.5356 68.9658C55.4819 68.9658 55.4551 68.9463 55.4551 68.9072V68.7314C55.4551 68.6924 55.4746 68.6729 55.5137 68.6729H62.2227C62.2617 68.6729 62.2812 68.6924 62.2812 68.7314V68.9072C62.2812 68.9463 62.2617 68.9658 62.2227 68.9658H61.9517C61.4829 68.9658 61.1265 69.1953 60.8823 69.6543C60.7993 69.8105 60.7139 69.9937 60.626 70.2036L59.6738 72.4375L61.5488 76.9492C61.5732 76.998 61.6123 77.0225 61.666 77.0225C61.7197 77.0225 61.7637 76.9956 61.7979 76.9419L64.896 69.6543C64.9546 69.5176 64.9839 69.3955 64.9839 69.2881C64.9839 69.0732 64.7031 68.9658 64.1416 68.9658H63.6875C63.6484 68.9658 63.6289 68.9463 63.6289 68.9072V68.7314C63.6289 68.6924 63.6484 68.6729 63.6875 68.6729H66.9468C66.9858 68.6729 67.0054 68.6924 67.0054 68.7314V68.9072C67.0054 68.9463 66.9858 68.9658 66.9468 68.9658H66.6025C66.3877 68.9658 66.2241 69.0415 66.1118 69.1929C66.0044 69.3394 65.8506 69.6421 65.6504 70.1011L61.8857 78.9414C61.832 79.0586 61.7759 79.1294 61.7173 79.1538C61.6587 79.1831 61.5732 79.1978 61.4609 79.1978H61.1167C60.9995 79.1978 60.9214 79.144 60.8823 79.0366L58.9048 74.2466L56.9053 78.9414C56.8516 79.0586 56.7954 79.1294 56.7368 79.1538C56.6782 79.1831 56.5928 79.1978 56.4805 79.1978H56.1362C56.019 79.1978 55.9434 79.1416 55.9092 79.0293L52.0273 69.6836C51.9492 69.4932 51.7075 69.3271 51.3022 69.1855C50.897 69.0391 50.6455 68.9658 50.5479 68.9658C50.4551 68.9658 50.4087 68.9463 50.4087 68.9072V68.7314C50.4087 68.6924 50.4282 68.6729 50.4673 68.6729H54.6421C54.6812 68.6729 54.7007 68.6924 54.7007 68.7314V68.9072C54.7007 68.9463 54.6812 68.9658 54.6421 68.9658H54.5103ZM60.0034 69.3101C60.0034 69.105 59.7935 68.9927 59.3735 68.9731C58.9487 68.9976 58.7046 69.1465 58.6411 69.4199C58.6216 69.4883 58.6118 69.564 58.6118 69.647C58.6118 69.7251 58.6265 69.8105 58.6558 69.9033C58.6899 69.9961 58.7192 70.0938 58.7437 70.1963L59.2051 71.3169L59.9155 69.6543C59.9741 69.5176 60.0034 69.4028 60.0034 69.3101ZM69.5322 73.3311C69.5322 73.4482 69.5493 73.5068 69.5835 73.5068C69.6177 73.5068 69.6421 73.4995 69.6567 73.4849C69.6714 73.4653 69.7739 73.3506 69.9644 73.1406C70.5161 72.5254 71.0752 72.2178 71.6416 72.2178C72.3838 72.2178 72.9282 72.3838 73.2749 72.7158C73.6997 73.1357 73.9121 73.8413 73.9121 74.8325V77.8867C73.9121 78.3652 74.1758 78.6436 74.7031 78.7217C74.9326 78.751 75.0474 78.8022 75.0474 78.8755C75.0474 78.9487 75.0229 78.9902 74.9741 79H71.7075C71.6587 78.9902 71.6343 78.9561 71.6343 78.8975C71.6343 78.8096 71.749 78.751 71.9785 78.7217C72.5059 78.6436 72.7695 78.3652 72.7695 77.8867V74.9058C72.7695 74.188 72.7183 73.7217 72.6157 73.5068C72.4204 73.0771 72.0127 72.8623 71.3926 72.8623C71.0117 72.8623 70.6064 73.0259 70.1768 73.353C69.7471 73.6753 69.5322 74.0317 69.5322 74.4224V77.8867C69.5322 78.3652 69.7959 78.6436 70.3232 78.7217C70.5527 78.751 70.6675 78.8022 70.6675 78.8755C70.6675 78.9487 70.6431 78.9902 70.5942 79H67.3276C67.2788 78.9902 67.2544 78.9561 67.2544 78.8975C67.2544 78.8096 67.3691 78.751 67.5986 78.7217C68.126 78.6436 68.3896 78.3652 68.3896 77.8867V68.7534C68.3896 68.5483 68.2773 68.4067 68.0527 68.3286C67.9551 68.2944 67.8501 68.2676 67.7378 68.248C67.6255 68.2236 67.5352 68.2017 67.4668 68.1821C67.4033 68.1626 67.3618 68.1455 67.3423 68.1309C67.3276 68.1113 67.3203 68.0747 67.3203 68.021C67.3203 67.9624 67.3569 67.9136 67.4302 67.8745L69.2979 66.9956C69.3564 66.9663 69.3931 66.9517 69.4077 66.9517C69.4907 66.9517 69.5322 67.0103 69.5322 67.1274V73.3311ZM76.959 75.1401C76.876 75.1401 76.8345 75.3184 76.8345 75.6748C76.8345 76.4316 77.0591 77.0664 77.5083 77.5791C77.9575 78.0918 78.5142 78.3481 79.1782 78.3481C79.8472 78.3481 80.4893 78.0601 81.1045 77.4839C81.1143 77.4741 81.1265 77.4692 81.1411 77.4692H81.1777C81.207 77.4692 81.2339 77.4937 81.2583 77.5425C81.2876 77.5864 81.3145 77.6157 81.3389 77.6304C80.7725 78.3188 80.106 78.7949 79.3394 79.0586C79.0757 79.1514 78.7778 79.1978 78.4458 79.1978C78.1138 79.1978 77.7769 79.1074 77.4351 78.9268C77.0933 78.7412 76.8003 78.4995 76.5562 78.2017C76.0386 77.5815 75.7798 76.8101 75.7798 75.8872C75.7798 74.9595 76.0605 74.1147 76.6221 73.353C77.1885 72.5913 77.9648 72.2104 78.9512 72.2104C79.6592 72.2104 80.2378 72.5278 80.687 73.1626C81.1362 73.7925 81.3608 74.3467 81.3608 74.8252C81.3608 75.0352 81.3096 75.1401 81.207 75.1401H76.959ZM77.0396 74.437C77.0396 74.5298 77.0835 74.5762 77.1714 74.5762H79.9326C80.0596 74.5762 80.123 74.5005 80.123 74.3491C80.123 73.9976 79.9644 73.6387 79.647 73.2725C79.3345 72.9014 78.9902 72.7158 78.6143 72.7158C78.248 72.7158 77.9136 72.8818 77.6108 73.2139C77.313 73.5459 77.1226 73.9243 77.0396 74.3491V74.437ZM87.0444 73.7485C86.9858 73.7388 86.9004 73.707 86.7881 73.6533C86.3828 73.4678 86.0654 73.375 85.8359 73.375C85.6064 73.375 85.3647 73.519 85.1108 73.8071C84.8618 74.0903 84.7373 74.3467 84.7373 74.5762V77.8867C84.7373 78.2529 84.9497 78.4971 85.3745 78.6191C85.5601 78.668 85.7334 78.7046 85.8945 78.729C86.0557 78.7485 86.1582 78.7681 86.2021 78.7876C86.251 78.8071 86.2754 78.8462 86.2754 78.9048C86.2754 78.9585 86.251 78.9902 86.2021 79H82.5327C82.4839 78.9902 82.4595 78.9561 82.4595 78.8975C82.4595 78.8096 82.5742 78.751 82.8037 78.7217C83.3311 78.6436 83.5947 78.3652 83.5947 77.8867V74.0122C83.5947 73.8071 83.4824 73.6655 83.2578 73.5874C83.1602 73.5532 83.0552 73.5264 82.9429 73.5068C82.8306 73.4824 82.7402 73.4604 82.6719 73.4409C82.6084 73.4214 82.5669 73.4043 82.5474 73.3896C82.5327 73.3701 82.5254 73.3335 82.5254 73.2798C82.5254 73.2212 82.562 73.1724 82.6353 73.1333L84.5029 72.2544C84.5615 72.2251 84.5981 72.2104 84.6128 72.2104C84.6958 72.2104 84.7373 72.269 84.7373 72.3862V73.5728C84.7373 73.6313 84.752 73.6606 84.7812 73.6606C84.8203 73.6606 84.9204 73.5459 85.0815 73.3164C85.5454 72.667 85.9287 72.3423 86.2314 72.3423C86.4023 72.3423 86.6636 72.4106 87.0151 72.5474C87.3716 72.6841 87.5498 72.7988 87.5498 72.8916C87.5498 73.0039 87.4937 73.1748 87.3813 73.4043C87.269 73.6338 87.1567 73.7485 87.0444 73.7485ZM89.249 75.1401C89.166 75.1401 89.1245 75.3184 89.1245 75.6748C89.1245 76.4316 89.3491 77.0664 89.7983 77.5791C90.2476 78.0918 90.8042 78.3481 91.4683 78.3481C92.1372 78.3481 92.7793 78.0601 93.3945 77.4839C93.4043 77.4741 93.4165 77.4692 93.4312 77.4692H93.4678C93.4971 77.4692 93.5239 77.4937 93.5483 77.5425C93.5776 77.5864 93.6045 77.6157 93.6289 77.6304C93.0625 78.3188 92.396 78.7949 91.6294 79.0586C91.3657 79.1514 91.0679 79.1978 90.7358 79.1978C90.4038 79.1978 90.0669 79.1074 89.7251 78.9268C89.3833 78.7412 89.0903 78.4995 88.8462 78.2017C88.3286 77.5815 88.0698 76.8101 88.0698 75.8872C88.0698 74.9595 88.3506 74.1147 88.9121 73.353C89.4785 72.5913 90.2549 72.2104 91.2412 72.2104C91.9492 72.2104 92.5278 72.5278 92.9771 73.1626C93.4263 73.7925 93.6509 74.3467 93.6509 74.8252C93.6509 75.0352 93.5996 75.1401 93.4971 75.1401H89.249ZM89.3296 74.437C89.3296 74.5298 89.3735 74.5762 89.4614 74.5762H92.2227C92.3496 74.5762 92.4131 74.5005 92.4131 74.3491C92.4131 73.9976 92.2544 73.6387 91.937 73.2725C91.6245 72.9014 91.2803 72.7158 90.9043 72.7158C90.5381 72.7158 90.2036 72.8818 89.9009 73.2139C89.603 73.5459 89.4126 73.9243 89.3296 74.3491V74.437ZM100.689 73.3677C100.66 73.3677 100.646 73.3896 100.646 73.4336V77.4766C100.646 77.7695 100.709 77.999 100.836 78.165C100.968 78.3311 101.134 78.4141 101.334 78.4141C101.534 78.4141 101.708 78.3823 101.854 78.3188C102.005 78.2505 102.135 78.1772 102.242 78.0991C102.354 78.021 102.455 77.9502 102.542 77.8867C102.63 77.8184 102.708 77.7842 102.777 77.7842C102.845 77.7842 102.879 77.8013 102.879 77.8354C102.879 77.9526 102.867 78.0283 102.843 78.0625C102.257 78.8193 101.69 79.1978 101.144 79.1978C100.602 79.1978 100.191 79.0269 99.9131 78.6851C99.6396 78.3384 99.5029 77.9258 99.5029 77.4473V73.3677H98.9536C98.8169 73.3677 98.7437 73.3237 98.7339 73.2358C98.729 73.1479 98.7437 73.0918 98.7778 73.0674C99.0366 72.9014 99.3931 72.6035 99.8472 72.1738C99.896 72.1201 99.9619 72.0396 100.045 71.9321C100.128 71.8247 100.248 71.6782 100.404 71.4927C100.565 71.3071 100.687 71.2144 100.77 71.2144C100.853 71.2144 100.895 71.2485 100.895 71.3169C100.895 71.3267 100.812 71.6465 100.646 72.2764C100.646 72.3643 100.685 72.4106 100.763 72.4155H102.63C102.845 72.4155 102.953 72.7183 102.953 73.3237C102.953 73.353 102.933 73.3677 102.894 73.3677H100.689ZM103.692 75.7114C103.692 74.7495 104.032 73.9243 104.71 73.2358C105.394 72.5425 106.212 72.1958 107.164 72.1958C108.116 72.1958 108.944 72.5327 109.647 73.2065C110.35 73.8755 110.702 74.7031 110.702 75.6895C110.702 76.6758 110.367 77.5083 109.698 78.187C109.034 78.8608 108.199 79.1978 107.193 79.1978C106.188 79.1978 105.353 78.856 104.688 78.1724C104.024 77.4888 103.692 76.6685 103.692 75.7114ZM105.516 77.5938C105.995 78.3994 106.646 78.8022 107.472 78.8022C108.111 78.8022 108.6 78.5459 108.937 78.0332C109.278 77.5205 109.449 76.8906 109.449 76.1436C109.449 75.3965 109.21 74.6299 108.731 73.8438C108.258 73.0576 107.618 72.6646 106.812 72.6646C106.222 72.6646 105.755 72.9209 105.414 73.4336C105.077 73.9414 104.908 74.5884 104.908 75.3745C104.908 76.1558 105.111 76.8955 105.516 77.5938ZM121.153 74.166C121.153 73.6338 120.887 73.3677 120.355 73.3677H117.953C117.889 73.3677 117.857 73.3921 117.857 73.4409V77.7402C117.857 78.4385 118.463 78.7876 119.674 78.7876C119.762 78.7974 119.806 78.8291 119.806 78.8828C119.806 78.9609 119.762 79 119.674 79H115.653C115.604 78.9902 115.58 78.9561 115.58 78.8975C115.58 78.8096 115.694 78.751 115.924 78.7217C116.451 78.6436 116.715 78.3652 116.715 77.8867V73.4482C116.715 73.3945 116.686 73.3677 116.627 73.3677H115.829C115.77 73.3677 115.714 73.3506 115.66 73.3164C115.606 73.2773 115.58 73.2285 115.58 73.1699C115.58 73.1064 115.609 73.0576 115.667 73.0234C115.75 72.9746 115.946 72.9087 116.253 72.8257C116.561 72.7427 116.715 72.606 116.715 72.4155V72.1738C116.715 70.416 117.096 69.0635 117.857 68.1162C118.282 67.584 118.929 67.1738 119.798 66.8857C120.062 66.7979 120.323 66.7539 120.582 66.7539C120.841 66.7539 121.144 66.8223 121.49 66.959C121.837 67.0908 122.01 67.252 122.01 67.4424C122.01 67.4814 122.003 67.5156 121.988 67.5449C121.979 67.5742 121.966 67.6108 121.952 67.6548L121.651 68.2993C121.622 68.3677 121.583 68.4019 121.534 68.4019C121.485 68.4019 121.373 68.3311 121.197 68.1895C121.026 68.0479 120.826 67.9087 120.597 67.772C120.367 67.6353 120.106 67.5669 119.813 67.5669C119.242 67.5669 118.81 67.7134 118.517 68.0063C118.224 68.2993 118.041 68.6313 117.967 69.0024C117.894 69.3687 117.857 69.7739 117.857 70.2183V72.3496C117.857 72.3887 117.882 72.4082 117.931 72.4082H121.578C121.803 72.4082 121.979 72.4766 122.105 72.6133C122.232 72.75 122.296 72.9087 122.296 73.0894V77.8867C122.296 78.3652 122.56 78.6436 123.087 78.7217C123.316 78.751 123.431 78.8022 123.431 78.8755C123.431 78.9487 123.407 78.9902 123.358 79H120.091C120.042 78.9902 120.018 78.9561 120.018 78.8975C120.018 78.8096 120.133 78.751 120.362 78.7217C120.89 78.6436 121.153 78.3652 121.153 77.8867V74.166ZM129.627 76.6929L129.613 75.1475C129.613 74.5176 129.559 74.0757 129.452 73.8218C129.344 73.5679 129.208 73.3774 129.042 73.2505C128.875 73.1187 128.651 73.0527 128.368 73.0527C128.089 73.0527 127.496 73.2725 126.588 73.7119C126.466 73.7852 126.402 73.8535 126.397 73.917V77.8574C126.397 78.3506 126.661 78.6338 127.188 78.707C127.418 78.7412 127.533 78.7974 127.533 78.8755C127.533 78.9487 127.508 78.9902 127.459 79H124.193C124.144 78.9902 124.12 78.9561 124.12 78.8975C124.12 78.8047 124.234 78.7412 124.464 78.707C124.991 78.6338 125.255 78.3506 125.255 77.8574V73.6533C125.255 73.4482 125.143 73.3066 124.918 73.2285C124.82 73.1943 124.715 73.1675 124.603 73.1479C124.491 73.1235 124.4 73.1016 124.332 73.082C124.269 73.0625 124.227 73.0454 124.208 73.0308C124.193 73.0112 124.186 72.9746 124.186 72.9209C124.186 72.8623 124.222 72.8135 124.295 72.7744L126.163 71.8955C126.222 71.8662 126.258 71.8516 126.273 71.8516C126.356 71.8516 126.397 71.9102 126.397 72.0273V73.1699C126.412 73.2188 126.432 73.2432 126.456 73.2432C126.485 73.2432 126.59 73.1992 126.771 73.1113C127.191 72.9014 127.613 72.6987 128.038 72.5034C128.463 72.3081 128.814 72.2104 129.093 72.2104C130.221 72.2104 130.785 73.2383 130.785 75.2939L130.719 77.4326V77.8574C130.719 78.2383 130.909 78.4873 131.29 78.6045C131.451 78.6582 131.605 78.6973 131.751 78.7217C131.903 78.7412 132 78.7607 132.044 78.7803C132.093 78.7998 132.118 78.8389 132.118 78.8975C132.118 78.9561 132.093 78.9902 132.044 79H128.514C128.465 78.9902 128.441 78.9561 128.441 78.8975C128.441 78.8047 128.556 78.7412 128.785 78.707C129.308 78.6338 129.569 78.3311 129.569 77.7988C129.608 77.5547 129.627 77.186 129.627 76.6929ZM137.296 72.5181C137.511 72.5913 137.643 72.6279 137.691 72.6279C137.74 72.6279 137.77 72.6279 137.779 72.6279C137.794 72.623 137.811 72.5913 137.831 72.5327V68.7534C137.831 68.5483 137.718 68.4067 137.494 68.3286C137.396 68.2944 137.291 68.2676 137.179 68.248C137.066 68.2236 136.976 68.2017 136.908 68.1821C136.844 68.1626 136.803 68.1455 136.783 68.1309C136.769 68.1113 136.761 68.0747 136.761 68.021C136.761 67.9624 136.798 67.9136 136.871 67.8745L138.739 66.9956C138.797 66.9663 138.834 66.9517 138.849 66.9517C138.932 66.9517 138.973 67.0103 138.973 67.1274V77.5571C138.998 77.772 139.059 77.9258 139.156 78.0186C139.254 78.1113 139.413 78.1577 139.632 78.1577L140.057 78.1284C140.086 78.1284 140.101 78.1577 140.101 78.2163C140.101 78.27 140.064 78.314 139.991 78.3481L138.043 79.1538C137.984 79.1831 137.933 79.1978 137.889 79.1978C137.85 79.1978 137.831 79.1367 137.831 79.0146V78.3481C137.831 78.2993 137.818 78.2749 137.794 78.2749C137.76 78.2749 137.557 78.3848 137.186 78.6045C136.048 79.2783 135.089 79.3784 134.308 78.9048C133.683 78.5239 133.26 77.9209 133.041 77.0957C132.938 76.71 132.887 76.3022 132.887 75.8726C132.887 75.438 132.975 75.0083 133.15 74.5835C133.331 74.1538 133.578 73.7778 133.89 73.4556C134.579 72.7524 135.409 72.4009 136.38 72.4009C136.776 72.4009 137.081 72.4399 137.296 72.5181ZM133.993 75.6602C133.993 76.3975 134.198 77.0444 134.608 77.6011C135.018 78.1528 135.589 78.4287 136.322 78.4287C136.644 78.4287 136.976 78.3506 137.318 78.1943C137.66 78.0332 137.831 77.9111 137.831 77.8281V74.0488C137.831 73.9561 137.767 73.8462 137.64 73.7192C137.25 73.1821 136.729 72.9136 136.08 72.9136C135.436 72.9136 134.925 73.187 134.549 73.7339C134.178 74.2759 133.993 74.918 133.993 75.6602ZM149.798 78.3555C149.774 78.2725 149.742 78.2456 149.703 78.2749C149.664 78.2993 149.505 78.3823 149.227 78.5239C148.314 78.978 147.552 79.2051 146.942 79.2051C146.332 79.2051 145.892 79.0098 145.624 78.6191C145.526 78.4727 145.477 78.292 145.477 78.0771V73.6094C145.462 73.4678 145.399 73.3457 145.287 73.2432C145.135 73.1162 144.977 73.0479 144.811 73.0381C144.649 73.0283 144.569 72.9795 144.569 72.8916C144.569 72.7988 144.608 72.7427 144.686 72.7231L146.363 72.2397C146.422 72.2202 146.478 72.2104 146.532 72.2104C146.59 72.2104 146.62 72.252 146.62 72.335V77.2495C146.62 77.5913 146.771 77.855 147.074 78.0405C147.376 78.2261 147.762 78.3188 148.231 78.3188C148.705 78.3188 149.129 78.1748 149.505 77.8867C149.623 77.7939 149.72 77.6914 149.798 77.5791V73.6094C149.784 73.4678 149.72 73.3457 149.608 73.2432C149.457 73.1162 149.298 73.0479 149.132 73.0381C148.971 73.0283 148.89 72.9795 148.89 72.8916C148.89 72.7988 148.929 72.7427 149.007 72.7231L150.685 72.2397C150.743 72.2202 150.799 72.2104 150.853 72.2104C150.912 72.2104 150.941 72.2593 150.941 72.3569V77.5571C150.965 77.772 151.026 77.9258 151.124 78.0186C151.222 78.1113 151.38 78.1577 151.6 78.1577L152.025 78.1284C152.054 78.1284 152.069 78.1577 152.069 78.2163C152.069 78.27 152.032 78.314 151.959 78.3481L150.011 79.1538C149.952 79.1831 149.901 79.1978 149.857 79.1978C149.818 79.1978 149.798 79.1367 149.798 79.0146V78.3555ZM156.573 73.9902C156.573 74.0977 156.532 74.1514 156.449 74.1514C156.371 74.1514 156.31 74.0928 156.266 73.9756C156.148 73.6533 155.973 73.3677 155.738 73.1187C155.509 72.8696 155.223 72.7451 154.881 72.7451C154.432 72.7451 154.129 72.9697 153.973 73.4189C153.924 73.5703 153.9 73.7266 153.9 73.8877C153.9 74.0488 154.002 74.2295 154.208 74.4297C154.413 74.625 154.75 74.8594 155.218 75.1328C155.687 75.4062 156.029 75.6382 156.244 75.8286C156.732 76.2632 156.976 76.7661 156.976 77.3374C156.976 77.9087 156.766 78.3628 156.346 78.6997C155.926 79.0317 155.438 79.1978 154.881 79.1978C154.583 79.1978 154.312 79.1562 154.068 79.0732C153.829 78.9951 153.69 78.9561 153.651 78.9561C153.617 78.9561 153.558 78.9951 153.475 79.0732C153.397 79.1562 153.333 79.1978 153.285 79.1978H153.16C153.131 79.1978 153.094 78.9341 153.05 78.4067C153.006 77.8794 152.984 77.5669 152.984 77.4692C152.984 77.3716 152.992 77.3179 153.006 77.3081C153.026 77.2983 153.055 77.2935 153.094 77.2935C153.133 77.2935 153.165 77.3057 153.189 77.3301C153.219 77.3545 153.243 77.3862 153.263 77.4253C153.282 77.4595 153.297 77.4961 153.307 77.5352C153.321 77.5742 153.353 77.6475 153.402 77.7549C153.734 78.4629 154.247 78.8169 154.94 78.8169C155.248 78.8169 155.494 78.7046 155.68 78.48C155.865 78.2505 155.958 77.9966 155.958 77.7183C155.958 77.4399 155.885 77.2056 155.738 77.0151C155.592 76.8247 155.409 76.6514 155.189 76.4951C154.974 76.3389 154.74 76.1875 154.486 76.041C153.5 75.4648 153.006 74.8276 153.006 74.1294C153.006 73.6069 153.231 73.1577 153.68 72.7817C154.129 72.4009 154.591 72.2104 155.064 72.2104C155.538 72.2104 155.887 72.2617 156.112 72.3643C156.341 72.4668 156.476 72.5547 156.515 72.6279C156.554 72.6963 156.573 72.9258 156.573 73.3164V73.9902Z" fill="black"/>
<path d="M89.1245 145C89.0854 145 89.0659 144.951 89.0659 144.854V144.766C89.0659 144.727 89.0903 144.707 89.1392 144.707C89.188 144.707 89.2588 144.692 89.3516 144.663C89.4492 144.634 89.5225 144.614 89.5713 144.604C90.0693 144.492 90.3184 144.209 90.3184 143.755V136.021C90.3184 135.571 90.2354 135.286 90.0693 135.164C89.9033 135.037 89.603 134.973 89.1685 134.973H88.8389C88.7363 134.973 88.6851 134.915 88.6851 134.797C88.6851 134.729 88.7168 134.688 88.7803 134.673H88.8315L92.9404 134.563H93.6802C94.5542 134.622 95.2817 134.937 95.8628 135.508C96.4438 136.079 96.7344 136.765 96.7344 137.566C96.7344 138.362 96.4487 139.084 95.8774 139.734C95.6284 140.022 95.3477 140.256 95.0352 140.437C94.7227 140.613 94.415 140.703 94.1123 140.708L91.915 140.62H91.8564C91.7832 140.62 91.7466 140.654 91.7466 140.723V143.733C91.7466 144.001 91.8198 144.199 91.9663 144.326C92.1128 144.453 92.4229 144.553 92.8965 144.626C92.96 144.636 93.0625 144.653 93.2041 144.678C93.3457 144.697 93.4409 144.707 93.4897 144.707C93.5386 144.707 93.563 144.727 93.563 144.766V144.941C93.563 144.98 93.5435 145 93.5044 145H89.1245ZM92.3398 134.937C92.2812 134.937 92.2178 134.939 92.1494 134.944C92.0859 134.944 92.0029 134.946 91.9004 134.951C91.7979 134.951 91.7466 134.99 91.7466 135.068V139.792L91.7612 140.012C91.7759 140.115 91.8223 140.168 91.9004 140.173L92.6475 140.217C93.4336 140.217 94.0659 139.954 94.5444 139.426C95.0278 138.899 95.2695 138.237 95.2695 137.441C95.2695 136.641 95.0352 136.021 94.5664 135.581C94.1025 135.142 93.4824 134.922 92.7061 134.922C92.6377 134.922 92.5742 134.924 92.5156 134.929C92.457 134.929 92.3984 134.932 92.3398 134.937ZM102.235 139.749C102.176 139.739 102.091 139.707 101.979 139.653C101.573 139.468 101.256 139.375 101.026 139.375C100.797 139.375 100.555 139.519 100.301 139.807C100.052 140.09 99.9277 140.347 99.9277 140.576V143.887C99.9277 144.253 100.14 144.497 100.565 144.619C100.75 144.668 100.924 144.705 101.085 144.729C101.246 144.749 101.349 144.768 101.393 144.788C101.441 144.807 101.466 144.846 101.466 144.905C101.466 144.958 101.441 144.99 101.393 145H97.7231C97.6743 144.99 97.6499 144.956 97.6499 144.897C97.6499 144.81 97.7646 144.751 97.9941 144.722C98.5215 144.644 98.7852 144.365 98.7852 143.887V140.012C98.7852 139.807 98.6729 139.666 98.4482 139.587C98.3506 139.553 98.2456 139.526 98.1333 139.507C98.021 139.482 97.9307 139.46 97.8623 139.441C97.7988 139.421 97.7573 139.404 97.7378 139.39C97.7231 139.37 97.7158 139.333 97.7158 139.28C97.7158 139.221 97.7524 139.172 97.8257 139.133L99.6934 138.254C99.752 138.225 99.7886 138.21 99.8032 138.21C99.8862 138.21 99.9277 138.269 99.9277 138.386V139.573C99.9277 139.631 99.9424 139.661 99.9717 139.661C100.011 139.661 100.111 139.546 100.272 139.316C100.736 138.667 101.119 138.342 101.422 138.342C101.593 138.342 101.854 138.411 102.206 138.547C102.562 138.684 102.74 138.799 102.74 138.892C102.74 139.004 102.684 139.175 102.572 139.404C102.459 139.634 102.347 139.749 102.235 139.749ZM104.439 141.14C104.356 141.14 104.315 141.318 104.315 141.675C104.315 142.432 104.54 143.066 104.989 143.579C105.438 144.092 105.995 144.348 106.659 144.348C107.328 144.348 107.97 144.06 108.585 143.484C108.595 143.474 108.607 143.469 108.622 143.469H108.658C108.688 143.469 108.714 143.494 108.739 143.542C108.768 143.586 108.795 143.616 108.819 143.63C108.253 144.319 107.586 144.795 106.82 145.059C106.556 145.151 106.258 145.198 105.926 145.198C105.594 145.198 105.257 145.107 104.916 144.927C104.574 144.741 104.281 144.5 104.037 144.202C103.519 143.582 103.26 142.81 103.26 141.887C103.26 140.959 103.541 140.115 104.103 139.353C104.669 138.591 105.445 138.21 106.432 138.21C107.14 138.21 107.718 138.528 108.167 139.163C108.617 139.792 108.841 140.347 108.841 140.825C108.841 141.035 108.79 141.14 108.688 141.14H104.439ZM104.52 140.437C104.52 140.53 104.564 140.576 104.652 140.576H107.413C107.54 140.576 107.604 140.5 107.604 140.349C107.604 139.998 107.445 139.639 107.127 139.272C106.815 138.901 106.471 138.716 106.095 138.716C105.729 138.716 105.394 138.882 105.091 139.214C104.793 139.546 104.603 139.924 104.52 140.349V140.437ZM113.624 139.99C113.624 140.098 113.583 140.151 113.5 140.151C113.421 140.151 113.36 140.093 113.316 139.976C113.199 139.653 113.023 139.368 112.789 139.119C112.56 138.87 112.274 138.745 111.932 138.745C111.483 138.745 111.18 138.97 111.024 139.419C110.975 139.57 110.951 139.727 110.951 139.888C110.951 140.049 111.053 140.229 111.258 140.43C111.463 140.625 111.8 140.859 112.269 141.133C112.738 141.406 113.08 141.638 113.294 141.829C113.783 142.263 114.027 142.766 114.027 143.337C114.027 143.909 113.817 144.363 113.397 144.7C112.977 145.032 112.489 145.198 111.932 145.198C111.634 145.198 111.363 145.156 111.119 145.073C110.88 144.995 110.741 144.956 110.702 144.956C110.667 144.956 110.609 144.995 110.526 145.073C110.448 145.156 110.384 145.198 110.335 145.198H110.211C110.182 145.198 110.145 144.934 110.101 144.407C110.057 143.879 110.035 143.567 110.035 143.469C110.035 143.372 110.042 143.318 110.057 143.308C110.077 143.298 110.106 143.293 110.145 143.293C110.184 143.293 110.216 143.306 110.24 143.33C110.27 143.354 110.294 143.386 110.313 143.425C110.333 143.459 110.348 143.496 110.357 143.535C110.372 143.574 110.404 143.647 110.453 143.755C110.785 144.463 111.297 144.817 111.991 144.817C112.298 144.817 112.545 144.705 112.73 144.48C112.916 144.25 113.009 143.997 113.009 143.718C113.009 143.44 112.936 143.206 112.789 143.015C112.643 142.825 112.459 142.651 112.24 142.495C112.025 142.339 111.791 142.188 111.537 142.041C110.55 141.465 110.057 140.828 110.057 140.129C110.057 139.607 110.282 139.158 110.731 138.782C111.18 138.401 111.642 138.21 112.115 138.21C112.589 138.21 112.938 138.262 113.163 138.364C113.392 138.467 113.526 138.555 113.565 138.628C113.604 138.696 113.624 138.926 113.624 139.316V139.99ZM118.648 139.99C118.648 140.098 118.607 140.151 118.524 140.151C118.446 140.151 118.385 140.093 118.341 139.976C118.224 139.653 118.048 139.368 117.813 139.119C117.584 138.87 117.298 138.745 116.957 138.745C116.507 138.745 116.205 138.97 116.048 139.419C116 139.57 115.975 139.727 115.975 139.888C115.975 140.049 116.078 140.229 116.283 140.43C116.488 140.625 116.825 140.859 117.293 141.133C117.762 141.406 118.104 141.638 118.319 141.829C118.807 142.263 119.051 142.766 119.051 143.337C119.051 143.909 118.841 144.363 118.421 144.7C118.001 145.032 117.513 145.198 116.957 145.198C116.659 145.198 116.388 145.156 116.144 145.073C115.904 144.995 115.765 144.956 115.726 144.956C115.692 144.956 115.633 144.995 115.55 145.073C115.472 145.156 115.409 145.198 115.36 145.198H115.235C115.206 145.198 115.169 144.934 115.125 144.407C115.082 143.879 115.06 143.567 115.06 143.469C115.06 143.372 115.067 143.318 115.082 143.308C115.101 143.298 115.13 143.293 115.169 143.293C115.208 143.293 115.24 143.306 115.265 143.33C115.294 143.354 115.318 143.386 115.338 143.425C115.357 143.459 115.372 143.496 115.382 143.535C115.396 143.574 115.428 143.647 115.477 143.755C115.809 144.463 116.322 144.817 117.015 144.817C117.323 144.817 117.569 144.705 117.755 144.48C117.94 144.25 118.033 143.997 118.033 143.718C118.033 143.44 117.96 143.206 117.813 143.015C117.667 142.825 117.484 142.651 117.264 142.495C117.049 142.339 116.815 142.188 116.561 142.041C115.575 141.465 115.082 140.828 115.082 140.129C115.082 139.607 115.306 139.158 115.755 138.782C116.205 138.401 116.666 138.21 117.14 138.21C117.613 138.21 117.962 138.262 118.187 138.364C118.417 138.467 118.551 138.555 118.59 138.628C118.629 138.696 118.648 138.926 118.648 139.316V139.99Z" fill="black"/>
<path d="M67.8862 200.907C67.8862 200.946 67.8667 200.966 67.8276 200.966H67.5566C66.9365 201.088 66.48 201.596 66.187 202.489C66.1089 202.724 66.0283 202.951 65.9453 203.17L63.0669 210.941C63.0229 211.063 62.9692 211.137 62.9058 211.161C62.8423 211.186 62.7544 211.198 62.6421 211.198H62.2979C62.1807 211.198 62.105 211.144 62.0708 211.037L58.2109 201.684C58.0547 201.298 57.6689 201.061 57.0537 200.973C57.0195 200.968 56.9902 200.966 56.9658 200.966C56.9463 200.966 56.9365 200.946 56.9365 200.907V200.731C56.9365 200.692 56.9561 200.673 56.9951 200.673H61.3164C61.3555 200.673 61.375 200.692 61.375 200.731V200.907C61.375 200.946 61.3555 200.966 61.3164 200.966H61.2065C61.0845 200.985 60.9429 201.005 60.7817 201.024C60.1567 201.103 59.8442 201.352 59.8442 201.771C59.8442 201.903 59.8784 202.045 59.9468 202.196L62.7227 208.949C62.7715 209.047 62.8228 209.044 62.8765 208.942L65.4253 202.042C65.4595 201.945 65.4766 201.83 65.4766 201.698C65.4766 201.562 65.4204 201.432 65.3081 201.31C65.1958 201.183 65.0811 201.11 64.9639 201.09C64.8516 201.071 64.7612 201.056 64.6929 201.046C64.6294 201.037 64.5317 201.022 64.3999 201.002C64.2681 200.978 64.1802 200.966 64.1362 200.966C64.0923 200.966 64.0703 200.946 64.0703 200.907V200.731C64.0703 200.692 64.0898 200.673 64.1289 200.673H67.8276C67.8667 200.673 67.8862 200.692 67.8862 200.731V200.907ZM68.4429 211C68.394 210.99 68.3696 210.956 68.3696 210.897C68.3696 210.81 68.4844 210.751 68.7139 210.722C69.2412 210.644 69.5049 210.365 69.5049 209.887V206.012C69.5049 205.807 69.3926 205.666 69.168 205.587C69.0703 205.553 68.9653 205.526 68.853 205.507C68.7407 205.482 68.6504 205.46 68.582 205.441C68.5186 205.421 68.4771 205.404 68.4575 205.39C68.4429 205.37 68.4355 205.333 68.4355 205.28C68.4355 205.221 68.4722 205.172 68.5454 205.133L70.4131 204.254C70.4717 204.225 70.5083 204.21 70.5229 204.21C70.606 204.21 70.6475 204.269 70.6475 204.386V209.887C70.6475 210.365 70.9111 210.644 71.4385 210.722C71.668 210.751 71.7827 210.802 71.7827 210.875C71.7827 210.949 71.7583 210.99 71.7095 211H68.4429ZM69.9663 202.152C69.7661 202.152 69.5879 202.089 69.4316 201.962C69.2803 201.835 69.2046 201.659 69.2046 201.435C69.2046 201.205 69.2778 201.024 69.4243 200.893C69.5708 200.761 69.7441 200.695 69.9443 200.695C70.1494 200.695 70.3203 200.773 70.457 200.929C70.5986 201.085 70.6694 201.254 70.6694 201.435C70.6694 201.615 70.6035 201.781 70.4717 201.933C70.3398 202.079 70.1714 202.152 69.9663 202.152ZM77.1807 204.518C77.3955 204.591 77.5273 204.628 77.5762 204.628C77.625 204.628 77.6543 204.628 77.6641 204.628C77.6787 204.623 77.6958 204.591 77.7153 204.533V200.753C77.7153 200.548 77.603 200.407 77.3784 200.329C77.2808 200.294 77.1758 200.268 77.0635 200.248C76.9512 200.224 76.8608 200.202 76.7925 200.182C76.729 200.163 76.6875 200.146 76.668 200.131C76.6533 200.111 76.646 200.075 76.646 200.021C76.646 199.962 76.6826 199.914 76.7559 199.875L78.6235 198.996C78.6821 198.966 78.7188 198.952 78.7334 198.952C78.8164 198.952 78.8579 199.01 78.8579 199.127V209.557C78.8823 209.772 78.9434 209.926 79.041 210.019C79.1387 210.111 79.2974 210.158 79.5171 210.158L79.9419 210.128C79.9712 210.128 79.9858 210.158 79.9858 210.216C79.9858 210.27 79.9492 210.314 79.876 210.348L77.9277 211.154C77.8691 211.183 77.8179 211.198 77.7739 211.198C77.7349 211.198 77.7153 211.137 77.7153 211.015V210.348C77.7153 210.299 77.7031 210.275 77.6787 210.275C77.6445 210.275 77.4419 210.385 77.0708 210.604C75.9331 211.278 74.9736 211.378 74.1924 210.905C73.5674 210.524 73.145 209.921 72.9253 209.096C72.8228 208.71 72.7715 208.302 72.7715 207.873C72.7715 207.438 72.8594 207.008 73.0352 206.583C73.2158 206.154 73.4624 205.778 73.7749 205.456C74.4634 204.752 75.2935 204.401 76.2651 204.401C76.6606 204.401 76.9658 204.44 77.1807 204.518ZM73.8774 207.66C73.8774 208.397 74.0825 209.044 74.4927 209.601C74.9028 210.153 75.4741 210.429 76.2065 210.429C76.5288 210.429 76.8608 210.351 77.2026 210.194C77.5444 210.033 77.7153 209.911 77.7153 209.828V206.049C77.7153 205.956 77.6519 205.846 77.5249 205.719C77.1343 205.182 76.6143 204.914 75.9648 204.914C75.3203 204.914 74.8101 205.187 74.4341 205.734C74.063 206.276 73.8774 206.918 73.8774 207.66ZM81.8242 207.14C81.7412 207.14 81.6997 207.318 81.6997 207.675C81.6997 208.432 81.9243 209.066 82.3735 209.579C82.8228 210.092 83.3794 210.348 84.0435 210.348C84.7124 210.348 85.3545 210.06 85.9697 209.484C85.9795 209.474 85.9917 209.469 86.0063 209.469H86.043C86.0723 209.469 86.0991 209.494 86.1235 209.542C86.1528 209.586 86.1797 209.616 86.2041 209.63C85.6377 210.319 84.9712 210.795 84.2046 211.059C83.9409 211.151 83.6431 211.198 83.311 211.198C82.979 211.198 82.6421 211.107 82.3003 210.927C81.9585 210.741 81.6655 210.5 81.4214 210.202C80.9038 209.582 80.645 208.81 80.645 207.887C80.645 206.959 80.9258 206.115 81.4873 205.353C82.0537 204.591 82.8301 204.21 83.8164 204.21C84.5244 204.21 85.103 204.528 85.5522 205.163C86.0015 205.792 86.2261 206.347 86.2261 206.825C86.2261 207.035 86.1748 207.14 86.0723 207.14H81.8242ZM81.9048 206.437C81.9048 206.53 81.9487 206.576 82.0366 206.576H84.7979C84.9248 206.576 84.9883 206.5 84.9883 206.349C84.9883 205.998 84.8296 205.639 84.5122 205.272C84.1997 204.901 83.8555 204.716 83.4795 204.716C83.1133 204.716 82.7788 204.882 82.4761 205.214C82.1782 205.546 81.9878 205.924 81.9048 206.349V206.437ZM87.4932 207.711C87.4932 206.75 87.8325 205.924 88.5112 205.236C89.1948 204.542 90.0127 204.196 90.9648 204.196C91.917 204.196 92.7446 204.533 93.4478 205.207C94.1509 205.875 94.5024 206.703 94.5024 207.689C94.5024 208.676 94.168 209.508 93.499 210.187C92.835 210.861 92 211.198 90.9941 211.198C89.9883 211.198 89.1533 210.856 88.4893 210.172C87.8252 209.489 87.4932 208.668 87.4932 207.711ZM89.3169 209.594C89.7954 210.399 90.4473 210.802 91.2725 210.802C91.9121 210.802 92.4004 210.546 92.7373 210.033C93.0791 209.521 93.25 208.891 93.25 208.144C93.25 207.396 93.0107 206.63 92.5322 205.844C92.0586 205.058 91.4189 204.665 90.6133 204.665C90.0225 204.665 89.5562 204.921 89.2144 205.434C88.8774 205.941 88.709 206.588 88.709 207.375C88.709 208.156 88.9116 208.896 89.3169 209.594ZM99.439 211C99.3999 211 99.3804 210.98 99.3804 210.941V210.766C99.3804 210.727 99.3999 210.707 99.439 210.707H99.6147C100.035 210.707 100.401 210.619 100.713 210.443C100.84 210.37 100.945 210.258 101.028 210.106C101.111 209.95 101.153 209.777 101.153 209.586V201.837C101.153 201.535 100.958 201.303 100.567 201.142C100.293 201.024 100.003 200.966 99.6953 200.966H99.5342C99.4951 200.966 99.4756 200.946 99.4756 200.907V200.731C99.4756 200.692 99.4951 200.673 99.5342 200.673H104.493C104.532 200.673 104.551 200.692 104.551 200.731V200.907C104.551 200.946 104.532 200.966 104.493 200.966H104.178C103.675 200.966 103.23 201.037 102.845 201.178C102.732 201.217 102.659 201.283 102.625 201.376C102.596 201.464 102.581 201.618 102.581 201.837V209.96C102.591 210.043 102.635 210.121 102.713 210.194C102.791 210.268 102.879 210.304 102.977 210.304H105.87C106.304 210.304 106.731 210.048 107.151 209.535C107.264 209.398 107.403 209.218 107.569 208.993C107.735 208.764 107.837 208.634 107.876 208.605C108.033 208.488 108.111 208.49 108.111 208.612C108.111 208.642 108.104 208.671 108.089 208.7L106.983 210.868C106.939 210.956 106.888 211 106.829 211H99.439ZM108.682 211C108.633 210.99 108.609 210.956 108.609 210.897C108.609 210.81 108.724 210.751 108.953 210.722C109.48 210.644 109.744 210.365 109.744 209.887V206.012C109.744 205.807 109.632 205.666 109.407 205.587C109.31 205.553 109.205 205.526 109.092 205.507C108.98 205.482 108.89 205.46 108.821 205.441C108.758 205.421 108.716 205.404 108.697 205.39C108.682 205.37 108.675 205.333 108.675 205.28C108.675 205.221 108.711 205.172 108.785 205.133L110.652 204.254C110.711 204.225 110.748 204.21 110.762 204.21C110.845 204.21 110.887 204.269 110.887 204.386V209.887C110.887 210.365 111.15 210.644 111.678 210.722C111.907 210.751 112.022 210.802 112.022 210.875C112.022 210.949 111.998 210.99 111.949 211H108.682ZM110.206 202.152C110.005 202.152 109.827 202.089 109.671 201.962C109.52 201.835 109.444 201.659 109.444 201.435C109.444 201.205 109.517 201.024 109.664 200.893C109.81 200.761 109.983 200.695 110.184 200.695C110.389 200.695 110.56 200.773 110.696 200.929C110.838 201.085 110.909 201.254 110.909 201.435C110.909 201.615 110.843 201.781 110.711 201.933C110.579 202.079 110.411 202.152 110.206 202.152ZM116.907 210.883C116.907 210.961 116.863 211 116.775 211H112.754C112.706 210.99 112.681 210.956 112.681 210.897C112.681 210.81 112.796 210.751 113.025 210.722C113.553 210.644 113.816 210.365 113.816 209.887V205.448C113.816 205.395 113.787 205.368 113.729 205.368H112.93C112.872 205.368 112.815 205.351 112.762 205.316C112.708 205.277 112.681 205.229 112.681 205.17C112.681 205.106 112.71 205.058 112.769 205.023C112.852 204.975 113.047 204.909 113.355 204.826C113.663 204.743 113.816 204.606 113.816 204.416V204.174C113.816 202.416 114.197 201.063 114.959 200.116C115.384 199.584 116.031 199.174 116.9 198.886C117.164 198.798 117.425 198.754 117.684 198.754C117.942 198.754 118.245 198.822 118.592 198.959C118.938 199.091 119.112 199.252 119.112 199.442C119.112 199.481 119.104 199.516 119.09 199.545C119.08 199.574 119.068 199.611 119.053 199.655L118.753 200.299C118.714 200.377 118.667 200.417 118.614 200.417C118.599 200.417 118.494 200.341 118.299 200.189C118.104 200.033 117.896 199.892 117.676 199.765C117.461 199.633 117.208 199.567 116.915 199.567C116.343 199.567 115.911 199.713 115.618 200.006C115.325 200.299 115.142 200.631 115.069 201.002C114.996 201.369 114.959 201.774 114.959 202.218V204.35C114.959 204.389 114.983 204.408 115.032 204.408H116.46C116.597 204.408 116.685 204.423 116.724 204.452C116.768 204.477 116.81 204.564 116.849 204.716C116.888 204.862 116.907 204.999 116.907 205.126C116.907 205.248 116.895 205.319 116.871 205.338C116.846 205.358 116.795 205.368 116.717 205.368H115.054C114.991 205.368 114.959 205.392 114.959 205.441V209.74C114.959 210.438 115.564 210.788 116.775 210.788C116.863 210.797 116.907 210.829 116.907 210.883ZM118.65 207.14C118.567 207.14 118.526 207.318 118.526 207.675C118.526 208.432 118.75 209.066 119.2 209.579C119.649 210.092 120.206 210.348 120.87 210.348C121.539 210.348 122.181 210.06 122.796 209.484C122.806 209.474 122.818 209.469 122.833 209.469H122.869C122.898 209.469 122.925 209.494 122.95 209.542C122.979 209.586 123.006 209.616 123.03 209.63C122.464 210.319 121.797 210.795 121.031 211.059C120.767 211.151 120.469 211.198 120.137 211.198C119.805 211.198 119.468 211.107 119.126 210.927C118.785 210.741 118.492 210.5 118.248 210.202C117.73 209.582 117.471 208.81 117.471 207.887C117.471 206.959 117.752 206.115 118.313 205.353C118.88 204.591 119.656 204.21 120.643 204.21C121.351 204.21 121.929 204.528 122.378 205.163C122.828 205.792 123.052 206.347 123.052 206.825C123.052 207.035 123.001 207.14 122.898 207.14H118.65ZM118.731 206.437C118.731 206.53 118.775 206.576 118.863 206.576H121.624C121.751 206.576 121.814 206.5 121.814 206.349C121.814 205.998 121.656 205.639 121.338 205.272C121.026 204.901 120.682 204.716 120.306 204.716C119.939 204.716 119.605 204.882 119.302 205.214C119.004 205.546 118.814 205.924 118.731 206.349V206.437ZM127.835 205.99C127.835 206.098 127.793 206.151 127.71 206.151C127.632 206.151 127.571 206.093 127.527 205.976C127.41 205.653 127.234 205.368 127 205.119C126.771 204.87 126.485 204.745 126.143 204.745C125.694 204.745 125.391 204.97 125.235 205.419C125.186 205.57 125.162 205.727 125.162 205.888C125.162 206.049 125.264 206.229 125.469 206.43C125.674 206.625 126.011 206.859 126.48 207.133C126.949 207.406 127.291 207.638 127.505 207.829C127.994 208.263 128.238 208.766 128.238 209.337C128.238 209.909 128.028 210.363 127.608 210.7C127.188 211.032 126.7 211.198 126.143 211.198C125.845 211.198 125.574 211.156 125.33 211.073C125.091 210.995 124.952 210.956 124.913 210.956C124.878 210.956 124.82 210.995 124.737 211.073C124.659 211.156 124.595 211.198 124.546 211.198H124.422C124.393 211.198 124.356 210.934 124.312 210.407C124.268 209.879 124.246 209.567 124.246 209.469C124.246 209.372 124.253 209.318 124.268 209.308C124.288 209.298 124.317 209.293 124.356 209.293C124.395 209.293 124.427 209.306 124.451 209.33C124.48 209.354 124.505 209.386 124.524 209.425C124.544 209.459 124.559 209.496 124.568 209.535C124.583 209.574 124.615 209.647 124.664 209.755C124.996 210.463 125.508 210.817 126.202 210.817C126.509 210.817 126.756 210.705 126.941 210.48C127.127 210.25 127.22 209.997 127.22 209.718C127.22 209.44 127.146 209.206 127 209.015C126.854 208.825 126.67 208.651 126.451 208.495C126.236 208.339 126.001 208.188 125.748 208.041C124.761 207.465 124.268 206.828 124.268 206.129C124.268 205.607 124.493 205.158 124.942 204.782C125.391 204.401 125.853 204.21 126.326 204.21C126.8 204.21 127.149 204.262 127.374 204.364C127.603 204.467 127.737 204.555 127.776 204.628C127.815 204.696 127.835 204.926 127.835 205.316V205.99ZM131.087 205.368C131.058 205.368 131.043 205.39 131.043 205.434V209.477C131.043 209.77 131.106 209.999 131.233 210.165C131.365 210.331 131.531 210.414 131.731 210.414C131.932 210.414 132.105 210.382 132.251 210.319C132.403 210.25 132.532 210.177 132.64 210.099C132.752 210.021 132.852 209.95 132.94 209.887C133.028 209.818 133.106 209.784 133.174 209.784C133.243 209.784 133.277 209.801 133.277 209.835C133.277 209.953 133.265 210.028 133.24 210.062C132.654 210.819 132.088 211.198 131.541 211.198C130.999 211.198 130.589 211.027 130.311 210.685C130.037 210.338 129.9 209.926 129.9 209.447V205.368H129.351C129.214 205.368 129.141 205.324 129.131 205.236C129.126 205.148 129.141 205.092 129.175 205.067C129.434 204.901 129.791 204.604 130.245 204.174C130.293 204.12 130.359 204.04 130.442 203.932C130.525 203.825 130.645 203.678 130.801 203.493C130.962 203.307 131.084 203.214 131.167 203.214C131.25 203.214 131.292 203.249 131.292 203.317C131.292 203.327 131.209 203.646 131.043 204.276C131.043 204.364 131.082 204.411 131.16 204.416H133.028C133.243 204.416 133.35 204.718 133.35 205.324C133.35 205.353 133.331 205.368 133.292 205.368H131.087ZM141.202 204.408C141.255 204.423 141.282 204.457 141.282 204.511C141.282 204.564 141.277 204.601 141.268 204.621C141.258 204.635 141.233 204.65 141.194 204.665C141.16 204.674 141.109 204.684 141.041 204.694C140.977 204.704 140.875 204.723 140.733 204.752C140.591 204.777 140.464 204.875 140.352 205.045C140.24 205.216 140.12 205.453 139.993 205.756L136.551 214.289L136.075 215.299C135.953 215.558 135.696 215.688 135.306 215.688C135.135 215.688 134.998 215.631 134.896 215.519C134.793 215.407 134.742 215.272 134.742 215.116C134.742 214.965 134.778 214.853 134.852 214.779C134.93 214.711 135.02 214.655 135.123 214.611C135.225 214.567 135.33 214.525 135.438 214.486C135.55 214.452 135.674 214.369 135.811 214.237C135.948 214.11 136.028 214.015 136.053 213.952C136.873 212.116 137.283 211.156 137.283 211.073C137.283 210.99 137.234 210.888 137.137 210.766L134.72 205.719C134.539 205.226 134.229 204.909 133.79 204.767C133.755 204.757 133.714 204.75 133.665 204.745C133.46 204.726 133.357 204.665 133.357 204.562C133.357 204.459 133.416 204.408 133.533 204.408H136.792C136.832 204.408 136.851 204.447 136.851 204.525C136.851 204.599 136.817 204.65 136.749 204.679C136.68 204.704 136.529 204.716 136.294 204.716C135.918 204.716 135.73 204.862 135.73 205.155L135.796 205.331L137.693 209.396C137.791 209.645 137.889 209.638 137.986 209.374C137.996 209.35 138.057 209.191 138.169 208.898C138.833 207.213 139.205 206.239 139.283 205.976C139.366 205.712 139.407 205.514 139.407 205.382C139.407 205.25 139.336 205.111 139.195 204.965C139.058 204.818 138.868 204.745 138.624 204.745C138.384 204.745 138.265 204.674 138.265 204.533C138.265 204.45 138.318 204.408 138.426 204.408H141.202ZM144.681 210.722C144.91 210.751 145.025 210.81 145.025 210.897C145.025 210.956 145 210.99 144.952 211H141.685C141.636 210.99 141.612 210.956 141.612 210.897C141.612 210.81 141.727 210.751 141.956 210.722C142.483 210.644 142.747 210.365 142.747 209.887V200.753C142.747 200.548 142.635 200.407 142.41 200.329C142.312 200.294 142.208 200.268 142.095 200.248C141.983 200.224 141.893 200.202 141.824 200.182C141.761 200.163 141.719 200.146 141.7 200.131C141.685 200.111 141.678 200.075 141.678 200.021C141.678 199.962 141.714 199.914 141.788 199.875L143.655 198.996C143.714 198.966 143.75 198.952 143.765 198.952C143.848 198.952 143.89 199.01 143.89 199.127V209.887C143.89 210.365 144.153 210.644 144.681 210.722ZM146.98 207.14C146.897 207.14 146.856 207.318 146.856 207.675C146.856 208.432 147.081 209.066 147.53 209.579C147.979 210.092 148.536 210.348 149.2 210.348C149.869 210.348 150.511 210.06 151.126 209.484C151.136 209.474 151.148 209.469 151.163 209.469H151.199C151.229 209.469 151.255 209.494 151.28 209.542C151.309 209.586 151.336 209.616 151.36 209.63C150.794 210.319 150.127 210.795 149.361 211.059C149.097 211.151 148.799 211.198 148.467 211.198C148.135 211.198 147.798 211.107 147.457 210.927C147.115 210.741 146.822 210.5 146.578 210.202C146.06 209.582 145.801 208.81 145.801 207.887C145.801 206.959 146.082 206.115 146.644 205.353C147.21 204.591 147.986 204.21 148.973 204.21C149.681 204.21 150.259 204.528 150.708 205.163C151.158 205.792 151.382 206.347 151.382 206.825C151.382 207.035 151.331 207.14 151.229 207.14H146.98ZM147.061 206.437C147.061 206.53 147.105 206.576 147.193 206.576H149.954C150.081 206.576 150.145 206.5 150.145 206.349C150.145 205.998 149.986 205.639 149.668 205.272C149.356 204.901 149.012 204.716 148.636 204.716C148.27 204.716 147.935 204.882 147.632 205.214C147.334 205.546 147.144 205.924 147.061 206.349V206.437Z" fill="black"/>
<path d="M81.0259 177.941C81.0259 177.98 81.0063 178 80.9673 178H77.2246C77.1855 178 77.166 177.98 77.166 177.941V177.766C77.166 177.727 77.1978 177.707 77.2612 177.707C77.9302 177.678 78.3818 177.321 78.6162 176.638L81.6045 167.988C81.6094 167.978 81.6118 167.966 81.6118 167.951L81.5312 167.709C81.5312 167.685 81.541 167.673 81.5605 167.673H83.0254C83.0352 167.678 83.0474 167.683 83.062 167.688C83.0815 167.692 83.0962 167.707 83.106 167.731L86.2041 176.425C86.2725 176.557 86.3262 176.677 86.3652 176.784C86.4092 176.892 86.458 176.989 86.5117 177.077C86.6289 177.277 86.8218 177.431 87.0903 177.539C87.3149 177.651 87.52 177.707 87.7056 177.707C87.7446 177.707 87.7642 177.729 87.7642 177.773V177.941C87.7642 177.98 87.7446 178 87.7056 178H83.2231C83.1841 178 83.1646 177.98 83.1646 177.941V177.766C83.1646 177.727 83.2549 177.702 83.4355 177.692C83.6162 177.683 83.7651 177.673 83.8823 177.663C84.561 177.59 84.9004 177.36 84.9004 176.975C84.9004 176.945 84.8955 176.911 84.8857 176.872L83.7798 173.752C83.7749 173.742 83.7651 173.72 83.7505 173.686C83.6919 173.52 83.5894 173.437 83.4429 173.437H80.8428C80.6963 173.437 80.5815 173.518 80.4985 173.679C80.4839 173.713 80.4766 173.732 80.4766 173.737L79.3779 176.953V177.019C79.3779 177.146 79.4438 177.26 79.5757 177.363C79.8735 177.592 80.2739 177.707 80.7769 177.707H80.9673C81.0063 177.707 81.0259 177.727 81.0259 177.766V177.941ZM83.1938 172.624C83.2817 172.624 83.3257 172.587 83.3257 172.514C83.3257 172.475 83.3159 172.431 83.2964 172.382L82.2051 169.379C82.1562 169.248 82.1196 169.182 82.0952 169.182C82.0708 169.182 82.0317 169.25 81.978 169.387L80.9526 172.382C80.9331 172.431 80.9233 172.485 80.9233 172.543C80.9233 172.597 80.96 172.624 81.0332 172.624H83.1938ZM98.1133 173.166C98.1133 172.634 97.8472 172.368 97.3149 172.368H94.9126C94.8491 172.368 94.8174 172.392 94.8174 172.441V176.74C94.8174 177.438 95.4229 177.788 96.6338 177.788C96.7217 177.797 96.7656 177.829 96.7656 177.883C96.7656 177.961 96.7217 178 96.6338 178H92.6128C92.564 177.99 92.5396 177.956 92.5396 177.897C92.5396 177.81 92.6543 177.751 92.8838 177.722C93.4111 177.644 93.6748 177.365 93.6748 176.887V172.448C93.6748 172.395 93.6455 172.368 93.5869 172.368H90.4741C90.4106 172.368 90.3789 172.392 90.3789 172.441V176.74C90.3789 177.438 90.9844 177.788 92.1953 177.788C92.2832 177.797 92.3271 177.829 92.3271 177.883C92.3271 177.961 92.2832 178 92.1953 178H88.1743C88.1255 177.99 88.1011 177.956 88.1011 177.897C88.1011 177.81 88.2158 177.751 88.4453 177.722C88.9727 177.644 89.2363 177.365 89.2363 176.887V172.448C89.2363 172.395 89.207 172.368 89.1484 172.368H88.3501C88.2915 172.368 88.2354 172.351 88.1816 172.316C88.1279 172.277 88.1011 172.229 88.1011 172.17C88.1011 172.106 88.1304 172.058 88.189 172.023C88.272 171.975 88.4673 171.909 88.7749 171.826C89.0825 171.743 89.2363 171.606 89.2363 171.416C89.2949 169.033 90.0444 167.478 91.4849 166.75C92.1294 166.428 92.7007 166.267 93.1987 166.267C93.4087 166.267 93.6406 166.32 93.8945 166.428C94.4121 166.638 94.7222 166.865 94.8247 167.109C95.1323 166.743 95.4644 166.469 95.8208 166.289C96.5337 165.932 97.0635 165.754 97.4102 165.754C97.7568 165.754 98.1035 165.822 98.4502 165.959C98.7969 166.091 98.9702 166.252 98.9702 166.442C98.9702 166.481 98.9629 166.516 98.9482 166.545C98.9385 166.574 98.9263 166.611 98.9116 166.655L98.6113 167.299C98.5723 167.377 98.5259 167.417 98.4722 167.417C98.4575 167.417 98.3525 167.341 98.1572 167.189C97.9619 167.033 97.7544 166.892 97.5347 166.765C97.3198 166.633 97.0659 166.567 96.7729 166.567C96.2017 166.567 95.7695 166.713 95.4766 167.006C95.1836 167.299 95.0005 167.631 94.9272 168.002C94.854 168.369 94.8174 168.774 94.8174 169.218V171.35C94.8174 171.389 94.8418 171.408 94.8906 171.408H98.5381C98.7627 171.408 98.9385 171.477 99.0654 171.613C99.1924 171.75 99.2559 171.909 99.2559 172.089V176.887C99.2559 177.365 99.5195 177.644 100.047 177.722C100.276 177.751 100.391 177.802 100.391 177.875C100.391 177.949 100.367 177.99 100.318 178H97.0513C97.0024 177.99 96.978 177.956 96.978 177.897C96.978 177.81 97.0928 177.751 97.3223 177.722C97.8496 177.644 98.1133 177.365 98.1133 176.887V173.166ZM90.3789 171.35C90.3789 171.389 90.4033 171.408 90.4521 171.408H93.6748V171.174C93.6748 169.943 93.8555 168.92 94.2168 168.105C93.958 167.846 93.6602 167.612 93.3232 167.402C92.9863 167.187 92.6616 167.08 92.3491 167.08C91.7681 167.08 91.3311 167.226 91.0381 167.519C90.7451 167.812 90.562 168.144 90.4888 168.515C90.4155 168.881 90.3789 169.287 90.3789 169.731V171.35ZM103.973 177.722C104.202 177.751 104.317 177.81 104.317 177.897C104.317 177.956 104.292 177.99 104.244 178H100.977C100.928 177.99 100.904 177.956 100.904 177.897C100.904 177.81 101.019 177.751 101.248 177.722C101.775 177.644 102.039 177.365 102.039 176.887V167.753C102.039 167.548 101.927 167.407 101.702 167.329C101.604 167.294 101.5 167.268 101.387 167.248C101.275 167.224 101.185 167.202 101.116 167.182C101.053 167.163 101.011 167.146 100.992 167.131C100.977 167.111 100.97 167.075 100.97 167.021C100.97 166.962 101.006 166.914 101.08 166.875L102.947 165.996C103.006 165.966 103.042 165.952 103.057 165.952C103.14 165.952 103.182 166.01 103.182 166.127V176.887C103.182 177.365 103.445 177.644 103.973 177.722ZM105.093 178C105.044 177.99 105.02 177.956 105.02 177.897C105.02 177.81 105.135 177.751 105.364 177.722C105.892 177.644 106.155 177.365 106.155 176.887V173.012C106.155 172.807 106.043 172.666 105.818 172.587C105.721 172.553 105.616 172.526 105.503 172.507C105.391 172.482 105.301 172.46 105.232 172.441C105.169 172.421 105.127 172.404 105.108 172.39C105.093 172.37 105.086 172.333 105.086 172.28C105.086 172.221 105.123 172.172 105.196 172.133L107.063 171.254C107.122 171.225 107.159 171.21 107.173 171.21C107.256 171.21 107.298 171.269 107.298 171.386V176.887C107.298 177.365 107.562 177.644 108.089 177.722C108.318 177.751 108.433 177.802 108.433 177.875C108.433 177.949 108.409 177.99 108.36 178H105.093ZM106.617 169.152C106.417 169.152 106.238 169.089 106.082 168.962C105.931 168.835 105.855 168.659 105.855 168.435C105.855 168.205 105.928 168.024 106.075 167.893C106.221 167.761 106.395 167.695 106.595 167.695C106.8 167.695 106.971 167.773 107.107 167.929C107.249 168.085 107.32 168.254 107.32 168.435C107.32 168.615 107.254 168.781 107.122 168.933C106.99 169.079 106.822 169.152 106.617 169.152ZM113.838 176.792C113.838 176.918 113.897 177.021 114.014 177.099C114.136 177.172 114.275 177.209 114.432 177.209C114.588 177.209 114.717 177.17 114.82 177.092C114.927 177.009 115 176.967 115.04 176.967C115.079 176.967 115.098 177.021 115.098 177.128C115.098 177.231 115.049 177.319 114.952 177.392C114.219 177.929 113.724 178.198 113.465 178.198C113.152 178.198 112.898 177.873 112.703 177.224C112.688 177.175 112.676 177.153 112.667 177.158C112.061 177.612 111.68 177.885 111.524 177.978C111.124 178.208 110.721 178.244 110.315 178.088C109.915 177.932 109.625 177.673 109.444 177.312C109.356 177.126 109.312 176.928 109.312 176.718C109.312 176.303 109.466 175.974 109.773 175.729C110.081 175.485 110.667 175.251 111.531 175.026C111.824 174.948 112.085 174.848 112.315 174.726C112.544 174.604 112.664 174.526 112.674 174.492C112.688 174.458 112.696 174.426 112.696 174.396V172.99C112.696 172.438 112.481 172.05 112.051 171.826C111.91 171.752 111.739 171.716 111.539 171.716C111.343 171.716 111.143 171.794 110.938 171.95C110.738 172.106 110.638 172.329 110.638 172.617L110.674 172.902C110.645 172.961 110.469 173.059 110.147 173.195C109.825 173.332 109.639 173.405 109.59 173.415C109.512 173.415 109.473 173.322 109.473 173.137C109.473 172.946 109.529 172.736 109.642 172.507C109.754 172.277 109.913 172.067 110.118 171.877C110.596 171.433 111.143 171.21 111.758 171.21C112.374 171.21 112.874 171.381 113.26 171.723C113.646 172.06 113.838 172.463 113.838 172.932V176.792ZM110.462 176.579C110.462 176.813 110.552 177.019 110.733 177.194C110.914 177.365 111.119 177.451 111.348 177.451C111.583 177.451 111.866 177.353 112.198 177.158C112.53 176.958 112.696 176.752 112.696 176.542V175.056C112.696 175.002 112.684 174.975 112.659 174.975C112.635 174.975 112.618 174.978 112.608 174.982L110.909 175.773C110.733 175.9 110.613 176.008 110.55 176.096C110.491 176.184 110.462 176.345 110.462 176.579ZM117.581 172.368C117.552 172.368 117.537 172.39 117.537 172.434V176.477C117.537 176.77 117.601 176.999 117.728 177.165C117.859 177.331 118.025 177.414 118.226 177.414C118.426 177.414 118.599 177.382 118.746 177.319C118.897 177.25 119.026 177.177 119.134 177.099C119.246 177.021 119.346 176.95 119.434 176.887C119.522 176.818 119.6 176.784 119.668 176.784C119.737 176.784 119.771 176.801 119.771 176.835C119.771 176.953 119.759 177.028 119.734 177.062C119.148 177.819 118.582 178.198 118.035 178.198C117.493 178.198 117.083 178.027 116.805 177.685C116.531 177.338 116.395 176.926 116.395 176.447V172.368H115.845C115.708 172.368 115.635 172.324 115.625 172.236C115.621 172.148 115.635 172.092 115.669 172.067C115.928 171.901 116.285 171.604 116.739 171.174C116.788 171.12 116.854 171.04 116.937 170.932C117.02 170.825 117.139 170.678 117.295 170.493C117.457 170.307 117.579 170.214 117.662 170.214C117.745 170.214 117.786 170.249 117.786 170.317C117.786 170.327 117.703 170.646 117.537 171.276C117.537 171.364 117.576 171.411 117.654 171.416H119.522C119.737 171.416 119.844 171.718 119.844 172.324C119.844 172.353 119.825 172.368 119.786 172.368H117.581ZM121.727 174.14C121.644 174.14 121.602 174.318 121.602 174.675C121.602 175.432 121.827 176.066 122.276 176.579C122.725 177.092 123.282 177.348 123.946 177.348C124.615 177.348 125.257 177.06 125.872 176.484C125.882 176.474 125.894 176.469 125.909 176.469H125.945C125.975 176.469 126.001 176.494 126.026 176.542C126.055 176.586 126.082 176.616 126.106 176.63C125.54 177.319 124.874 177.795 124.107 178.059C123.843 178.151 123.545 178.198 123.213 178.198C122.881 178.198 122.544 178.107 122.203 177.927C121.861 177.741 121.568 177.5 121.324 177.202C120.806 176.582 120.547 175.81 120.547 174.887C120.547 173.959 120.828 173.115 121.39 172.353C121.956 171.591 122.732 171.21 123.719 171.21C124.427 171.21 125.005 171.528 125.455 172.163C125.904 172.792 126.128 173.347 126.128 173.825C126.128 174.035 126.077 174.14 125.975 174.14H121.727ZM121.807 173.437C121.807 173.53 121.851 173.576 121.939 173.576H124.7C124.827 173.576 124.891 173.5 124.891 173.349C124.891 172.998 124.732 172.639 124.415 172.272C124.102 171.901 123.758 171.716 123.382 171.716C123.016 171.716 122.681 171.882 122.378 172.214C122.081 172.546 121.89 172.924 121.807 173.349V173.437ZM130.911 172.99C130.911 173.098 130.87 173.151 130.787 173.151C130.708 173.151 130.647 173.093 130.604 172.976C130.486 172.653 130.311 172.368 130.076 172.119C129.847 171.87 129.561 171.745 129.219 171.745C128.77 171.745 128.467 171.97 128.311 172.419C128.262 172.57 128.238 172.727 128.238 172.888C128.238 173.049 128.34 173.229 128.545 173.43C128.75 173.625 129.087 173.859 129.556 174.133C130.025 174.406 130.367 174.638 130.582 174.829C131.07 175.263 131.314 175.766 131.314 176.337C131.314 176.909 131.104 177.363 130.684 177.7C130.264 178.032 129.776 178.198 129.219 178.198C128.921 178.198 128.65 178.156 128.406 178.073C128.167 177.995 128.028 177.956 127.989 177.956C127.955 177.956 127.896 177.995 127.813 178.073C127.735 178.156 127.671 178.198 127.623 178.198H127.498C127.469 178.198 127.432 177.934 127.388 177.407C127.344 176.879 127.322 176.567 127.322 176.469C127.322 176.372 127.33 176.318 127.344 176.308C127.364 176.298 127.393 176.293 127.432 176.293C127.471 176.293 127.503 176.306 127.527 176.33C127.557 176.354 127.581 176.386 127.601 176.425C127.62 176.459 127.635 176.496 127.645 176.535C127.659 176.574 127.691 176.647 127.74 176.755C128.072 177.463 128.584 177.817 129.278 177.817C129.585 177.817 129.832 177.705 130.018 177.48C130.203 177.25 130.296 176.997 130.296 176.718C130.296 176.44 130.223 176.206 130.076 176.015C129.93 175.825 129.747 175.651 129.527 175.495C129.312 175.339 129.078 175.188 128.824 175.041C127.837 174.465 127.344 173.828 127.344 173.129C127.344 172.607 127.569 172.158 128.018 171.782C128.467 171.401 128.929 171.21 129.402 171.21C129.876 171.21 130.225 171.262 130.45 171.364C130.679 171.467 130.813 171.555 130.853 171.628C130.892 171.696 130.911 171.926 130.911 172.316V172.99Z" fill="black"/>
<path d="M46.1992 101.966C45.6133 101.966 45.3203 102.19 45.3203 102.64C45.3203 102.723 45.335 102.811 45.3643 102.903C45.3984 102.996 45.4277 103.094 45.4521 103.196L48.2573 109.949C48.2817 109.998 48.3208 110.022 48.3745 110.022C48.4282 110.022 48.4722 109.996 48.5063 109.942L50.125 106.133L48.6968 102.684C48.6089 102.464 48.2427 102.254 47.5981 102.054C47.4077 101.995 47.2832 101.966 47.2246 101.966C47.1709 101.966 47.144 101.946 47.144 101.907V101.731C47.144 101.692 47.1636 101.673 47.2026 101.673H53.9116C53.9507 101.673 53.9702 101.692 53.9702 101.731V101.907C53.9702 101.946 53.9507 101.966 53.9116 101.966H53.6406C53.1719 101.966 52.8154 102.195 52.5713 102.654C52.4883 102.811 52.4028 102.994 52.3149 103.204L51.3628 105.438L53.2378 109.949C53.2622 109.998 53.3013 110.022 53.355 110.022C53.4087 110.022 53.4526 109.996 53.4868 109.942L56.585 102.654C56.6436 102.518 56.6729 102.396 56.6729 102.288C56.6729 102.073 56.3921 101.966 55.8306 101.966H55.3765C55.3374 101.966 55.3179 101.946 55.3179 101.907V101.731C55.3179 101.692 55.3374 101.673 55.3765 101.673H58.6357C58.6748 101.673 58.6943 101.692 58.6943 101.731V101.907C58.6943 101.946 58.6748 101.966 58.6357 101.966H58.2915C58.0767 101.966 57.9131 102.042 57.8008 102.193C57.6934 102.339 57.5396 102.642 57.3394 103.101L53.5747 111.941C53.521 112.059 53.4648 112.129 53.4062 112.154C53.3477 112.183 53.2622 112.198 53.1499 112.198H52.8057C52.6885 112.198 52.6104 112.144 52.5713 112.037L50.5938 107.247L48.5942 111.941C48.5405 112.059 48.4844 112.129 48.4258 112.154C48.3672 112.183 48.2817 112.198 48.1694 112.198H47.8252C47.708 112.198 47.6323 112.142 47.5981 112.029L43.7163 102.684C43.6382 102.493 43.3965 102.327 42.9912 102.186C42.5859 102.039 42.3345 101.966 42.2368 101.966C42.144 101.966 42.0977 101.946 42.0977 101.907V101.731C42.0977 101.692 42.1172 101.673 42.1562 101.673H46.3311C46.3701 101.673 46.3896 101.692 46.3896 101.731V101.907C46.3896 101.946 46.3701 101.966 46.3311 101.966H46.1992ZM51.6924 102.31C51.6924 102.105 51.4824 101.993 51.0625 101.973C50.6377 101.998 50.3936 102.146 50.3301 102.42C50.3105 102.488 50.3008 102.564 50.3008 102.647C50.3008 102.725 50.3154 102.811 50.3447 102.903C50.3789 102.996 50.4082 103.094 50.4326 103.196L50.894 104.317L51.6045 102.654C51.6631 102.518 51.6924 102.403 51.6924 102.31ZM59.2729 108.711C59.2729 107.75 59.6123 106.924 60.291 106.236C60.9746 105.542 61.7925 105.196 62.7446 105.196C63.6968 105.196 64.5244 105.533 65.2275 106.207C65.9307 106.875 66.2822 107.703 66.2822 108.689C66.2822 109.676 65.9478 110.508 65.2788 111.187C64.6147 111.861 63.7798 112.198 62.7739 112.198C61.7681 112.198 60.9331 111.856 60.269 111.172C59.605 110.489 59.2729 109.668 59.2729 108.711ZM61.0967 110.594C61.5752 111.399 62.2271 111.802 63.0522 111.802C63.6919 111.802 64.1802 111.546 64.5171 111.033C64.8589 110.521 65.0298 109.891 65.0298 109.144C65.0298 108.396 64.7905 107.63 64.312 106.844C63.8384 106.058 63.1987 105.665 62.3931 105.665C61.8022 105.665 61.3359 105.921 60.9941 106.434C60.6572 106.941 60.4888 107.588 60.4888 108.375C60.4888 109.156 60.6914 109.896 61.0967 110.594ZM67.3882 108.711C67.3882 107.75 67.7275 106.924 68.4062 106.236C69.0898 105.542 69.9077 105.196 70.8599 105.196C71.812 105.196 72.6396 105.533 73.3428 106.207C74.0459 106.875 74.3975 107.703 74.3975 108.689C74.3975 109.676 74.063 110.508 73.394 111.187C72.73 111.861 71.895 112.198 70.8892 112.198C69.8833 112.198 69.0483 111.856 68.3843 111.172C67.7202 110.489 67.3882 109.668 67.3882 108.711ZM69.2119 110.594C69.6904 111.399 70.3423 111.802 71.1675 111.802C71.8071 111.802 72.2954 111.546 72.6323 111.033C72.9741 110.521 73.145 109.891 73.145 109.144C73.145 108.396 72.9058 107.63 72.4272 106.844C71.9536 106.058 71.314 105.665 70.5083 105.665C69.9175 105.665 69.4512 105.921 69.1094 106.434C68.7725 106.941 68.604 107.588 68.604 108.375C68.604 109.156 68.8066 109.896 69.2119 110.594ZM79.9858 105.518C80.2007 105.591 80.3325 105.628 80.3813 105.628C80.4302 105.628 80.4595 105.628 80.4692 105.628C80.4839 105.623 80.501 105.591 80.5205 105.533V101.753C80.5205 101.548 80.4082 101.407 80.1836 101.329C80.0859 101.294 79.981 101.268 79.8687 101.248C79.7563 101.224 79.666 101.202 79.5977 101.182C79.5342 101.163 79.4927 101.146 79.4731 101.131C79.4585 101.111 79.4512 101.075 79.4512 101.021C79.4512 100.962 79.4878 100.914 79.561 100.875L81.4287 99.9956C81.4873 99.9663 81.5239 99.9517 81.5386 99.9517C81.6216 99.9517 81.6631 100.01 81.6631 100.127V110.557C81.6875 110.772 81.7485 110.926 81.8462 111.019C81.9438 111.111 82.1025 111.158 82.3223 111.158L82.7471 111.128C82.7764 111.128 82.791 111.158 82.791 111.216C82.791 111.27 82.7544 111.314 82.6812 111.348L80.7329 112.154C80.6743 112.183 80.623 112.198 80.5791 112.198C80.54 112.198 80.5205 112.137 80.5205 112.015V111.348C80.5205 111.299 80.5083 111.275 80.4839 111.275C80.4497 111.275 80.2471 111.385 79.876 111.604C78.7383 112.278 77.7788 112.378 76.9976 111.905C76.3726 111.524 75.9502 110.921 75.7305 110.096C75.6279 109.71 75.5767 109.302 75.5767 108.873C75.5767 108.438 75.6646 108.008 75.8403 107.583C76.021 107.154 76.2676 106.778 76.5801 106.456C77.2686 105.752 78.0986 105.401 79.0703 105.401C79.4658 105.401 79.771 105.44 79.9858 105.518ZM76.6826 108.66C76.6826 109.397 76.8877 110.044 77.2979 110.601C77.708 111.153 78.2793 111.429 79.0117 111.429C79.334 111.429 79.666 111.351 80.0078 111.194C80.3496 111.033 80.5205 110.911 80.5205 110.828V107.049C80.5205 106.956 80.457 106.846 80.3301 106.719C79.9395 106.182 79.4194 105.914 78.77 105.914C78.1255 105.914 77.6152 106.187 77.2393 106.734C76.8682 107.276 76.6826 107.918 76.6826 108.66ZM84.6294 108.14C84.5464 108.14 84.5049 108.318 84.5049 108.675C84.5049 109.432 84.7295 110.066 85.1787 110.579C85.6279 111.092 86.1846 111.348 86.8486 111.348C87.5176 111.348 88.1597 111.06 88.7749 110.484C88.7847 110.474 88.7969 110.469 88.8115 110.469H88.8481C88.8774 110.469 88.9043 110.494 88.9287 110.542C88.958 110.586 88.9849 110.616 89.0093 110.63C88.4429 111.319 87.7764 111.795 87.0098 112.059C86.7461 112.151 86.4482 112.198 86.1162 112.198C85.7842 112.198 85.4473 112.107 85.1055 111.927C84.7637 111.741 84.4707 111.5 84.2266 111.202C83.709 110.582 83.4502 109.81 83.4502 108.887C83.4502 107.959 83.731 107.115 84.2925 106.353C84.8589 105.591 85.6353 105.21 86.6216 105.21C87.3296 105.21 87.9082 105.528 88.3574 106.163C88.8066 106.792 89.0312 107.347 89.0312 107.825C89.0312 108.035 88.98 108.14 88.8774 108.14H84.6294ZM84.71 107.437C84.71 107.53 84.7539 107.576 84.8418 107.576H87.603C87.73 107.576 87.7935 107.5 87.7935 107.349C87.7935 106.998 87.6348 106.639 87.3174 106.272C87.0049 105.901 86.6606 105.716 86.2847 105.716C85.9185 105.716 85.584 105.882 85.2812 106.214C84.9834 106.546 84.793 106.924 84.71 107.349V107.437ZM95.6377 109.693L95.623 108.147C95.623 107.518 95.5693 107.076 95.4619 106.822C95.3545 106.568 95.2178 106.377 95.0518 106.25C94.8857 106.119 94.6611 106.053 94.3779 106.053C94.0996 106.053 93.5063 106.272 92.5981 106.712C92.4761 106.785 92.4126 106.854 92.4077 106.917V110.857C92.4077 111.351 92.6714 111.634 93.1987 111.707C93.4282 111.741 93.543 111.797 93.543 111.875C93.543 111.949 93.5186 111.99 93.4697 112H90.2031C90.1543 111.99 90.1299 111.956 90.1299 111.897C90.1299 111.805 90.2446 111.741 90.4741 111.707C91.0015 111.634 91.2651 111.351 91.2651 110.857V106.653C91.2651 106.448 91.1528 106.307 90.9282 106.229C90.8306 106.194 90.7256 106.167 90.6133 106.148C90.501 106.124 90.4106 106.102 90.3423 106.082C90.2788 106.062 90.2373 106.045 90.2178 106.031C90.2031 106.011 90.1958 105.975 90.1958 105.921C90.1958 105.862 90.2324 105.813 90.3057 105.774L92.1733 104.896C92.2319 104.866 92.2686 104.852 92.2832 104.852C92.3662 104.852 92.4077 104.91 92.4077 105.027V106.17C92.4224 106.219 92.4419 106.243 92.4663 106.243C92.4956 106.243 92.6006 106.199 92.7812 106.111C93.2012 105.901 93.6235 105.699 94.0483 105.503C94.4731 105.308 94.8247 105.21 95.103 105.21C96.231 105.21 96.7949 106.238 96.7949 108.294L96.729 110.433V110.857C96.729 111.238 96.9194 111.487 97.3003 111.604C97.4614 111.658 97.6152 111.697 97.7617 111.722C97.9131 111.741 98.0107 111.761 98.0547 111.78C98.1035 111.8 98.1279 111.839 98.1279 111.897C98.1279 111.956 98.1035 111.99 98.0547 112H94.5244C94.4756 111.99 94.4512 111.956 94.4512 111.897C94.4512 111.805 94.5659 111.741 94.7954 111.707C95.3179 111.634 95.5791 111.331 95.5791 110.799C95.6182 110.555 95.6377 110.186 95.6377 109.693ZM103.306 105.518C103.521 105.591 103.653 105.628 103.702 105.628C103.75 105.628 103.78 105.628 103.79 105.628C103.804 105.623 103.821 105.591 103.841 105.533V101.753C103.841 101.548 103.729 101.407 103.504 101.329C103.406 101.294 103.301 101.268 103.189 101.248C103.077 101.224 102.986 101.202 102.918 101.182C102.854 101.163 102.813 101.146 102.793 101.131C102.779 101.111 102.771 101.075 102.771 101.021C102.771 100.962 102.808 100.914 102.881 100.875L104.749 99.9956C104.808 99.9663 104.844 99.9517 104.859 99.9517C104.942 99.9517 104.983 100.01 104.983 100.127V110.557C105.008 110.772 105.069 110.926 105.167 111.019C105.264 111.111 105.423 111.158 105.643 111.158L106.067 111.128C106.097 111.128 106.111 111.158 106.111 111.216C106.111 111.27 106.075 111.314 106.001 111.348L104.053 112.154C103.995 112.183 103.943 112.198 103.899 112.198C103.86 112.198 103.841 112.137 103.841 112.015V111.348C103.841 111.299 103.829 111.275 103.804 111.275C103.77 111.275 103.567 111.385 103.196 111.604C102.059 112.278 101.099 112.378 100.318 111.905C99.6929 111.524 99.2705 110.921 99.0508 110.096C98.9482 109.71 98.897 109.302 98.897 108.873C98.897 108.438 98.9849 108.008 99.1606 107.583C99.3413 107.154 99.5879 106.778 99.9004 106.456C100.589 105.752 101.419 105.401 102.391 105.401C102.786 105.401 103.091 105.44 103.306 105.518ZM100.003 108.66C100.003 109.397 100.208 110.044 100.618 110.601C101.028 111.153 101.6 111.429 102.332 111.429C102.654 111.429 102.986 111.351 103.328 111.194C103.67 111.033 103.841 110.911 103.841 110.828V107.049C103.841 106.956 103.777 106.846 103.65 106.719C103.26 106.182 102.74 105.914 102.09 105.914C101.446 105.914 100.936 106.187 100.56 106.734C100.188 107.276 100.003 107.918 100.003 108.66ZM106.807 108.711C106.807 107.75 107.146 106.924 107.825 106.236C108.509 105.542 109.327 105.196 110.279 105.196C111.231 105.196 112.059 105.533 112.762 106.207C113.465 106.875 113.816 107.703 113.816 108.689C113.816 109.676 113.482 110.508 112.813 111.187C112.149 111.861 111.314 112.198 110.308 112.198C109.302 112.198 108.467 111.856 107.803 111.172C107.139 110.489 106.807 109.668 106.807 108.711ZM108.631 110.594C109.109 111.399 109.761 111.802 110.586 111.802C111.226 111.802 111.714 111.546 112.051 111.033C112.393 110.521 112.564 109.891 112.564 109.144C112.564 108.396 112.325 107.63 111.846 106.844C111.373 106.058 110.733 105.665 109.927 105.665C109.336 105.665 108.87 105.921 108.528 106.434C108.191 106.941 108.023 107.588 108.023 108.375C108.023 109.156 108.226 109.896 108.631 110.594ZM116.666 106.368C116.636 106.368 116.622 106.39 116.622 106.434V110.477C116.622 110.77 116.685 110.999 116.812 111.165C116.944 111.331 117.11 111.414 117.31 111.414C117.51 111.414 117.684 111.382 117.83 111.319C117.981 111.25 118.111 111.177 118.218 111.099C118.331 111.021 118.431 110.95 118.519 110.887C118.606 110.818 118.685 110.784 118.753 110.784C118.821 110.784 118.855 110.801 118.855 110.835C118.855 110.953 118.843 111.028 118.819 111.062C118.233 111.819 117.667 112.198 117.12 112.198C116.578 112.198 116.167 112.027 115.889 111.685C115.616 111.338 115.479 110.926 115.479 110.447V106.368H114.93C114.793 106.368 114.72 106.324 114.71 106.236C114.705 106.148 114.72 106.092 114.754 106.067C115.013 105.901 115.369 105.604 115.823 105.174C115.872 105.12 115.938 105.04 116.021 104.932C116.104 104.825 116.224 104.678 116.38 104.493C116.541 104.307 116.663 104.214 116.746 104.214C116.829 104.214 116.871 104.249 116.871 104.317C116.871 104.327 116.788 104.646 116.622 105.276C116.622 105.364 116.661 105.411 116.739 105.416H118.606C118.821 105.416 118.929 105.718 118.929 106.324C118.929 106.353 118.909 106.368 118.87 106.368H116.666ZM129.432 106.075C130.086 106.075 130.413 105.755 130.413 105.115C130.413 105.076 130.433 105.057 130.472 105.057H130.647C130.687 105.057 130.706 105.076 130.706 105.115V107.84C130.706 107.879 130.687 107.898 130.647 107.898H130.472C130.433 107.898 130.413 107.879 130.413 107.84C130.413 107.391 130.286 107.081 130.032 106.91C129.896 106.817 129.7 106.771 129.446 106.771H126.561C126.443 106.771 126.385 106.836 126.385 106.968V110.733C126.385 111.065 126.583 111.312 126.978 111.473C127.378 111.629 127.63 111.707 127.732 111.707C127.84 111.707 127.894 111.727 127.894 111.766V111.941C127.894 111.98 127.874 112 127.835 112H123.836C123.797 112 123.777 111.98 123.777 111.941V111.766C123.777 111.727 123.819 111.707 123.902 111.707C123.985 111.707 124.114 111.668 124.29 111.59C124.466 111.512 124.62 111.397 124.751 111.246C124.888 111.089 124.957 110.901 124.957 110.682V102.771C124.957 102.454 124.788 102.227 124.451 102.09C124.256 102.007 124.063 101.966 123.873 101.966H123.843C123.804 101.966 123.785 101.946 123.785 101.907V101.731C123.785 101.692 123.804 101.673 123.843 101.673H130.75C130.809 101.683 130.853 101.697 130.882 101.717C130.911 101.731 130.926 101.773 130.926 101.841V103.614C130.926 103.672 130.916 103.709 130.896 103.724C130.882 103.738 130.853 103.746 130.809 103.746H130.721C130.711 103.741 130.677 103.609 130.618 103.35C130.564 103.086 130.479 102.884 130.362 102.742C130.162 102.527 129.935 102.408 129.681 102.383C129.578 102.374 129.454 102.369 129.307 102.369H126.531C126.434 102.369 126.385 102.417 126.385 102.515V105.906C126.385 106.019 126.443 106.075 126.561 106.075H129.432ZM136.741 110.792C136.741 110.918 136.8 111.021 136.917 111.099C137.039 111.172 137.178 111.209 137.334 111.209C137.491 111.209 137.62 111.17 137.723 111.092C137.83 111.009 137.903 110.967 137.942 110.967C137.981 110.967 138.001 111.021 138.001 111.128C138.001 111.231 137.952 111.319 137.854 111.392C137.122 111.929 136.626 112.198 136.368 112.198C136.055 112.198 135.801 111.873 135.606 111.224C135.591 111.175 135.579 111.153 135.569 111.158C134.964 111.612 134.583 111.885 134.427 111.978C134.026 112.208 133.624 112.244 133.218 112.088C132.818 111.932 132.527 111.673 132.347 111.312C132.259 111.126 132.215 110.928 132.215 110.718C132.215 110.303 132.369 109.974 132.676 109.729C132.984 109.485 133.57 109.251 134.434 109.026C134.727 108.948 134.988 108.848 135.218 108.726C135.447 108.604 135.567 108.526 135.577 108.492C135.591 108.458 135.599 108.426 135.599 108.396V106.99C135.599 106.438 135.384 106.05 134.954 105.826C134.812 105.752 134.642 105.716 134.441 105.716C134.246 105.716 134.046 105.794 133.841 105.95C133.641 106.106 133.541 106.329 133.541 106.617L133.577 106.902C133.548 106.961 133.372 107.059 133.05 107.195C132.728 107.332 132.542 107.405 132.493 107.415C132.415 107.415 132.376 107.322 132.376 107.137C132.376 106.946 132.432 106.736 132.544 106.507C132.657 106.277 132.815 106.067 133.021 105.877C133.499 105.433 134.046 105.21 134.661 105.21C135.276 105.21 135.777 105.381 136.163 105.723C136.548 106.06 136.741 106.463 136.741 106.932V110.792ZM133.365 110.579C133.365 110.813 133.455 111.019 133.636 111.194C133.816 111.365 134.021 111.451 134.251 111.451C134.485 111.451 134.769 111.353 135.101 111.158C135.433 110.958 135.599 110.752 135.599 110.542V109.056C135.599 109.002 135.586 108.975 135.562 108.975C135.538 108.975 135.521 108.978 135.511 108.982L133.812 109.773C133.636 109.9 133.516 110.008 133.453 110.096C133.394 110.184 133.365 110.345 133.365 110.579ZM148.357 109.693L148.343 108.147C148.343 107.518 148.289 107.076 148.182 106.822C148.074 106.568 147.938 106.377 147.771 106.25C147.605 106.119 147.381 106.053 147.098 106.053C146.819 106.053 146.226 106.272 145.318 106.712C145.196 106.785 145.132 106.854 145.127 106.917V110.857C145.127 111.351 145.391 111.634 145.918 111.707C146.148 111.741 146.263 111.797 146.263 111.875C146.263 111.949 146.238 111.99 146.189 112H142.923C142.874 111.99 142.85 111.956 142.85 111.897C142.85 111.805 142.964 111.741 143.194 111.707C143.721 111.634 143.985 111.351 143.985 110.857V107.21C143.985 106.443 143.511 106.06 142.564 106.06C142.217 106.06 141.736 106.265 141.121 106.675C140.965 106.778 140.85 106.873 140.777 106.961V110.857C140.777 111.351 141.041 111.634 141.568 111.707C141.797 111.741 141.912 111.797 141.912 111.875C141.912 111.949 141.888 111.99 141.839 112H138.572C138.523 111.99 138.499 111.956 138.499 111.897C138.499 111.805 138.614 111.741 138.843 111.707C139.371 111.634 139.634 111.355 139.634 110.872V106.653C139.634 106.448 139.522 106.307 139.297 106.229C139.2 106.194 139.095 106.167 138.982 106.148C138.87 106.124 138.78 106.102 138.711 106.082C138.648 106.062 138.606 106.045 138.587 106.031C138.572 106.011 138.565 105.975 138.565 105.921C138.565 105.862 138.602 105.813 138.675 105.774L140.542 104.896C140.601 104.866 140.638 104.852 140.652 104.852C140.735 104.852 140.777 104.91 140.777 105.027V106.243C140.782 106.272 140.799 106.287 140.828 106.287C140.862 106.287 140.943 106.253 141.07 106.185C141.202 106.116 141.373 106.021 141.583 105.899C141.792 105.772 142.068 105.625 142.41 105.459C142.757 105.293 143.123 105.21 143.509 105.21C144.129 105.21 144.573 105.477 144.842 106.009C144.944 106.224 145.037 106.316 145.12 106.287C145.203 106.253 145.333 106.192 145.508 106.104C145.923 105.899 146.343 105.699 146.768 105.503C147.193 105.308 147.544 105.21 147.823 105.21C148.951 105.21 149.515 106.238 149.515 108.294L149.449 110.433V110.857C149.449 111.238 149.639 111.487 150.02 111.604C150.181 111.658 150.335 111.697 150.481 111.722C150.633 111.741 150.73 111.761 150.774 111.78C150.823 111.8 150.848 111.839 150.848 111.897C150.848 111.956 150.823 111.99 150.774 112H147.244C147.195 111.99 147.171 111.956 147.171 111.897C147.171 111.805 147.286 111.741 147.515 111.707C148.038 111.634 148.299 111.331 148.299 110.799C148.338 110.555 148.357 110.186 148.357 109.693ZM151.39 112C151.341 111.99 151.316 111.956 151.316 111.897C151.316 111.81 151.431 111.751 151.661 111.722C152.188 111.644 152.452 111.365 152.452 110.887V107.012C152.452 106.807 152.339 106.666 152.115 106.587C152.017 106.553 151.912 106.526 151.8 106.507C151.688 106.482 151.597 106.46 151.529 106.441C151.465 106.421 151.424 106.404 151.404 106.39C151.39 106.37 151.382 106.333 151.382 106.28C151.382 106.221 151.419 106.172 151.492 106.133L153.36 105.254C153.418 105.225 153.455 105.21 153.47 105.21C153.553 105.21 153.594 105.269 153.594 105.386V110.887C153.594 111.365 153.858 111.644 154.385 111.722C154.615 111.751 154.729 111.802 154.729 111.875C154.729 111.949 154.705 111.99 154.656 112H151.39ZM152.913 103.152C152.713 103.152 152.535 103.089 152.378 102.962C152.227 102.835 152.151 102.659 152.151 102.435C152.151 102.205 152.225 102.024 152.371 101.893C152.518 101.761 152.691 101.695 152.891 101.695C153.096 101.695 153.267 101.773 153.404 101.929C153.545 102.085 153.616 102.254 153.616 102.435C153.616 102.615 153.55 102.781 153.418 102.933C153.287 103.079 153.118 103.152 152.913 103.152ZM158.311 111.722C158.541 111.751 158.655 111.81 158.655 111.897C158.655 111.956 158.631 111.99 158.582 112H155.315C155.267 111.99 155.242 111.956 155.242 111.897C155.242 111.81 155.357 111.751 155.586 111.722C156.114 111.644 156.377 111.365 156.377 110.887V101.753C156.377 101.548 156.265 101.407 156.041 101.329C155.943 101.294 155.838 101.268 155.726 101.248C155.613 101.224 155.523 101.202 155.455 101.182C155.391 101.163 155.35 101.146 155.33 101.131C155.315 101.111 155.308 101.075 155.308 101.021C155.308 100.962 155.345 100.914 155.418 100.875L157.286 99.9956C157.344 99.9663 157.381 99.9517 157.396 99.9517C157.479 99.9517 157.52 100.01 157.52 100.127V110.887C157.52 111.365 157.784 111.644 158.311 111.722ZM166.58 105.408C166.634 105.423 166.661 105.457 166.661 105.511C166.661 105.564 166.656 105.601 166.646 105.621C166.636 105.635 166.612 105.65 166.573 105.665C166.539 105.674 166.487 105.684 166.419 105.694C166.355 105.704 166.253 105.723 166.111 105.752C165.97 105.777 165.843 105.875 165.73 106.045C165.618 106.216 165.499 106.453 165.372 106.756L161.929 115.289L161.453 116.299C161.331 116.558 161.075 116.688 160.684 116.688C160.513 116.688 160.376 116.631 160.274 116.519C160.171 116.407 160.12 116.272 160.12 116.116C160.12 115.965 160.157 115.853 160.23 115.779C160.308 115.711 160.398 115.655 160.501 115.611C160.604 115.567 160.708 115.525 160.816 115.486C160.928 115.452 161.053 115.369 161.189 115.237C161.326 115.11 161.407 115.015 161.431 114.952C162.251 113.116 162.662 112.156 162.662 112.073C162.662 111.99 162.613 111.888 162.515 111.766L160.098 106.719C159.917 106.226 159.607 105.909 159.168 105.767C159.134 105.757 159.092 105.75 159.043 105.745C158.838 105.726 158.736 105.665 158.736 105.562C158.736 105.459 158.794 105.408 158.912 105.408H162.171C162.21 105.408 162.229 105.447 162.229 105.525C162.229 105.599 162.195 105.65 162.127 105.679C162.059 105.704 161.907 105.716 161.673 105.716C161.297 105.716 161.109 105.862 161.109 106.155L161.175 106.331L163.072 110.396C163.169 110.645 163.267 110.638 163.365 110.374C163.375 110.35 163.436 110.191 163.548 109.898C164.212 108.213 164.583 107.239 164.661 106.976C164.744 106.712 164.786 106.514 164.786 106.382C164.786 106.25 164.715 106.111 164.573 105.965C164.437 105.818 164.246 105.745 164.002 105.745C163.763 105.745 163.643 105.674 163.643 105.533C163.643 105.45 163.697 105.408 163.804 105.408H166.58Z" fill="black"/>
<path d="M77.7207 14.6094C77.7598 14.6094 77.7793 14.6354 77.7793 14.6875V14.9219C77.7793 14.974 77.7598 15 77.7207 15H73.1602C73.1081 15 73.082 14.974 73.082 14.9219V14.6875C73.082 14.6354 73.1081 14.6094 73.1602 14.6094C74.2279 14.6094 74.8073 14.1504 74.8984 13.2324C74.9245 12.9655 74.9505 12.5228 74.9766 11.9043C75.0091 11.2793 75.097 9.94141 75.2402 7.89062C75.3835 5.83333 75.4551 4.16992 75.4551 2.90039V2.53906C75.4551 2.27865 75.3053 2.06055 75.0059 1.88477C74.7129 1.70898 74.498 1.62109 74.3613 1.62109C74.2246 1.62109 74.1562 1.59505 74.1562 1.54297V1.30859C74.1562 1.25651 74.1823 1.23047 74.2344 1.23047H77.0566C77.1803 1.25 77.2812 1.32161 77.3594 1.44531L81.9395 11.6504C81.972 11.696 81.998 11.735 82.0176 11.7676C82.0371 11.8001 82.0859 11.8164 82.1641 11.8164C82.2422 11.8099 82.3008 11.7513 82.3398 11.6406L86.8711 1.62109C87.0078 1.36068 87.1315 1.23047 87.2422 1.23047H90.084C90.1361 1.23047 90.1621 1.25651 90.1621 1.30859V1.54297C90.1621 1.59505 90.1458 1.62109 90.1133 1.62109C89.918 1.62109 89.6771 1.6862 89.3906 1.81641C88.9544 2.01172 88.7363 2.30143 88.7363 2.68555L89.3223 13.4766C89.3353 13.8151 89.5111 14.0885 89.8496 14.2969C90.1882 14.5052 90.6309 14.6094 91.1777 14.6094C91.2298 14.6094 91.2559 14.6354 91.2559 14.6875V14.9219C91.2559 14.974 91.2298 15 91.1777 15H85.6309C85.5788 15 85.5527 14.974 85.5527 14.9219V14.6875C85.5527 14.6354 85.5788 14.6094 85.6309 14.6094C86.7962 14.6094 87.3789 14.3262 87.3789 13.7598L86.8613 4.43359C86.8548 4.36849 86.8353 4.33594 86.8027 4.33594C86.7767 4.33594 86.7539 4.36523 86.7344 4.42383L81.8809 14.9316C81.8548 14.9772 81.7799 15 81.6562 15C81.5326 15 81.4609 14.974 81.4414 14.9219L76.6562 4.39453C76.6172 4.30339 76.5781 4.25781 76.5391 4.25781C76.5065 4.25781 76.4902 4.32943 76.4902 4.47266C76.4902 4.77214 76.4121 6.1849 76.2559 8.71094C76.0996 11.237 76.0215 12.8125 76.0215 13.4375V13.8379C76.0996 14.209 76.4674 14.4499 77.125 14.5605C77.3138 14.5931 77.5124 14.6094 77.7207 14.6094ZM104.195 14.1602C103.629 14.5052 103.01 14.7754 102.34 14.9707C101.669 15.166 101.074 15.2637 100.553 15.2637C99.485 15.2637 98.4661 15.0911 97.4961 14.7461C96.168 14.2643 95.1003 13.5514 94.293 12.6074C93.2643 11.403 92.75 9.8763 92.75 8.02734C92.75 6.69271 93.0918 5.47852 93.7754 4.38477C94.459 3.28451 95.403 2.41536 96.6074 1.77734C97.8184 1.13932 99.1172 0.820312 100.504 0.820312C101.897 0.820312 103.144 1.12956 104.244 1.74805C105.344 2.36654 106.227 3.21615 106.891 4.29688C107.555 5.3776 107.887 6.54948 107.887 7.8125C107.887 9.06901 107.558 10.2669 106.9 11.4062C106.243 12.5391 105.341 13.457 104.195 14.1602ZM94.8008 7.71484C94.8008 8.79557 95.0384 9.86979 95.5137 10.9375C95.9954 11.9987 96.6823 12.8646 97.5742 13.5352C98.4661 14.2057 99.498 14.541 100.67 14.541C102.337 14.541 103.635 13.903 104.566 12.627C105.406 11.4746 105.826 10.0033 105.826 8.21289C105.826 6.42253 105.312 4.87956 104.283 3.58398C103.782 2.95247 103.167 2.44792 102.438 2.07031C101.715 1.6862 100.982 1.49414 100.24 1.49414C99.5046 1.49414 98.8991 1.57552 98.4238 1.73828C97.9551 1.90104 97.5286 2.12565 97.1445 2.41211C96.7604 2.69206 96.4219 3.02734 96.1289 3.41797C95.8359 3.80859 95.5918 4.23177 95.3965 4.6875C94.9993 5.625 94.8008 6.63411 94.8008 7.71484ZM109.469 15C109.417 15 109.391 14.9349 109.391 14.8047V14.6875C109.391 14.6354 109.417 14.6094 109.469 14.6094C109.508 14.6094 109.57 14.6029 109.654 14.5898C109.739 14.5768 109.827 14.5638 109.918 14.5508C110.009 14.5378 110.094 14.5247 110.172 14.5117C110.25 14.4922 110.305 14.4792 110.338 14.4727C111.002 14.3229 111.334 13.9453 111.334 13.3398V3.02734C111.334 2.46745 111.109 2.07031 110.66 1.83594C110.393 1.69271 110.107 1.62109 109.801 1.62109H109.43C109.378 1.62109 109.352 1.59505 109.352 1.54297V1.30859C109.352 1.25651 109.391 1.23047 109.469 1.23047L114.83 1.08398H115.816C116.969 1.16211 117.932 1.58203 118.707 2.34375C119.488 3.09896 119.879 4.0332 119.879 5.14648C119.879 6.25326 119.417 7.11589 118.492 7.73438C118.206 7.92318 117.896 8.09245 117.564 8.24219L120.523 13.0762C121.038 13.9225 121.728 14.5182 122.594 14.8633C122.665 14.8828 122.701 14.9284 122.701 15C122.701 15.1628 122.594 15.2441 122.379 15.2441C120.914 15.2441 119.749 14.6875 118.883 13.5742C118.694 13.3268 118.505 13.0501 118.316 12.7441L115.787 8.7793L113.463 8.67188H113.385C113.287 8.67188 113.238 8.71745 113.238 8.80859V13.3105C113.238 13.6686 113.339 13.9355 113.541 14.1113C113.743 14.2871 114.091 14.4076 114.586 14.4727C114.716 14.4922 114.876 14.5215 115.064 14.5605C115.253 14.5931 115.38 14.6094 115.445 14.6094C115.517 14.6094 115.553 14.6354 115.553 14.6875V14.9219C115.553 14.974 115.527 15 115.475 15H109.469ZM114.029 1.60156C113.951 1.60156 113.867 1.60482 113.775 1.61133C113.691 1.61133 113.58 1.61458 113.443 1.62109C113.307 1.62109 113.238 1.67318 113.238 1.77734V7.69531L113.258 7.98828C113.277 8.125 113.339 8.19661 113.443 8.20312L114.439 8.26172C116.269 8.26172 117.372 7.61068 117.75 6.30859C117.874 5.89844 117.936 5.42969 117.936 4.90234C117.936 3.8737 117.613 3.06315 116.969 2.4707C116.331 1.87826 115.514 1.58203 114.518 1.58203C114.426 1.58203 114.342 1.58529 114.264 1.5918C114.186 1.5918 114.107 1.59505 114.029 1.60156ZM122.896 14.9219V14.6484C122.896 14.5964 122.923 14.5703 122.975 14.5703H123.189C123.463 14.5508 123.743 14.541 124.029 14.541C124.316 14.5345 124.576 14.4987 124.811 14.4336C125.344 14.2773 125.611 13.8867 125.611 13.2617V2.96875C125.611 2.32422 125.23 1.91406 124.469 1.73828C124.254 1.69271 124.036 1.65365 123.814 1.62109H123.609C123.557 1.62109 123.531 1.59505 123.531 1.54297V1.30859C123.531 1.25651 123.557 1.23047 123.609 1.23047H132.896C133.014 1.23047 133.098 1.25326 133.15 1.29883C133.202 1.33789 133.235 1.42904 133.248 1.57227L133.424 4.4043C133.424 4.4694 133.375 4.50195 133.277 4.50195C133.18 4.50195 133.108 4.47266 133.062 4.41406C133.023 4.34896 132.971 4.11133 132.906 3.70117C132.848 3.29102 132.737 2.94922 132.574 2.67578C132.411 2.40234 132.125 2.22982 131.715 2.1582H127.643C127.558 2.1582 127.516 2.20052 127.516 2.28516V7.33398C127.516 7.39909 127.548 7.43164 127.613 7.43164H130.992C131.865 7.43164 132.301 6.92383 132.301 5.9082C132.301 5.85612 132.327 5.83008 132.379 5.83008H132.613C132.665 5.83008 132.691 5.85612 132.691 5.9082V10.0879C132.691 10.14 132.665 10.166 132.613 10.166H132.379C132.327 10.166 132.301 10.14 132.301 10.0879C132.301 9.12435 132.021 8.56771 131.461 8.41797C131.305 8.37891 131.139 8.35938 130.963 8.35938H127.613C127.548 8.35938 127.516 8.39193 127.516 8.45703V13.2129C127.516 13.7012 127.74 13.9779 128.189 14.043C128.32 14.0625 128.456 14.0723 128.6 14.0723H131.852C132.522 14.0723 133.043 13.776 133.414 13.1836C133.681 12.7604 133.844 12.2754 133.902 11.7285C133.922 11.5462 134.02 11.4551 134.195 11.4551C134.273 11.4551 134.312 11.4974 134.312 11.582L133.99 14.8633C133.951 14.9544 133.906 15 133.854 15H122.975C122.923 15 122.896 14.974 122.896 14.9219Z" fill="black"/>
</svg>
