<svg width="234" height="11" viewBox="0 0 234 11" fill="none" xmlns="http://www.w3.org/2000/svg">
<g clip-path="url(#clip0_1_248)">
<rect x="19" y="1" width="9" height="9" fill="black"/>
<rect x="47" y="1" width="9" height="9" fill="black"/>
<rect x="75" y="1" width="9" height="9" fill="black"/>
<rect x="103" y="1" width="9" height="9" fill="black"/>
<rect x="131" y="1" width="9" height="9" fill="black"/>
<rect x="159" y="1" width="9" height="9" fill="black"/>
<rect x="187" y="1" width="9" height="9" fill="black"/>
<rect x="215" y="1" width="9" height="9" fill="black"/>
<rect x="33" y="1" width="9" height="9" fill="black"/>
<rect x="89" y="1" width="9" height="9" fill="black"/>
<rect x="145" y="1" width="9" height="9" fill="black"/>
<rect x="201" y="1" width="9" height="9" fill="black"/>
<rect x="61" y="1" width="9" height="9" fill="black"/>
<rect x="173" y="1" width="9" height="9" fill="black"/>
<rect x="117" y="1" width="9" height="9" fill="black"/>
</g>
<defs>
<clipPath id="clip0_1_248">
<rect width="233" height="10" fill="white" transform="translate(0.5 0.734375)"/>
</clipPath>
</defs>
</svg>
