<svg width="208" height="267" viewBox="0 0 208 267" fill="none" xmlns="http://www.w3.org/2000/svg">
<path d="M77.3325 78.9414C77.3325 78.9805 77.313 79 77.2739 79H73.5312C73.4922 79 73.4727 78.9805 73.4727 78.9414V78.7656C73.4727 78.7266 73.5044 78.707 73.5679 78.707C74.2368 78.6777 74.6885 78.3213 74.9229 77.6377L77.9111 68.9878C77.916 68.978 77.9185 68.9658 77.9185 68.9512L77.8379 68.7095C77.8379 68.6851 77.8477 68.6729 77.8672 68.6729H79.332C79.3418 68.6777 79.354 68.6826 79.3687 68.6875C79.3882 68.6924 79.4028 68.707 79.4126 68.7314L82.5107 77.4253C82.5791 77.5571 82.6328 77.6768 82.6719 77.7842C82.7158 77.8916 82.7646 77.9893 82.8184 78.0771C82.9355 78.2773 83.1284 78.4312 83.397 78.5386C83.6216 78.6509 83.8267 78.707 84.0122 78.707C84.0513 78.707 84.0708 78.729 84.0708 78.7729V78.9414C84.0708 78.9805 84.0513 79 84.0122 79H79.5298C79.4907 79 79.4712 78.9805 79.4712 78.9414V78.7656C79.4712 78.7266 79.5615 78.7021 79.7422 78.6924C79.9229 78.6826 80.0718 78.6729 80.189 78.6631C80.8677 78.5898 81.207 78.3604 81.207 77.9746C81.207 77.9453 81.2021 77.9111 81.1924 77.8721L80.0864 74.752C80.0815 74.7422 80.0718 74.7202 80.0571 74.686C79.9985 74.52 79.896 74.437 79.7495 74.437H77.1494C77.0029 74.437 76.8882 74.5176 76.8052 74.6787C76.7905 74.7129 76.7832 74.7324 76.7832 74.7373L75.6846 77.9526V78.0186C75.6846 78.1455 75.7505 78.2603 75.8823 78.3628C76.1802 78.5923 76.5806 78.707 77.0835 78.707H77.2739C77.313 78.707 77.3325 78.7266 77.3325 78.7656V78.9414ZM79.5005 73.624C79.5884 73.624 79.6323 73.5874 79.6323 73.5142C79.6323 73.4751 79.6226 73.4312 79.603 73.3823L78.5117 70.3794C78.4629 70.2476 78.4263 70.1816 78.4019 70.1816C78.3774 70.1816 78.3384 70.25 78.2847 70.3867L77.2593 73.3823C77.2397 73.4312 77.23 73.4849 77.23 73.5435C77.23 73.5972 77.2666 73.624 77.3398 73.624H79.5005ZM86.4146 72.8696C86.4146 73.021 86.4487 73.0967 86.5171 73.0967C86.5903 73.0967 86.9028 72.938 87.4546 72.6206C88.0991 72.3472 88.5898 72.2104 88.9268 72.2104C89.2637 72.2104 89.5859 72.3081 89.8936 72.5034C90.2012 72.6987 90.4624 72.9551 90.6772 73.2725C91.1313 73.9268 91.3584 74.7202 91.3584 75.6528C91.3584 76.5854 91.0337 77.4106 90.3843 78.1284C89.7397 78.8413 88.8877 79.1978 87.8281 79.1978C87.1396 79.1978 86.5049 79.1147 85.9238 78.9487C85.7529 78.8999 85.6064 78.8608 85.4844 78.8315C85.3672 78.8022 85.3013 78.7729 85.2866 78.7437C85.2769 78.7095 85.272 78.6704 85.272 78.6265V68.7534C85.272 68.5483 85.1597 68.4067 84.9351 68.3286C84.8374 68.2944 84.7324 68.2676 84.6201 68.248C84.5078 68.2236 84.4175 68.2017 84.3491 68.1821C84.2856 68.1626 84.2441 68.1455 84.2246 68.1309C84.21 68.1113 84.2026 68.0747 84.2026 68.021C84.2026 67.9624 84.2393 67.9136 84.3125 67.8745L86.1802 66.9956C86.2388 66.9663 86.2754 66.9517 86.29 66.9517C86.373 66.9517 86.4146 67.0103 86.4146 67.1274V72.8696ZM87.9673 73.104C87.5327 73.104 87.0444 73.2603 86.5024 73.5728C86.4438 73.6069 86.4146 73.6655 86.4146 73.7485V77.2129C86.4634 77.6572 86.6562 78.0039 86.9932 78.2529C87.3301 78.502 87.6987 78.6265 88.0991 78.6265C88.8022 78.6265 89.3442 78.3481 89.7251 77.7915C90.1108 77.2349 90.3037 76.6001 90.3037 75.8872C90.3037 75.1743 90.1084 74.5322 89.7178 73.9609C89.3271 73.3896 88.7437 73.104 87.9673 73.104ZM92.7207 75.7114C92.7207 74.7495 93.0601 73.9243 93.7388 73.2358C94.4224 72.5425 95.2402 72.1958 96.1924 72.1958C97.1445 72.1958 97.9722 72.5327 98.6753 73.2065C99.3784 73.8755 99.73 74.7031 99.73 75.6895C99.73 76.6758 99.3955 77.5083 98.7266 78.187C98.0625 78.8608 97.2275 79.1978 96.2217 79.1978C95.2158 79.1978 94.3809 78.856 93.7168 78.1724C93.0527 77.4888 92.7207 76.6685 92.7207 75.7114ZM94.5444 77.5938C95.0229 78.3994 95.6748 78.8022 96.5 78.8022C97.1396 78.8022 97.6279 78.5459 97.9648 78.0332C98.3066 77.5205 98.4775 76.8906 98.4775 76.1436C98.4775 75.3965 98.2383 74.6299 97.7598 73.8438C97.2861 73.0576 96.6465 72.6646 95.8408 72.6646C95.25 72.6646 94.7837 72.9209 94.4419 73.4336C94.105 73.9414 93.9365 74.5884 93.9365 75.3745C93.9365 76.1558 94.1392 76.8955 94.5444 77.5938ZM105.809 78.3555C105.785 78.2725 105.753 78.2456 105.714 78.2749C105.675 78.2993 105.516 78.3823 105.238 78.5239C104.325 78.978 103.563 79.2051 102.953 79.2051C102.342 79.2051 101.903 79.0098 101.634 78.6191C101.537 78.4727 101.488 78.292 101.488 78.0771V73.6094C101.473 73.4678 101.41 73.3457 101.297 73.2432C101.146 73.1162 100.987 73.0479 100.821 73.0381C100.66 73.0283 100.58 72.9795 100.58 72.8916C100.58 72.7988 100.619 72.7427 100.697 72.7231L102.374 72.2397C102.433 72.2202 102.489 72.2104 102.542 72.2104C102.601 72.2104 102.63 72.252 102.63 72.335V77.2495C102.63 77.5913 102.782 77.855 103.084 78.0405C103.387 78.2261 103.773 78.3188 104.242 78.3188C104.715 78.3188 105.14 78.1748 105.516 77.8867C105.633 77.7939 105.731 77.6914 105.809 77.5791V73.6094C105.794 73.4678 105.731 73.3457 105.619 73.2432C105.467 73.1162 105.309 73.0479 105.143 73.0381C104.981 73.0283 104.901 72.9795 104.901 72.8916C104.901 72.7988 104.94 72.7427 105.018 72.7231L106.695 72.2397C106.754 72.2202 106.81 72.2104 106.864 72.2104C106.922 72.2104 106.952 72.2593 106.952 72.3569V77.5571C106.976 77.772 107.037 77.9258 107.135 78.0186C107.232 78.1113 107.391 78.1577 107.611 78.1577L108.036 78.1284C108.065 78.1284 108.08 78.1577 108.08 78.2163C108.08 78.27 108.043 78.314 107.97 78.3481L106.021 79.1538C105.963 79.1831 105.912 79.1978 105.868 79.1978C105.829 79.1978 105.809 79.1367 105.809 79.0146V78.3555ZM110.812 73.3677C110.782 73.3677 110.768 73.3896 110.768 73.4336V77.4766C110.768 77.7695 110.831 77.999 110.958 78.165C111.09 78.3311 111.256 78.4141 111.456 78.4141C111.656 78.4141 111.83 78.3823 111.976 78.3188C112.127 78.2505 112.257 78.1772 112.364 78.0991C112.477 78.021 112.577 77.9502 112.665 77.8867C112.752 77.8184 112.831 77.7842 112.899 77.7842C112.967 77.7842 113.001 77.8013 113.001 77.8354C113.001 77.9526 112.989 78.0283 112.965 78.0625C112.379 78.8193 111.812 79.1978 111.266 79.1978C110.724 79.1978 110.313 79.0269 110.035 78.6851C109.762 78.3384 109.625 77.9258 109.625 77.4473V73.3677H109.076C108.939 73.3677 108.866 73.3237 108.856 73.2358C108.851 73.1479 108.866 73.0918 108.9 73.0674C109.159 72.9014 109.515 72.6035 109.969 72.1738C110.018 72.1201 110.084 72.0396 110.167 71.9321C110.25 71.8247 110.37 71.6782 110.526 71.4927C110.687 71.3071 110.809 71.2144 110.892 71.2144C110.975 71.2144 111.017 71.2485 111.017 71.3169C111.017 71.3267 110.934 71.6465 110.768 72.2764C110.768 72.3643 110.807 72.4106 110.885 72.4155H112.752C112.967 72.4155 113.075 72.7183 113.075 73.3237C113.075 73.353 113.055 73.3677 113.016 73.3677H110.812ZM121.498 68.9658C120.677 68.9658 120.267 69.293 120.267 69.9473V75.1914C120.267 76.1582 120.587 76.9492 121.227 77.5645C121.866 78.1748 122.687 78.48 123.688 78.48C124.728 78.48 125.58 78.2017 126.244 77.645C126.913 77.0835 127.247 76.3071 127.247 75.3159V70.6577C127.247 70.1938 127.206 69.8716 127.123 69.6909C126.913 69.2075 126.439 68.9658 125.702 68.9658C125.663 68.9658 125.643 68.9463 125.643 68.9072V68.7314C125.643 68.6924 125.663 68.6729 125.702 68.6729H129.305C129.344 68.6729 129.364 68.6924 129.364 68.7314V68.9072C129.364 68.9463 129.31 68.9658 129.203 68.9658C128.563 68.9658 128.172 69.2148 128.031 69.7129C128.006 69.7959 127.994 69.874 127.994 69.9473V74.7446C127.994 76.8882 127.174 78.2676 125.533 78.8828C124.981 79.0928 124.432 79.1978 123.885 79.1978C121.927 79.1978 120.484 78.6851 119.557 77.6597C119.078 77.1323 118.839 76.4805 118.839 75.7041V69.8447C118.839 69.4297 118.587 69.1562 118.084 69.0244C117.938 68.9854 117.813 68.9658 117.711 68.9658C117.608 68.9658 117.557 68.9463 117.557 68.9072V68.7314C117.557 68.6924 117.574 68.6729 117.608 68.6729H121.578C121.617 68.6729 121.637 68.6924 121.637 68.7314V68.9072C121.637 68.9463 121.59 68.9658 121.498 68.9658ZM133.604 73.9902C133.604 74.0977 133.563 74.1514 133.48 74.1514C133.402 74.1514 133.341 74.0928 133.297 73.9756C133.18 73.6533 133.004 73.3677 132.77 73.1187C132.54 72.8696 132.254 72.7451 131.913 72.7451C131.463 72.7451 131.161 72.9697 131.004 73.4189C130.956 73.5703 130.931 73.7266 130.931 73.8877C130.931 74.0488 131.034 74.2295 131.239 74.4297C131.444 74.625 131.781 74.8594 132.25 75.1328C132.718 75.4062 133.06 75.6382 133.275 75.8286C133.763 76.2632 134.007 76.7661 134.007 77.3374C134.007 77.9087 133.797 78.3628 133.377 78.6997C132.958 79.0317 132.469 79.1978 131.913 79.1978C131.615 79.1978 131.344 79.1562 131.1 79.0732C130.86 78.9951 130.721 78.9561 130.682 78.9561C130.648 78.9561 130.589 78.9951 130.506 79.0732C130.428 79.1562 130.365 79.1978 130.316 79.1978H130.191C130.162 79.1978 130.125 78.9341 130.082 78.4067C130.038 77.8794 130.016 77.5669 130.016 77.4692C130.016 77.3716 130.023 77.3179 130.038 77.3081C130.057 77.2983 130.086 77.2935 130.125 77.2935C130.165 77.2935 130.196 77.3057 130.221 77.3301C130.25 77.3545 130.274 77.3862 130.294 77.4253C130.313 77.4595 130.328 77.4961 130.338 77.5352C130.353 77.5742 130.384 77.6475 130.433 77.7549C130.765 78.4629 131.278 78.8169 131.971 78.8169C132.279 78.8169 132.525 78.7046 132.711 78.48C132.896 78.2505 132.989 77.9966 132.989 77.7183C132.989 77.4399 132.916 77.2056 132.77 77.0151C132.623 76.8247 132.44 76.6514 132.22 76.4951C132.005 76.3389 131.771 76.1875 131.517 76.041C130.531 75.4648 130.038 74.8276 130.038 74.1294C130.038 73.6069 130.262 73.1577 130.711 72.7817C131.161 72.4009 131.622 72.2104 132.096 72.2104C132.569 72.2104 132.918 72.2617 133.143 72.3643C133.373 72.4668 133.507 72.5547 133.546 72.6279C133.585 72.6963 133.604 72.9258 133.604 73.3164V73.9902Z" fill="black"/>
<path d="M70.4629 134.443C70.5085 134.443 70.5312 134.493 70.5312 134.594L70.709 136.05C70.7272 136.141 70.7363 136.2 70.7363 136.228C70.7363 136.25 70.6999 136.262 70.627 136.262C70.5586 136.262 70.5153 136.253 70.4971 136.234C70.4788 136.216 70.4606 136.187 70.4424 136.146C70.4242 136.1 70.4014 136.05 70.374 135.995C70.3512 135.94 70.3262 135.886 70.2988 135.831C70.2031 135.621 70.0527 135.414 69.8477 135.209C69.3464 134.726 68.7812 134.484 68.1523 134.484C67.7741 134.484 67.4163 134.607 67.0791 134.854C66.7419 135.1 66.5732 135.391 66.5732 135.729C66.5732 136.061 66.6348 136.351 66.7578 136.597C66.8854 136.843 67.0518 137.071 67.2568 137.28C67.4619 137.49 67.6966 137.69 67.9609 137.882C68.2253 138.073 68.4941 138.267 68.7676 138.463C69.4922 138.969 70.0072 139.402 70.3125 139.762C70.791 140.318 71.0508 140.942 71.0918 141.635C71.0918 142.41 70.7933 143.029 70.1963 143.494C69.6038 143.954 68.9134 144.185 68.125 144.185C67.6191 144.185 67.2158 144.132 66.915 144.027C66.6188 143.927 66.4137 143.854 66.2998 143.809C66.1859 143.763 66.1016 143.74 66.0469 143.74C65.9967 143.74 65.9648 143.743 65.9512 143.747L65.6162 143.815C65.557 143.815 65.5205 143.768 65.5068 143.672C65.3747 142.542 65.3086 141.942 65.3086 141.874C65.3086 141.801 65.3132 141.753 65.3223 141.73C65.3359 141.703 65.3678 141.689 65.418 141.689C65.5456 141.689 65.6618 141.872 65.7666 142.236C66.2451 143.262 67.0404 143.774 68.1523 143.774C68.6628 143.774 69.098 143.619 69.458 143.31C69.8226 143 70.0049 142.596 70.0049 142.1C70.0049 141.307 69.5309 140.568 68.583 139.885C68.3141 139.693 67.9268 139.427 67.4209 139.085C66.915 138.743 66.5117 138.401 66.2109 138.06C65.7415 137.531 65.5068 136.943 65.5068 136.296C65.5068 135.644 65.7643 135.111 66.2793 134.696C66.7988 134.282 67.3936 134.074 68.0635 134.074C68.4098 134.074 68.7904 134.133 69.2051 134.252C69.6243 134.37 69.916 134.45 70.0801 134.491L70.4629 134.443ZM76.8613 143.398C76.8385 143.321 76.8089 143.296 76.7725 143.323C76.736 143.346 76.5879 143.424 76.3281 143.556C75.4759 143.979 74.765 144.191 74.1953 144.191C73.6257 144.191 73.2155 144.009 72.9648 143.645C72.8737 143.508 72.8281 143.339 72.8281 143.139V138.969C72.8145 138.837 72.7552 138.723 72.6504 138.627C72.5091 138.508 72.361 138.445 72.2061 138.436C72.0557 138.426 71.9805 138.381 71.9805 138.299C71.9805 138.212 72.0169 138.16 72.0898 138.142L73.6553 137.69C73.71 137.672 73.7624 137.663 73.8125 137.663C73.8672 137.663 73.8945 137.702 73.8945 137.779V142.366C73.8945 142.685 74.0358 142.931 74.3184 143.104C74.6009 143.278 74.9609 143.364 75.3984 143.364C75.8405 143.364 76.237 143.23 76.5879 142.961C76.6973 142.874 76.7884 142.779 76.8613 142.674V138.969C76.8477 138.837 76.7884 138.723 76.6836 138.627C76.5423 138.508 76.3942 138.445 76.2393 138.436C76.0889 138.426 76.0137 138.381 76.0137 138.299C76.0137 138.212 76.0501 138.16 76.123 138.142L77.6885 137.69C77.7432 137.672 77.7956 137.663 77.8457 137.663C77.9004 137.663 77.9277 137.709 77.9277 137.8V142.653C77.9505 142.854 78.0075 142.997 78.0986 143.084C78.1898 143.171 78.3379 143.214 78.543 143.214L78.9395 143.187C78.9668 143.187 78.9805 143.214 78.9805 143.269C78.9805 143.319 78.9463 143.36 78.8779 143.392L77.0596 144.144C77.0049 144.171 76.957 144.185 76.916 144.185C76.8796 144.185 76.8613 144.128 76.8613 144.014V143.398ZM83.1846 139.324C83.1846 139.424 83.1458 139.475 83.0684 139.475C82.9954 139.475 82.9385 139.42 82.8975 139.311C82.7881 139.01 82.624 138.743 82.4053 138.511C82.1911 138.278 81.9245 138.162 81.6055 138.162C81.1862 138.162 80.9036 138.372 80.7578 138.791C80.7122 138.932 80.6895 139.078 80.6895 139.229C80.6895 139.379 80.7852 139.548 80.9766 139.734C81.168 139.917 81.4824 140.135 81.9199 140.391C82.3574 140.646 82.6764 140.862 82.877 141.04C83.3327 141.446 83.5605 141.915 83.5605 142.448C83.5605 142.981 83.3646 143.405 82.9727 143.72C82.5807 144.03 82.125 144.185 81.6055 144.185C81.3275 144.185 81.0745 144.146 80.8467 144.068C80.6234 143.995 80.4935 143.959 80.457 143.959C80.4251 143.959 80.3704 143.995 80.293 144.068C80.2201 144.146 80.1608 144.185 80.1152 144.185H79.999C79.9717 144.185 79.9375 143.938 79.8965 143.446C79.8555 142.954 79.835 142.662 79.835 142.571C79.835 142.48 79.8418 142.43 79.8555 142.421C79.8737 142.412 79.901 142.407 79.9375 142.407C79.974 142.407 80.0036 142.419 80.0264 142.441C80.0537 142.464 80.0765 142.494 80.0947 142.53C80.113 142.562 80.1266 142.596 80.1357 142.633C80.1494 142.669 80.179 142.738 80.2246 142.838C80.5345 143.499 81.013 143.829 81.6602 143.829C81.9473 143.829 82.1774 143.724 82.3506 143.515C82.5238 143.3 82.6104 143.063 82.6104 142.804C82.6104 142.544 82.542 142.325 82.4053 142.147C82.2686 141.97 82.0977 141.808 81.8926 141.662C81.6921 141.516 81.4733 141.375 81.2363 141.238C80.3158 140.701 79.8555 140.106 79.8555 139.454C79.8555 138.966 80.0651 138.547 80.4844 138.196C80.9036 137.841 81.3343 137.663 81.7764 137.663C82.2184 137.663 82.5443 137.711 82.7539 137.807C82.9681 137.902 83.0934 137.984 83.1299 138.053C83.1663 138.117 83.1846 138.331 83.1846 138.695V139.324ZM86.2197 138.743C86.1924 138.743 86.1787 138.764 86.1787 138.805V142.578C86.1787 142.852 86.238 143.066 86.3564 143.221C86.4795 143.376 86.6344 143.453 86.8213 143.453C87.0081 143.453 87.1699 143.424 87.3066 143.364C87.4479 143.3 87.5687 143.232 87.6689 143.159C87.7738 143.086 87.8672 143.02 87.9492 142.961C88.0312 142.897 88.1042 142.865 88.168 142.865C88.2318 142.865 88.2637 142.881 88.2637 142.913C88.2637 143.022 88.2523 143.093 88.2295 143.125C87.6826 143.831 87.154 144.185 86.6436 144.185C86.1377 144.185 85.7549 144.025 85.4951 143.706C85.2399 143.382 85.1123 142.997 85.1123 142.551V138.743H84.5996C84.472 138.743 84.4036 138.702 84.3945 138.62C84.39 138.538 84.4036 138.486 84.4355 138.463C84.6771 138.308 85.0098 138.03 85.4336 137.629C85.4792 137.579 85.5407 137.504 85.6182 137.403C85.6956 137.303 85.8073 137.166 85.9531 136.993C86.1035 136.82 86.2174 136.733 86.2949 136.733C86.3724 136.733 86.4111 136.765 86.4111 136.829C86.4111 136.838 86.3337 137.137 86.1787 137.725C86.1787 137.807 86.2152 137.85 86.2881 137.854H88.0312C88.2318 137.854 88.332 138.137 88.332 138.702C88.332 138.729 88.3138 138.743 88.2773 138.743H86.2197ZM93.2129 142.872C93.2129 142.991 93.2676 143.086 93.377 143.159C93.4909 143.228 93.6208 143.262 93.7666 143.262C93.9124 143.262 94.0332 143.225 94.1289 143.152C94.2292 143.075 94.2975 143.036 94.334 143.036C94.3704 143.036 94.3887 143.086 94.3887 143.187C94.3887 143.282 94.3431 143.364 94.252 143.433C93.5684 143.934 93.1058 144.185 92.8643 144.185C92.5726 144.185 92.3356 143.882 92.1533 143.275C92.1396 143.23 92.1283 143.209 92.1191 143.214C91.554 143.638 91.1986 143.893 91.0527 143.979C90.679 144.194 90.3031 144.228 89.9248 144.082C89.5511 143.936 89.2799 143.695 89.1113 143.357C89.0293 143.184 88.9883 143 88.9883 142.804C88.9883 142.416 89.1318 142.109 89.4189 141.881C89.7061 141.653 90.2529 141.434 91.0596 141.225C91.333 141.152 91.5768 141.058 91.791 140.944C92.0052 140.83 92.1169 140.757 92.126 140.726C92.1396 140.694 92.1465 140.664 92.1465 140.637V139.324C92.1465 138.809 91.946 138.447 91.5449 138.237C91.4128 138.169 91.2533 138.135 91.0664 138.135C90.8841 138.135 90.6973 138.208 90.5059 138.354C90.319 138.499 90.2256 138.707 90.2256 138.976L90.2598 139.242C90.2324 139.297 90.0684 139.388 89.7676 139.516C89.4668 139.643 89.2936 139.712 89.248 139.721C89.1751 139.721 89.1387 139.634 89.1387 139.461C89.1387 139.283 89.1911 139.087 89.2959 138.873C89.4007 138.659 89.5488 138.463 89.7402 138.285C90.1868 137.87 90.6973 137.663 91.2715 137.663C91.8457 137.663 92.3128 137.823 92.6729 138.142C93.0329 138.456 93.2129 138.832 93.2129 139.27V142.872ZM90.0615 142.674C90.0615 142.893 90.1458 143.084 90.3145 143.248C90.4831 143.408 90.6745 143.487 90.8887 143.487C91.1074 143.487 91.3717 143.396 91.6816 143.214C91.9915 143.027 92.1465 142.836 92.1465 142.64V141.252C92.1465 141.202 92.1351 141.177 92.1123 141.177C92.0895 141.177 92.0736 141.179 92.0645 141.184L90.4785 141.922C90.3145 142.04 90.2028 142.141 90.1436 142.223C90.0889 142.305 90.0615 142.455 90.0615 142.674ZM95.0449 144C94.9993 143.991 94.9766 143.959 94.9766 143.904C94.9766 143.822 95.0837 143.768 95.2979 143.74C95.79 143.667 96.0361 143.408 96.0361 142.961V139.345C96.0361 139.153 95.9313 139.021 95.7217 138.948C95.6305 138.916 95.5326 138.891 95.4277 138.873C95.3229 138.85 95.2386 138.83 95.1748 138.812C95.1156 138.793 95.0768 138.777 95.0586 138.764C95.0449 138.745 95.0381 138.711 95.0381 138.661C95.0381 138.606 95.0723 138.561 95.1406 138.524L96.8838 137.704C96.9385 137.677 96.9727 137.663 96.9863 137.663C97.0638 137.663 97.1025 137.718 97.1025 137.827V142.961C97.1025 143.408 97.3486 143.667 97.8408 143.74C98.055 143.768 98.1621 143.815 98.1621 143.884C98.1621 143.952 98.1393 143.991 98.0938 144H95.0449ZM96.4668 135.742C96.2799 135.742 96.1136 135.683 95.9678 135.564C95.8265 135.446 95.7559 135.282 95.7559 135.072C95.7559 134.858 95.8242 134.689 95.9609 134.566C96.0977 134.443 96.2594 134.382 96.4463 134.382C96.6377 134.382 96.7972 134.455 96.9248 134.601C97.057 134.746 97.123 134.904 97.123 135.072C97.123 135.241 97.0615 135.396 96.9385 135.537C96.8154 135.674 96.6582 135.742 96.4668 135.742ZM104 141.847L103.986 140.404C103.986 139.816 103.936 139.404 103.836 139.167C103.736 138.93 103.608 138.752 103.453 138.634C103.298 138.511 103.089 138.449 102.824 138.449C102.564 138.449 102.011 138.654 101.163 139.064C101.049 139.133 100.99 139.197 100.985 139.256V142.934C100.985 143.394 101.231 143.658 101.724 143.727C101.938 143.758 102.045 143.811 102.045 143.884C102.045 143.952 102.022 143.991 101.977 144H98.9277C98.8822 143.991 98.8594 143.959 98.8594 143.904C98.8594 143.818 98.9665 143.758 99.1807 143.727C99.6729 143.658 99.9189 143.394 99.9189 142.934V139.01C99.9189 138.818 99.8141 138.686 99.6045 138.613C99.5133 138.581 99.4154 138.556 99.3105 138.538C99.2057 138.515 99.1214 138.495 99.0576 138.477C98.9984 138.458 98.9596 138.442 98.9414 138.429C98.9277 138.41 98.9209 138.376 98.9209 138.326C98.9209 138.271 98.9551 138.226 99.0234 138.189L100.767 137.369C100.821 137.342 100.855 137.328 100.869 137.328C100.947 137.328 100.985 137.383 100.985 137.492V138.559C100.999 138.604 101.017 138.627 101.04 138.627C101.067 138.627 101.165 138.586 101.334 138.504C101.726 138.308 102.12 138.119 102.517 137.937C102.913 137.754 103.241 137.663 103.501 137.663C104.554 137.663 105.08 138.622 105.08 140.541L105.019 142.537V142.934C105.019 143.289 105.196 143.521 105.552 143.631C105.702 143.681 105.846 143.717 105.982 143.74C106.124 143.758 106.215 143.777 106.256 143.795C106.301 143.813 106.324 143.85 106.324 143.904C106.324 143.959 106.301 143.991 106.256 144H102.961C102.915 143.991 102.893 143.959 102.893 143.904C102.893 143.818 103 143.758 103.214 143.727C103.701 143.658 103.945 143.376 103.945 142.879C103.982 142.651 104 142.307 104 141.847ZM111.164 142.872C111.164 142.991 111.219 143.086 111.328 143.159C111.442 143.228 111.572 143.262 111.718 143.262C111.864 143.262 111.984 143.225 112.08 143.152C112.18 143.075 112.249 143.036 112.285 143.036C112.322 143.036 112.34 143.086 112.34 143.187C112.34 143.282 112.294 143.364 112.203 143.433C111.52 143.934 111.057 144.185 110.815 144.185C110.524 144.185 110.287 143.882 110.104 143.275C110.091 143.23 110.079 143.209 110.07 143.214C109.505 143.638 109.15 143.893 109.004 143.979C108.63 144.194 108.254 144.228 107.876 144.082C107.502 143.936 107.231 143.695 107.062 143.357C106.98 143.184 106.939 143 106.939 142.804C106.939 142.416 107.083 142.109 107.37 141.881C107.657 141.653 108.204 141.434 109.011 141.225C109.284 141.152 109.528 141.058 109.742 140.944C109.956 140.83 110.068 140.757 110.077 140.726C110.091 140.694 110.098 140.664 110.098 140.637V139.324C110.098 138.809 109.897 138.447 109.496 138.237C109.364 138.169 109.204 138.135 109.018 138.135C108.835 138.135 108.648 138.208 108.457 138.354C108.27 138.499 108.177 138.707 108.177 138.976L108.211 139.242C108.184 139.297 108.02 139.388 107.719 139.516C107.418 139.643 107.245 139.712 107.199 139.721C107.126 139.721 107.09 139.634 107.09 139.461C107.09 139.283 107.142 139.087 107.247 138.873C107.352 138.659 107.5 138.463 107.691 138.285C108.138 137.87 108.648 137.663 109.223 137.663C109.797 137.663 110.264 137.823 110.624 138.142C110.984 138.456 111.164 138.832 111.164 139.27V142.872ZM108.013 142.674C108.013 142.893 108.097 143.084 108.266 143.248C108.434 143.408 108.626 143.487 108.84 143.487C109.059 143.487 109.323 143.396 109.633 143.214C109.943 143.027 110.098 142.836 110.098 142.64V141.252C110.098 141.202 110.086 141.177 110.063 141.177C110.041 141.177 110.025 141.179 110.016 141.184L108.43 141.922C108.266 142.04 108.154 142.141 108.095 142.223C108.04 142.305 108.013 142.455 108.013 142.674ZM114.664 138.278C114.664 138.42 114.696 138.49 114.76 138.49C114.828 138.49 115.12 138.342 115.635 138.046C116.236 137.791 116.694 137.663 117.009 137.663C117.323 137.663 117.624 137.754 117.911 137.937C118.198 138.119 118.442 138.358 118.643 138.654C119.066 139.265 119.278 140.006 119.278 140.876C119.278 141.746 118.975 142.517 118.369 143.187C117.768 143.852 116.972 144.185 115.983 144.185C115.341 144.185 114.748 144.107 114.206 143.952C114.047 143.907 113.91 143.87 113.796 143.843C113.687 143.815 113.625 143.788 113.611 143.761C113.602 143.729 113.598 143.692 113.598 143.651V134.437C113.598 134.245 113.493 134.113 113.283 134.04C113.192 134.008 113.094 133.983 112.989 133.965C112.884 133.942 112.8 133.922 112.736 133.903C112.677 133.885 112.638 133.869 112.62 133.855C112.606 133.837 112.6 133.803 112.6 133.753C112.6 133.698 112.634 133.653 112.702 133.616L114.445 132.796C114.5 132.769 114.534 132.755 114.548 132.755C114.625 132.755 114.664 132.81 114.664 132.919V138.278ZM116.113 138.497C115.708 138.497 115.252 138.643 114.746 138.935C114.691 138.966 114.664 139.021 114.664 139.099V142.332C114.71 142.747 114.89 143.07 115.204 143.303C115.519 143.535 115.863 143.651 116.236 143.651C116.893 143.651 117.398 143.392 117.754 142.872C118.114 142.353 118.294 141.76 118.294 141.095C118.294 140.429 118.112 139.83 117.747 139.297C117.382 138.764 116.838 138.497 116.113 138.497ZM120.516 144C120.47 143.991 120.447 143.959 120.447 143.904C120.447 143.822 120.554 143.768 120.769 143.74C121.261 143.667 121.507 143.408 121.507 142.961V139.345C121.507 139.153 121.402 139.021 121.192 138.948C121.101 138.916 121.003 138.891 120.898 138.873C120.794 138.85 120.709 138.83 120.646 138.812C120.586 138.793 120.548 138.777 120.529 138.764C120.516 138.745 120.509 138.711 120.509 138.661C120.509 138.606 120.543 138.561 120.611 138.524L122.354 137.704C122.409 137.677 122.443 137.663 122.457 137.663C122.535 137.663 122.573 137.718 122.573 137.827V142.961C122.573 143.408 122.819 143.667 123.312 143.74C123.526 143.768 123.633 143.815 123.633 143.884C123.633 143.952 123.61 143.991 123.564 144H120.516ZM121.938 135.742C121.751 135.742 121.584 135.683 121.438 135.564C121.297 135.446 121.227 135.282 121.227 135.072C121.227 134.858 121.295 134.689 121.432 134.566C121.568 134.443 121.73 134.382 121.917 134.382C122.108 134.382 122.268 134.455 122.396 134.601C122.528 134.746 122.594 134.904 122.594 135.072C122.594 135.241 122.532 135.396 122.409 135.537C122.286 135.674 122.129 135.742 121.938 135.742ZM126.976 143.74C127.19 143.768 127.297 143.822 127.297 143.904C127.297 143.959 127.274 143.991 127.229 144H124.18C124.134 143.991 124.111 143.959 124.111 143.904C124.111 143.822 124.218 143.768 124.433 143.74C124.925 143.667 125.171 143.408 125.171 142.961V134.437C125.171 134.245 125.066 134.113 124.856 134.04C124.765 134.008 124.667 133.983 124.562 133.965C124.458 133.942 124.373 133.922 124.31 133.903C124.25 133.885 124.212 133.869 124.193 133.855C124.18 133.837 124.173 133.803 124.173 133.753C124.173 133.698 124.207 133.653 124.275 133.616L126.019 132.796C126.073 132.769 126.107 132.755 126.121 132.755C126.199 132.755 126.237 132.81 126.237 132.919V142.961C126.237 143.408 126.483 143.667 126.976 143.74ZM128.021 144C127.976 143.991 127.953 143.959 127.953 143.904C127.953 143.822 128.06 143.768 128.274 143.74C128.767 143.667 129.013 143.408 129.013 142.961V139.345C129.013 139.153 128.908 139.021 128.698 138.948C128.607 138.916 128.509 138.891 128.404 138.873C128.299 138.85 128.215 138.83 128.151 138.812C128.092 138.793 128.053 138.777 128.035 138.764C128.021 138.745 128.015 138.711 128.015 138.661C128.015 138.606 128.049 138.561 128.117 138.524L129.86 137.704C129.915 137.677 129.949 137.663 129.963 137.663C130.04 137.663 130.079 137.718 130.079 137.827V142.961C130.079 143.408 130.325 143.667 130.817 143.74C131.032 143.768 131.139 143.815 131.139 143.884C131.139 143.952 131.116 143.991 131.07 144H128.021ZM129.443 135.742C129.257 135.742 129.09 135.683 128.944 135.564C128.803 135.446 128.732 135.282 128.732 135.072C128.732 134.858 128.801 134.689 128.938 134.566C129.074 134.443 129.236 134.382 129.423 134.382C129.614 134.382 129.774 134.455 129.901 134.601C130.034 134.746 130.1 134.904 130.1 135.072C130.1 135.241 130.038 135.396 129.915 135.537C129.792 135.674 129.635 135.742 129.443 135.742ZM133.62 138.743C133.593 138.743 133.579 138.764 133.579 138.805V142.578C133.579 142.852 133.638 143.066 133.757 143.221C133.88 143.376 134.035 143.453 134.222 143.453C134.409 143.453 134.57 143.424 134.707 143.364C134.848 143.3 134.969 143.232 135.069 143.159C135.174 143.086 135.268 143.02 135.35 142.961C135.432 142.897 135.505 142.865 135.568 142.865C135.632 142.865 135.664 142.881 135.664 142.913C135.664 143.022 135.653 143.093 135.63 143.125C135.083 143.831 134.554 144.185 134.044 144.185C133.538 144.185 133.155 144.025 132.896 143.706C132.64 143.382 132.513 142.997 132.513 142.551V138.743H132C131.872 138.743 131.804 138.702 131.795 138.62C131.79 138.538 131.804 138.486 131.836 138.463C132.077 138.308 132.41 138.03 132.834 137.629C132.88 137.579 132.941 137.504 133.019 137.403C133.096 137.303 133.208 137.166 133.354 136.993C133.504 136.82 133.618 136.733 133.695 136.733C133.773 136.733 133.812 136.765 133.812 136.829C133.812 136.838 133.734 137.137 133.579 137.725C133.579 137.807 133.616 137.85 133.688 137.854H135.432C135.632 137.854 135.732 138.137 135.732 138.702C135.732 138.729 135.714 138.743 135.678 138.743H133.62ZM143.061 137.848C143.111 137.861 143.136 137.893 143.136 137.943C143.136 137.993 143.131 138.028 143.122 138.046C143.113 138.06 143.09 138.073 143.054 138.087C143.022 138.096 142.974 138.105 142.91 138.114C142.851 138.123 142.755 138.142 142.623 138.169C142.491 138.192 142.372 138.283 142.268 138.442C142.163 138.602 142.051 138.823 141.933 139.105L138.72 147.069L138.275 148.013C138.161 148.254 137.922 148.375 137.558 148.375C137.398 148.375 137.271 148.323 137.175 148.218C137.079 148.113 137.031 147.988 137.031 147.842C137.031 147.701 137.065 147.596 137.134 147.527C137.207 147.464 137.291 147.411 137.387 147.37C137.482 147.329 137.58 147.29 137.681 147.254C137.785 147.222 137.902 147.145 138.029 147.021C138.157 146.903 138.232 146.814 138.255 146.755C139.021 145.041 139.403 144.146 139.403 144.068C139.403 143.991 139.358 143.895 139.267 143.781L137.011 139.071C136.842 138.611 136.553 138.315 136.143 138.183C136.111 138.174 136.072 138.167 136.026 138.162C135.835 138.144 135.739 138.087 135.739 137.991C135.739 137.896 135.794 137.848 135.903 137.848H138.945C138.982 137.848 139 137.884 139 137.957C139 138.025 138.968 138.073 138.904 138.101C138.84 138.123 138.699 138.135 138.48 138.135C138.13 138.135 137.954 138.271 137.954 138.545L138.016 138.709L139.786 142.503C139.877 142.735 139.968 142.729 140.06 142.482C140.069 142.46 140.126 142.312 140.23 142.038C140.85 140.466 141.197 139.557 141.27 139.311C141.347 139.064 141.386 138.88 141.386 138.757C141.386 138.634 141.32 138.504 141.188 138.367C141.06 138.23 140.882 138.162 140.654 138.162C140.431 138.162 140.319 138.096 140.319 137.964C140.319 137.886 140.369 137.848 140.47 137.848H143.061Z" fill="black"/>
<path d="M81.6484 210.37C81.2236 210.629 80.7598 210.832 80.2568 210.978C79.7539 211.125 79.3071 211.198 78.9165 211.198C78.1157 211.198 77.3516 211.068 76.624 210.81C75.6279 210.448 74.8271 209.914 74.2217 209.206C73.4502 208.302 73.0645 207.157 73.0645 205.771C73.0645 204.77 73.3208 203.859 73.8335 203.039C74.3462 202.213 75.0542 201.562 75.9575 201.083C76.8657 200.604 77.8398 200.365 78.8799 200.365C79.9248 200.365 80.8599 200.597 81.6851 201.061C82.5103 201.525 83.1719 202.162 83.6699 202.973C84.168 203.783 84.417 204.662 84.417 205.609C84.417 206.552 84.1704 207.45 83.6772 208.305C83.1841 209.154 82.5078 209.843 81.6484 210.37ZM74.6025 205.536C74.6025 206.347 74.7808 207.152 75.1372 207.953C75.4985 208.749 76.0137 209.398 76.6826 209.901C77.3516 210.404 78.1255 210.656 79.0044 210.656C80.2544 210.656 81.2285 210.177 81.9268 209.22C82.5566 208.356 82.8716 207.252 82.8716 205.91C82.8716 204.567 82.4858 203.41 81.7144 202.438C81.3384 201.964 80.877 201.586 80.3301 201.303C79.7881 201.015 79.2388 200.871 78.6821 200.871C78.1304 200.871 77.6763 200.932 77.3198 201.054C76.9683 201.176 76.6484 201.344 76.3604 201.559C76.0723 201.769 75.8184 202.021 75.5986 202.313C75.3789 202.606 75.1958 202.924 75.0493 203.266C74.7515 203.969 74.6025 204.726 74.6025 205.536ZM90.7451 210.355C90.7207 210.272 90.689 210.246 90.6499 210.275C90.6108 210.299 90.4521 210.382 90.1738 210.524C89.2607 210.978 88.499 211.205 87.8887 211.205C87.2783 211.205 86.8389 211.01 86.5703 210.619C86.4727 210.473 86.4238 210.292 86.4238 210.077V205.609C86.4092 205.468 86.3457 205.346 86.2334 205.243C86.082 205.116 85.9233 205.048 85.7573 205.038C85.5962 205.028 85.5156 204.979 85.5156 204.892C85.5156 204.799 85.5547 204.743 85.6328 204.723L87.3101 204.24C87.3687 204.22 87.4248 204.21 87.4785 204.21C87.5371 204.21 87.5664 204.252 87.5664 204.335V209.25C87.5664 209.591 87.7178 209.855 88.0205 210.041C88.3232 210.226 88.709 210.319 89.1777 210.319C89.6514 210.319 90.0762 210.175 90.4521 209.887C90.5693 209.794 90.667 209.691 90.7451 209.579V205.609C90.7305 205.468 90.667 205.346 90.5547 205.243C90.4033 205.116 90.2446 205.048 90.0786 205.038C89.9175 205.028 89.8369 204.979 89.8369 204.892C89.8369 204.799 89.876 204.743 89.9541 204.723L91.6313 204.24C91.6899 204.22 91.7461 204.21 91.7998 204.21C91.8584 204.21 91.8877 204.259 91.8877 204.357V209.557C91.9121 209.772 91.9731 209.926 92.0708 210.019C92.1685 210.111 92.3271 210.158 92.5469 210.158L92.9717 210.128C93.001 210.128 93.0156 210.158 93.0156 210.216C93.0156 210.27 92.979 210.314 92.9058 210.348L90.9575 211.154C90.8989 211.183 90.8477 211.198 90.8037 211.198C90.7646 211.198 90.7451 211.137 90.7451 211.015V210.355ZM98.4209 205.749C98.3623 205.739 98.2769 205.707 98.1646 205.653C97.7593 205.468 97.4419 205.375 97.2124 205.375C96.9829 205.375 96.7412 205.519 96.4873 205.807C96.2383 206.09 96.1138 206.347 96.1138 206.576V209.887C96.1138 210.253 96.3262 210.497 96.751 210.619C96.9365 210.668 97.1099 210.705 97.271 210.729C97.4321 210.749 97.5347 210.768 97.5786 210.788C97.6274 210.807 97.6519 210.846 97.6519 210.905C97.6519 210.958 97.6274 210.99 97.5786 211H93.9092C93.8604 210.99 93.8359 210.956 93.8359 210.897C93.8359 210.81 93.9507 210.751 94.1802 210.722C94.7075 210.644 94.9712 210.365 94.9712 209.887V206.012C94.9712 205.807 94.8589 205.666 94.6343 205.587C94.5366 205.553 94.4316 205.526 94.3193 205.507C94.207 205.482 94.1167 205.46 94.0483 205.441C93.9849 205.421 93.9434 205.404 93.9238 205.39C93.9092 205.37 93.9019 205.333 93.9019 205.28C93.9019 205.221 93.9385 205.172 94.0117 205.133L95.8794 204.254C95.938 204.225 95.9746 204.21 95.9893 204.21C96.0723 204.21 96.1138 204.269 96.1138 204.386V205.573C96.1138 205.631 96.1284 205.661 96.1577 205.661C96.1968 205.661 96.2969 205.546 96.458 205.316C96.9219 204.667 97.3052 204.342 97.6079 204.342C97.7788 204.342 98.04 204.411 98.3916 204.547C98.748 204.684 98.9263 204.799 98.9263 204.892C98.9263 205.004 98.8701 205.175 98.7578 205.404C98.6455 205.634 98.5332 205.749 98.4209 205.749ZM109.144 200.761C109.192 200.761 109.217 200.814 109.217 200.922L109.407 202.482C109.427 202.58 109.437 202.643 109.437 202.672C109.437 202.697 109.397 202.709 109.319 202.709C109.246 202.709 109.2 202.699 109.18 202.68C109.161 202.66 109.141 202.628 109.122 202.584C109.102 202.536 109.078 202.482 109.048 202.423C109.024 202.365 108.997 202.306 108.968 202.248C108.865 202.023 108.704 201.801 108.484 201.581C107.947 201.063 107.342 200.805 106.668 200.805C106.263 200.805 105.879 200.937 105.518 201.2C105.157 201.464 104.976 201.776 104.976 202.138C104.976 202.494 105.042 202.804 105.174 203.068C105.311 203.332 105.489 203.576 105.708 203.8C105.928 204.025 106.18 204.24 106.463 204.445C106.746 204.65 107.034 204.857 107.327 205.067C108.104 205.609 108.655 206.073 108.982 206.459C109.495 207.055 109.773 207.724 109.817 208.466C109.817 209.296 109.498 209.96 108.858 210.458C108.223 210.951 107.483 211.198 106.639 211.198C106.097 211.198 105.665 211.142 105.342 211.029C105.025 210.922 104.805 210.844 104.683 210.795C104.561 210.746 104.471 210.722 104.412 210.722C104.358 210.722 104.324 210.724 104.31 210.729L103.951 210.802C103.887 210.802 103.848 210.751 103.833 210.648C103.692 209.438 103.621 208.795 103.621 208.722C103.621 208.644 103.626 208.593 103.636 208.568C103.65 208.539 103.685 208.524 103.738 208.524C103.875 208.524 104 208.72 104.112 209.11C104.625 210.209 105.477 210.758 106.668 210.758C107.215 210.758 107.681 210.592 108.067 210.26C108.458 209.928 108.653 209.496 108.653 208.964C108.653 208.114 108.145 207.323 107.129 206.591C106.841 206.386 106.426 206.1 105.884 205.734C105.342 205.368 104.91 205.001 104.588 204.635C104.085 204.069 103.833 203.439 103.833 202.746C103.833 202.047 104.109 201.476 104.661 201.032C105.218 200.587 105.855 200.365 106.573 200.365C106.944 200.365 107.352 200.429 107.796 200.556C108.245 200.683 108.558 200.768 108.733 200.812L109.144 200.761ZM112.769 205.368C112.74 205.368 112.725 205.39 112.725 205.434V209.477C112.725 209.77 112.789 209.999 112.916 210.165C113.047 210.331 113.213 210.414 113.414 210.414C113.614 210.414 113.787 210.382 113.934 210.319C114.085 210.25 114.214 210.177 114.322 210.099C114.434 210.021 114.534 209.95 114.622 209.887C114.71 209.818 114.788 209.784 114.856 209.784C114.925 209.784 114.959 209.801 114.959 209.835C114.959 209.953 114.947 210.028 114.922 210.062C114.336 210.819 113.77 211.198 113.223 211.198C112.681 211.198 112.271 211.027 111.993 210.685C111.719 210.338 111.583 209.926 111.583 209.447V205.368H111.033C110.896 205.368 110.823 205.324 110.813 205.236C110.809 205.148 110.823 205.092 110.857 205.067C111.116 204.901 111.473 204.604 111.927 204.174C111.976 204.12 112.042 204.04 112.125 203.932C112.208 203.825 112.327 203.678 112.483 203.493C112.645 203.307 112.767 203.214 112.85 203.214C112.933 203.214 112.974 203.249 112.974 203.317C112.974 203.327 112.891 203.646 112.725 204.276C112.725 204.364 112.764 204.411 112.842 204.416H114.71C114.925 204.416 115.032 204.718 115.032 205.324C115.032 205.353 115.013 205.368 114.974 205.368H112.769ZM115.772 207.711C115.772 206.75 116.111 205.924 116.79 205.236C117.474 204.542 118.292 204.196 119.244 204.196C120.196 204.196 121.023 204.533 121.727 205.207C122.43 205.875 122.781 206.703 122.781 207.689C122.781 208.676 122.447 209.508 121.778 210.187C121.114 210.861 120.279 211.198 119.273 211.198C118.267 211.198 117.432 210.856 116.768 210.172C116.104 209.489 115.772 208.668 115.772 207.711ZM117.596 209.594C118.074 210.399 118.726 210.802 119.551 210.802C120.191 210.802 120.679 210.546 121.016 210.033C121.358 209.521 121.529 208.891 121.529 208.144C121.529 207.396 121.29 206.63 120.811 205.844C120.337 205.058 119.698 204.665 118.892 204.665C118.301 204.665 117.835 204.921 117.493 205.434C117.156 205.941 116.988 206.588 116.988 207.375C116.988 208.156 117.19 208.896 117.596 209.594ZM128.304 205.749C128.245 205.739 128.16 205.707 128.047 205.653C127.642 205.468 127.325 205.375 127.095 205.375C126.866 205.375 126.624 205.519 126.37 205.807C126.121 206.09 125.997 206.347 125.997 206.576V209.887C125.997 210.253 126.209 210.497 126.634 210.619C126.819 210.668 126.993 210.705 127.154 210.729C127.315 210.749 127.417 210.768 127.461 210.788C127.51 210.807 127.535 210.846 127.535 210.905C127.535 210.958 127.51 210.99 127.461 211H123.792C123.743 210.99 123.719 210.956 123.719 210.897C123.719 210.81 123.833 210.751 124.063 210.722C124.59 210.644 124.854 210.365 124.854 209.887V206.012C124.854 205.807 124.742 205.666 124.517 205.587C124.419 205.553 124.314 205.526 124.202 205.507C124.09 205.482 124 205.46 123.931 205.441C123.868 205.421 123.826 205.404 123.807 205.39C123.792 205.37 123.785 205.333 123.785 205.28C123.785 205.221 123.821 205.172 123.895 205.133L125.762 204.254C125.821 204.225 125.857 204.21 125.872 204.21C125.955 204.21 125.997 204.269 125.997 204.386V205.573C125.997 205.631 126.011 205.661 126.041 205.661C126.08 205.661 126.18 205.546 126.341 205.316C126.805 204.667 127.188 204.342 127.491 204.342C127.662 204.342 127.923 204.411 128.274 204.547C128.631 204.684 128.809 204.799 128.809 204.892C128.809 205.004 128.753 205.175 128.641 205.404C128.528 205.634 128.416 205.749 128.304 205.749ZM136.478 204.408C136.531 204.423 136.558 204.457 136.558 204.511C136.558 204.564 136.553 204.601 136.543 204.621C136.534 204.635 136.509 204.65 136.47 204.665C136.436 204.674 136.385 204.684 136.316 204.694C136.253 204.704 136.15 204.723 136.009 204.752C135.867 204.777 135.74 204.875 135.628 205.045C135.516 205.216 135.396 205.453 135.269 205.756L131.827 214.289L131.351 215.299C131.229 215.558 130.972 215.688 130.582 215.688C130.411 215.688 130.274 215.631 130.171 215.519C130.069 215.407 130.018 215.272 130.018 215.116C130.018 214.965 130.054 214.853 130.127 214.779C130.206 214.711 130.296 214.655 130.398 214.611C130.501 214.567 130.606 214.525 130.713 214.486C130.826 214.452 130.95 214.369 131.087 214.237C131.224 214.11 131.304 214.015 131.329 213.952C132.149 212.116 132.559 211.156 132.559 211.073C132.559 210.99 132.51 210.888 132.413 210.766L129.996 205.719C129.815 205.226 129.505 204.909 129.065 204.767C129.031 204.757 128.99 204.75 128.941 204.745C128.736 204.726 128.633 204.665 128.633 204.562C128.633 204.459 128.692 204.408 128.809 204.408H132.068C132.107 204.408 132.127 204.447 132.127 204.525C132.127 204.599 132.093 204.65 132.024 204.679C131.956 204.704 131.805 204.716 131.57 204.716C131.194 204.716 131.006 204.862 131.006 205.155L131.072 205.331L132.969 209.396C133.067 209.645 133.165 209.638 133.262 209.374C133.272 209.35 133.333 209.191 133.445 208.898C134.109 207.213 134.48 206.239 134.559 205.976C134.642 205.712 134.683 205.514 134.683 205.382C134.683 205.25 134.612 205.111 134.471 204.965C134.334 204.818 134.144 204.745 133.899 204.745C133.66 204.745 133.541 204.674 133.541 204.533C133.541 204.45 133.594 204.408 133.702 204.408H136.478Z" fill="black"/>
<path d="M81.7417 101.709C81.7417 101.67 81.7612 101.651 81.8003 101.651H81.9614L84.3125 101.6C84.5957 101.59 84.9033 101.585 85.2354 101.585H86.1509C87.0005 101.585 87.6377 101.617 88.0625 101.68C88.4922 101.744 88.9121 101.819 89.3223 101.907C89.7373 101.99 90.1768 102.183 90.6406 102.486C91.1094 102.789 91.5146 103.155 91.8564 103.584C92.5791 104.502 92.9404 105.494 92.9404 106.558C92.9404 107.623 92.6621 108.577 92.1055 109.422C91.3047 110.647 90.145 111.448 88.6265 111.824C88.1431 111.941 87.6475 112 87.1396 112H81.8003C81.7612 112 81.7417 111.98 81.7417 111.941V111.736C81.7417 111.697 81.7612 111.678 81.8003 111.678H81.9614C82.8501 111.678 83.2944 111.395 83.2944 110.828V102.801C83.2944 102.527 83.1895 102.322 82.9795 102.186C82.7695 102.044 82.5327 101.973 82.269 101.973H81.8003C81.7612 101.973 81.7417 101.954 81.7417 101.915V101.709ZM84.9058 101.929C84.7837 101.929 84.7227 101.995 84.7227 102.127V111.084C84.7227 111.446 85.062 111.634 85.7407 111.648C85.9409 111.653 86.1509 111.656 86.3706 111.656C87.9282 111.656 89.1514 111.219 90.04 110.345C90.9336 109.471 91.3804 108.309 91.3804 106.858C91.3804 105.403 90.9678 104.219 90.1426 103.306C89.3223 102.388 88.2407 101.929 86.8979 101.929H84.9058ZM95.2915 108.14C95.2085 108.14 95.167 108.318 95.167 108.675C95.167 109.432 95.3916 110.066 95.8408 110.579C96.29 111.092 96.8467 111.348 97.5107 111.348C98.1797 111.348 98.8218 111.06 99.437 110.484C99.4468 110.474 99.459 110.469 99.4736 110.469H99.5103C99.5396 110.469 99.5664 110.494 99.5908 110.542C99.6201 110.586 99.647 110.616 99.6714 110.63C99.105 111.319 98.4385 111.795 97.6719 112.059C97.4082 112.151 97.1104 112.198 96.7783 112.198C96.4463 112.198 96.1094 112.107 95.7676 111.927C95.4258 111.741 95.1328 111.5 94.8887 111.202C94.3711 110.582 94.1123 109.81 94.1123 108.887C94.1123 107.959 94.3931 107.115 94.9546 106.353C95.521 105.591 96.2974 105.21 97.2837 105.21C97.9917 105.21 98.5703 105.528 99.0195 106.163C99.4688 106.792 99.6934 107.347 99.6934 107.825C99.6934 108.035 99.6421 108.14 99.5396 108.14H95.2915ZM95.3721 107.437C95.3721 107.53 95.416 107.576 95.5039 107.576H98.2651C98.3921 107.576 98.4556 107.5 98.4556 107.349C98.4556 106.998 98.2969 106.639 97.9795 106.272C97.667 105.901 97.3228 105.716 96.9468 105.716C96.5806 105.716 96.2461 105.882 95.9434 106.214C95.6455 106.546 95.4551 106.924 95.3721 107.349V107.437ZM104.476 106.99C104.476 107.098 104.435 107.151 104.352 107.151C104.273 107.151 104.212 107.093 104.168 106.976C104.051 106.653 103.875 106.368 103.641 106.119C103.412 105.87 103.126 105.745 102.784 105.745C102.335 105.745 102.032 105.97 101.876 106.419C101.827 106.57 101.803 106.727 101.803 106.888C101.803 107.049 101.905 107.229 102.11 107.43C102.315 107.625 102.652 107.859 103.121 108.133C103.59 108.406 103.932 108.638 104.146 108.829C104.635 109.263 104.879 109.766 104.879 110.337C104.879 110.909 104.669 111.363 104.249 111.7C103.829 112.032 103.341 112.198 102.784 112.198C102.486 112.198 102.215 112.156 101.971 112.073C101.732 111.995 101.593 111.956 101.554 111.956C101.52 111.956 101.461 111.995 101.378 112.073C101.3 112.156 101.236 112.198 101.188 112.198H101.063C101.034 112.198 100.997 111.934 100.953 111.407C100.909 110.879 100.887 110.567 100.887 110.469C100.887 110.372 100.895 110.318 100.909 110.308C100.929 110.298 100.958 110.293 100.997 110.293C101.036 110.293 101.068 110.306 101.092 110.33C101.122 110.354 101.146 110.386 101.166 110.425C101.185 110.459 101.2 110.496 101.209 110.535C101.224 110.574 101.256 110.647 101.305 110.755C101.637 111.463 102.149 111.817 102.843 111.817C103.15 111.817 103.397 111.705 103.583 111.48C103.768 111.25 103.861 110.997 103.861 110.718C103.861 110.44 103.788 110.206 103.641 110.015C103.495 109.825 103.312 109.651 103.092 109.495C102.877 109.339 102.643 109.188 102.389 109.041C101.402 108.465 100.909 107.828 100.909 107.129C100.909 106.607 101.134 106.158 101.583 105.782C102.032 105.401 102.494 105.21 102.967 105.21C103.441 105.21 103.79 105.262 104.015 105.364C104.244 105.467 104.378 105.555 104.417 105.628C104.457 105.696 104.476 105.926 104.476 106.316V106.99ZM105.948 112C105.899 111.99 105.875 111.956 105.875 111.897C105.875 111.81 105.99 111.751 106.219 111.722C106.747 111.644 107.01 111.365 107.01 110.887V107.012C107.01 106.807 106.898 106.666 106.673 106.587C106.576 106.553 106.471 106.526 106.358 106.507C106.246 106.482 106.156 106.46 106.087 106.441C106.024 106.421 105.982 106.404 105.963 106.39C105.948 106.37 105.941 106.333 105.941 106.28C105.941 106.221 105.978 106.172 106.051 106.133L107.918 105.254C107.977 105.225 108.014 105.21 108.028 105.21C108.111 105.21 108.153 105.269 108.153 105.386V110.887C108.153 111.365 108.417 111.644 108.944 111.722C109.173 111.751 109.288 111.802 109.288 111.875C109.288 111.949 109.264 111.99 109.215 112H105.948ZM107.472 103.152C107.271 103.152 107.093 103.089 106.937 102.962C106.786 102.835 106.71 102.659 106.71 102.435C106.71 102.205 106.783 102.024 106.93 101.893C107.076 101.761 107.25 101.695 107.45 101.695C107.655 101.695 107.826 101.773 107.962 101.929C108.104 102.085 108.175 102.254 108.175 102.435C108.175 102.615 108.109 102.781 107.977 102.933C107.845 103.079 107.677 103.152 107.472 103.152ZM115.653 105.914C115.653 105.914 116.307 105.884 117.616 105.826C117.728 105.826 117.801 105.838 117.835 105.862C117.87 105.887 117.906 105.972 117.945 106.119C117.984 106.26 118.004 106.395 118.004 106.521C118.004 106.648 117.992 106.722 117.967 106.741C117.943 106.761 117.894 106.771 117.821 106.771H116.195C116.224 106.824 116.256 106.88 116.29 106.939C116.324 106.998 116.368 107.095 116.422 107.232C116.476 107.369 116.502 107.581 116.502 107.869C116.502 108.152 116.432 108.45 116.29 108.763C116.153 109.07 115.951 109.344 115.682 109.583C115.086 110.12 114.315 110.389 113.368 110.389C113.119 110.389 112.845 110.342 112.547 110.25C112.474 110.328 112.376 110.401 112.254 110.469C112.132 110.533 112.013 110.599 111.896 110.667C111.603 110.833 111.456 110.999 111.456 111.165C111.456 111.58 112.145 111.792 113.521 111.802C114.898 111.812 115.802 111.858 116.231 111.941C116.666 112.02 117.003 112.178 117.242 112.417C117.618 112.793 117.806 113.223 117.806 113.707C117.806 114.122 117.628 114.549 117.271 114.988C116.651 115.765 115.704 116.282 114.43 116.541C113.976 116.634 113.495 116.68 112.987 116.68C112.064 116.68 111.363 116.512 110.885 116.175C110.406 115.843 110.167 115.44 110.167 114.966C110.167 114.708 110.228 114.493 110.35 114.322C110.472 114.156 110.626 113.997 110.812 113.846C111.002 113.699 111.209 113.543 111.434 113.377C111.659 113.216 111.874 113.008 112.079 112.754C111.61 112.715 111.207 112.566 110.87 112.308C110.538 112.049 110.372 111.795 110.372 111.546C110.372 111.297 110.438 111.114 110.57 110.997C110.702 110.875 110.863 110.772 111.053 110.689C111.244 110.601 111.444 110.521 111.654 110.447C111.864 110.374 112.047 110.279 112.203 110.162C111.656 109.947 111.234 109.651 110.936 109.275C110.638 108.895 110.489 108.479 110.489 108.03C110.489 107.195 110.792 106.514 111.397 105.987C112.008 105.459 112.743 105.196 113.602 105.196C114.461 105.196 115.145 105.435 115.653 105.914ZM111.668 113.553C111.556 113.665 111.463 113.785 111.39 113.912C111.317 114.039 111.28 114.197 111.28 114.388C111.28 114.583 111.349 114.786 111.485 114.996C111.627 115.21 111.817 115.403 112.057 115.574C112.584 115.965 113.219 116.16 113.961 116.16C114.703 116.16 115.375 115.943 115.975 115.508C116.581 115.079 116.883 114.605 116.883 114.087C116.883 113.575 116.634 113.23 116.136 113.055C115.902 112.977 115.299 112.928 114.327 112.908C113.355 112.889 112.726 112.862 112.438 112.828C112.311 112.974 112.179 113.104 112.042 113.216C111.91 113.328 111.786 113.44 111.668 113.553ZM115.301 107.862C115.301 107.173 115.128 106.614 114.781 106.185C114.439 105.75 113.985 105.533 113.419 105.533C112.687 105.533 112.169 105.877 111.866 106.565C111.749 106.829 111.69 107.132 111.69 107.474C111.69 108.172 111.834 108.753 112.123 109.217C112.474 109.773 112.936 110.052 113.507 110.052C114.078 110.052 114.52 109.859 114.833 109.473C115.145 109.087 115.301 108.55 115.301 107.862ZM123.951 109.693L123.937 108.147C123.937 107.518 123.883 107.076 123.775 106.822C123.668 106.568 123.531 106.377 123.365 106.25C123.199 106.119 122.975 106.053 122.691 106.053C122.413 106.053 121.82 106.272 120.912 106.712C120.79 106.785 120.726 106.854 120.721 106.917V110.857C120.721 111.351 120.985 111.634 121.512 111.707C121.742 111.741 121.856 111.797 121.856 111.875C121.856 111.949 121.832 111.99 121.783 112H118.517C118.468 111.99 118.443 111.956 118.443 111.897C118.443 111.805 118.558 111.741 118.788 111.707C119.315 111.634 119.579 111.351 119.579 110.857V106.653C119.579 106.448 119.466 106.307 119.242 106.229C119.144 106.194 119.039 106.167 118.927 106.148C118.814 106.124 118.724 106.102 118.656 106.082C118.592 106.062 118.551 106.045 118.531 106.031C118.517 106.011 118.509 105.975 118.509 105.921C118.509 105.862 118.546 105.813 118.619 105.774L120.487 104.896C120.545 104.866 120.582 104.852 120.597 104.852C120.68 104.852 120.721 104.91 120.721 105.027V106.17C120.736 106.219 120.755 106.243 120.78 106.243C120.809 106.243 120.914 106.199 121.095 106.111C121.515 105.901 121.937 105.699 122.362 105.503C122.787 105.308 123.138 105.21 123.417 105.21C124.544 105.21 125.108 106.238 125.108 108.294L125.042 110.433V110.857C125.042 111.238 125.233 111.487 125.614 111.604C125.775 111.658 125.929 111.697 126.075 111.722C126.227 111.741 126.324 111.761 126.368 111.78C126.417 111.8 126.441 111.839 126.441 111.897C126.441 111.956 126.417 111.99 126.368 112H122.838C122.789 111.99 122.765 111.956 122.765 111.897C122.765 111.805 122.879 111.741 123.109 111.707C123.631 111.634 123.893 111.331 123.893 110.799C123.932 110.555 123.951 110.186 123.951 109.693Z" fill="black"/>
<path d="M84.5562 243.941C84.5562 243.98 84.5366 244 84.4976 244H80.7549C80.7158 244 80.6963 243.98 80.6963 243.941V243.766C80.6963 243.727 80.728 243.707 80.7915 243.707C81.4604 243.678 81.9121 243.321 82.1465 242.638L85.1348 233.988C85.1396 233.978 85.1421 233.966 85.1421 233.951L85.0615 233.709C85.0615 233.685 85.0713 233.673 85.0908 233.673H86.5557C86.5654 233.678 86.5776 233.683 86.5923 233.688C86.6118 233.692 86.6265 233.707 86.6362 233.731L89.7344 242.425C89.8027 242.557 89.8564 242.677 89.8955 242.784C89.9395 242.892 89.9883 242.989 90.042 243.077C90.1592 243.277 90.3521 243.431 90.6206 243.539C90.8452 243.651 91.0503 243.707 91.2358 243.707C91.2749 243.707 91.2944 243.729 91.2944 243.773V243.941C91.2944 243.98 91.2749 244 91.2358 244H86.7534C86.7144 244 86.6948 243.98 86.6948 243.941V243.766C86.6948 243.727 86.7852 243.702 86.9658 243.692C87.1465 243.683 87.2954 243.673 87.4126 243.663C88.0913 243.59 88.4307 243.36 88.4307 242.975C88.4307 242.945 88.4258 242.911 88.416 242.872L87.3101 239.752C87.3052 239.742 87.2954 239.72 87.2808 239.686C87.2222 239.52 87.1196 239.437 86.9731 239.437H84.373C84.2266 239.437 84.1118 239.518 84.0288 239.679C84.0142 239.713 84.0068 239.732 84.0068 239.737L82.9082 242.953V243.019C82.9082 243.146 82.9741 243.26 83.106 243.363C83.4038 243.592 83.8042 243.707 84.3071 243.707H84.4976C84.5366 243.707 84.5562 243.727 84.5562 243.766V243.941ZM86.7241 238.624C86.812 238.624 86.856 238.587 86.856 238.514C86.856 238.475 86.8462 238.431 86.8267 238.382L85.7354 235.379C85.6865 235.248 85.6499 235.182 85.6255 235.182C85.6011 235.182 85.562 235.25 85.5083 235.387L84.4829 238.382C84.4634 238.431 84.4536 238.485 84.4536 238.543C84.4536 238.597 84.4902 238.624 84.5635 238.624H86.7241ZM103.064 237.408C103.118 237.423 103.145 237.457 103.145 237.511C103.145 237.564 103.138 237.604 103.123 237.628C103.108 237.652 103.001 237.679 102.801 237.708C102.601 237.738 102.457 237.796 102.369 237.884C102.286 237.967 102.21 238.062 102.142 238.17C102.078 238.277 102.022 238.39 101.973 238.507C101.924 238.619 101.878 238.722 101.834 238.814L99.8345 243.985C99.7759 244.127 99.7222 244.198 99.6733 244.198H99.0947C99.0459 244.198 98.9922 244.122 98.9336 243.971L97.3076 239.569L95.6011 243.985C95.5425 244.127 95.4888 244.198 95.4399 244.198H94.8613C94.8125 244.198 94.7588 244.122 94.7002 243.971L92.7593 238.719C92.5786 238.226 92.2686 237.909 91.8291 237.767C91.7949 237.757 91.7534 237.75 91.7046 237.745C91.4995 237.726 91.397 237.665 91.397 237.562C91.397 237.459 91.4556 237.408 91.5728 237.408H94.832C94.8711 237.408 94.8906 237.447 94.8906 237.525C94.8906 237.599 94.8638 237.647 94.8101 237.672C94.7222 237.706 94.5708 237.721 94.356 237.716C93.9995 237.706 93.8213 237.853 93.8213 238.155L93.8359 238.331L95.3228 242.396C95.4204 242.645 95.5181 242.638 95.6157 242.374C95.6255 242.35 95.8281 241.837 96.2236 240.836C96.624 239.835 96.8804 239.129 96.9927 238.719C96.812 238.226 96.502 237.909 96.0625 237.767C96.0283 237.757 95.9868 237.75 95.938 237.745C95.7329 237.726 95.6304 237.665 95.6304 237.562C95.6304 237.459 95.689 237.408 95.8062 237.408H99.0654C99.1045 237.408 99.124 237.447 99.124 237.525C99.124 237.599 99.0972 237.647 99.0435 237.672C98.9556 237.706 98.8042 237.721 98.5894 237.716C98.2329 237.706 98.0547 237.853 98.0547 238.155L98.0693 238.331L99.5562 242.396C99.6538 242.645 99.7515 242.638 99.8491 242.374C99.8589 242.35 99.9224 242.191 100.04 241.898C100.64 240.394 100.994 239.466 101.102 239.115C101.214 238.758 101.27 238.514 101.27 238.382C101.27 238.25 101.199 238.114 101.058 237.972C100.916 237.826 100.726 237.752 100.486 237.752C100.247 237.752 100.127 237.679 100.127 237.533C100.127 237.45 100.181 237.408 100.289 237.408H103.064ZM108.404 242.792C108.404 242.918 108.462 243.021 108.58 243.099C108.702 243.172 108.841 243.209 108.997 243.209C109.153 243.209 109.283 243.17 109.385 243.092C109.493 243.009 109.566 242.967 109.605 242.967C109.644 242.967 109.664 243.021 109.664 243.128C109.664 243.231 109.615 243.319 109.517 243.392C108.785 243.929 108.289 244.198 108.03 244.198C107.718 244.198 107.464 243.873 107.269 243.224C107.254 243.175 107.242 243.153 107.232 243.158C106.626 243.612 106.246 243.885 106.089 243.978C105.689 244.208 105.286 244.244 104.881 244.088C104.48 243.932 104.19 243.673 104.009 243.312C103.921 243.126 103.877 242.928 103.877 242.718C103.877 242.303 104.031 241.974 104.339 241.729C104.646 241.485 105.232 241.251 106.097 241.026C106.39 240.948 106.651 240.848 106.88 240.726C107.11 240.604 107.229 240.526 107.239 240.492C107.254 240.458 107.261 240.426 107.261 240.396V238.99C107.261 238.438 107.046 238.05 106.617 237.826C106.475 237.752 106.304 237.716 106.104 237.716C105.909 237.716 105.708 237.794 105.503 237.95C105.303 238.106 105.203 238.329 105.203 238.617L105.24 238.902C105.21 238.961 105.035 239.059 104.712 239.195C104.39 239.332 104.205 239.405 104.156 239.415C104.078 239.415 104.039 239.322 104.039 239.137C104.039 238.946 104.095 238.736 104.207 238.507C104.319 238.277 104.478 238.067 104.683 237.877C105.162 237.433 105.708 237.21 106.324 237.21C106.939 237.21 107.439 237.381 107.825 237.723C108.211 238.06 108.404 238.463 108.404 238.932V242.792ZM105.027 242.579C105.027 242.813 105.118 243.019 105.298 243.194C105.479 243.365 105.684 243.451 105.914 243.451C106.148 243.451 106.431 243.353 106.763 243.158C107.095 242.958 107.261 242.752 107.261 242.542V241.056C107.261 241.002 107.249 240.975 107.225 240.975C107.2 240.975 107.183 240.978 107.173 240.982L105.474 241.773C105.298 241.9 105.179 242.008 105.115 242.096C105.057 242.184 105.027 242.345 105.027 242.579ZM114.82 238.749C114.761 238.739 114.676 238.707 114.563 238.653C114.158 238.468 113.841 238.375 113.611 238.375C113.382 238.375 113.14 238.519 112.886 238.807C112.637 239.09 112.513 239.347 112.513 239.576V242.887C112.513 243.253 112.725 243.497 113.15 243.619C113.335 243.668 113.509 243.705 113.67 243.729C113.831 243.749 113.934 243.768 113.978 243.788C114.026 243.807 114.051 243.846 114.051 243.905C114.051 243.958 114.026 243.99 113.978 244H110.308C110.259 243.99 110.235 243.956 110.235 243.897C110.235 243.81 110.35 243.751 110.579 243.722C111.106 243.644 111.37 243.365 111.37 242.887V239.012C111.37 238.807 111.258 238.666 111.033 238.587C110.936 238.553 110.831 238.526 110.718 238.507C110.606 238.482 110.516 238.46 110.447 238.441C110.384 238.421 110.342 238.404 110.323 238.39C110.308 238.37 110.301 238.333 110.301 238.28C110.301 238.221 110.337 238.172 110.411 238.133L112.278 237.254C112.337 237.225 112.374 237.21 112.388 237.21C112.471 237.21 112.513 237.269 112.513 237.386V238.573C112.513 238.631 112.527 238.661 112.557 238.661C112.596 238.661 112.696 238.546 112.857 238.316C113.321 237.667 113.704 237.342 114.007 237.342C114.178 237.342 114.439 237.411 114.791 237.547C115.147 237.684 115.325 237.799 115.325 237.892C115.325 238.004 115.269 238.175 115.157 238.404C115.044 238.634 114.932 238.749 114.82 238.749ZM120.364 237.518C120.579 237.591 120.711 237.628 120.76 237.628C120.809 237.628 120.838 237.628 120.848 237.628C120.862 237.623 120.879 237.591 120.899 237.533V233.753C120.899 233.548 120.787 233.407 120.562 233.329C120.464 233.294 120.359 233.268 120.247 233.248C120.135 233.224 120.044 233.202 119.976 233.182C119.913 233.163 119.871 233.146 119.852 233.131C119.837 233.111 119.83 233.075 119.83 233.021C119.83 232.962 119.866 232.914 119.939 232.875L121.807 231.996C121.866 231.966 121.902 231.952 121.917 231.952C122 231.952 122.042 232.01 122.042 232.127V242.557C122.066 242.772 122.127 242.926 122.225 243.019C122.322 243.111 122.481 243.158 122.701 243.158L123.125 243.128C123.155 243.128 123.169 243.158 123.169 243.216C123.169 243.27 123.133 243.314 123.06 243.348L121.111 244.154C121.053 244.183 121.001 244.198 120.958 244.198C120.918 244.198 120.899 244.137 120.899 244.015V243.348C120.899 243.299 120.887 243.275 120.862 243.275C120.828 243.275 120.625 243.385 120.254 243.604C119.117 244.278 118.157 244.378 117.376 243.905C116.751 243.524 116.329 242.921 116.109 242.096C116.006 241.71 115.955 241.302 115.955 240.873C115.955 240.438 116.043 240.008 116.219 239.583C116.399 239.154 116.646 238.778 116.958 238.456C117.647 237.752 118.477 237.401 119.449 237.401C119.844 237.401 120.149 237.44 120.364 237.518ZM117.061 240.66C117.061 241.397 117.266 242.044 117.676 242.601C118.086 243.153 118.658 243.429 119.39 243.429C119.712 243.429 120.044 243.351 120.386 243.194C120.728 243.033 120.899 242.911 120.899 242.828V239.049C120.899 238.956 120.835 238.846 120.708 238.719C120.318 238.182 119.798 237.914 119.148 237.914C118.504 237.914 117.994 238.187 117.618 238.734C117.247 239.276 117.061 239.918 117.061 240.66ZM127.381 238.99C127.381 239.098 127.339 239.151 127.256 239.151C127.178 239.151 127.117 239.093 127.073 238.976C126.956 238.653 126.78 238.368 126.546 238.119C126.316 237.87 126.031 237.745 125.689 237.745C125.24 237.745 124.937 237.97 124.781 238.419C124.732 238.57 124.708 238.727 124.708 238.888C124.708 239.049 124.81 239.229 125.015 239.43C125.22 239.625 125.557 239.859 126.026 240.133C126.495 240.406 126.836 240.638 127.051 240.829C127.54 241.263 127.784 241.766 127.784 242.337C127.784 242.909 127.574 243.363 127.154 243.7C126.734 244.032 126.246 244.198 125.689 244.198C125.391 244.198 125.12 244.156 124.876 244.073C124.637 243.995 124.498 243.956 124.458 243.956C124.424 243.956 124.366 243.995 124.283 244.073C124.205 244.156 124.141 244.198 124.092 244.198H123.968C123.938 244.198 123.902 243.934 123.858 243.407C123.814 242.879 123.792 242.567 123.792 242.469C123.792 242.372 123.799 242.318 123.814 242.308C123.833 242.298 123.863 242.293 123.902 242.293C123.941 242.293 123.973 242.306 123.997 242.33C124.026 242.354 124.051 242.386 124.07 242.425C124.09 242.459 124.104 242.496 124.114 242.535C124.129 242.574 124.161 242.647 124.209 242.755C124.542 243.463 125.054 243.817 125.748 243.817C126.055 243.817 126.302 243.705 126.487 243.48C126.673 243.25 126.766 242.997 126.766 242.718C126.766 242.44 126.692 242.206 126.546 242.015C126.399 241.825 126.216 241.651 125.997 241.495C125.782 241.339 125.547 241.188 125.293 241.041C124.307 240.465 123.814 239.828 123.814 239.129C123.814 238.607 124.039 238.158 124.488 237.782C124.937 237.401 125.398 237.21 125.872 237.21C126.346 237.21 126.695 237.262 126.919 237.364C127.149 237.467 127.283 237.555 127.322 237.628C127.361 237.696 127.381 237.926 127.381 238.316V238.99Z" fill="black"/>
<path d="M62.1055 167.966C61.5195 167.966 61.2266 168.19 61.2266 168.64C61.2266 168.723 61.2412 168.811 61.2705 168.903C61.3047 168.996 61.334 169.094 61.3584 169.196L64.1636 175.949C64.188 175.998 64.2271 176.022 64.2808 176.022C64.3345 176.022 64.3784 175.996 64.4126 175.942L66.0312 172.133L64.603 168.684C64.5151 168.464 64.1489 168.254 63.5044 168.054C63.314 167.995 63.1895 167.966 63.1309 167.966C63.0771 167.966 63.0503 167.946 63.0503 167.907V167.731C63.0503 167.692 63.0698 167.673 63.1089 167.673H69.8179C69.8569 167.673 69.8765 167.692 69.8765 167.731V167.907C69.8765 167.946 69.8569 167.966 69.8179 167.966H69.5469C69.0781 167.966 68.7217 168.195 68.4775 168.654C68.3945 168.811 68.3091 168.994 68.2212 169.204L67.269 171.438L69.144 175.949C69.1685 175.998 69.2075 176.022 69.2612 176.022C69.3149 176.022 69.3589 175.996 69.3931 175.942L72.4912 168.654C72.5498 168.518 72.5791 168.396 72.5791 168.288C72.5791 168.073 72.2983 167.966 71.7368 167.966H71.2827C71.2437 167.966 71.2241 167.946 71.2241 167.907V167.731C71.2241 167.692 71.2437 167.673 71.2827 167.673H74.542C74.5811 167.673 74.6006 167.692 74.6006 167.731V167.907C74.6006 167.946 74.5811 167.966 74.542 167.966H74.1978C73.9829 167.966 73.8193 168.042 73.707 168.193C73.5996 168.339 73.4458 168.642 73.2456 169.101L69.481 177.941C69.4272 178.059 69.3711 178.129 69.3125 178.154C69.2539 178.183 69.1685 178.198 69.0562 178.198H68.7119C68.5947 178.198 68.5166 178.144 68.4775 178.037L66.5 173.247L64.5005 177.941C64.4468 178.059 64.3906 178.129 64.332 178.154C64.2734 178.183 64.188 178.198 64.0757 178.198H63.7314C63.6143 178.198 63.5386 178.142 63.5044 178.029L59.6226 168.684C59.5444 168.493 59.3027 168.327 58.8975 168.186C58.4922 168.039 58.2407 167.966 58.1431 167.966C58.0503 167.966 58.0039 167.946 58.0039 167.907V167.731C58.0039 167.692 58.0234 167.673 58.0625 167.673H62.2373C62.2764 167.673 62.2959 167.692 62.2959 167.731V167.907C62.2959 167.946 62.2764 167.966 62.2373 167.966H62.1055ZM67.5986 168.31C67.5986 168.105 67.3887 167.993 66.9688 167.973C66.5439 167.998 66.2998 168.146 66.2363 168.42C66.2168 168.488 66.207 168.564 66.207 168.647C66.207 168.725 66.2217 168.811 66.251 168.903C66.2852 168.996 66.3145 169.094 66.3389 169.196L66.8003 170.317L67.5107 168.654C67.5693 168.518 67.5986 168.403 67.5986 168.31ZM76.3218 174.14C76.2388 174.14 76.1973 174.318 76.1973 174.675C76.1973 175.432 76.4219 176.066 76.8711 176.579C77.3203 177.092 77.877 177.348 78.541 177.348C79.21 177.348 79.8521 177.06 80.4673 176.484C80.4771 176.474 80.4893 176.469 80.5039 176.469H80.5405C80.5698 176.469 80.5967 176.494 80.6211 176.542C80.6504 176.586 80.6772 176.616 80.7017 176.63C80.1353 177.319 79.4688 177.795 78.7021 178.059C78.4385 178.151 78.1406 178.198 77.8086 178.198C77.4766 178.198 77.1396 178.107 76.7979 177.927C76.4561 177.741 76.1631 177.5 75.9189 177.202C75.4014 176.582 75.1426 175.81 75.1426 174.887C75.1426 173.959 75.4233 173.115 75.9849 172.353C76.5513 171.591 77.3276 171.21 78.314 171.21C79.022 171.21 79.6006 171.528 80.0498 172.163C80.499 172.792 80.7236 173.347 80.7236 173.825C80.7236 174.035 80.6724 174.14 80.5698 174.14H76.3218ZM76.4023 173.437C76.4023 173.53 76.4463 173.576 76.5342 173.576H79.2954C79.4224 173.576 79.4858 173.5 79.4858 173.349C79.4858 172.998 79.3271 172.639 79.0098 172.272C78.6973 171.901 78.353 171.716 77.9771 171.716C77.6108 171.716 77.2764 171.882 76.9736 172.214C76.6758 172.546 76.4854 172.924 76.4023 173.349V173.437ZM91.4976 177.231C90.8237 177.875 90.0669 178.198 89.2271 178.198C88.9243 178.198 88.5117 178.142 87.9893 178.029C87.9062 178.029 87.8599 178.059 87.8501 178.117C87.8452 178.176 87.8403 178.237 87.8354 178.3V181.428C87.8354 181.794 88.0479 182.038 88.4727 182.16C88.6582 182.209 88.8315 182.243 88.9927 182.263C89.1538 182.287 89.2563 182.309 89.3003 182.329C89.3491 182.348 89.3735 182.385 89.3735 182.438C89.3735 182.497 89.3491 182.531 89.3003 182.541H85.6309C85.582 182.531 85.5576 182.497 85.5576 182.438C85.5576 182.351 85.6724 182.292 85.9019 182.263C86.4292 182.185 86.6929 181.906 86.6929 181.428V172.646C86.6929 172.441 86.5806 172.299 86.356 172.221C86.2583 172.187 86.1533 172.16 86.041 172.141C85.9287 172.116 85.8384 172.094 85.77 172.075C85.7065 172.055 85.665 172.038 85.6455 172.023C85.6309 172.004 85.6235 171.967 85.6235 171.914C85.6235 171.855 85.6602 171.806 85.7334 171.767L87.6011 170.874C87.6401 170.854 87.6792 170.844 87.7183 170.844C87.7964 170.844 87.8354 170.903 87.8354 171.02V171.95C87.8354 172.004 87.8623 172.031 87.916 172.031C87.9746 172.031 88.1113 171.96 88.3262 171.818C88.9463 171.418 89.5908 171.218 90.2598 171.218C90.7285 171.218 91.1582 171.408 91.5488 171.789C92.0615 172.287 92.4033 172.98 92.5742 173.869C92.623 174.123 92.6475 174.394 92.6475 174.682C92.6475 174.965 92.6011 175.266 92.5083 175.583C92.3228 176.213 91.9858 176.762 91.4976 177.231ZM89.4028 171.979C88.7388 171.979 88.2163 172.17 87.8354 172.551V176.667C87.8354 176.911 87.877 177.07 87.96 177.143C88.1748 177.329 88.5044 177.473 88.9487 177.575C89.8276 177.775 90.5112 177.565 90.9995 176.945C91.3462 176.501 91.5195 175.964 91.5195 175.334C91.5195 174.108 91.2437 173.19 90.6919 172.58C90.3599 172.209 89.9302 172.009 89.4028 171.979ZM96.6685 177.722C96.8979 177.751 97.0127 177.81 97.0127 177.897C97.0127 177.956 96.9883 177.99 96.9395 178H93.6729C93.624 177.99 93.5996 177.956 93.5996 177.897C93.5996 177.81 93.7144 177.751 93.9438 177.722C94.4712 177.644 94.7349 177.365 94.7349 176.887V167.753C94.7349 167.548 94.6226 167.407 94.3979 167.329C94.3003 167.294 94.1953 167.268 94.083 167.248C93.9707 167.224 93.8804 167.202 93.812 167.182C93.7485 167.163 93.707 167.146 93.6875 167.131C93.6729 167.111 93.6655 167.075 93.6655 167.021C93.6655 166.962 93.7021 166.914 93.7754 166.875L95.6431 165.996C95.7017 165.966 95.7383 165.952 95.7529 165.952C95.8359 165.952 95.8774 166.01 95.8774 166.127V176.887C95.8774 177.365 96.1411 177.644 96.6685 177.722ZM102.315 176.792C102.315 176.918 102.374 177.021 102.491 177.099C102.613 177.172 102.752 177.209 102.909 177.209C103.065 177.209 103.194 177.17 103.297 177.092C103.404 177.009 103.478 176.967 103.517 176.967C103.556 176.967 103.575 177.021 103.575 177.128C103.575 177.231 103.526 177.319 103.429 177.392C102.696 177.929 102.201 178.198 101.942 178.198C101.629 178.198 101.375 177.873 101.18 177.224C101.166 177.175 101.153 177.153 101.144 177.158C100.538 177.612 100.157 177.885 100.001 177.978C99.6006 178.208 99.1978 178.244 98.7925 178.088C98.3921 177.932 98.1016 177.673 97.9209 177.312C97.833 177.126 97.7891 176.928 97.7891 176.718C97.7891 176.303 97.9429 175.974 98.2505 175.729C98.5581 175.485 99.144 175.251 100.008 175.026C100.301 174.948 100.562 174.848 100.792 174.726C101.021 174.604 101.141 174.526 101.151 174.492C101.166 174.458 101.173 174.426 101.173 174.396V172.99C101.173 172.438 100.958 172.05 100.528 171.826C100.387 171.752 100.216 171.716 100.016 171.716C99.8203 171.716 99.6201 171.794 99.415 171.95C99.2148 172.106 99.1147 172.329 99.1147 172.617L99.1514 172.902C99.1221 172.961 98.9463 173.059 98.624 173.195C98.3018 173.332 98.1162 173.405 98.0674 173.415C97.9893 173.415 97.9502 173.322 97.9502 173.137C97.9502 172.946 98.0063 172.736 98.1187 172.507C98.231 172.277 98.3896 172.067 98.5947 171.877C99.0732 171.433 99.6201 171.21 100.235 171.21C100.851 171.21 101.351 171.381 101.737 171.723C102.123 172.06 102.315 172.463 102.315 172.932V176.792ZM98.939 176.579C98.939 176.813 99.0293 177.019 99.21 177.194C99.3906 177.365 99.5957 177.451 99.8252 177.451C100.06 177.451 100.343 177.353 100.675 177.158C101.007 176.958 101.173 176.752 101.173 176.542V175.056C101.173 175.002 101.161 174.975 101.136 174.975C101.112 174.975 101.095 174.978 101.085 174.982L99.3857 175.773C99.21 175.9 99.0903 176.008 99.0269 176.096C98.9683 176.184 98.939 176.345 98.939 176.579ZM109.654 175.693L109.64 174.147C109.64 173.518 109.586 173.076 109.479 172.822C109.371 172.568 109.234 172.377 109.068 172.25C108.902 172.119 108.678 172.053 108.395 172.053C108.116 172.053 107.523 172.272 106.615 172.712C106.493 172.785 106.429 172.854 106.424 172.917V176.857C106.424 177.351 106.688 177.634 107.215 177.707C107.445 177.741 107.56 177.797 107.56 177.875C107.56 177.949 107.535 177.99 107.486 178H104.22C104.171 177.99 104.146 177.956 104.146 177.897C104.146 177.805 104.261 177.741 104.491 177.707C105.018 177.634 105.282 177.351 105.282 176.857V172.653C105.282 172.448 105.169 172.307 104.945 172.229C104.847 172.194 104.742 172.167 104.63 172.148C104.518 172.124 104.427 172.102 104.359 172.082C104.295 172.062 104.254 172.045 104.234 172.031C104.22 172.011 104.212 171.975 104.212 171.921C104.212 171.862 104.249 171.813 104.322 171.774L106.19 170.896C106.249 170.866 106.285 170.852 106.3 170.852C106.383 170.852 106.424 170.91 106.424 171.027V172.17C106.439 172.219 106.458 172.243 106.483 172.243C106.512 172.243 106.617 172.199 106.798 172.111C107.218 171.901 107.64 171.699 108.065 171.503C108.49 171.308 108.841 171.21 109.12 171.21C110.248 171.21 110.812 172.238 110.812 174.294L110.746 176.433V176.857C110.746 177.238 110.936 177.487 111.317 177.604C111.478 177.658 111.632 177.697 111.778 177.722C111.93 177.741 112.027 177.761 112.071 177.78C112.12 177.8 112.145 177.839 112.145 177.897C112.145 177.956 112.12 177.99 112.071 178H108.541C108.492 177.99 108.468 177.956 108.468 177.897C108.468 177.805 108.583 177.741 108.812 177.707C109.334 177.634 109.596 177.331 109.596 176.799C109.635 176.555 109.654 176.186 109.654 175.693ZM114.583 172.368C114.554 172.368 114.54 172.39 114.54 172.434V176.477C114.54 176.77 114.603 176.999 114.73 177.165C114.862 177.331 115.028 177.414 115.228 177.414C115.428 177.414 115.602 177.382 115.748 177.319C115.899 177.25 116.029 177.177 116.136 177.099C116.249 177.021 116.349 176.95 116.437 176.887C116.524 176.818 116.603 176.784 116.671 176.784C116.739 176.784 116.773 176.801 116.773 176.835C116.773 176.953 116.761 177.028 116.737 177.062C116.151 177.819 115.584 178.198 115.038 178.198C114.496 178.198 114.085 178.027 113.807 177.685C113.534 177.338 113.397 176.926 113.397 176.447V172.368H112.848C112.711 172.368 112.638 172.324 112.628 172.236C112.623 172.148 112.638 172.092 112.672 172.067C112.931 171.901 113.287 171.604 113.741 171.174C113.79 171.12 113.856 171.04 113.939 170.932C114.022 170.825 114.142 170.678 114.298 170.493C114.459 170.307 114.581 170.214 114.664 170.214C114.747 170.214 114.789 170.249 114.789 170.317C114.789 170.327 114.706 170.646 114.54 171.276C114.54 171.364 114.579 171.411 114.657 171.416H116.524C116.739 171.416 116.847 171.718 116.847 172.324C116.847 172.353 116.827 172.368 116.788 172.368H114.583ZM123.358 172.368C123.329 172.368 123.314 172.39 123.314 172.434V176.477C123.314 176.77 123.377 176.999 123.504 177.165C123.636 177.331 123.802 177.414 124.002 177.414C124.203 177.414 124.376 177.382 124.522 177.319C124.674 177.25 124.803 177.177 124.911 177.099C125.023 177.021 125.123 176.95 125.211 176.887C125.299 176.818 125.377 176.784 125.445 176.784C125.514 176.784 125.548 176.801 125.548 176.835C125.548 176.953 125.536 177.028 125.511 177.062C124.925 177.819 124.359 178.198 123.812 178.198C123.27 178.198 122.86 178.027 122.582 177.685C122.308 177.338 122.171 176.926 122.171 176.447V172.368H121.622C121.485 172.368 121.412 172.324 121.402 172.236C121.397 172.148 121.412 172.092 121.446 172.067C121.705 171.901 122.062 171.604 122.516 171.174C122.564 171.12 122.63 171.04 122.713 170.932C122.796 170.825 122.916 170.678 123.072 170.493C123.233 170.307 123.355 170.214 123.438 170.214C123.521 170.214 123.563 170.249 123.563 170.317C123.563 170.327 123.48 170.646 123.314 171.276C123.314 171.364 123.353 171.411 123.431 171.416H125.299C125.514 171.416 125.621 171.718 125.621 172.324C125.621 172.353 125.602 172.368 125.562 172.368H123.358ZM130.777 172.749C130.719 172.739 130.633 172.707 130.521 172.653C130.116 172.468 129.798 172.375 129.569 172.375C129.339 172.375 129.098 172.519 128.844 172.807C128.595 173.09 128.47 173.347 128.47 173.576V176.887C128.47 177.253 128.683 177.497 129.107 177.619C129.293 177.668 129.466 177.705 129.627 177.729C129.789 177.749 129.891 177.768 129.935 177.788C129.984 177.807 130.008 177.846 130.008 177.905C130.008 177.958 129.984 177.99 129.935 178H126.266C126.217 177.99 126.192 177.956 126.192 177.897C126.192 177.81 126.307 177.751 126.537 177.722C127.064 177.644 127.328 177.365 127.328 176.887V173.012C127.328 172.807 127.215 172.666 126.991 172.587C126.893 172.553 126.788 172.526 126.676 172.507C126.563 172.482 126.473 172.46 126.405 172.441C126.341 172.421 126.3 172.404 126.28 172.39C126.266 172.37 126.258 172.333 126.258 172.28C126.258 172.221 126.295 172.172 126.368 172.133L128.236 171.254C128.294 171.225 128.331 171.21 128.346 171.21C128.429 171.21 128.47 171.269 128.47 171.386V172.573C128.47 172.631 128.485 172.661 128.514 172.661C128.553 172.661 128.653 172.546 128.814 172.316C129.278 171.667 129.662 171.342 129.964 171.342C130.135 171.342 130.396 171.411 130.748 171.547C131.104 171.684 131.283 171.799 131.283 171.892C131.283 172.004 131.227 172.175 131.114 172.404C131.002 172.634 130.89 172.749 130.777 172.749ZM132.982 174.14C132.899 174.14 132.857 174.318 132.857 174.675C132.857 175.432 133.082 176.066 133.531 176.579C133.98 177.092 134.537 177.348 135.201 177.348C135.87 177.348 136.512 177.06 137.127 176.484C137.137 176.474 137.149 176.469 137.164 176.469H137.201C137.23 176.469 137.257 176.494 137.281 176.542C137.311 176.586 137.337 176.616 137.362 176.63C136.795 177.319 136.129 177.795 135.362 178.059C135.099 178.151 134.801 178.198 134.469 178.198C134.137 178.198 133.8 178.107 133.458 177.927C133.116 177.741 132.823 177.5 132.579 177.202C132.062 176.582 131.803 175.81 131.803 174.887C131.803 173.959 132.083 173.115 132.645 172.353C133.211 171.591 133.988 171.21 134.974 171.21C135.682 171.21 136.261 171.528 136.71 172.163C137.159 172.792 137.384 173.347 137.384 173.825C137.384 174.035 137.333 174.14 137.23 174.14H132.982ZM133.062 173.437C133.062 173.53 133.106 173.576 133.194 173.576H135.956C136.083 173.576 136.146 173.5 136.146 173.349C136.146 172.998 135.987 172.639 135.67 172.272C135.357 171.901 135.013 171.716 134.637 171.716C134.271 171.716 133.937 171.882 133.634 172.214C133.336 172.546 133.146 172.924 133.062 173.349V173.437ZM139.793 174.14C139.71 174.14 139.669 174.318 139.669 174.675C139.669 175.432 139.894 176.066 140.343 176.579C140.792 177.092 141.349 177.348 142.013 177.348C142.682 177.348 143.324 177.06 143.939 176.484C143.949 176.474 143.961 176.469 143.976 176.469H144.012C144.042 176.469 144.068 176.494 144.093 176.542C144.122 176.586 144.149 176.616 144.173 176.63C143.607 177.319 142.94 177.795 142.174 178.059C141.91 178.151 141.612 178.198 141.28 178.198C140.948 178.198 140.611 178.107 140.27 177.927C139.928 177.741 139.635 177.5 139.391 177.202C138.873 176.582 138.614 175.81 138.614 174.887C138.614 173.959 138.895 173.115 139.457 172.353C140.023 171.591 140.799 171.21 141.786 171.21C142.494 171.21 143.072 171.528 143.521 172.163C143.971 172.792 144.195 173.347 144.195 173.825C144.195 174.035 144.144 174.14 144.042 174.14H139.793ZM139.874 173.437C139.874 173.53 139.918 173.576 140.006 173.576H142.767C142.894 173.576 142.958 173.5 142.958 173.349C142.958 172.998 142.799 172.639 142.481 172.272C142.169 171.901 141.825 171.716 141.449 171.716C141.083 171.716 140.748 171.882 140.445 172.214C140.147 172.546 139.957 172.924 139.874 173.349V173.437ZM148.978 172.99C148.978 173.098 148.937 173.151 148.854 173.151C148.775 173.151 148.714 173.093 148.67 172.976C148.553 172.653 148.377 172.368 148.143 172.119C147.914 171.87 147.628 171.745 147.286 171.745C146.837 171.745 146.534 171.97 146.378 172.419C146.329 172.57 146.305 172.727 146.305 172.888C146.305 173.049 146.407 173.229 146.612 173.43C146.817 173.625 147.154 173.859 147.623 174.133C148.092 174.406 148.434 174.638 148.648 174.829C149.137 175.263 149.381 175.766 149.381 176.337C149.381 176.909 149.171 177.363 148.751 177.7C148.331 178.032 147.843 178.198 147.286 178.198C146.988 178.198 146.717 178.156 146.473 178.073C146.234 177.995 146.095 177.956 146.056 177.956C146.021 177.956 145.963 177.995 145.88 178.073C145.802 178.156 145.738 178.198 145.689 178.198H145.565C145.536 178.198 145.499 177.934 145.455 177.407C145.411 176.879 145.389 176.567 145.389 176.469C145.389 176.372 145.396 176.318 145.411 176.308C145.431 176.298 145.46 176.293 145.499 176.293C145.538 176.293 145.57 176.306 145.594 176.33C145.624 176.354 145.648 176.386 145.667 176.425C145.687 176.459 145.702 176.496 145.711 176.535C145.726 176.574 145.758 176.647 145.807 176.755C146.139 177.463 146.651 177.817 147.345 177.817C147.652 177.817 147.899 177.705 148.084 177.48C148.27 177.25 148.363 176.997 148.363 176.718C148.363 176.44 148.29 176.206 148.143 176.015C147.997 175.825 147.813 175.651 147.594 175.495C147.379 175.339 147.145 175.188 146.891 175.041C145.904 174.465 145.411 173.828 145.411 173.129C145.411 172.607 145.636 172.158 146.085 171.782C146.534 171.401 146.996 171.21 147.469 171.21C147.943 171.21 148.292 171.262 148.517 171.364C148.746 171.467 148.88 171.555 148.919 171.628C148.958 171.696 148.978 171.926 148.978 172.316V172.99Z" fill="black"/>
<path d="M69.4956 14.918C69.4956 14.9727 69.4683 15 69.4136 15H64.1738C64.1191 15 64.0918 14.9727 64.0918 14.918V14.6719C64.0918 14.6172 64.1362 14.5898 64.2251 14.5898C65.1616 14.5488 65.7939 14.0498 66.1221 13.0928L70.3057 0.98291C70.3125 0.969238 70.3159 0.952148 70.3159 0.931641L70.2031 0.593262C70.2031 0.559082 70.2168 0.541992 70.2441 0.541992H72.2949C72.3086 0.548828 72.3257 0.555664 72.3462 0.5625C72.3735 0.569336 72.394 0.589844 72.4077 0.624023L76.7451 12.7954C76.8408 12.98 76.916 13.1475 76.9707 13.2979C77.0322 13.4482 77.1006 13.585 77.1758 13.708C77.3398 13.9883 77.6099 14.2036 77.9858 14.354C78.3003 14.5112 78.5874 14.5898 78.8472 14.5898C78.9019 14.5898 78.9292 14.6206 78.9292 14.6821V14.918C78.9292 14.9727 78.9019 15 78.8472 15H72.5718C72.5171 15 72.4897 14.9727 72.4897 14.918V14.6719C72.4897 14.6172 72.6162 14.583 72.8691 14.5693C73.1221 14.5557 73.3306 14.542 73.4946 14.5283C74.4448 14.4258 74.9199 14.1045 74.9199 13.5645C74.9199 13.5234 74.9131 13.4756 74.8994 13.4209L73.3511 9.05273C73.3442 9.03906 73.3306 9.0083 73.3101 8.96045C73.228 8.72803 73.0845 8.61182 72.8794 8.61182H69.2393C69.0342 8.61182 68.8735 8.72461 68.7573 8.9502C68.7368 8.99805 68.7266 9.02539 68.7266 9.03223L67.1885 13.5337V13.626C67.1885 13.8037 67.2808 13.9644 67.4653 14.1079C67.8823 14.4292 68.4429 14.5898 69.147 14.5898H69.4136C69.4683 14.5898 69.4956 14.6172 69.4956 14.6719V14.918ZM72.5308 7.47363C72.6538 7.47363 72.7153 7.42236 72.7153 7.31982C72.7153 7.26514 72.7017 7.20361 72.6743 7.13525L71.1465 2.93115C71.0781 2.74658 71.0269 2.6543 70.9927 2.6543C70.9585 2.6543 70.9038 2.75 70.8286 2.94141L69.3931 7.13525C69.3657 7.20361 69.3521 7.27881 69.3521 7.36084C69.3521 7.43604 69.4033 7.47363 69.5059 7.47363H72.5308ZM79.1753 15C79.1206 15 79.0933 14.9727 79.0933 14.918V14.6719C79.0933 14.6172 79.1411 14.5898 79.2368 14.5898C79.5581 14.5898 79.9136 14.5557 80.3032 14.4873C81.5542 14.2754 82.1797 13.8447 82.1797 13.1953V2.37744C82.1113 1.50244 81.7114 1.02734 80.98 0.952148C80.7612 0.924805 80.5186 0.911133 80.252 0.911133H79.6675C79.6128 0.911133 79.5854 0.883789 79.5854 0.829102V0.572754C79.5854 0.518066 79.6128 0.490723 79.6675 0.490723L80.1187 0.480469L81.8823 0.470215L85.5327 0.357422C89.4429 0.357422 91.3979 1.5127 91.3979 3.82324C91.3979 4.80078 90.8921 5.61426 89.8804 6.26367C89.7231 6.36621 89.5864 6.44141 89.4702 6.48926C89.3608 6.53711 89.2993 6.56445 89.2856 6.57129C90.188 7.07715 90.8955 7.64453 91.4082 8.27344C91.9277 8.90234 92.1875 9.6543 92.1875 10.5293C92.1875 12.3955 91.3057 13.6943 89.542 14.4258C88.6328 14.8086 87.645 15 86.5786 15H79.1753ZM84.3638 7.00195C84.2749 7.00195 84.2305 7.03955 84.2305 7.11475V12.7339C84.2305 13.2192 84.4561 13.6089 84.9072 13.9028C85.3652 14.1968 85.8574 14.3438 86.3838 14.3438C87.3955 14.3438 88.2568 13.9849 88.9678 13.2671C89.6787 12.5425 90.0342 11.6538 90.0342 10.6011C90.0342 9.5415 89.6514 8.67676 88.8857 8.00684C88.127 7.33691 87.1631 7.00195 85.9941 7.00195H84.3638ZM84.21 6.17139C84.21 6.30127 84.2886 6.36621 84.4458 6.36621H86.9683C87.6245 6.36621 88.1748 6.12354 88.6191 5.63818C89.0703 5.15283 89.2959 4.60938 89.2959 4.00781C89.2959 2.93457 88.9917 2.15869 88.3833 1.68018C87.7749 1.19482 86.9648 0.952148 85.9531 0.952148C85.6455 0.972656 85.4302 0.98291 85.3071 0.98291C85.1909 0.98291 85.0679 0.98291 84.938 0.98291C84.8081 0.976074 84.6782 0.98291 84.5483 1.00342C84.4185 1.02393 84.3296 1.06836 84.2817 1.13672C84.2339 1.20508 84.21 1.31787 84.21 1.4751V6.17139ZM106.41 14.1182C105.815 14.4805 105.166 14.7642 104.461 14.9692C103.757 15.1743 103.132 15.2769 102.585 15.2769C101.464 15.2769 100.394 15.0957 99.3755 14.7334C97.981 14.2275 96.8599 13.479 96.0122 12.4878C94.9321 11.2231 94.3921 9.62012 94.3921 7.67871C94.3921 6.27734 94.751 5.00244 95.4688 3.854C96.1865 2.69873 97.1777 1.78613 98.4424 1.11621C99.7139 0.446289 101.078 0.111328 102.534 0.111328C103.997 0.111328 105.306 0.436035 106.461 1.08545C107.616 1.73486 108.542 2.62695 109.24 3.76172C109.937 4.89648 110.286 6.12695 110.286 7.45312C110.286 8.77246 109.94 10.0303 109.25 11.2266C108.56 12.416 107.613 13.3799 106.41 14.1182ZM96.5454 7.35059C96.5454 8.48535 96.7949 9.61328 97.2939 10.7344C97.7998 11.8486 98.521 12.7578 99.4575 13.4619C100.394 14.166 101.478 14.5181 102.708 14.5181C104.458 14.5181 105.822 13.8481 106.799 12.5083C107.681 11.2983 108.122 9.75342 108.122 7.87354C108.122 5.99365 107.582 4.37354 106.502 3.01318C105.976 2.3501 105.33 1.82031 104.564 1.42383C103.805 1.02051 103.036 0.818848 102.257 0.818848C101.484 0.818848 100.849 0.904297 100.35 1.0752C99.8574 1.24609 99.4097 1.48193 99.0063 1.78271C98.603 2.07666 98.2476 2.42871 97.9399 2.83887C97.6323 3.24902 97.376 3.69336 97.1709 4.17188C96.7539 5.15625 96.5454 6.21582 96.5454 7.35059ZM117.299 0.952148C116.151 0.952148 115.577 1.41016 115.577 2.32617V9.66797C115.577 11.0215 116.024 12.1289 116.92 12.9902C117.815 13.8447 118.964 14.272 120.365 14.272C121.821 14.272 123.014 13.8823 123.944 13.103C124.88 12.3169 125.349 11.23 125.349 9.84229V3.3208C125.349 2.67139 125.291 2.22021 125.174 1.96729C124.88 1.29053 124.217 0.952148 123.185 0.952148C123.13 0.952148 123.103 0.924805 123.103 0.870117V0.624023C123.103 0.569336 123.13 0.541992 123.185 0.541992H128.23C128.285 0.541992 128.312 0.569336 128.312 0.624023V0.870117C128.312 0.924805 128.237 0.952148 128.086 0.952148C127.191 0.952148 126.644 1.30078 126.446 1.99805C126.412 2.11426 126.395 2.22363 126.395 2.32617V9.04248C126.395 12.0435 125.246 13.9746 122.949 14.8359C122.177 15.1299 121.408 15.2769 120.642 15.2769C117.901 15.2769 115.881 14.5591 114.582 13.1235C113.912 12.3853 113.577 11.4727 113.577 10.3857V2.18262C113.577 1.60156 113.225 1.21875 112.521 1.03418C112.316 0.979492 112.142 0.952148 111.998 0.952148C111.854 0.952148 111.783 0.924805 111.783 0.870117V0.624023C111.783 0.569336 111.807 0.541992 111.854 0.541992H117.412C117.467 0.541992 117.494 0.569336 117.494 0.624023V0.870117C117.494 0.924805 117.429 0.952148 117.299 0.952148ZM132.649 14.6719C132.649 14.6172 132.68 14.5898 132.742 14.5898H133.029C133.699 14.5898 134.235 14.4463 134.639 14.1592C135.049 13.8721 135.254 13.5371 135.254 13.1543V1.80322C135.254 1.65967 135.223 1.58105 135.162 1.56738C135.107 1.54688 135.039 1.52979 134.957 1.51611H131.019C130.383 1.65283 129.966 2.1416 129.768 2.98242C129.659 3.43359 129.594 3.72412 129.573 3.854C129.553 3.97705 129.515 4.03857 129.46 4.03857H129.276C129.235 4.03857 129.214 4.0249 129.214 3.99756V3.65918L129.594 0.459961C129.635 0.248047 129.703 0.14209 129.799 0.14209C129.895 0.14209 129.997 0.210449 130.106 0.347168C130.216 0.477051 130.424 0.541992 130.732 0.541992H141.786C142.08 0.541992 142.257 0.507813 142.319 0.439453C142.38 0.371094 142.438 0.306152 142.493 0.244629C142.548 0.17627 142.616 0.14209 142.698 0.14209C142.787 0.14209 142.842 0.17627 142.862 0.244629C142.89 0.312988 142.91 0.384766 142.924 0.459961L143.303 3.65918V3.99756C143.303 4.0249 143.283 4.03857 143.242 4.03857H143.057C143.002 4.03857 142.965 3.9873 142.944 3.88477C142.835 3.20117 142.678 2.66113 142.473 2.26465C142.268 1.86133 141.943 1.61182 141.499 1.51611H137.551C137.469 1.52979 137.397 1.54688 137.335 1.56738C137.281 1.58105 137.253 1.65967 137.253 1.80322V13.1543C137.253 13.5371 137.455 13.8721 137.858 14.1592C138.269 14.4463 138.809 14.5898 139.479 14.5898H139.776C139.831 14.5898 139.858 14.6172 139.858 14.6719V14.918C139.858 14.9727 139.831 15 139.776 15H132.731C132.677 15 132.649 14.9727 132.649 14.918V14.6719Z" fill="black"/>
</svg>
