<svg width="208" height="267" viewBox="0 0 208 267" fill="none" xmlns="http://www.w3.org/2000/svg">
<path d="M91.1108 13.144C91.1108 14.0669 91.75 14.5488 93.0283 14.5898C93.083 14.5898 93.1104 14.6172 93.1104 14.6719V14.918C93.1104 14.9727 93.083 15 93.0283 15H86.5068C86.4521 15 86.4248 14.9727 86.4248 14.918V14.6719C86.4248 14.6172 86.5957 14.5898 86.9375 14.5898C87.2793 14.5898 87.6689 14.5146 88.1064 14.3643C88.7764 14.1455 89.1113 13.7764 89.1113 13.2568V8.36572C89.1113 8.29736 89.1011 8.25293 89.0806 8.23242C89.0601 8.21191 89.0156 8.20166 88.9473 8.20166H80.8672C80.7988 8.20166 80.7544 8.21191 80.7339 8.23242C80.7134 8.25293 80.7031 8.29736 80.7031 8.36572V13.3594C80.7031 14.1797 81.3081 14.5898 82.5181 14.5898C82.5728 14.5898 82.6001 14.6172 82.6001 14.6719V14.918C82.6001 14.9727 82.5762 15 82.5283 15H76.8682C76.8135 15 76.7861 14.9727 76.7861 14.918V14.6719C76.7861 14.6172 76.8545 14.5898 76.9912 14.5898C78.1328 14.5898 78.7036 14.1011 78.7036 13.1235V2.18262C78.7036 1.38281 78.2285 0.958984 77.2783 0.911133C77.1348 0.904297 77.063 0.873535 77.063 0.818848V0.624023C77.063 0.569336 77.0869 0.541992 77.1348 0.541992H82.2822C82.3369 0.541992 82.3643 0.569336 82.3643 0.624023V0.818848C82.3643 0.859863 82.2993 0.880371 82.1694 0.880371C81.1919 0.880371 80.7031 1.3623 80.7031 2.32617V7.06348C80.7031 7.13184 80.7134 7.17627 80.7339 7.19678C80.7544 7.21729 80.7988 7.22754 80.8672 7.22754H88.9473C89.0156 7.22754 89.0601 7.21729 89.0806 7.19678C89.1011 7.17627 89.1113 7.13184 89.1113 7.06348V2.16211C89.0977 2.10059 89.0874 2.0459 89.0806 1.99805C89.0806 1.94336 89.0703 1.86133 89.0498 1.75195C89.002 1.51953 88.7593 1.33154 88.3218 1.18799C87.8843 1.0376 87.3887 0.941895 86.835 0.900879C86.7803 0.900879 86.7529 0.873535 86.7529 0.818848V0.624023C86.7529 0.569336 86.7769 0.541992 86.8247 0.541992H92.7412C92.7959 0.541992 92.8232 0.569336 92.8232 0.624023V0.818848C92.8232 0.859863 92.7583 0.880371 92.6284 0.880371C91.6167 0.880371 91.1108 1.3623 91.1108 2.32617V13.144ZM93.7974 14.918V14.6309C93.7974 14.5762 93.8247 14.5488 93.8794 14.5488H94.105C94.3921 14.5283 94.686 14.5181 94.9868 14.5181C95.2876 14.5112 95.561 14.4736 95.8071 14.4053C96.3677 14.2412 96.6479 13.8311 96.6479 13.1748V2.36719C96.6479 1.69043 96.248 1.25977 95.4482 1.0752C95.2227 1.02734 94.9937 0.986328 94.7612 0.952148H94.5459C94.4912 0.952148 94.4639 0.924805 94.4639 0.870117V0.624023C94.4639 0.569336 94.4912 0.541992 94.5459 0.541992H104.297C104.42 0.541992 104.509 0.565918 104.564 0.61377C104.619 0.654785 104.653 0.750488 104.667 0.900879L104.851 3.87451C104.851 3.94287 104.8 3.97705 104.697 3.97705C104.595 3.97705 104.52 3.94629 104.472 3.88477C104.431 3.81641 104.376 3.56689 104.308 3.13623C104.246 2.70557 104.13 2.34668 103.959 2.05957C103.788 1.77246 103.487 1.59131 103.057 1.51611H98.7808C98.6919 1.51611 98.6475 1.56055 98.6475 1.64941V6.95068C98.6475 7.01904 98.6816 7.05322 98.75 7.05322H102.298C103.214 7.05322 103.672 6.52002 103.672 5.45361C103.672 5.39893 103.699 5.37158 103.754 5.37158H104C104.055 5.37158 104.082 5.39893 104.082 5.45361V9.84229C104.082 9.89697 104.055 9.92432 104 9.92432H103.754C103.699 9.92432 103.672 9.89697 103.672 9.84229C103.672 8.83057 103.378 8.24609 102.79 8.08887C102.626 8.04785 102.452 8.02734 102.267 8.02734H98.75C98.6816 8.02734 98.6475 8.06152 98.6475 8.12988V13.1235C98.6475 13.6362 98.8833 13.9268 99.355 13.9951C99.4917 14.0156 99.6353 14.0259 99.7856 14.0259H103.2C103.904 14.0259 104.451 13.7148 104.841 13.0928C105.121 12.6484 105.292 12.1392 105.354 11.5649C105.374 11.3735 105.477 11.2778 105.661 11.2778C105.743 11.2778 105.784 11.3223 105.784 11.4111L105.446 14.8564C105.405 14.9521 105.357 15 105.302 15H93.8794C93.8247 15 93.7974 14.9727 93.7974 14.918ZM107.179 15C107.124 15 107.097 14.9727 107.097 14.918V14.6719C107.097 14.6172 107.124 14.5898 107.179 14.5898H107.425C108.013 14.5898 108.525 14.4668 108.963 14.2207C109.141 14.1182 109.288 13.9609 109.404 13.749C109.52 13.5303 109.578 13.2876 109.578 13.021V2.17236C109.578 1.74854 109.305 1.42383 108.758 1.19824C108.375 1.03418 107.968 0.952148 107.538 0.952148H107.312C107.257 0.952148 107.23 0.924805 107.23 0.870117V0.624023C107.23 0.569336 107.257 0.541992 107.312 0.541992H114.254C114.309 0.541992 114.336 0.569336 114.336 0.624023V0.870117C114.336 0.924805 114.309 0.952148 114.254 0.952148H113.813C113.109 0.952148 112.487 1.05127 111.947 1.24951C111.79 1.3042 111.687 1.39648 111.639 1.52637C111.598 1.64941 111.578 1.86475 111.578 2.17236V13.5439C111.591 13.6602 111.653 13.7695 111.762 13.8721C111.872 13.9746 111.995 14.0259 112.131 14.0259H116.182C116.79 14.0259 117.388 13.667 117.976 12.9492C118.133 12.7578 118.328 12.5049 118.561 12.1904C118.793 11.8691 118.937 11.688 118.991 11.647C119.21 11.4829 119.319 11.4863 119.319 11.6572C119.319 11.6982 119.309 11.7393 119.289 11.7803L117.74 14.8154C117.679 14.9385 117.607 15 117.525 15H107.179ZM120.427 15C120.372 15 120.345 14.9316 120.345 14.7949V14.6719C120.345 14.6172 120.379 14.5898 120.447 14.5898C120.516 14.5898 120.615 14.5693 120.745 14.5283C120.881 14.4873 120.984 14.46 121.052 14.4463C121.75 14.2891 122.098 13.8926 122.098 13.2568V2.42871C122.098 1.7998 121.982 1.3999 121.75 1.229C121.517 1.05127 121.097 0.962402 120.488 0.962402H120.027C119.883 0.962402 119.812 0.880371 119.812 0.716309C119.812 0.620605 119.856 0.5625 119.945 0.541992H120.017L125.769 0.388184H126.805C128.028 0.470215 129.047 0.911133 129.86 1.71094C130.674 2.51074 131.081 3.47119 131.081 4.59229C131.081 5.70654 130.681 6.71826 129.881 7.62744C129.532 8.03076 129.139 8.35889 128.702 8.61182C128.264 8.85791 127.833 8.98438 127.41 8.99121L124.333 8.86816H124.251C124.149 8.86816 124.098 8.91602 124.098 9.01172V13.2261C124.098 13.6021 124.2 13.8789 124.405 14.0566C124.61 14.2344 125.044 14.3745 125.708 14.4771C125.796 14.4907 125.94 14.5146 126.138 14.5488C126.336 14.5762 126.47 14.5898 126.538 14.5898C126.606 14.5898 126.641 14.6172 126.641 14.6719V14.918C126.641 14.9727 126.613 15 126.559 15H120.427ZM124.928 0.911133C124.846 0.911133 124.757 0.914551 124.662 0.921387C124.573 0.921387 124.457 0.924805 124.313 0.931641C124.169 0.931641 124.098 0.986328 124.098 1.0957V7.70947L124.118 8.01709C124.139 8.16064 124.204 8.23584 124.313 8.24268L125.359 8.3042C126.459 8.3042 127.345 7.93506 128.015 7.19678C128.691 6.4585 129.03 5.53223 129.03 4.41797C129.03 3.29688 128.702 2.42871 128.045 1.81348C127.396 1.19824 126.528 0.890625 125.441 0.890625C125.345 0.890625 125.256 0.894043 125.174 0.900879C125.092 0.900879 125.01 0.904297 124.928 0.911133Z" fill="black"/>
<path d="M94.6929 106.075C95.3472 106.075 95.6743 105.755 95.6743 105.115C95.6743 105.076 95.6938 105.057 95.7329 105.057H95.9087C95.9478 105.057 95.9673 105.076 95.9673 105.115V107.84C95.9673 107.879 95.9478 107.898 95.9087 107.898H95.7329C95.6938 107.898 95.6743 107.879 95.6743 107.84C95.6743 107.391 95.5474 107.081 95.2935 106.91C95.1567 106.817 94.9614 106.771 94.7075 106.771H91.8218C91.7046 106.771 91.646 106.836 91.646 106.968V110.733C91.646 111.065 91.8438 111.312 92.2393 111.473C92.6396 111.629 92.8911 111.707 92.9937 111.707C93.1011 111.707 93.1548 111.727 93.1548 111.766V111.941C93.1548 111.98 93.1353 112 93.0962 112H89.0972C89.0581 112 89.0386 111.98 89.0386 111.941V111.766C89.0386 111.727 89.0801 111.707 89.1631 111.707C89.2461 111.707 89.3755 111.668 89.5513 111.59C89.7271 111.512 89.8809 111.397 90.0127 111.246C90.1494 111.089 90.2178 110.901 90.2178 110.682V102.771C90.2178 102.454 90.0493 102.227 89.7124 102.09C89.5171 102.007 89.3242 101.966 89.1338 101.966H89.1045C89.0654 101.966 89.0459 101.946 89.0459 101.907V101.731C89.0459 101.692 89.0654 101.673 89.1045 101.673H96.0112C96.0698 101.683 96.1138 101.697 96.1431 101.717C96.1724 101.731 96.187 101.773 96.187 101.841V103.614C96.187 103.672 96.1772 103.709 96.1577 103.724C96.1431 103.738 96.1138 103.746 96.0698 103.746H95.9819C95.9722 103.741 95.938 103.609 95.8794 103.35C95.8257 103.086 95.7402 102.884 95.623 102.742C95.4229 102.527 95.1958 102.408 94.9419 102.383C94.8394 102.374 94.7148 102.369 94.5684 102.369H91.7925C91.6948 102.369 91.646 102.417 91.646 102.515V105.906C91.646 106.019 91.7046 106.075 91.8218 106.075H94.6929ZM100.86 111.941C100.86 111.98 100.84 112 100.801 112H97.0586C97.0195 112 97 111.98 97 111.941V111.766C97 111.727 97.0317 111.707 97.0952 111.707C97.7642 111.678 98.2158 111.321 98.4502 110.638L101.438 101.988C101.443 101.978 101.446 101.966 101.446 101.951L101.365 101.709C101.365 101.685 101.375 101.673 101.395 101.673H102.859C102.869 101.678 102.881 101.683 102.896 101.688C102.916 101.692 102.93 101.707 102.94 101.731L106.038 110.425C106.106 110.557 106.16 110.677 106.199 110.784C106.243 110.892 106.292 110.989 106.346 111.077C106.463 111.277 106.656 111.431 106.924 111.539C107.149 111.651 107.354 111.707 107.54 111.707C107.579 111.707 107.598 111.729 107.598 111.773V111.941C107.598 111.98 107.579 112 107.54 112H103.057C103.018 112 102.999 111.98 102.999 111.941V111.766C102.999 111.727 103.089 111.702 103.27 111.692C103.45 111.683 103.599 111.673 103.716 111.663C104.395 111.59 104.734 111.36 104.734 110.975C104.734 110.945 104.729 110.911 104.72 110.872L103.614 107.752C103.609 107.742 103.599 107.72 103.584 107.686C103.526 107.52 103.423 107.437 103.277 107.437H100.677C100.53 107.437 100.416 107.518 100.333 107.679C100.318 107.713 100.311 107.732 100.311 107.737L99.2119 110.953V111.019C99.2119 111.146 99.2778 111.26 99.4097 111.363C99.7075 111.592 100.108 111.707 100.611 111.707H100.801C100.84 111.707 100.86 111.727 100.86 111.766V111.941ZM103.028 106.624C103.116 106.624 103.16 106.587 103.16 106.514C103.16 106.475 103.15 106.431 103.13 106.382L102.039 103.379C101.99 103.248 101.954 103.182 101.929 103.182C101.905 103.182 101.866 103.25 101.812 103.387L100.787 106.382C100.767 106.431 100.757 106.485 100.757 106.543C100.757 106.597 100.794 106.624 100.867 106.624H103.028ZM113.619 112.161C112.847 112.093 112.137 111.895 111.487 111.568C110.838 111.236 110.293 110.838 109.854 110.374C108.917 109.383 108.448 108.199 108.448 106.822C108.448 105.235 108.99 103.931 110.074 102.911C111.163 101.89 112.518 101.38 114.139 101.38C115.76 101.38 117.103 101.883 118.167 102.889C119.236 103.895 119.771 105.181 119.771 106.749C119.771 108.614 118.821 110.176 116.922 111.436C116.878 111.465 116.69 111.561 116.358 111.722C116.031 111.883 115.867 111.976 115.867 112C115.867 112.02 116.019 112.132 116.321 112.337C116.629 112.547 117.278 113.052 118.27 113.853C118.865 114.332 119.327 114.603 119.654 114.666C119.981 114.734 120.145 114.8 120.145 114.864C120.145 114.986 120.066 115.062 119.91 115.091C119.754 115.12 119.517 115.135 119.2 115.135C118.648 115.135 118.038 114.954 117.369 114.593C116.192 113.816 115.401 113.235 114.996 112.85C114.59 112.464 114.234 112.247 113.926 112.198C113.833 112.183 113.731 112.171 113.619 112.161ZM111.033 103.255C110.691 103.675 110.428 104.168 110.242 104.734C110.062 105.296 109.974 105.843 109.979 106.375C109.988 107.337 110.181 108.216 110.557 109.012C110.933 109.803 111.458 110.442 112.132 110.931C112.811 111.414 113.594 111.656 114.483 111.656C115.572 111.656 116.478 111.231 117.2 110.381C117.923 109.527 118.284 108.409 118.284 107.027C118.284 105.645 117.93 104.485 117.222 103.548C116.436 102.513 115.337 101.954 113.926 101.871C112.745 101.871 111.78 102.332 111.033 103.255Z" fill="black"/>
<path d="M77.8105 167.761C77.8594 167.761 77.8838 167.814 77.8838 167.922L78.0742 169.482C78.0938 169.58 78.1035 169.643 78.1035 169.672C78.1035 169.697 78.0645 169.709 77.9863 169.709C77.9131 169.709 77.8667 169.699 77.8472 169.68C77.8276 169.66 77.8081 169.628 77.7886 169.584C77.769 169.536 77.7446 169.482 77.7153 169.423C77.6909 169.365 77.6641 169.306 77.6348 169.248C77.5322 169.023 77.3711 168.801 77.1514 168.581C76.6143 168.063 76.0088 167.805 75.335 167.805C74.9297 167.805 74.5464 167.937 74.1851 168.2C73.8237 168.464 73.6431 168.776 73.6431 169.138C73.6431 169.494 73.709 169.804 73.8408 170.068C73.9775 170.332 74.1558 170.576 74.3755 170.8C74.5952 171.025 74.8467 171.24 75.1299 171.445C75.4131 171.65 75.7012 171.857 75.9941 172.067C76.7705 172.609 77.3223 173.073 77.6494 173.459C78.1621 174.055 78.4404 174.724 78.4844 175.466C78.4844 176.296 78.1646 176.96 77.5249 177.458C76.8901 177.951 76.1504 178.198 75.3057 178.198C74.7637 178.198 74.3315 178.142 74.0093 178.029C73.6919 177.922 73.4722 177.844 73.3501 177.795C73.228 177.746 73.1377 177.722 73.0791 177.722C73.0254 177.722 72.9912 177.724 72.9766 177.729L72.6177 177.802C72.5542 177.802 72.5151 177.751 72.5005 177.648C72.3589 176.438 72.2881 175.795 72.2881 175.722C72.2881 175.644 72.293 175.593 72.3027 175.568C72.3174 175.539 72.3516 175.524 72.4053 175.524C72.542 175.524 72.6665 175.72 72.7788 176.11C73.2915 177.209 74.1436 177.758 75.335 177.758C75.8818 177.758 76.3481 177.592 76.7339 177.26C77.1245 176.928 77.3198 176.496 77.3198 175.964C77.3198 175.114 76.812 174.323 75.7964 173.591C75.5083 173.386 75.0933 173.1 74.5513 172.734C74.0093 172.368 73.5771 172.001 73.2549 171.635C72.752 171.069 72.5005 170.439 72.5005 169.746C72.5005 169.047 72.7764 168.476 73.3281 168.032C73.8848 167.587 74.522 167.365 75.2397 167.365C75.6108 167.365 76.0186 167.429 76.4629 167.556C76.9121 167.683 77.2246 167.768 77.4004 167.812L77.8105 167.761ZM81.6411 172.331C81.6411 172.448 81.6582 172.507 81.6924 172.507C81.7266 172.507 81.751 172.5 81.7656 172.485C81.7803 172.465 81.8828 172.351 82.0732 172.141C82.625 171.525 83.1841 171.218 83.7505 171.218C84.4927 171.218 85.0371 171.384 85.3838 171.716C85.8086 172.136 86.021 172.841 86.021 173.833V176.887C86.021 177.365 86.2847 177.644 86.812 177.722C87.0415 177.751 87.1562 177.802 87.1562 177.875C87.1562 177.949 87.1318 177.99 87.083 178H83.8164C83.7676 177.99 83.7432 177.956 83.7432 177.897C83.7432 177.81 83.8579 177.751 84.0874 177.722C84.6147 177.644 84.8784 177.365 84.8784 176.887V173.906C84.8784 173.188 84.8271 172.722 84.7246 172.507C84.5293 172.077 84.1216 171.862 83.5015 171.862C83.1206 171.862 82.7153 172.026 82.2856 172.353C81.856 172.675 81.6411 173.032 81.6411 173.422V176.887C81.6411 177.365 81.9048 177.644 82.4321 177.722C82.6616 177.751 82.7764 177.802 82.7764 177.875C82.7764 177.949 82.752 177.99 82.7031 178H79.4365C79.3877 177.99 79.3633 177.956 79.3633 177.897C79.3633 177.81 79.478 177.751 79.7075 177.722C80.2349 177.644 80.4985 177.365 80.4985 176.887V167.753C80.4985 167.548 80.3862 167.407 80.1616 167.329C80.064 167.294 79.959 167.268 79.8467 167.248C79.7344 167.224 79.644 167.202 79.5757 167.182C79.5122 167.163 79.4707 167.146 79.4512 167.131C79.4365 167.111 79.4292 167.075 79.4292 167.021C79.4292 166.962 79.4658 166.914 79.5391 166.875L81.4067 165.996C81.4653 165.966 81.502 165.952 81.5166 165.952C81.5996 165.952 81.6411 166.01 81.6411 166.127V172.331ZM87.8887 178C87.8398 177.99 87.8154 177.956 87.8154 177.897C87.8154 177.81 87.9302 177.751 88.1597 177.722C88.687 177.644 88.9507 177.365 88.9507 176.887V173.012C88.9507 172.807 88.8384 172.666 88.6138 172.587C88.5161 172.553 88.4111 172.526 88.2988 172.507C88.1865 172.482 88.0962 172.46 88.0278 172.441C87.9644 172.421 87.9229 172.404 87.9033 172.39C87.8887 172.37 87.8813 172.333 87.8813 172.28C87.8813 172.221 87.918 172.172 87.9912 172.133L89.8589 171.254C89.9175 171.225 89.9541 171.21 89.9688 171.21C90.0518 171.21 90.0933 171.269 90.0933 171.386V176.887C90.0933 177.365 90.3569 177.644 90.8843 177.722C91.1138 177.751 91.2285 177.802 91.2285 177.875C91.2285 177.949 91.2041 177.99 91.1553 178H87.8887ZM89.4121 169.152C89.2119 169.152 89.0337 169.089 88.8774 168.962C88.7261 168.835 88.6504 168.659 88.6504 168.435C88.6504 168.205 88.7236 168.024 88.8701 167.893C89.0166 167.761 89.1899 167.695 89.3901 167.695C89.5952 167.695 89.7661 167.773 89.9028 167.929C90.0444 168.085 90.1152 168.254 90.1152 168.435C90.1152 168.615 90.0493 168.781 89.9175 168.933C89.7856 169.079 89.6172 169.152 89.4121 169.152ZM97.6226 177.231C96.9487 177.875 96.1919 178.198 95.3521 178.198C95.0493 178.198 94.6367 178.142 94.1143 178.029C94.0312 178.029 93.9849 178.059 93.9751 178.117C93.9702 178.176 93.9653 178.237 93.9604 178.3V181.428C93.9604 181.794 94.1729 182.038 94.5977 182.16C94.7832 182.209 94.9565 182.243 95.1177 182.263C95.2788 182.287 95.3813 182.309 95.4253 182.329C95.4741 182.348 95.4985 182.385 95.4985 182.438C95.4985 182.497 95.4741 182.531 95.4253 182.541H91.7559C91.707 182.531 91.6826 182.497 91.6826 182.438C91.6826 182.351 91.7974 182.292 92.0269 182.263C92.5542 182.185 92.8179 181.906 92.8179 181.428V172.646C92.8179 172.441 92.7056 172.299 92.481 172.221C92.3833 172.187 92.2783 172.16 92.166 172.141C92.0537 172.116 91.9634 172.094 91.895 172.075C91.8315 172.055 91.79 172.038 91.7705 172.023C91.7559 172.004 91.7485 171.967 91.7485 171.914C91.7485 171.855 91.7852 171.806 91.8584 171.767L93.7261 170.874C93.7651 170.854 93.8042 170.844 93.8433 170.844C93.9214 170.844 93.9604 170.903 93.9604 171.02V171.95C93.9604 172.004 93.9873 172.031 94.041 172.031C94.0996 172.031 94.2363 171.96 94.4512 171.818C95.0713 171.418 95.7158 171.218 96.3848 171.218C96.8535 171.218 97.2832 171.408 97.6738 171.789C98.1865 172.287 98.5283 172.98 98.6992 173.869C98.748 174.123 98.7725 174.394 98.7725 174.682C98.7725 174.965 98.7261 175.266 98.6333 175.583C98.4478 176.213 98.1108 176.762 97.6226 177.231ZM95.5278 171.979C94.8638 171.979 94.3413 172.17 93.9604 172.551V176.667C93.9604 176.911 94.002 177.07 94.085 177.143C94.2998 177.329 94.6294 177.473 95.0737 177.575C95.9526 177.775 96.6362 177.565 97.1245 176.945C97.4712 176.501 97.6445 175.964 97.6445 175.334C97.6445 174.108 97.3687 173.19 96.8169 172.58C96.4849 172.209 96.0552 172.009 95.5278 171.979ZM109.744 175.693L109.729 174.147C109.729 173.518 109.676 173.076 109.568 172.822C109.461 172.568 109.324 172.377 109.158 172.25C108.992 172.119 108.768 172.053 108.484 172.053C108.206 172.053 107.613 172.272 106.705 172.712C106.583 172.785 106.519 172.854 106.514 172.917V176.857C106.514 177.351 106.778 177.634 107.305 177.707C107.535 177.741 107.649 177.797 107.649 177.875C107.649 177.949 107.625 177.99 107.576 178H104.31C104.261 177.99 104.236 177.956 104.236 177.897C104.236 177.805 104.351 177.741 104.581 177.707C105.108 177.634 105.372 177.351 105.372 176.857V173.21C105.372 172.443 104.898 172.06 103.951 172.06C103.604 172.06 103.123 172.265 102.508 172.675C102.352 172.778 102.237 172.873 102.164 172.961V176.857C102.164 177.351 102.427 177.634 102.955 177.707C103.184 177.741 103.299 177.797 103.299 177.875C103.299 177.949 103.274 177.99 103.226 178H99.959C99.9102 177.99 99.8857 177.956 99.8857 177.897C99.8857 177.805 100 177.741 100.23 177.707C100.757 177.634 101.021 177.355 101.021 176.872V172.653C101.021 172.448 100.909 172.307 100.684 172.229C100.586 172.194 100.481 172.167 100.369 172.148C100.257 172.124 100.167 172.102 100.098 172.082C100.035 172.062 99.9932 172.045 99.9736 172.031C99.959 172.011 99.9517 171.975 99.9517 171.921C99.9517 171.862 99.9883 171.813 100.062 171.774L101.929 170.896C101.988 170.866 102.024 170.852 102.039 170.852C102.122 170.852 102.164 170.91 102.164 171.027V172.243C102.168 172.272 102.186 172.287 102.215 172.287C102.249 172.287 102.33 172.253 102.457 172.185C102.588 172.116 102.759 172.021 102.969 171.899C103.179 171.772 103.455 171.625 103.797 171.459C104.144 171.293 104.51 171.21 104.896 171.21C105.516 171.21 105.96 171.477 106.229 172.009C106.331 172.224 106.424 172.316 106.507 172.287C106.59 172.253 106.719 172.192 106.895 172.104C107.31 171.899 107.73 171.699 108.155 171.503C108.58 171.308 108.931 171.21 109.209 171.21C110.337 171.21 110.901 172.238 110.901 174.294L110.835 176.433V176.857C110.835 177.238 111.026 177.487 111.407 177.604C111.568 177.658 111.722 177.697 111.868 177.722C112.02 177.741 112.117 177.761 112.161 177.78C112.21 177.8 112.234 177.839 112.234 177.897C112.234 177.956 112.21 177.99 112.161 178H108.631C108.582 177.99 108.558 177.956 108.558 177.897C108.558 177.805 108.672 177.741 108.902 177.707C109.424 177.634 109.686 177.331 109.686 176.799C109.725 176.555 109.744 176.186 109.744 175.693ZM113.956 174.14C113.873 174.14 113.831 174.318 113.831 174.675C113.831 175.432 114.056 176.066 114.505 176.579C114.954 177.092 115.511 177.348 116.175 177.348C116.844 177.348 117.486 177.06 118.101 176.484C118.111 176.474 118.123 176.469 118.138 176.469H118.174C118.204 176.469 118.23 176.494 118.255 176.542C118.284 176.586 118.311 176.616 118.335 176.63C117.769 177.319 117.103 177.795 116.336 178.059C116.072 178.151 115.774 178.198 115.442 178.198C115.11 178.198 114.773 178.107 114.432 177.927C114.09 177.741 113.797 177.5 113.553 177.202C113.035 176.582 112.776 175.81 112.776 174.887C112.776 173.959 113.057 173.115 113.619 172.353C114.185 171.591 114.961 171.21 115.948 171.21C116.656 171.21 117.234 171.528 117.684 172.163C118.133 172.792 118.357 173.347 118.357 173.825C118.357 174.035 118.306 174.14 118.204 174.14H113.956ZM114.036 173.437C114.036 173.53 114.08 173.576 114.168 173.576H116.929C117.056 173.576 117.12 173.5 117.12 173.349C117.12 172.998 116.961 172.639 116.644 172.272C116.331 171.901 115.987 171.716 115.611 171.716C115.245 171.716 114.91 171.882 114.607 172.214C114.31 172.546 114.119 172.924 114.036 173.349V173.437ZM124.964 175.693L124.949 174.147C124.949 173.518 124.896 173.076 124.788 172.822C124.681 172.568 124.544 172.377 124.378 172.25C124.212 172.119 123.987 172.053 123.704 172.053C123.426 172.053 122.833 172.272 121.924 172.712C121.802 172.785 121.739 172.854 121.734 172.917V176.857C121.734 177.351 121.998 177.634 122.525 177.707C122.754 177.741 122.869 177.797 122.869 177.875C122.869 177.949 122.845 177.99 122.796 178H119.529C119.48 177.99 119.456 177.956 119.456 177.897C119.456 177.805 119.571 177.741 119.8 177.707C120.328 177.634 120.591 177.351 120.591 176.857V172.653C120.591 172.448 120.479 172.307 120.254 172.229C120.157 172.194 120.052 172.167 119.939 172.148C119.827 172.124 119.737 172.102 119.668 172.082C119.605 172.062 119.563 172.045 119.544 172.031C119.529 172.011 119.522 171.975 119.522 171.921C119.522 171.862 119.559 171.813 119.632 171.774L121.5 170.896C121.558 170.866 121.595 170.852 121.609 170.852C121.692 170.852 121.734 170.91 121.734 171.027V172.17C121.749 172.219 121.768 172.243 121.792 172.243C121.822 172.243 121.927 172.199 122.107 172.111C122.527 171.901 122.95 171.699 123.375 171.503C123.799 171.308 124.151 171.21 124.429 171.21C125.557 171.21 126.121 172.238 126.121 174.294L126.055 176.433V176.857C126.055 177.238 126.246 177.487 126.626 177.604C126.788 177.658 126.941 177.697 127.088 177.722C127.239 177.741 127.337 177.761 127.381 177.78C127.43 177.8 127.454 177.839 127.454 177.897C127.454 177.956 127.43 177.99 127.381 178H123.851C123.802 177.99 123.777 177.956 123.777 177.897C123.777 177.805 123.892 177.741 124.122 177.707C124.644 177.634 124.905 177.331 124.905 176.799C124.944 176.555 124.964 176.186 124.964 175.693ZM129.893 172.368C129.864 172.368 129.849 172.39 129.849 172.434V176.477C129.849 176.77 129.913 176.999 130.04 177.165C130.171 177.331 130.337 177.414 130.538 177.414C130.738 177.414 130.911 177.382 131.058 177.319C131.209 177.25 131.338 177.177 131.446 177.099C131.558 177.021 131.658 176.95 131.746 176.887C131.834 176.818 131.912 176.784 131.98 176.784C132.049 176.784 132.083 176.801 132.083 176.835C132.083 176.953 132.071 177.028 132.046 177.062C131.46 177.819 130.894 178.198 130.347 178.198C129.805 178.198 129.395 178.027 129.117 177.685C128.843 177.338 128.707 176.926 128.707 176.447V172.368H128.157C128.021 172.368 127.947 172.324 127.938 172.236C127.933 172.148 127.947 172.092 127.981 172.067C128.24 171.901 128.597 171.604 129.051 171.174C129.1 171.12 129.166 171.04 129.249 170.932C129.332 170.825 129.451 170.678 129.607 170.493C129.769 170.307 129.891 170.214 129.974 170.214C130.057 170.214 130.098 170.249 130.098 170.317C130.098 170.327 130.015 170.646 129.849 171.276C129.849 171.364 129.888 171.411 129.966 171.416H131.834C132.049 171.416 132.156 171.718 132.156 172.324C132.156 172.353 132.137 172.368 132.098 172.368H129.893ZM136.412 172.99C136.412 173.098 136.37 173.151 136.287 173.151C136.209 173.151 136.148 173.093 136.104 172.976C135.987 172.653 135.811 172.368 135.577 172.119C135.347 171.87 135.062 171.745 134.72 171.745C134.271 171.745 133.968 171.97 133.812 172.419C133.763 172.57 133.738 172.727 133.738 172.888C133.738 173.049 133.841 173.229 134.046 173.43C134.251 173.625 134.588 173.859 135.057 174.133C135.525 174.406 135.867 174.638 136.082 174.829C136.57 175.263 136.814 175.766 136.814 176.337C136.814 176.909 136.604 177.363 136.185 177.7C135.765 178.032 135.276 178.198 134.72 178.198C134.422 178.198 134.151 178.156 133.907 178.073C133.667 177.995 133.528 177.956 133.489 177.956C133.455 177.956 133.396 177.995 133.313 178.073C133.235 178.156 133.172 178.198 133.123 178.198H132.999C132.969 178.198 132.933 177.934 132.889 177.407C132.845 176.879 132.823 176.567 132.823 176.469C132.823 176.372 132.83 176.318 132.845 176.308C132.864 176.298 132.894 176.293 132.933 176.293C132.972 176.293 133.003 176.306 133.028 176.33C133.057 176.354 133.082 176.386 133.101 176.425C133.121 176.459 133.135 176.496 133.145 176.535C133.16 176.574 133.191 176.647 133.24 176.755C133.572 177.463 134.085 177.817 134.778 177.817C135.086 177.817 135.333 177.705 135.518 177.48C135.704 177.25 135.796 176.997 135.796 176.718C135.796 176.44 135.723 176.206 135.577 176.015C135.43 175.825 135.247 175.651 135.027 175.495C134.812 175.339 134.578 175.188 134.324 175.041C133.338 174.465 132.845 173.828 132.845 173.129C132.845 172.607 133.069 172.158 133.519 171.782C133.968 171.401 134.429 171.21 134.903 171.21C135.376 171.21 135.726 171.262 135.95 171.364C136.18 171.467 136.314 171.555 136.353 171.628C136.392 171.696 136.412 171.926 136.412 172.316V172.99Z" fill="black"/>
<path d="M79.7422 243.722C79.7178 243.761 79.6567 243.771 79.5591 243.751C79.4663 243.727 79.3564 243.714 79.2295 243.714C79.1025 243.714 78.9219 243.741 78.6875 243.795C78.458 243.844 78.0942 243.922 77.5962 244.029C77.0981 244.142 76.644 244.198 76.2339 244.198C75.3062 244.198 74.4053 243.98 73.5312 243.546C72.6621 243.106 71.9663 242.486 71.4438 241.686C70.9214 240.88 70.6602 239.947 70.6602 238.888C70.6602 237.828 70.9214 236.869 71.4438 236.009C72.2056 234.75 73.353 233.929 74.8862 233.548C75.3745 233.426 75.8628 233.365 76.3511 233.365C77.02 233.365 77.8135 233.478 78.7314 233.702C79.0098 233.771 79.2441 233.841 79.4346 233.915C79.6299 233.988 79.7495 234.024 79.7935 234.024L80.0132 233.966H80.2402C80.2988 233.966 80.3281 234.007 80.3281 234.09V236.368C80.3281 236.417 80.2842 236.441 80.1963 236.441C80.1084 236.441 80.0571 236.432 80.0425 236.412C80.0278 236.388 80.0132 236.361 79.9985 236.332C79.9839 236.297 79.9668 236.263 79.9473 236.229C79.9326 236.195 79.9155 236.163 79.896 236.134C79.8813 236.104 79.8716 236.083 79.8667 236.068C79.1343 234.598 78.0234 233.863 76.5342 233.863C75.1914 233.863 74.1416 234.291 73.3848 235.145C72.6279 236 72.2495 237.132 72.2495 238.543C72.2495 239.95 72.6646 241.158 73.4946 242.169C74.3296 243.18 75.4624 243.685 76.8931 243.685C77.6743 243.685 78.3848 243.453 79.0244 242.989C79.6689 242.525 80.1743 241.957 80.5405 241.283C80.5503 241.253 80.5796 241.239 80.6284 241.239H80.7236C80.7725 241.239 80.7969 241.268 80.7969 241.327C80.7969 241.385 80.7822 241.441 80.7529 241.495L79.7422 243.722ZM81.9102 240.711C81.9102 239.75 82.2495 238.924 82.9282 238.236C83.6118 237.542 84.4297 237.196 85.3818 237.196C86.334 237.196 87.1616 237.533 87.8647 238.207C88.5679 238.875 88.9194 239.703 88.9194 240.689C88.9194 241.676 88.585 242.508 87.916 243.187C87.252 243.861 86.417 244.198 85.4111 244.198C84.4053 244.198 83.5703 243.856 82.9062 243.172C82.2422 242.489 81.9102 241.668 81.9102 240.711ZM83.7339 242.594C84.2124 243.399 84.8643 243.802 85.6895 243.802C86.3291 243.802 86.8174 243.546 87.1543 243.033C87.4961 242.521 87.667 241.891 87.667 241.144C87.667 240.396 87.4277 239.63 86.9492 238.844C86.4756 238.058 85.8359 237.665 85.0303 237.665C84.4395 237.665 83.9731 237.921 83.6313 238.434C83.2944 238.941 83.126 239.588 83.126 240.375C83.126 241.156 83.3286 241.896 83.7339 242.594ZM95.3647 241.693L95.3501 240.147C95.3501 239.518 95.2964 239.076 95.189 238.822C95.0815 238.568 94.9448 238.377 94.7788 238.25C94.6128 238.119 94.3882 238.053 94.105 238.053C93.8267 238.053 93.2334 238.272 92.3252 238.712C92.2031 238.785 92.1396 238.854 92.1348 238.917V242.857C92.1348 243.351 92.3984 243.634 92.9258 243.707C93.1553 243.741 93.27 243.797 93.27 243.875C93.27 243.949 93.2456 243.99 93.1968 244H89.9302C89.8813 243.99 89.8569 243.956 89.8569 243.897C89.8569 243.805 89.9717 243.741 90.2012 243.707C90.7285 243.634 90.9922 243.351 90.9922 242.857V238.653C90.9922 238.448 90.8799 238.307 90.6553 238.229C90.5576 238.194 90.4526 238.167 90.3403 238.148C90.228 238.124 90.1377 238.102 90.0693 238.082C90.0059 238.062 89.9644 238.045 89.9448 238.031C89.9302 238.011 89.9229 237.975 89.9229 237.921C89.9229 237.862 89.9595 237.813 90.0327 237.774L91.9004 236.896C91.959 236.866 91.9956 236.852 92.0103 236.852C92.0933 236.852 92.1348 236.91 92.1348 237.027V238.17C92.1494 238.219 92.1689 238.243 92.1934 238.243C92.2227 238.243 92.3276 238.199 92.5083 238.111C92.9282 237.901 93.3506 237.699 93.7754 237.503C94.2002 237.308 94.5518 237.21 94.8301 237.21C95.958 237.21 96.522 238.238 96.522 240.294L96.4561 242.433V242.857C96.4561 243.238 96.6465 243.487 97.0273 243.604C97.1885 243.658 97.3423 243.697 97.4888 243.722C97.6401 243.741 97.7378 243.761 97.7817 243.78C97.8306 243.8 97.855 243.839 97.855 243.897C97.855 243.956 97.8306 243.99 97.7817 244H94.2515C94.2026 243.99 94.1782 243.956 94.1782 243.897C94.1782 243.805 94.293 243.741 94.5225 243.707C95.0449 243.634 95.3062 243.331 95.3062 242.799C95.3452 242.555 95.3647 242.186 95.3647 241.693ZM100.294 238.368C100.265 238.368 100.25 238.39 100.25 238.434V242.477C100.25 242.77 100.313 242.999 100.44 243.165C100.572 243.331 100.738 243.414 100.938 243.414C101.139 243.414 101.312 243.382 101.458 243.319C101.61 243.25 101.739 243.177 101.847 243.099C101.959 243.021 102.059 242.95 102.147 242.887C102.235 242.818 102.313 242.784 102.381 242.784C102.45 242.784 102.484 242.801 102.484 242.835C102.484 242.953 102.472 243.028 102.447 243.062C101.861 243.819 101.295 244.198 100.748 244.198C100.206 244.198 99.7959 244.027 99.5176 243.685C99.2441 243.338 99.1074 242.926 99.1074 242.447V238.368H98.5581C98.4214 238.368 98.3481 238.324 98.3384 238.236C98.3335 238.148 98.3481 238.092 98.3823 238.067C98.6411 237.901 98.9976 237.604 99.4517 237.174C99.5005 237.12 99.5664 237.04 99.6494 236.932C99.7324 236.825 99.8521 236.678 100.008 236.493C100.169 236.307 100.292 236.214 100.375 236.214C100.458 236.214 100.499 236.249 100.499 236.317C100.499 236.327 100.416 236.646 100.25 237.276C100.25 237.364 100.289 237.411 100.367 237.416H102.235C102.45 237.416 102.557 237.718 102.557 238.324C102.557 238.353 102.538 238.368 102.499 238.368H100.294ZM107.787 242.792C107.787 242.918 107.845 243.021 107.962 243.099C108.084 243.172 108.224 243.209 108.38 243.209C108.536 243.209 108.666 243.17 108.768 243.092C108.875 243.009 108.949 242.967 108.988 242.967C109.027 242.967 109.046 243.021 109.046 243.128C109.046 243.231 108.998 243.319 108.9 243.392C108.167 243.929 107.672 244.198 107.413 244.198C107.101 244.198 106.847 243.873 106.651 243.224C106.637 243.175 106.625 243.153 106.615 243.158C106.009 243.612 105.628 243.885 105.472 243.978C105.072 244.208 104.669 244.244 104.264 244.088C103.863 243.932 103.573 243.673 103.392 243.312C103.304 243.126 103.26 242.928 103.26 242.718C103.26 242.303 103.414 241.974 103.722 241.729C104.029 241.485 104.615 241.251 105.479 241.026C105.772 240.948 106.034 240.848 106.263 240.726C106.493 240.604 106.612 240.526 106.622 240.492C106.637 240.458 106.644 240.426 106.644 240.396V238.99C106.644 238.438 106.429 238.05 106 237.826C105.858 237.752 105.687 237.716 105.487 237.716C105.292 237.716 105.091 237.794 104.886 237.95C104.686 238.106 104.586 238.329 104.586 238.617L104.623 238.902C104.593 238.961 104.417 239.059 104.095 239.195C103.773 239.332 103.587 239.405 103.539 239.415C103.46 239.415 103.421 239.322 103.421 239.137C103.421 238.946 103.478 238.736 103.59 238.507C103.702 238.277 103.861 238.067 104.066 237.877C104.544 237.433 105.091 237.21 105.707 237.21C106.322 237.21 106.822 237.381 107.208 237.723C107.594 238.06 107.787 238.463 107.787 238.932V242.792ZM104.41 242.579C104.41 242.813 104.5 243.019 104.681 243.194C104.862 243.365 105.067 243.451 105.296 243.451C105.531 243.451 105.814 243.353 106.146 243.158C106.478 242.958 106.644 242.752 106.644 242.542V241.056C106.644 241.002 106.632 240.975 106.607 240.975C106.583 240.975 106.566 240.978 106.556 240.982L104.857 241.773C104.681 241.9 104.562 242.008 104.498 242.096C104.439 242.184 104.41 242.345 104.41 242.579ZM115.499 238.089C115.499 238.431 115.301 238.602 114.906 238.602C114.706 238.602 114.535 238.546 114.393 238.434C114.256 238.316 114.149 238.219 114.071 238.141C113.998 238.058 113.919 237.982 113.836 237.914C113.485 237.625 113.055 237.594 112.547 237.818C112.044 238.043 111.656 238.521 111.383 239.254C111.231 239.659 111.156 240.062 111.156 240.462C111.156 241.322 111.351 242.025 111.742 242.572C112.132 243.114 112.73 243.385 113.536 243.385C114.137 243.385 114.676 243.116 115.155 242.579C115.301 242.418 115.389 242.337 115.418 242.337C115.448 242.337 115.479 242.352 115.514 242.381C115.548 242.411 115.565 242.455 115.565 242.513C115.565 242.567 115.55 242.608 115.521 242.638C114.774 243.678 113.834 244.198 112.701 244.198C111.881 244.198 111.207 243.893 110.68 243.282C110.157 242.672 109.896 241.974 109.896 241.188C109.901 239.732 110.252 238.685 110.951 238.045C111.566 237.484 112.442 237.203 113.58 237.203C114.283 237.203 114.75 237.274 114.979 237.416C115.208 237.557 115.37 237.735 115.462 237.95C115.487 237.999 115.499 238.045 115.499 238.089ZM118.37 238.368C118.341 238.368 118.326 238.39 118.326 238.434V242.477C118.326 242.77 118.39 242.999 118.517 243.165C118.648 243.331 118.814 243.414 119.015 243.414C119.215 243.414 119.388 243.382 119.535 243.319C119.686 243.25 119.815 243.177 119.923 243.099C120.035 243.021 120.135 242.95 120.223 242.887C120.311 242.818 120.389 242.784 120.458 242.784C120.526 242.784 120.56 242.801 120.56 242.835C120.56 242.953 120.548 243.028 120.523 243.062C119.938 243.819 119.371 244.198 118.824 244.198C118.282 244.198 117.872 244.027 117.594 243.685C117.32 243.338 117.184 242.926 117.184 242.447V238.368H116.634C116.498 238.368 116.424 238.324 116.415 238.236C116.41 238.148 116.424 238.092 116.458 238.067C116.717 237.901 117.074 237.604 117.528 237.174C117.577 237.12 117.643 237.04 117.726 236.932C117.809 236.825 117.928 236.678 118.084 236.493C118.246 236.307 118.368 236.214 118.451 236.214C118.534 236.214 118.575 236.249 118.575 236.317C118.575 236.327 118.492 236.646 118.326 237.276C118.326 237.364 118.365 237.411 118.443 237.416H120.311C120.526 237.416 120.633 237.718 120.633 238.324C120.633 238.353 120.614 238.368 120.575 238.368H118.37ZM130.375 243.355C130.35 243.272 130.318 243.246 130.279 243.275C130.24 243.299 130.082 243.382 129.803 243.524C128.89 243.978 128.128 244.205 127.518 244.205C126.908 244.205 126.468 244.01 126.2 243.619C126.102 243.473 126.053 243.292 126.053 243.077V238.609C126.039 238.468 125.975 238.346 125.863 238.243C125.711 238.116 125.553 238.048 125.387 238.038C125.226 238.028 125.145 237.979 125.145 237.892C125.145 237.799 125.184 237.743 125.262 237.723L126.939 237.24C126.998 237.22 127.054 237.21 127.108 237.21C127.167 237.21 127.196 237.252 127.196 237.335V242.25C127.196 242.591 127.347 242.855 127.65 243.041C127.953 243.226 128.338 243.319 128.807 243.319C129.281 243.319 129.706 243.175 130.082 242.887C130.199 242.794 130.296 242.691 130.375 242.579V238.609C130.36 238.468 130.296 238.346 130.184 238.243C130.033 238.116 129.874 238.048 129.708 238.038C129.547 238.028 129.466 237.979 129.466 237.892C129.466 237.799 129.505 237.743 129.583 237.723L131.261 237.24C131.319 237.22 131.375 237.21 131.429 237.21C131.488 237.21 131.517 237.259 131.517 237.357V242.557C131.542 242.772 131.603 242.926 131.7 243.019C131.798 243.111 131.957 243.158 132.176 243.158L132.601 243.128C132.63 243.128 132.645 243.158 132.645 243.216C132.645 243.27 132.608 243.314 132.535 243.348L130.587 244.154C130.528 244.183 130.477 244.198 130.433 244.198C130.394 244.198 130.375 244.137 130.375 244.015V243.355ZM137.149 238.99C137.149 239.098 137.108 239.151 137.025 239.151C136.947 239.151 136.886 239.093 136.842 238.976C136.725 238.653 136.549 238.368 136.314 238.119C136.085 237.87 135.799 237.745 135.458 237.745C135.008 237.745 134.706 237.97 134.549 238.419C134.5 238.57 134.476 238.727 134.476 238.888C134.476 239.049 134.579 239.229 134.784 239.43C134.989 239.625 135.326 239.859 135.794 240.133C136.263 240.406 136.605 240.638 136.82 240.829C137.308 241.263 137.552 241.766 137.552 242.337C137.552 242.909 137.342 243.363 136.922 243.7C136.502 244.032 136.014 244.198 135.458 244.198C135.16 244.198 134.889 244.156 134.645 244.073C134.405 243.995 134.266 243.956 134.227 243.956C134.193 243.956 134.134 243.995 134.051 244.073C133.973 244.156 133.91 244.198 133.861 244.198H133.736C133.707 244.198 133.67 243.934 133.626 243.407C133.583 242.879 133.561 242.567 133.561 242.469C133.561 242.372 133.568 242.318 133.583 242.308C133.602 242.298 133.631 242.293 133.67 242.293C133.709 242.293 133.741 242.306 133.766 242.33C133.795 242.354 133.819 242.386 133.839 242.425C133.858 242.459 133.873 242.496 133.883 242.535C133.897 242.574 133.929 242.647 133.978 242.755C134.31 243.463 134.823 243.817 135.516 243.817C135.824 243.817 136.07 243.705 136.256 243.48C136.441 243.25 136.534 242.997 136.534 242.718C136.534 242.44 136.461 242.206 136.314 242.015C136.168 241.825 135.985 241.651 135.765 241.495C135.55 241.339 135.316 241.188 135.062 241.041C134.076 240.465 133.583 239.828 133.583 239.129C133.583 238.607 133.807 238.158 134.256 237.782C134.706 237.401 135.167 237.21 135.641 237.21C136.114 237.21 136.463 237.262 136.688 237.364C136.917 237.467 137.052 237.555 137.091 237.628C137.13 237.696 137.149 237.926 137.149 238.316V238.99Z" fill="black"/>
<path d="M77.6934 134.966C77.1074 134.966 76.8145 135.19 76.8145 135.64C76.8145 135.723 76.8291 135.811 76.8584 135.903C76.8926 135.996 76.9219 136.094 76.9463 136.196L79.7515 142.949C79.7759 142.998 79.8149 143.022 79.8687 143.022C79.9224 143.022 79.9663 142.996 80.0005 142.942L81.6191 139.133L80.1909 135.684C80.103 135.464 79.7368 135.254 79.0923 135.054C78.9019 134.995 78.7773 134.966 78.7188 134.966C78.665 134.966 78.6382 134.946 78.6382 134.907V134.731C78.6382 134.692 78.6577 134.673 78.6968 134.673H85.4058C85.4448 134.673 85.4644 134.692 85.4644 134.731V134.907C85.4644 134.946 85.4448 134.966 85.4058 134.966H85.1348C84.666 134.966 84.3096 135.195 84.0654 135.654C83.9824 135.811 83.897 135.994 83.8091 136.204L82.8569 138.438L84.7319 142.949C84.7563 142.998 84.7954 143.022 84.8491 143.022C84.9028 143.022 84.9468 142.996 84.981 142.942L88.0791 135.654C88.1377 135.518 88.167 135.396 88.167 135.288C88.167 135.073 87.8862 134.966 87.3247 134.966H86.8706C86.8315 134.966 86.812 134.946 86.812 134.907V134.731C86.812 134.692 86.8315 134.673 86.8706 134.673H90.1299C90.1689 134.673 90.1885 134.692 90.1885 134.731V134.907C90.1885 134.946 90.1689 134.966 90.1299 134.966H89.7856C89.5708 134.966 89.4072 135.042 89.2949 135.193C89.1875 135.339 89.0337 135.642 88.8335 136.101L85.0688 144.941C85.0151 145.059 84.959 145.129 84.9004 145.154C84.8418 145.183 84.7563 145.198 84.644 145.198H84.2998C84.1826 145.198 84.1045 145.144 84.0654 145.037L82.0879 140.247L80.0884 144.941C80.0347 145.059 79.9785 145.129 79.9199 145.154C79.8613 145.183 79.7759 145.198 79.6636 145.198H79.3193C79.2021 145.198 79.1265 145.142 79.0923 145.029L75.2104 135.684C75.1323 135.493 74.8906 135.327 74.4854 135.186C74.0801 135.039 73.8286 134.966 73.731 134.966C73.6382 134.966 73.5918 134.946 73.5918 134.907V134.731C73.5918 134.692 73.6113 134.673 73.6504 134.673H77.8252C77.8643 134.673 77.8838 134.692 77.8838 134.731V134.907C77.8838 134.946 77.8643 134.966 77.8252 134.966H77.6934ZM83.1865 135.31C83.1865 135.105 82.9766 134.993 82.5566 134.973C82.1318 134.998 81.8877 135.146 81.8242 135.42C81.8047 135.488 81.7949 135.564 81.7949 135.647C81.7949 135.725 81.8096 135.811 81.8389 135.903C81.873 135.996 81.9023 136.094 81.9268 136.196L82.3882 137.317L83.0986 135.654C83.1572 135.518 83.1865 135.403 83.1865 135.31ZM95.2568 143.792C95.2568 143.918 95.3154 144.021 95.4326 144.099C95.5547 144.172 95.6938 144.209 95.8501 144.209C96.0063 144.209 96.1357 144.17 96.2383 144.092C96.3457 144.009 96.4189 143.967 96.458 143.967C96.4971 143.967 96.5166 144.021 96.5166 144.128C96.5166 144.231 96.4678 144.319 96.3701 144.392C95.6377 144.929 95.1421 145.198 94.8833 145.198C94.5708 145.198 94.3169 144.873 94.1216 144.224C94.1069 144.175 94.0947 144.153 94.085 144.158C93.4795 144.612 93.0986 144.885 92.9424 144.978C92.542 145.208 92.1392 145.244 91.7339 145.088C91.3335 144.932 91.043 144.673 90.8623 144.312C90.7744 144.126 90.7305 143.928 90.7305 143.718C90.7305 143.303 90.8843 142.974 91.1919 142.729C91.4995 142.485 92.0854 142.251 92.9497 142.026C93.2427 141.948 93.5039 141.848 93.7334 141.726C93.9629 141.604 94.0825 141.526 94.0923 141.492C94.1069 141.458 94.1143 141.426 94.1143 141.396V139.99C94.1143 139.438 93.8994 139.05 93.4697 138.826C93.3281 138.752 93.1572 138.716 92.957 138.716C92.7617 138.716 92.5615 138.794 92.3564 138.95C92.1562 139.106 92.0562 139.329 92.0562 139.617L92.0928 139.902C92.0635 139.961 91.8877 140.059 91.5654 140.195C91.2432 140.332 91.0576 140.405 91.0088 140.415C90.9307 140.415 90.8916 140.322 90.8916 140.137C90.8916 139.946 90.9478 139.736 91.0601 139.507C91.1724 139.277 91.3311 139.067 91.5361 138.877C92.0146 138.433 92.5615 138.21 93.1768 138.21C93.792 138.21 94.2925 138.381 94.6782 138.723C95.064 139.06 95.2568 139.463 95.2568 139.932V143.792ZM91.8804 143.579C91.8804 143.813 91.9707 144.019 92.1514 144.194C92.332 144.365 92.5371 144.451 92.7666 144.451C93.001 144.451 93.2842 144.353 93.6162 144.158C93.9482 143.958 94.1143 143.752 94.1143 143.542V142.056C94.1143 142.002 94.1021 141.975 94.0776 141.975C94.0532 141.975 94.0361 141.978 94.0264 141.982L92.3271 142.773C92.1514 142.9 92.0317 143.008 91.9683 143.096C91.9097 143.184 91.8804 143.345 91.8804 143.579ZM101.673 139.749C101.614 139.739 101.529 139.707 101.417 139.653C101.011 139.468 100.694 139.375 100.464 139.375C100.235 139.375 99.9932 139.519 99.7393 139.807C99.4902 140.09 99.3657 140.347 99.3657 140.576V143.887C99.3657 144.253 99.5781 144.497 100.003 144.619C100.188 144.668 100.362 144.705 100.523 144.729C100.684 144.749 100.787 144.768 100.831 144.788C100.879 144.807 100.904 144.846 100.904 144.905C100.904 144.958 100.879 144.99 100.831 145H97.1611C97.1123 144.99 97.0879 144.956 97.0879 144.897C97.0879 144.81 97.2026 144.751 97.4321 144.722C97.9595 144.644 98.2231 144.365 98.2231 143.887V140.012C98.2231 139.807 98.1108 139.666 97.8862 139.587C97.7886 139.553 97.6836 139.526 97.5713 139.507C97.459 139.482 97.3687 139.46 97.3003 139.441C97.2368 139.421 97.1953 139.404 97.1758 139.39C97.1611 139.37 97.1538 139.333 97.1538 139.28C97.1538 139.221 97.1904 139.172 97.2637 139.133L99.1313 138.254C99.1899 138.225 99.2266 138.21 99.2412 138.21C99.3242 138.21 99.3657 138.269 99.3657 138.386V139.573C99.3657 139.631 99.3804 139.661 99.4097 139.661C99.4487 139.661 99.5488 139.546 99.71 139.316C100.174 138.667 100.557 138.342 100.86 138.342C101.031 138.342 101.292 138.411 101.644 138.547C102 138.684 102.178 138.799 102.178 138.892C102.178 139.004 102.122 139.175 102.01 139.404C101.897 139.634 101.785 139.749 101.673 139.749ZM107.151 139.749C107.093 139.739 107.007 139.707 106.895 139.653C106.49 139.468 106.172 139.375 105.943 139.375C105.713 139.375 105.472 139.519 105.218 139.807C104.969 140.09 104.844 140.347 104.844 140.576V143.887C104.844 144.253 105.057 144.497 105.481 144.619C105.667 144.668 105.84 144.705 106.001 144.729C106.163 144.749 106.265 144.768 106.309 144.788C106.358 144.807 106.382 144.846 106.382 144.905C106.382 144.958 106.358 144.99 106.309 145H102.64C102.591 144.99 102.566 144.956 102.566 144.897C102.566 144.81 102.681 144.751 102.911 144.722C103.438 144.644 103.702 144.365 103.702 143.887V140.012C103.702 139.807 103.589 139.666 103.365 139.587C103.267 139.553 103.162 139.526 103.05 139.507C102.938 139.482 102.847 139.46 102.779 139.441C102.715 139.421 102.674 139.404 102.654 139.39C102.64 139.37 102.632 139.333 102.632 139.28C102.632 139.221 102.669 139.172 102.742 139.133L104.61 138.254C104.668 138.225 104.705 138.21 104.72 138.21C104.803 138.21 104.844 138.269 104.844 138.386V139.573C104.844 139.631 104.859 139.661 104.888 139.661C104.927 139.661 105.027 139.546 105.188 139.316C105.652 138.667 106.036 138.342 106.338 138.342C106.509 138.342 106.771 138.411 107.122 138.547C107.479 138.684 107.657 138.799 107.657 138.892C107.657 139.004 107.601 139.175 107.488 139.404C107.376 139.634 107.264 139.749 107.151 139.749ZM112.703 143.792C112.703 143.918 112.762 144.021 112.879 144.099C113.001 144.172 113.14 144.209 113.296 144.209C113.453 144.209 113.582 144.17 113.685 144.092C113.792 144.009 113.865 143.967 113.904 143.967C113.943 143.967 113.963 144.021 113.963 144.128C113.963 144.231 113.914 144.319 113.816 144.392C113.084 144.929 112.588 145.198 112.33 145.198C112.017 145.198 111.763 144.873 111.568 144.224C111.553 144.175 111.541 144.153 111.531 144.158C110.926 144.612 110.545 144.885 110.389 144.978C109.988 145.208 109.585 145.244 109.18 145.088C108.78 144.932 108.489 144.673 108.309 144.312C108.221 144.126 108.177 143.928 108.177 143.718C108.177 143.303 108.331 142.974 108.638 142.729C108.946 142.485 109.532 142.251 110.396 142.026C110.689 141.948 110.95 141.848 111.18 141.726C111.409 141.604 111.529 141.526 111.539 141.492C111.553 141.458 111.561 141.426 111.561 141.396V139.99C111.561 139.438 111.346 139.05 110.916 138.826C110.774 138.752 110.604 138.716 110.403 138.716C110.208 138.716 110.008 138.794 109.803 138.95C109.603 139.106 109.502 139.329 109.502 139.617L109.539 139.902C109.51 139.961 109.334 140.059 109.012 140.195C108.689 140.332 108.504 140.405 108.455 140.415C108.377 140.415 108.338 140.322 108.338 140.137C108.338 139.946 108.394 139.736 108.506 139.507C108.619 139.277 108.777 139.067 108.982 138.877C109.461 138.433 110.008 138.21 110.623 138.21C111.238 138.21 111.739 138.381 112.125 138.723C112.51 139.06 112.703 139.463 112.703 139.932V143.792ZM109.327 143.579C109.327 143.813 109.417 144.019 109.598 144.194C109.778 144.365 109.983 144.451 110.213 144.451C110.447 144.451 110.73 144.353 111.062 144.158C111.395 143.958 111.561 143.752 111.561 143.542V142.056C111.561 142.002 111.548 141.975 111.524 141.975C111.5 141.975 111.482 141.978 111.473 141.982L109.773 142.773C109.598 142.9 109.478 143.008 109.415 143.096C109.356 143.184 109.327 143.345 109.327 143.579ZM120.042 142.693L120.027 141.147C120.027 140.518 119.974 140.076 119.866 139.822C119.759 139.568 119.622 139.377 119.456 139.25C119.29 139.119 119.065 139.053 118.782 139.053C118.504 139.053 117.911 139.272 117.002 139.712C116.88 139.785 116.817 139.854 116.812 139.917V143.857C116.812 144.351 117.076 144.634 117.603 144.707C117.833 144.741 117.947 144.797 117.947 144.875C117.947 144.949 117.923 144.99 117.874 145H114.607C114.559 144.99 114.534 144.956 114.534 144.897C114.534 144.805 114.649 144.741 114.878 144.707C115.406 144.634 115.669 144.351 115.669 143.857V139.653C115.669 139.448 115.557 139.307 115.333 139.229C115.235 139.194 115.13 139.167 115.018 139.148C114.905 139.124 114.815 139.102 114.747 139.082C114.683 139.062 114.642 139.045 114.622 139.031C114.607 139.011 114.6 138.975 114.6 138.921C114.6 138.862 114.637 138.813 114.71 138.774L116.578 137.896C116.636 137.866 116.673 137.852 116.688 137.852C116.771 137.852 116.812 137.91 116.812 138.027V139.17C116.827 139.219 116.846 139.243 116.871 139.243C116.9 139.243 117.005 139.199 117.186 139.111C117.605 138.901 118.028 138.699 118.453 138.503C118.877 138.308 119.229 138.21 119.507 138.21C120.635 138.21 121.199 139.238 121.199 141.294L121.133 143.433V143.857C121.133 144.238 121.324 144.487 121.705 144.604C121.866 144.658 122.02 144.697 122.166 144.722C122.317 144.741 122.415 144.761 122.459 144.78C122.508 144.8 122.532 144.839 122.532 144.897C122.532 144.956 122.508 144.99 122.459 145H118.929C118.88 144.99 118.855 144.956 118.855 144.897C118.855 144.805 118.97 144.741 119.2 144.707C119.722 144.634 119.983 144.331 119.983 143.799C120.022 143.555 120.042 143.186 120.042 142.693ZM124.971 139.368C124.942 139.368 124.927 139.39 124.927 139.434V143.477C124.927 143.77 124.991 143.999 125.118 144.165C125.25 144.331 125.416 144.414 125.616 144.414C125.816 144.414 125.989 144.382 126.136 144.319C126.287 144.25 126.417 144.177 126.524 144.099C126.636 144.021 126.736 143.95 126.824 143.887C126.912 143.818 126.99 143.784 127.059 143.784C127.127 143.784 127.161 143.801 127.161 143.835C127.161 143.953 127.149 144.028 127.125 144.062C126.539 144.819 125.972 145.198 125.425 145.198C124.883 145.198 124.473 145.027 124.195 144.685C123.921 144.338 123.785 143.926 123.785 143.447V139.368H123.235C123.099 139.368 123.025 139.324 123.016 139.236C123.011 139.148 123.025 139.092 123.06 139.067C123.318 138.901 123.675 138.604 124.129 138.174C124.178 138.12 124.244 138.04 124.327 137.932C124.41 137.825 124.529 137.678 124.686 137.493C124.847 137.307 124.969 137.214 125.052 137.214C125.135 137.214 125.176 137.249 125.176 137.317C125.176 137.327 125.093 137.646 124.927 138.276C124.927 138.364 124.966 138.411 125.044 138.416H126.912C127.127 138.416 127.234 138.718 127.234 139.324C127.234 139.353 127.215 139.368 127.176 139.368H124.971ZM135.086 138.408C135.14 138.423 135.167 138.457 135.167 138.511C135.167 138.564 135.162 138.601 135.152 138.621C135.142 138.635 135.118 138.65 135.079 138.665C135.044 138.674 134.993 138.684 134.925 138.694C134.861 138.704 134.759 138.723 134.617 138.752C134.476 138.777 134.349 138.875 134.236 139.045C134.124 139.216 134.004 139.453 133.877 139.756L130.435 148.289L129.959 149.299C129.837 149.558 129.581 149.688 129.19 149.688C129.019 149.688 128.882 149.631 128.78 149.519C128.677 149.407 128.626 149.272 128.626 149.116C128.626 148.965 128.663 148.853 128.736 148.779C128.814 148.711 128.904 148.655 129.007 148.611C129.109 148.567 129.214 148.525 129.322 148.486C129.434 148.452 129.559 148.369 129.695 148.237C129.832 148.11 129.913 148.015 129.937 147.952C130.757 146.116 131.167 145.156 131.167 145.073C131.167 144.99 131.119 144.888 131.021 144.766L128.604 139.719C128.423 139.226 128.113 138.909 127.674 138.767C127.64 138.757 127.598 138.75 127.549 138.745C127.344 138.726 127.242 138.665 127.242 138.562C127.242 138.459 127.3 138.408 127.417 138.408H130.677C130.716 138.408 130.735 138.447 130.735 138.525C130.735 138.599 130.701 138.65 130.633 138.679C130.564 138.704 130.413 138.716 130.179 138.716C129.803 138.716 129.615 138.862 129.615 139.155L129.681 139.331L131.578 143.396C131.675 143.645 131.773 143.638 131.871 143.374C131.88 143.35 131.941 143.191 132.054 142.898C132.718 141.213 133.089 140.239 133.167 139.976C133.25 139.712 133.292 139.514 133.292 139.382C133.292 139.25 133.221 139.111 133.079 138.965C132.942 138.818 132.752 138.745 132.508 138.745C132.269 138.745 132.149 138.674 132.149 138.533C132.149 138.45 132.203 138.408 132.31 138.408H135.086Z" fill="black"/>
<path d="M48.814 211C48.7749 211 48.7554 210.951 48.7554 210.854V210.766C48.7554 210.727 48.7749 210.707 48.814 210.707C48.8433 210.707 48.8896 210.702 48.9531 210.692C49.0166 210.683 49.0825 210.673 49.1509 210.663C49.2192 210.653 49.2827 210.644 49.3413 210.634C49.3999 210.619 49.4414 210.609 49.4658 210.604C49.9639 210.492 50.2129 210.209 50.2129 209.755V202.021C50.2129 201.601 50.0444 201.303 49.7075 201.127C49.5073 201.02 49.2925 200.966 49.063 200.966H48.7847C48.7456 200.966 48.7261 200.946 48.7261 200.907V200.731C48.7261 200.692 48.7554 200.673 48.814 200.673L52.835 200.563H53.5747C54.439 200.622 55.1616 200.937 55.7427 201.508C56.3286 202.074 56.6216 202.775 56.6216 203.61C56.6216 204.44 56.2749 205.087 55.5815 205.551C55.3667 205.692 55.1348 205.819 54.8857 205.932L57.105 209.557C57.4907 210.192 58.0083 210.639 58.6577 210.897C58.7114 210.912 58.7383 210.946 58.7383 211C58.7383 211.122 58.6577 211.183 58.4966 211.183C57.3979 211.183 56.5239 210.766 55.8745 209.931C55.7329 209.745 55.5913 209.538 55.4497 209.308L53.5527 206.334L51.8096 206.254H51.751C51.6777 206.254 51.6411 206.288 51.6411 206.356V209.733C51.6411 210.001 51.7168 210.202 51.8682 210.333C52.0195 210.465 52.2808 210.556 52.6519 210.604C52.7495 210.619 52.8691 210.641 53.0107 210.67C53.1523 210.695 53.2476 210.707 53.2964 210.707C53.3501 210.707 53.377 210.727 53.377 210.766V210.941C53.377 210.98 53.3574 211 53.3184 211H48.814ZM52.2344 200.951C52.1758 200.951 52.1123 200.954 52.0439 200.958C51.9805 200.958 51.8975 200.961 51.7949 200.966C51.6924 200.966 51.6411 201.005 51.6411 201.083V205.521L51.6558 205.741C51.6704 205.844 51.7168 205.897 51.7949 205.902L52.542 205.946C53.9141 205.946 54.7417 205.458 55.0249 204.481C55.1177 204.174 55.1641 203.822 55.1641 203.427C55.1641 202.655 54.9224 202.047 54.439 201.603C53.9604 201.159 53.3477 200.937 52.6006 200.937C52.5322 200.937 52.4688 200.939 52.4102 200.944C52.3516 200.944 52.293 200.946 52.2344 200.951ZM60.5254 207.14C60.4424 207.14 60.4009 207.318 60.4009 207.675C60.4009 208.432 60.6255 209.066 61.0747 209.579C61.5239 210.092 62.0806 210.348 62.7446 210.348C63.4136 210.348 64.0557 210.06 64.6709 209.484C64.6807 209.474 64.6929 209.469 64.7075 209.469H64.7441C64.7734 209.469 64.8003 209.494 64.8247 209.542C64.854 209.586 64.8809 209.616 64.9053 209.63C64.3389 210.319 63.6724 210.795 62.9058 211.059C62.6421 211.151 62.3442 211.198 62.0122 211.198C61.6802 211.198 61.3433 211.107 61.0015 210.927C60.6597 210.741 60.3667 210.5 60.1226 210.202C59.605 209.582 59.3462 208.81 59.3462 207.887C59.3462 206.959 59.627 206.115 60.1885 205.353C60.7549 204.591 61.5312 204.21 62.5176 204.21C63.2256 204.21 63.8042 204.528 64.2534 205.163C64.7026 205.792 64.9272 206.347 64.9272 206.825C64.9272 207.035 64.876 207.14 64.7734 207.14H60.5254ZM60.606 206.437C60.606 206.53 60.6499 206.576 60.7378 206.576H63.499C63.626 206.576 63.6895 206.5 63.6895 206.349C63.6895 205.998 63.5308 205.639 63.2134 205.272C62.9009 204.901 62.5566 204.716 62.1807 204.716C61.8145 204.716 61.48 204.882 61.1772 205.214C60.8794 205.546 60.689 205.924 60.606 206.349V206.437ZM67.9375 205.368C67.9082 205.368 67.8936 205.39 67.8936 205.434V209.477C67.8936 209.77 67.957 209.999 68.084 210.165C68.2158 210.331 68.3818 210.414 68.582 210.414C68.7822 210.414 68.9556 210.382 69.1021 210.319C69.2534 210.25 69.3828 210.177 69.4902 210.099C69.6025 210.021 69.7026 209.95 69.7905 209.887C69.8784 209.818 69.9565 209.784 70.0249 209.784C70.0933 209.784 70.1274 209.801 70.1274 209.835C70.1274 209.953 70.1152 210.028 70.0908 210.062C69.5049 210.819 68.9385 211.198 68.3916 211.198C67.8496 211.198 67.4395 211.027 67.1611 210.685C66.8877 210.338 66.751 209.926 66.751 209.447V205.368H66.2017C66.0649 205.368 65.9917 205.324 65.9819 205.236C65.9771 205.148 65.9917 205.092 66.0259 205.067C66.2847 204.901 66.6411 204.604 67.0952 204.174C67.144 204.12 67.21 204.04 67.293 203.932C67.376 203.825 67.4956 203.678 67.6519 203.493C67.813 203.307 67.9351 203.214 68.0181 203.214C68.1011 203.214 68.1426 203.249 68.1426 203.317C68.1426 203.327 68.0596 203.646 67.8936 204.276C67.8936 204.364 67.9326 204.411 68.0107 204.416H69.8784C70.0933 204.416 70.2007 204.718 70.2007 205.324C70.2007 205.353 70.1812 205.368 70.1421 205.368H67.9375ZM75.9136 210.355C75.8892 210.272 75.8574 210.246 75.8184 210.275C75.7793 210.299 75.6206 210.382 75.3423 210.524C74.4292 210.978 73.6675 211.205 73.0571 211.205C72.4468 211.205 72.0073 211.01 71.7388 210.619C71.6411 210.473 71.5923 210.292 71.5923 210.077V205.609C71.5776 205.468 71.5142 205.346 71.4019 205.243C71.2505 205.116 71.0918 205.048 70.9258 205.038C70.7646 205.028 70.6841 204.979 70.6841 204.892C70.6841 204.799 70.7231 204.743 70.8013 204.723L72.4785 204.24C72.5371 204.22 72.5933 204.21 72.647 204.21C72.7056 204.21 72.7349 204.252 72.7349 204.335V209.25C72.7349 209.591 72.8862 209.855 73.189 210.041C73.4917 210.226 73.8774 210.319 74.3462 210.319C74.8198 210.319 75.2446 210.175 75.6206 209.887C75.7378 209.794 75.8354 209.691 75.9136 209.579V205.609C75.8989 205.468 75.8354 205.346 75.7231 205.243C75.5718 205.116 75.4131 205.048 75.2471 205.038C75.0859 205.028 75.0054 204.979 75.0054 204.892C75.0054 204.799 75.0444 204.743 75.1226 204.723L76.7998 204.24C76.8584 204.22 76.9146 204.21 76.9683 204.21C77.0269 204.21 77.0562 204.259 77.0562 204.357V209.557C77.0806 209.772 77.1416 209.926 77.2393 210.019C77.3369 210.111 77.4956 210.158 77.7153 210.158L78.1401 210.128C78.1694 210.128 78.1841 210.158 78.1841 210.216C78.1841 210.27 78.1475 210.314 78.0742 210.348L76.126 211.154C76.0674 211.183 76.0161 211.198 75.9722 211.198C75.9331 211.198 75.9136 211.137 75.9136 211.015V210.355ZM83.5894 205.749C83.5308 205.739 83.4453 205.707 83.333 205.653C82.9277 205.468 82.6104 205.375 82.3809 205.375C82.1514 205.375 81.9097 205.519 81.6558 205.807C81.4067 206.09 81.2822 206.347 81.2822 206.576V209.887C81.2822 210.253 81.4946 210.497 81.9194 210.619C82.105 210.668 82.2783 210.705 82.4395 210.729C82.6006 210.749 82.7031 210.768 82.7471 210.788C82.7959 210.807 82.8203 210.846 82.8203 210.905C82.8203 210.958 82.7959 210.99 82.7471 211H79.0776C79.0288 210.99 79.0044 210.956 79.0044 210.897C79.0044 210.81 79.1191 210.751 79.3486 210.722C79.876 210.644 80.1396 210.365 80.1396 209.887V206.012C80.1396 205.807 80.0273 205.666 79.8027 205.587C79.7051 205.553 79.6001 205.526 79.4878 205.507C79.3755 205.482 79.2852 205.46 79.2168 205.441C79.1533 205.421 79.1118 205.404 79.0923 205.39C79.0776 205.37 79.0703 205.333 79.0703 205.28C79.0703 205.221 79.1069 205.172 79.1802 205.133L81.0479 204.254C81.1064 204.225 81.1431 204.21 81.1577 204.21C81.2407 204.21 81.2822 204.269 81.2822 204.386V205.573C81.2822 205.631 81.2969 205.661 81.3262 205.661C81.3652 205.661 81.4653 205.546 81.6265 205.316C82.0903 204.667 82.4736 204.342 82.7764 204.342C82.9473 204.342 83.2085 204.411 83.5601 204.547C83.9165 204.684 84.0947 204.799 84.0947 204.892C84.0947 205.004 84.0386 205.175 83.9263 205.404C83.814 205.634 83.7017 205.749 83.5894 205.749ZM89.9907 208.693L89.9761 207.147C89.9761 206.518 89.9224 206.076 89.8149 205.822C89.7075 205.568 89.5708 205.377 89.4048 205.25C89.2388 205.119 89.0142 205.053 88.731 205.053C88.4526 205.053 87.8594 205.272 86.9512 205.712C86.8291 205.785 86.7656 205.854 86.7607 205.917V209.857C86.7607 210.351 87.0244 210.634 87.5518 210.707C87.7812 210.741 87.896 210.797 87.896 210.875C87.896 210.949 87.8716 210.99 87.8228 211H84.5562C84.5073 210.99 84.4829 210.956 84.4829 210.897C84.4829 210.805 84.5977 210.741 84.8271 210.707C85.3545 210.634 85.6182 210.351 85.6182 209.857V205.653C85.6182 205.448 85.5059 205.307 85.2812 205.229C85.1836 205.194 85.0786 205.167 84.9663 205.148C84.854 205.124 84.7637 205.102 84.6953 205.082C84.6318 205.062 84.5903 205.045 84.5708 205.031C84.5562 205.011 84.5488 204.975 84.5488 204.921C84.5488 204.862 84.5854 204.813 84.6587 204.774L86.5264 203.896C86.585 203.866 86.6216 203.852 86.6362 203.852C86.7192 203.852 86.7607 203.91 86.7607 204.027V205.17C86.7754 205.219 86.7949 205.243 86.8193 205.243C86.8486 205.243 86.9536 205.199 87.1343 205.111C87.5542 204.901 87.9766 204.699 88.4014 204.503C88.8262 204.308 89.1777 204.21 89.4561 204.21C90.584 204.21 91.1479 205.238 91.1479 207.294L91.082 209.433V209.857C91.082 210.238 91.2725 210.487 91.6533 210.604C91.8145 210.658 91.9683 210.697 92.1147 210.722C92.2661 210.741 92.3638 210.761 92.4077 210.78C92.4565 210.8 92.481 210.839 92.481 210.897C92.481 210.956 92.4565 210.99 92.4077 211H88.8774C88.8286 210.99 88.8042 210.956 88.8042 210.897C88.8042 210.805 88.9189 210.741 89.1484 210.707C89.6709 210.634 89.9321 210.331 89.9321 209.799C89.9712 209.555 89.9907 209.186 89.9907 208.693ZM96.6924 205.99C96.6924 206.098 96.6509 206.151 96.5679 206.151C96.4897 206.151 96.4287 206.093 96.3848 205.976C96.2676 205.653 96.0918 205.368 95.8574 205.119C95.6279 204.87 95.3423 204.745 95.0005 204.745C94.5513 204.745 94.2485 204.97 94.0923 205.419C94.0435 205.57 94.019 205.727 94.019 205.888C94.019 206.049 94.1216 206.229 94.3267 206.43C94.5317 206.625 94.8687 206.859 95.3374 207.133C95.8062 207.406 96.1479 207.638 96.3628 207.829C96.8511 208.263 97.0952 208.766 97.0952 209.337C97.0952 209.909 96.8853 210.363 96.4653 210.7C96.0454 211.032 95.5571 211.198 95.0005 211.198C94.7026 211.198 94.4316 211.156 94.1875 211.073C93.9482 210.995 93.8091 210.956 93.77 210.956C93.7358 210.956 93.6772 210.995 93.5942 211.073C93.5161 211.156 93.4526 211.198 93.4038 211.198H93.2793C93.25 211.198 93.2134 210.934 93.1694 210.407C93.1255 209.879 93.1035 209.567 93.1035 209.469C93.1035 209.372 93.1108 209.318 93.1255 209.308C93.145 209.298 93.1743 209.293 93.2134 209.293C93.2524 209.293 93.2842 209.306 93.3086 209.33C93.3379 209.354 93.3623 209.386 93.3818 209.425C93.4014 209.459 93.416 209.496 93.4258 209.535C93.4404 209.574 93.4722 209.647 93.521 209.755C93.853 210.463 94.3657 210.817 95.0591 210.817C95.3667 210.817 95.6133 210.705 95.7988 210.48C95.9844 210.25 96.0771 209.997 96.0771 209.718C96.0771 209.44 96.0039 209.206 95.8574 209.015C95.7109 208.825 95.5278 208.651 95.3081 208.495C95.0933 208.339 94.8589 208.188 94.605 208.041C93.6187 207.465 93.1255 206.828 93.1255 206.129C93.1255 205.607 93.3501 205.158 93.7993 204.782C94.2485 204.401 94.71 204.21 95.1836 204.21C95.6572 204.21 96.0063 204.262 96.231 204.364C96.4604 204.467 96.5947 204.555 96.6338 204.628C96.6729 204.696 96.6924 204.926 96.6924 205.316V205.99ZM111.912 210.297C111.951 210.297 111.971 210.343 111.971 210.436C111.971 210.524 111.956 210.573 111.927 210.583C111.263 211.012 110.691 211.227 110.213 211.227C109.739 211.227 109.332 211.005 108.99 210.561C108.824 210.355 108.663 210.128 108.506 209.879C108.35 209.63 108.218 209.44 108.111 209.308C106.739 210.568 105.521 211.198 104.456 211.198C103.748 211.198 103.135 210.907 102.618 210.326C102.105 209.74 101.849 209.081 101.849 208.349C101.849 207.323 102.408 206.496 103.526 205.866C103.863 205.675 104.227 205.502 104.617 205.346C104.061 204.804 103.716 204.301 103.584 203.837C103.536 203.651 103.511 203.427 103.511 203.163C103.511 202.636 103.731 202.211 104.17 201.889C104.61 201.562 105.108 201.398 105.665 201.398C106.221 201.398 106.705 201.562 107.115 201.889C107.53 202.211 107.737 202.638 107.737 203.17C107.737 203.8 107.276 204.396 106.353 204.958C106.246 205.021 106.187 205.058 106.177 205.067C106.167 205.077 106.163 205.099 106.163 205.133C106.163 205.163 106.189 205.204 106.243 205.258C106.302 205.307 106.365 205.363 106.434 205.426C106.507 205.49 106.612 205.585 106.749 205.712C106.89 205.839 107.029 205.958 107.166 206.071C107.303 206.183 107.581 206.505 108.001 207.038C108.421 207.57 108.643 207.836 108.667 207.836C108.721 207.836 108.758 207.816 108.777 207.777L110.455 205.243C110.577 205.058 110.638 204.899 110.638 204.767C110.638 204.635 110.596 204.545 110.513 204.496C110.43 204.442 110.337 204.406 110.235 204.386C110.137 204.362 110.047 204.34 109.964 204.32C109.881 204.296 109.839 204.242 109.839 204.159C109.839 204.071 109.864 204.027 109.913 204.027H112.601C112.62 204.062 112.63 204.115 112.63 204.188C112.63 204.257 112.618 204.301 112.593 204.32C112.564 204.34 112.403 204.364 112.11 204.394C111.631 204.438 111.299 204.606 111.114 204.899L108.953 208.319L109.869 209.894C110.142 210.373 110.477 210.612 110.872 210.612C111.082 210.612 111.29 210.565 111.495 210.473C111.7 210.38 111.839 210.321 111.912 210.297ZM105.079 210.326C105.567 210.326 106.023 210.211 106.448 209.982C106.873 209.748 107.298 209.452 107.723 209.096C107.806 209.018 107.845 208.957 107.84 208.913C107.84 208.869 107.84 208.842 107.84 208.832C107.835 208.822 107.833 208.81 107.833 208.795C107.173 207.663 106.363 206.71 105.401 205.939C105.347 205.895 105.284 205.841 105.21 205.778C105.137 205.714 105.066 205.683 104.998 205.683C104.91 205.683 104.769 205.741 104.573 205.858C104.158 206.103 103.819 206.447 103.555 206.891C103.296 207.335 103.167 207.743 103.167 208.114C103.167 208.759 103.365 209.289 103.76 209.704C104.156 210.119 104.595 210.326 105.079 210.326ZM106.763 203.2C106.763 202.292 106.38 201.837 105.613 201.837C105.12 201.837 104.8 202.06 104.654 202.504C104.61 202.641 104.588 202.841 104.588 203.104C104.588 203.363 104.688 203.656 104.888 203.983C105.088 204.311 105.359 204.579 105.701 204.789C106.004 204.735 106.255 204.538 106.456 204.196C106.661 203.854 106.763 203.522 106.763 203.2ZM126.707 210.722C126.683 210.761 126.622 210.771 126.524 210.751C126.431 210.727 126.321 210.714 126.194 210.714C126.067 210.714 125.887 210.741 125.652 210.795C125.423 210.844 125.059 210.922 124.561 211.029C124.063 211.142 123.609 211.198 123.199 211.198C122.271 211.198 121.37 210.98 120.496 210.546C119.627 210.106 118.931 209.486 118.409 208.686C117.886 207.88 117.625 206.947 117.625 205.888C117.625 204.828 117.886 203.869 118.409 203.009C119.17 201.75 120.318 200.929 121.851 200.548C122.339 200.426 122.828 200.365 123.316 200.365C123.985 200.365 124.778 200.478 125.696 200.702C125.975 200.771 126.209 200.841 126.399 200.915C126.595 200.988 126.714 201.024 126.758 201.024L126.978 200.966H127.205C127.264 200.966 127.293 201.007 127.293 201.09V203.368C127.293 203.417 127.249 203.441 127.161 203.441C127.073 203.441 127.022 203.432 127.007 203.412C126.993 203.388 126.978 203.361 126.963 203.332C126.949 203.297 126.932 203.263 126.912 203.229C126.897 203.195 126.88 203.163 126.861 203.134C126.846 203.104 126.836 203.083 126.832 203.068C126.099 201.598 124.988 200.863 123.499 200.863C122.156 200.863 121.106 201.291 120.35 202.145C119.593 203 119.214 204.132 119.214 205.543C119.214 206.95 119.629 208.158 120.459 209.169C121.294 210.18 122.427 210.685 123.858 210.685C124.639 210.685 125.35 210.453 125.989 209.989C126.634 209.525 127.139 208.957 127.505 208.283C127.515 208.253 127.544 208.239 127.593 208.239H127.688C127.737 208.239 127.762 208.268 127.762 208.327C127.762 208.385 127.747 208.441 127.718 208.495L126.707 210.722ZM131.541 210.722C131.771 210.751 131.885 210.81 131.885 210.897C131.885 210.956 131.861 210.99 131.812 211H128.545C128.497 210.99 128.472 210.956 128.472 210.897C128.472 210.81 128.587 210.751 128.816 210.722C129.344 210.644 129.607 210.365 129.607 209.887V200.753C129.607 200.548 129.495 200.407 129.271 200.329C129.173 200.294 129.068 200.268 128.956 200.248C128.843 200.224 128.753 200.202 128.685 200.182C128.621 200.163 128.58 200.146 128.56 200.131C128.545 200.111 128.538 200.075 128.538 200.021C128.538 199.962 128.575 199.914 128.648 199.875L130.516 198.996C130.574 198.966 130.611 198.952 130.625 198.952C130.708 198.952 130.75 199.01 130.75 199.127V209.887C130.75 210.365 131.014 210.644 131.541 210.722ZM137.188 209.792C137.188 209.918 137.247 210.021 137.364 210.099C137.486 210.172 137.625 210.209 137.781 210.209C137.938 210.209 138.067 210.17 138.169 210.092C138.277 210.009 138.35 209.967 138.389 209.967C138.428 209.967 138.448 210.021 138.448 210.128C138.448 210.231 138.399 210.319 138.301 210.392C137.569 210.929 137.073 211.198 136.814 211.198C136.502 211.198 136.248 210.873 136.053 210.224C136.038 210.175 136.026 210.153 136.016 210.158C135.411 210.612 135.03 210.885 134.874 210.978C134.473 211.208 134.07 211.244 133.665 211.088C133.265 210.932 132.974 210.673 132.793 210.312C132.706 210.126 132.662 209.928 132.662 209.718C132.662 209.303 132.815 208.974 133.123 208.729C133.431 208.485 134.017 208.251 134.881 208.026C135.174 207.948 135.435 207.848 135.665 207.726C135.894 207.604 136.014 207.526 136.023 207.492C136.038 207.458 136.045 207.426 136.045 207.396V205.99C136.045 205.438 135.831 205.05 135.401 204.826C135.259 204.752 135.088 204.716 134.888 204.716C134.693 204.716 134.493 204.794 134.288 204.95C134.087 205.106 133.987 205.329 133.987 205.617L134.024 205.902C133.995 205.961 133.819 206.059 133.497 206.195C133.174 206.332 132.989 206.405 132.94 206.415C132.862 206.415 132.823 206.322 132.823 206.137C132.823 205.946 132.879 205.736 132.991 205.507C133.104 205.277 133.262 205.067 133.467 204.877C133.946 204.433 134.493 204.21 135.108 204.21C135.723 204.21 136.224 204.381 136.609 204.723C136.995 205.06 137.188 205.463 137.188 205.932V209.792ZM133.812 209.579C133.812 209.813 133.902 210.019 134.083 210.194C134.263 210.365 134.468 210.451 134.698 210.451C134.932 210.451 135.215 210.353 135.547 210.158C135.879 209.958 136.045 209.752 136.045 209.542V208.056C136.045 208.002 136.033 207.975 136.009 207.975C135.984 207.975 135.967 207.978 135.958 207.982L134.258 208.773C134.083 208.9 133.963 209.008 133.899 209.096C133.841 209.184 133.812 209.345 133.812 209.579ZM139.151 211C139.102 210.99 139.078 210.956 139.078 210.897C139.078 210.81 139.192 210.751 139.422 210.722C139.949 210.644 140.213 210.365 140.213 209.887V206.012C140.213 205.807 140.101 205.666 139.876 205.587C139.778 205.553 139.673 205.526 139.561 205.507C139.449 205.482 139.358 205.46 139.29 205.441C139.227 205.421 139.185 205.404 139.166 205.39C139.151 205.37 139.144 205.333 139.144 205.28C139.144 205.221 139.18 205.172 139.253 205.133L141.121 204.254C141.18 204.225 141.216 204.21 141.231 204.21C141.314 204.21 141.355 204.269 141.355 204.386V209.887C141.355 210.365 141.619 210.644 142.146 210.722C142.376 210.751 142.491 210.802 142.491 210.875C142.491 210.949 142.466 210.99 142.417 211H139.151ZM140.674 202.152C140.474 202.152 140.296 202.089 140.14 201.962C139.988 201.835 139.913 201.659 139.913 201.435C139.913 201.205 139.986 201.024 140.132 200.893C140.279 200.761 140.452 200.695 140.652 200.695C140.857 200.695 141.028 200.773 141.165 200.929C141.307 201.085 141.377 201.254 141.377 201.435C141.377 201.615 141.312 201.781 141.18 201.933C141.048 202.079 140.879 202.152 140.674 202.152ZM153.023 208.693L153.008 207.147C153.008 206.518 152.955 206.076 152.847 205.822C152.74 205.568 152.603 205.377 152.437 205.25C152.271 205.119 152.046 205.053 151.763 205.053C151.485 205.053 150.892 205.272 149.983 205.712C149.861 205.785 149.798 205.854 149.793 205.917V209.857C149.793 210.351 150.057 210.634 150.584 210.707C150.813 210.741 150.928 210.797 150.928 210.875C150.928 210.949 150.904 210.99 150.855 211H147.588C147.54 210.99 147.515 210.956 147.515 210.897C147.515 210.805 147.63 210.741 147.859 210.707C148.387 210.634 148.65 210.351 148.65 209.857V206.21C148.65 205.443 148.177 205.06 147.229 205.06C146.883 205.06 146.402 205.265 145.787 205.675C145.63 205.778 145.516 205.873 145.442 205.961V209.857C145.442 210.351 145.706 210.634 146.233 210.707C146.463 210.741 146.578 210.797 146.578 210.875C146.578 210.949 146.553 210.99 146.504 211H143.238C143.189 210.99 143.165 210.956 143.165 210.897C143.165 210.805 143.279 210.741 143.509 210.707C144.036 210.634 144.3 210.355 144.3 209.872V205.653C144.3 205.448 144.188 205.307 143.963 205.229C143.865 205.194 143.76 205.167 143.648 205.148C143.536 205.124 143.445 205.102 143.377 205.082C143.313 205.062 143.272 205.045 143.252 205.031C143.238 205.011 143.23 204.975 143.23 204.921C143.23 204.862 143.267 204.813 143.34 204.774L145.208 203.896C145.267 203.866 145.303 203.852 145.318 203.852C145.401 203.852 145.442 203.91 145.442 204.027V205.243C145.447 205.272 145.464 205.287 145.494 205.287C145.528 205.287 145.608 205.253 145.735 205.185C145.867 205.116 146.038 205.021 146.248 204.899C146.458 204.772 146.734 204.625 147.076 204.459C147.422 204.293 147.789 204.21 148.174 204.21C148.794 204.21 149.239 204.477 149.507 205.009C149.61 205.224 149.703 205.316 149.786 205.287C149.869 205.253 149.998 205.192 150.174 205.104C150.589 204.899 151.009 204.699 151.434 204.503C151.858 204.308 152.21 204.21 152.488 204.21C153.616 204.21 154.18 205.238 154.18 207.294L154.114 209.433V209.857C154.114 210.238 154.305 210.487 154.686 210.604C154.847 210.658 155 210.697 155.147 210.722C155.298 210.741 155.396 210.761 155.44 210.78C155.489 210.8 155.513 210.839 155.513 210.897C155.513 210.956 155.489 210.99 155.44 211H151.91C151.861 210.99 151.836 210.956 151.836 210.897C151.836 210.805 151.951 210.741 152.181 210.707C152.703 210.634 152.964 210.331 152.964 209.799C153.003 209.555 153.023 209.186 153.023 208.693ZM159.607 205.99C159.607 206.098 159.566 206.151 159.483 206.151C159.405 206.151 159.344 206.093 159.3 205.976C159.183 205.653 159.007 205.368 158.772 205.119C158.543 204.87 158.257 204.745 157.916 204.745C157.466 204.745 157.164 204.97 157.007 205.419C156.958 205.57 156.934 205.727 156.934 205.888C156.934 206.049 157.037 206.229 157.242 206.43C157.447 206.625 157.784 206.859 158.252 207.133C158.721 207.406 159.063 207.638 159.278 207.829C159.766 208.263 160.01 208.766 160.01 209.337C160.01 209.909 159.8 210.363 159.38 210.7C158.96 211.032 158.472 211.198 157.916 211.198C157.618 211.198 157.347 211.156 157.103 211.073C156.863 210.995 156.724 210.956 156.685 210.956C156.651 210.956 156.592 210.995 156.509 211.073C156.431 211.156 156.368 211.198 156.319 211.198H156.194C156.165 211.198 156.128 210.934 156.084 210.407C156.041 209.879 156.019 209.567 156.019 209.469C156.019 209.372 156.026 209.318 156.041 209.308C156.06 209.298 156.089 209.293 156.128 209.293C156.167 209.293 156.199 209.306 156.224 209.33C156.253 209.354 156.277 209.386 156.297 209.425C156.316 209.459 156.331 209.496 156.341 209.535C156.355 209.574 156.387 209.647 156.436 209.755C156.768 210.463 157.281 210.817 157.974 210.817C158.282 210.817 158.528 210.705 158.714 210.48C158.899 210.25 158.992 209.997 158.992 209.718C158.992 209.44 158.919 209.206 158.772 209.015C158.626 208.825 158.443 208.651 158.223 208.495C158.008 208.339 157.774 208.188 157.52 208.041C156.534 207.465 156.041 206.828 156.041 206.129C156.041 205.607 156.265 205.158 156.714 204.782C157.164 204.401 157.625 204.21 158.099 204.21C158.572 204.21 158.921 204.262 159.146 204.364C159.375 204.467 159.51 204.555 159.549 204.628C159.588 204.696 159.607 204.926 159.607 205.316V205.99Z" fill="black"/>
<path d="M49.8613 77.6743C49.8613 78.3335 50.3179 78.6777 51.231 78.707C51.27 78.707 51.2896 78.7266 51.2896 78.7656V78.9414C51.2896 78.9805 51.27 79 51.231 79H46.5728C46.5337 79 46.5142 78.9805 46.5142 78.9414V78.7656C46.5142 78.7266 46.6362 78.707 46.8804 78.707C47.1245 78.707 47.4028 78.6533 47.7153 78.5459C48.1938 78.3896 48.4331 78.126 48.4331 77.7549V74.2612C48.4331 74.2124 48.4258 74.1807 48.4111 74.166C48.3965 74.1514 48.3647 74.144 48.3159 74.144H42.5444C42.4956 74.144 42.4639 74.1514 42.4492 74.166C42.4346 74.1807 42.4272 74.2124 42.4272 74.2612V77.8281C42.4272 78.4141 42.8594 78.707 43.7236 78.707C43.7627 78.707 43.7822 78.7266 43.7822 78.7656V78.9414C43.7822 78.9805 43.7651 79 43.731 79H39.688C39.6489 79 39.6294 78.9805 39.6294 78.9414V78.7656C39.6294 78.7266 39.6782 78.707 39.7759 78.707C40.5913 78.707 40.999 78.3579 40.999 77.6597V69.8447C40.999 69.2734 40.6597 68.9707 39.981 68.9365C39.8784 68.9316 39.8271 68.9097 39.8271 68.8706V68.7314C39.8271 68.6924 39.8442 68.6729 39.8784 68.6729H43.5552C43.5942 68.6729 43.6138 68.6924 43.6138 68.7314V68.8706C43.6138 68.8999 43.5674 68.9146 43.4746 68.9146C42.7764 68.9146 42.4272 69.2588 42.4272 69.9473V73.3311C42.4272 73.3799 42.4346 73.4116 42.4492 73.4263C42.4639 73.4409 42.4956 73.4482 42.5444 73.4482H48.3159C48.3647 73.4482 48.3965 73.4409 48.4111 73.4263C48.4258 73.4116 48.4331 73.3799 48.4331 73.3311V69.8301C48.4233 69.7861 48.416 69.7471 48.4111 69.7129C48.4111 69.6738 48.4038 69.6152 48.3892 69.5371C48.355 69.3711 48.1816 69.2368 47.8691 69.1343C47.5566 69.0269 47.2026 68.9585 46.8071 68.9292C46.7681 68.9292 46.7485 68.9097 46.7485 68.8706V68.7314C46.7485 68.6924 46.7656 68.6729 46.7998 68.6729H51.0259C51.0649 68.6729 51.0845 68.6924 51.0845 68.7314V68.8706C51.0845 68.8999 51.0381 68.9146 50.9453 68.9146C50.2227 68.9146 49.8613 69.2588 49.8613 69.9473V77.6743ZM52.2783 75.7114C52.2783 74.7495 52.6177 73.9243 53.2964 73.2358C53.98 72.5425 54.7979 72.1958 55.75 72.1958C56.7021 72.1958 57.5298 72.5327 58.2329 73.2065C58.936 73.8755 59.2876 74.7031 59.2876 75.6895C59.2876 76.6758 58.9531 77.5083 58.2842 78.187C57.6201 78.8608 56.7852 79.1978 55.7793 79.1978C54.7734 79.1978 53.9385 78.856 53.2744 78.1724C52.6104 77.4888 52.2783 76.6685 52.2783 75.7114ZM54.1021 77.5938C54.5806 78.3994 55.2324 78.8022 56.0576 78.8022C56.6973 78.8022 57.1855 78.5459 57.5225 78.0332C57.8643 77.5205 58.0352 76.8906 58.0352 76.1436C58.0352 75.3965 57.7959 74.6299 57.3174 73.8438C56.8438 73.0576 56.2041 72.6646 55.3984 72.6646C54.8076 72.6646 54.3413 72.9209 53.9995 73.4336C53.6626 73.9414 53.4941 74.5884 53.4941 75.3745C53.4941 76.1558 53.6968 76.8955 54.1021 77.5938ZM63.0596 78.7217C63.2891 78.751 63.4038 78.8096 63.4038 78.8975C63.4038 78.9561 63.3794 78.9902 63.3306 79H60.064C60.0151 78.9902 59.9907 78.9561 59.9907 78.8975C59.9907 78.8096 60.1055 78.751 60.335 78.7217C60.8623 78.6436 61.126 78.3652 61.126 77.8867V68.7534C61.126 68.5483 61.0137 68.4067 60.7891 68.3286C60.6914 68.2944 60.5864 68.2676 60.4741 68.248C60.3618 68.2236 60.2715 68.2017 60.2031 68.1821C60.1396 68.1626 60.0981 68.1455 60.0786 68.1309C60.064 68.1113 60.0566 68.0747 60.0566 68.021C60.0566 67.9624 60.0933 67.9136 60.1665 67.8745L62.0342 66.9956C62.0928 66.9663 62.1294 66.9517 62.144 66.9517C62.2271 66.9517 62.2686 67.0103 62.2686 67.1274V77.8867C62.2686 78.3652 62.5322 78.6436 63.0596 78.7217ZM64.1802 79C64.1313 78.9902 64.1069 78.9561 64.1069 78.8975C64.1069 78.8096 64.2217 78.751 64.4512 78.7217C64.9785 78.6436 65.2422 78.3652 65.2422 77.8867V74.0122C65.2422 73.8071 65.1299 73.6655 64.9053 73.5874C64.8076 73.5532 64.7026 73.5264 64.5903 73.5068C64.478 73.4824 64.3877 73.4604 64.3193 73.4409C64.2559 73.4214 64.2144 73.4043 64.1948 73.3896C64.1802 73.3701 64.1729 73.3335 64.1729 73.2798C64.1729 73.2212 64.2095 73.1724 64.2827 73.1333L66.1504 72.2544C66.209 72.2251 66.2456 72.2104 66.2603 72.2104C66.3433 72.2104 66.3848 72.269 66.3848 72.3862V77.8867C66.3848 78.3652 66.6484 78.6436 67.1758 78.7217C67.4053 78.751 67.52 78.8022 67.52 78.8755C67.52 78.9487 67.4956 78.9902 67.4468 79H64.1802ZM65.7036 70.1523C65.5034 70.1523 65.3252 70.0889 65.1689 69.9619C65.0176 69.835 64.9419 69.6592 64.9419 69.4346C64.9419 69.2051 65.0151 69.0244 65.1616 68.8926C65.3081 68.7607 65.4814 68.6948 65.6816 68.6948C65.8867 68.6948 66.0576 68.7729 66.1943 68.9292C66.3359 69.0854 66.4067 69.2539 66.4067 69.4346C66.4067 69.6152 66.3408 69.7812 66.209 69.9326C66.0771 70.0791 65.9087 70.1523 65.7036 70.1523ZM72.918 72.5181C73.1328 72.5913 73.2646 72.6279 73.3135 72.6279C73.3623 72.6279 73.3916 72.6279 73.4014 72.6279C73.416 72.623 73.4331 72.5913 73.4526 72.5327V68.7534C73.4526 68.5483 73.3403 68.4067 73.1157 68.3286C73.0181 68.2944 72.9131 68.2676 72.8008 68.248C72.6885 68.2236 72.5981 68.2017 72.5298 68.1821C72.4663 68.1626 72.4248 68.1455 72.4053 68.1309C72.3906 68.1113 72.3833 68.0747 72.3833 68.021C72.3833 67.9624 72.4199 67.9136 72.4932 67.8745L74.3608 66.9956C74.4194 66.9663 74.4561 66.9517 74.4707 66.9517C74.5537 66.9517 74.5952 67.0103 74.5952 67.1274V77.5571C74.6196 77.772 74.6807 77.9258 74.7783 78.0186C74.876 78.1113 75.0347 78.1577 75.2544 78.1577L75.6792 78.1284C75.7085 78.1284 75.7231 78.1577 75.7231 78.2163C75.7231 78.27 75.6865 78.314 75.6133 78.3481L73.665 79.1538C73.6064 79.1831 73.5552 79.1978 73.5112 79.1978C73.4722 79.1978 73.4526 79.1367 73.4526 79.0146V78.3481C73.4526 78.2993 73.4404 78.2749 73.416 78.2749C73.3818 78.2749 73.1792 78.3848 72.8081 78.6045C71.6704 79.2783 70.7109 79.3784 69.9297 78.9048C69.3047 78.5239 68.8823 77.9209 68.6626 77.0957C68.5601 76.71 68.5088 76.3022 68.5088 75.8726C68.5088 75.438 68.5967 75.0083 68.7725 74.5835C68.9531 74.1538 69.1997 73.7778 69.5122 73.4556C70.2007 72.7524 71.0308 72.4009 72.0024 72.4009C72.3979 72.4009 72.7031 72.4399 72.918 72.5181ZM69.6147 75.6602C69.6147 76.3975 69.8198 77.0444 70.23 77.6011C70.6401 78.1528 71.2114 78.4287 71.9438 78.4287C72.2661 78.4287 72.5981 78.3506 72.9399 78.1943C73.2817 78.0332 73.4526 77.9111 73.4526 77.8281V74.0488C73.4526 73.9561 73.3892 73.8462 73.2622 73.7192C72.8716 73.1821 72.3516 72.9136 71.7021 72.9136C71.0576 72.9136 70.5474 73.187 70.1714 73.7339C69.8003 74.2759 69.6147 74.918 69.6147 75.6602ZM80.9087 77.7915C80.9087 77.9185 80.9673 78.021 81.0845 78.0991C81.2065 78.1724 81.3457 78.209 81.502 78.209C81.6582 78.209 81.7876 78.1699 81.8901 78.0918C81.9976 78.0088 82.0708 77.9673 82.1099 77.9673C82.1489 77.9673 82.1685 78.021 82.1685 78.1284C82.1685 78.231 82.1196 78.3188 82.022 78.3921C81.2896 78.9292 80.7939 79.1978 80.5352 79.1978C80.2227 79.1978 79.9688 78.873 79.7734 78.2236C79.7588 78.1748 79.7466 78.1528 79.7368 78.1577C79.1313 78.6118 78.7505 78.8853 78.5942 78.978C78.1938 79.2075 77.791 79.2441 77.3857 79.0879C76.9854 78.9316 76.6948 78.6729 76.5142 78.3115C76.4263 78.126 76.3823 77.9282 76.3823 77.7183C76.3823 77.3032 76.5361 76.9736 76.8438 76.7295C77.1514 76.4854 77.7373 76.251 78.6016 76.0264C78.8945 75.9482 79.1558 75.8481 79.3853 75.7261C79.6147 75.604 79.7344 75.5259 79.7441 75.4917C79.7588 75.4575 79.7661 75.4258 79.7661 75.3965V73.9902C79.7661 73.4385 79.5513 73.0503 79.1216 72.8257C78.98 72.7524 78.8091 72.7158 78.6089 72.7158C78.4136 72.7158 78.2134 72.7939 78.0083 72.9502C77.8081 73.1064 77.708 73.3286 77.708 73.6167L77.7446 73.9023C77.7153 73.9609 77.5396 74.0586 77.2173 74.1953C76.895 74.332 76.7095 74.4053 76.6606 74.415C76.5825 74.415 76.5435 74.3223 76.5435 74.1367C76.5435 73.9463 76.5996 73.7363 76.7119 73.5068C76.8242 73.2773 76.9829 73.0674 77.188 72.877C77.6665 72.4326 78.2134 72.2104 78.8286 72.2104C79.4438 72.2104 79.9443 72.3813 80.3301 72.7231C80.7158 73.0601 80.9087 73.4629 80.9087 73.9316V77.7915ZM77.5322 77.5791C77.5322 77.8135 77.6226 78.0186 77.8032 78.1943C77.9839 78.3652 78.189 78.4507 78.4185 78.4507C78.6528 78.4507 78.936 78.353 79.2681 78.1577C79.6001 77.9575 79.7661 77.7524 79.7661 77.5425V76.0557C79.7661 76.002 79.7539 75.9751 79.7295 75.9751C79.7051 75.9751 79.688 75.9775 79.6782 75.9824L77.979 76.7734C77.8032 76.9004 77.6836 77.0078 77.6201 77.0957C77.5615 77.1836 77.5322 77.3447 77.5322 77.5791ZM90.02 72.4082C90.0737 72.4229 90.1006 72.457 90.1006 72.5107C90.1006 72.5645 90.0957 72.6011 90.0859 72.6206C90.0762 72.6353 90.0518 72.6499 90.0127 72.6646C89.9785 72.6743 89.9272 72.6841 89.8589 72.6938C89.7954 72.7036 89.6929 72.7231 89.5513 72.7524C89.4097 72.7769 89.2827 72.8745 89.1704 73.0454C89.0581 73.2163 88.9385 73.4531 88.8115 73.7559L85.3691 82.2886L84.8931 83.2993C84.771 83.5581 84.5146 83.6875 84.124 83.6875C83.9531 83.6875 83.8164 83.6313 83.7139 83.519C83.6113 83.4067 83.5601 83.2725 83.5601 83.1162C83.5601 82.9648 83.5967 82.8525 83.6699 82.7793C83.748 82.7109 83.8384 82.6548 83.9409 82.6108C84.0435 82.5669 84.1484 82.5254 84.2559 82.4863C84.3682 82.4521 84.4927 82.3691 84.6294 82.2373C84.7661 82.1104 84.8467 82.0151 84.8711 81.9517C85.6914 80.1157 86.1016 79.1562 86.1016 79.0732C86.1016 78.9902 86.0527 78.8877 85.9551 78.7656L83.5381 73.7192C83.3574 73.2261 83.0474 72.9087 82.6079 72.7671C82.5737 72.7573 82.5322 72.75 82.4834 72.7451C82.2783 72.7256 82.1758 72.6646 82.1758 72.562C82.1758 72.4595 82.2344 72.4082 82.3516 72.4082H85.6108C85.6499 72.4082 85.6694 72.4473 85.6694 72.5254C85.6694 72.5986 85.6353 72.6499 85.5669 72.6792C85.4985 72.7036 85.3472 72.7158 85.1128 72.7158C84.7368 72.7158 84.5488 72.8623 84.5488 73.1553L84.6147 73.3311L86.5117 77.396C86.6094 77.645 86.707 77.6377 86.8047 77.374C86.8145 77.3496 86.8755 77.1909 86.9878 76.8979C87.6519 75.2134 88.0229 74.2393 88.1011 73.9756C88.1841 73.7119 88.2256 73.5142 88.2256 73.3823C88.2256 73.2505 88.1548 73.1113 88.0132 72.9648C87.8765 72.8184 87.686 72.7451 87.4419 72.7451C87.2026 72.7451 87.083 72.6743 87.083 72.5327C87.083 72.4497 87.1367 72.4082 87.2441 72.4082H90.02ZM103.702 78.3701C103.277 78.6289 102.813 78.8315 102.31 78.978C101.807 79.1245 101.36 79.1978 100.97 79.1978C100.169 79.1978 99.4048 79.0684 98.6772 78.8096C97.6812 78.4482 96.8804 77.9136 96.2749 77.2056C95.5034 76.3022 95.1177 75.1572 95.1177 73.7705C95.1177 72.7695 95.374 71.8589 95.8867 71.0386C96.3994 70.2134 97.1074 69.5615 98.0107 69.083C98.9189 68.6045 99.8931 68.3652 100.933 68.3652C101.978 68.3652 102.913 68.5972 103.738 69.061C104.563 69.5249 105.225 70.1621 105.723 70.9727C106.221 71.7832 106.47 72.6621 106.47 73.6094C106.47 74.5518 106.224 75.4502 105.73 76.3047C105.237 77.1543 104.561 77.8428 103.702 78.3701ZM96.6558 73.5361C96.6558 74.3467 96.834 75.1523 97.1904 75.9531C97.5518 76.749 98.0669 77.3984 98.7358 77.9014C99.4048 78.4043 100.179 78.6558 101.058 78.6558C102.308 78.6558 103.282 78.1772 103.98 77.2202C104.61 76.356 104.925 75.2524 104.925 73.9097C104.925 72.5669 104.539 71.4097 103.768 70.438C103.392 69.9644 102.93 69.5859 102.383 69.3027C101.841 69.0146 101.292 68.8706 100.735 68.8706C100.184 68.8706 99.7295 68.9316 99.373 69.0537C99.0215 69.1758 98.7017 69.3442 98.4136 69.5591C98.1255 69.769 97.8716 70.0205 97.6519 70.3135C97.4321 70.6064 97.249 70.9238 97.1025 71.2656C96.8047 71.9688 96.6558 72.7256 96.6558 73.5361ZM111.795 78.8828C111.795 78.9609 111.751 79 111.663 79H107.642C107.593 78.9902 107.569 78.9561 107.569 78.8975C107.569 78.8096 107.684 78.751 107.913 78.7217C108.44 78.6436 108.704 78.3652 108.704 77.8867V73.4482C108.704 73.3945 108.675 73.3677 108.616 73.3677H107.818C107.759 73.3677 107.703 73.3506 107.649 73.3164C107.596 73.2773 107.569 73.2285 107.569 73.1699C107.569 73.1064 107.598 73.0576 107.657 73.0234C107.74 72.9746 107.935 72.9087 108.243 72.8257C108.55 72.7427 108.704 72.606 108.704 72.4155C108.763 70.0327 109.512 68.4775 110.953 67.75C111.597 67.4277 112.168 67.2666 112.667 67.2666C112.876 67.2666 113.108 67.3203 113.362 67.4277C113.88 67.6377 114.19 67.8647 114.292 68.1089C114.6 67.7427 114.932 67.4692 115.289 67.2886C116.001 66.9321 116.531 66.7539 116.878 66.7539C117.225 66.7539 117.571 66.8223 117.918 66.959C118.265 67.0908 118.438 67.252 118.438 67.4424C118.438 67.4814 118.431 67.5156 118.416 67.5449C118.406 67.5742 118.394 67.6108 118.379 67.6548L118.079 68.2993C118.04 68.3774 117.994 68.4165 117.94 68.4165C117.925 68.4165 117.82 68.3408 117.625 68.1895C117.43 68.0332 117.222 67.8916 117.002 67.7646C116.788 67.6328 116.534 67.5669 116.241 67.5669C115.669 67.5669 115.237 67.7134 114.944 68.0063C114.651 68.2993 114.468 68.6313 114.395 69.0024C114.322 69.3687 114.285 69.7739 114.285 70.2183V72.3496C114.285 72.3887 114.31 72.4082 114.358 72.4082H115.787C115.923 72.4082 116.011 72.4229 116.05 72.4521C116.094 72.4766 116.136 72.5645 116.175 72.7158C116.214 72.8623 116.233 72.999 116.233 73.126C116.233 73.248 116.221 73.3188 116.197 73.3384C116.172 73.3579 116.121 73.3677 116.043 73.3677H114.38C114.317 73.3677 114.285 73.3921 114.285 73.4409V77.7402C114.285 78.4385 114.891 78.7876 116.102 78.7876C116.189 78.7974 116.233 78.8291 116.233 78.8828C116.233 78.9609 116.189 79 116.102 79H112.081C112.032 78.9902 112.007 78.9561 112.007 78.8975C112.007 78.8096 112.122 78.751 112.352 78.7217C112.879 78.6436 113.143 78.3652 113.143 77.8867V73.4482C113.143 73.3945 113.113 73.3677 113.055 73.3677H109.942C109.878 73.3677 109.847 73.3921 109.847 73.4409V77.7402C109.847 78.4385 110.452 78.7876 111.663 78.7876C111.751 78.7974 111.795 78.8291 111.795 78.8828ZM109.847 72.3496C109.847 72.3887 109.871 72.4082 109.92 72.4082H113.143V72.1738C113.143 70.9434 113.323 69.9204 113.685 69.105C113.426 68.8462 113.128 68.6118 112.791 68.4019C112.454 68.187 112.129 68.0796 111.817 68.0796C111.236 68.0796 110.799 68.2261 110.506 68.519C110.213 68.812 110.03 69.144 109.957 69.5151C109.883 69.8813 109.847 70.2866 109.847 70.731V72.3496ZM117.977 75.1401C117.894 75.1401 117.852 75.3184 117.852 75.6748C117.852 76.4316 118.077 77.0664 118.526 77.5791C118.975 78.0918 119.532 78.3481 120.196 78.3481C120.865 78.3481 121.507 78.0601 122.122 77.4839C122.132 77.4741 122.144 77.4692 122.159 77.4692H122.195C122.225 77.4692 122.251 77.4937 122.276 77.5425C122.305 77.5864 122.332 77.6157 122.356 77.6304C121.79 78.3188 121.124 78.7949 120.357 79.0586C120.093 79.1514 119.795 79.1978 119.463 79.1978C119.131 79.1978 118.794 79.1074 118.453 78.9268C118.111 78.7412 117.818 78.4995 117.574 78.2017C117.056 77.5815 116.797 76.8101 116.797 75.8872C116.797 74.9595 117.078 74.1147 117.64 73.353C118.206 72.5913 118.982 72.2104 119.969 72.2104C120.677 72.2104 121.255 72.5278 121.705 73.1626C122.154 73.7925 122.378 74.3467 122.378 74.8252C122.378 75.0352 122.327 75.1401 122.225 75.1401H117.977ZM118.057 74.437C118.057 74.5298 118.101 74.5762 118.189 74.5762H120.95C121.077 74.5762 121.141 74.5005 121.141 74.3491C121.141 73.9976 120.982 73.6387 120.665 73.2725C120.352 72.9014 120.008 72.7158 119.632 72.7158C119.266 72.7158 118.931 72.8818 118.628 73.2139C118.331 73.5459 118.14 73.9243 118.057 74.3491V74.437ZM128.062 73.7485C128.003 73.7388 127.918 73.707 127.806 73.6533C127.4 73.4678 127.083 73.375 126.854 73.375C126.624 73.375 126.382 73.519 126.128 73.8071C125.879 74.0903 125.755 74.3467 125.755 74.5762V77.8867C125.755 78.2529 125.967 78.4971 126.392 78.6191C126.578 78.668 126.751 78.7046 126.912 78.729C127.073 78.7485 127.176 78.7681 127.22 78.7876C127.269 78.8071 127.293 78.8462 127.293 78.9048C127.293 78.9585 127.269 78.9902 127.22 79H123.55C123.501 78.9902 123.477 78.9561 123.477 78.8975C123.477 78.8096 123.592 78.751 123.821 78.7217C124.349 78.6436 124.612 78.3652 124.612 77.8867V74.0122C124.612 73.8071 124.5 73.6655 124.275 73.5874C124.178 73.5532 124.073 73.5264 123.96 73.5068C123.848 73.4824 123.758 73.4604 123.689 73.4409C123.626 73.4214 123.584 73.4043 123.565 73.3896C123.55 73.3701 123.543 73.3335 123.543 73.2798C123.543 73.2212 123.58 73.1724 123.653 73.1333L125.521 72.2544C125.579 72.2251 125.616 72.2104 125.63 72.2104C125.713 72.2104 125.755 72.269 125.755 72.3862V73.5728C125.755 73.6313 125.77 73.6606 125.799 73.6606C125.838 73.6606 125.938 73.5459 126.099 73.3164C126.563 72.667 126.946 72.3423 127.249 72.3423C127.42 72.3423 127.681 72.4106 128.033 72.5474C128.389 72.6841 128.567 72.7988 128.567 72.8916C128.567 73.0039 128.511 73.1748 128.399 73.4043C128.287 73.6338 128.174 73.7485 128.062 73.7485ZM132.64 73.9902C132.64 74.0977 132.598 74.1514 132.515 74.1514C132.437 74.1514 132.376 74.0928 132.332 73.9756C132.215 73.6533 132.039 73.3677 131.805 73.1187C131.575 72.8696 131.29 72.7451 130.948 72.7451C130.499 72.7451 130.196 72.9697 130.04 73.4189C129.991 73.5703 129.966 73.7266 129.966 73.8877C129.966 74.0488 130.069 74.2295 130.274 74.4297C130.479 74.625 130.816 74.8594 131.285 75.1328C131.753 75.4062 132.095 75.6382 132.31 75.8286C132.798 76.2632 133.042 76.7661 133.042 77.3374C133.042 77.9087 132.833 78.3628 132.413 78.6997C131.993 79.0317 131.504 79.1978 130.948 79.1978C130.65 79.1978 130.379 79.1562 130.135 79.0732C129.896 78.9951 129.756 78.9561 129.717 78.9561C129.683 78.9561 129.625 78.9951 129.542 79.0732C129.463 79.1562 129.4 79.1978 129.351 79.1978H129.227C129.197 79.1978 129.161 78.9341 129.117 78.4067C129.073 77.8794 129.051 77.5669 129.051 77.4692C129.051 77.3716 129.058 77.3179 129.073 77.3081C129.092 77.2983 129.122 77.2935 129.161 77.2935C129.2 77.2935 129.231 77.3057 129.256 77.3301C129.285 77.3545 129.31 77.3862 129.329 77.4253C129.349 77.4595 129.363 77.4961 129.373 77.5352C129.388 77.5742 129.419 77.6475 129.468 77.7549C129.8 78.4629 130.313 78.8169 131.006 78.8169C131.314 78.8169 131.561 78.7046 131.746 78.48C131.932 78.2505 132.024 77.9966 132.024 77.7183C132.024 77.4399 131.951 77.2056 131.805 77.0151C131.658 76.8247 131.475 76.6514 131.255 76.4951C131.041 76.3389 130.806 76.1875 130.552 76.041C129.566 75.4648 129.073 74.8276 129.073 74.1294C129.073 73.6069 129.297 73.1577 129.747 72.7817C130.196 72.4009 130.657 72.2104 131.131 72.2104C131.604 72.2104 131.954 72.2617 132.178 72.3643C132.408 72.4668 132.542 72.5547 132.581 72.6279C132.62 72.6963 132.64 72.9258 132.64 73.3164V73.9902ZM143.912 73.0747C144.566 73.0747 144.893 72.7549 144.893 72.1152C144.893 72.0762 144.913 72.0566 144.952 72.0566H145.127C145.167 72.0566 145.186 72.0762 145.186 72.1152V74.8398C145.186 74.8789 145.167 74.8984 145.127 74.8984H144.952C144.913 74.8984 144.893 74.8789 144.893 74.8398C144.893 74.3906 144.766 74.0806 144.512 73.9097C144.375 73.8169 144.18 73.7705 143.926 73.7705H141.041C140.923 73.7705 140.865 73.8364 140.865 73.9683V77.7329C140.865 78.0649 141.062 78.3115 141.458 78.4727C141.858 78.6289 142.11 78.707 142.212 78.707C142.32 78.707 142.374 78.7266 142.374 78.7656V78.9414C142.374 78.9805 142.354 79 142.315 79H138.316C138.277 79 138.257 78.9805 138.257 78.9414V78.7656C138.257 78.7266 138.299 78.707 138.382 78.707C138.465 78.707 138.594 78.668 138.77 78.5898C138.946 78.5117 139.1 78.397 139.231 78.2456C139.368 78.0894 139.437 77.9014 139.437 77.6816V69.7715C139.437 69.4541 139.268 69.2271 138.931 69.0903C138.736 69.0073 138.543 68.9658 138.353 68.9658H138.323C138.284 68.9658 138.265 68.9463 138.265 68.9072V68.7314C138.265 68.6924 138.284 68.6729 138.323 68.6729H145.23C145.289 68.6826 145.333 68.6973 145.362 68.7168C145.391 68.7314 145.406 68.7729 145.406 68.8413V70.6138C145.406 70.6724 145.396 70.709 145.376 70.7236C145.362 70.7383 145.333 70.7456 145.289 70.7456H145.201C145.191 70.7407 145.157 70.6089 145.098 70.3501C145.044 70.0864 144.959 69.8838 144.842 69.7422C144.642 69.5273 144.415 69.4077 144.161 69.3833C144.058 69.3735 143.934 69.3687 143.787 69.3687H141.011C140.914 69.3687 140.865 69.4175 140.865 69.5151V72.9062C140.865 73.0186 140.923 73.0747 141.041 73.0747H143.912ZM150.079 78.9414C150.079 78.9805 150.059 79 150.02 79H146.277C146.238 79 146.219 78.9805 146.219 78.9414V78.7656C146.219 78.7266 146.25 78.707 146.314 78.707C146.983 78.6777 147.435 78.3213 147.669 77.6377L150.657 68.9878C150.662 68.978 150.665 68.9658 150.665 68.9512L150.584 68.7095C150.584 68.6851 150.594 68.6729 150.613 68.6729H152.078C152.088 68.6777 152.1 68.6826 152.115 68.6875C152.134 68.6924 152.149 68.707 152.159 68.7314L155.257 77.4253C155.325 77.5571 155.379 77.6768 155.418 77.7842C155.462 77.8916 155.511 77.9893 155.564 78.0771C155.682 78.2773 155.875 78.4312 156.143 78.5386C156.368 78.6509 156.573 78.707 156.758 78.707C156.797 78.707 156.817 78.729 156.817 78.7729V78.9414C156.817 78.9805 156.797 79 156.758 79H152.276C152.237 79 152.217 78.9805 152.217 78.9414V78.7656C152.217 78.7266 152.308 78.7021 152.488 78.6924C152.669 78.6826 152.818 78.6729 152.935 78.6631C153.614 78.5898 153.953 78.3604 153.953 77.9746C153.953 77.9453 153.948 77.9111 153.938 77.8721L152.833 74.752C152.828 74.7422 152.818 74.7202 152.803 74.686C152.745 74.52 152.642 74.437 152.496 74.437H149.896C149.749 74.437 149.634 74.5176 149.551 74.6787C149.537 74.7129 149.529 74.7324 149.529 74.7373L148.431 77.9526V78.0186C148.431 78.1455 148.497 78.2603 148.628 78.3628C148.926 78.5923 149.327 78.707 149.83 78.707H150.02C150.059 78.707 150.079 78.7266 150.079 78.7656V78.9414ZM152.247 73.624C152.334 73.624 152.378 73.5874 152.378 73.5142C152.378 73.4751 152.369 73.4312 152.349 73.3823L151.258 70.3794C151.209 70.2476 151.172 70.1816 151.148 70.1816C151.124 70.1816 151.084 70.25 151.031 70.3867L150.005 73.3823C149.986 73.4312 149.976 73.4849 149.976 73.5435C149.976 73.5972 150.013 73.624 150.086 73.624H152.247ZM162.837 79.1611C162.066 79.0928 161.355 78.895 160.706 78.5679C160.057 78.2358 159.512 77.8379 159.073 77.374C158.135 76.3828 157.667 75.1987 157.667 73.8218C157.667 72.2349 158.208 70.9312 159.292 69.9106C160.381 68.8901 161.736 68.3799 163.357 68.3799C164.979 68.3799 166.321 68.8828 167.386 69.8887C168.455 70.8945 168.99 72.1812 168.99 73.7485C168.99 75.6138 168.04 77.1763 166.141 78.436C166.097 78.4653 165.909 78.5605 165.577 78.7217C165.25 78.8828 165.086 78.9756 165.086 79C165.086 79.0195 165.237 79.1318 165.54 79.3369C165.848 79.5469 166.497 80.0522 167.488 80.853C168.084 81.3315 168.545 81.6025 168.873 81.666C169.2 81.7344 169.363 81.8003 169.363 81.8638C169.363 81.9858 169.285 82.0615 169.129 82.0908C168.973 82.1201 168.736 82.1348 168.418 82.1348C167.867 82.1348 167.256 81.9541 166.587 81.5928C165.411 80.8164 164.62 80.2354 164.214 79.8496C163.809 79.4639 163.453 79.2466 163.145 79.1978C163.052 79.1831 162.95 79.1709 162.837 79.1611ZM160.252 70.2549C159.91 70.6748 159.646 71.168 159.461 71.7344C159.28 72.2959 159.192 72.8428 159.197 73.375C159.207 74.3369 159.4 75.2158 159.776 76.0117C160.152 76.8027 160.677 77.4424 161.351 77.9307C162.029 78.4141 162.813 78.6558 163.702 78.6558C164.791 78.6558 165.696 78.231 166.419 77.3813C167.142 76.5269 167.503 75.4087 167.503 74.0269C167.503 72.645 167.149 71.4854 166.441 70.5479C165.655 69.5127 164.556 68.9536 163.145 68.8706C161.963 68.8706 160.999 69.332 160.252 70.2549Z" fill="black"/>
</svg>
